<?xml version="1.0" encoding="UTF-8"?>
<svg width="24px" height="24px" viewBox="0 0 24 24" version="1.1" xmlns="http://www.w3.org/2000/svg" xmlns:xlink="http://www.w3.org/1999/xlink">
    <title>foundation / icon / 24px / Mic - fill</title>
    <g id="foundation-/-icon-/-24px-/-Mic---fill" stroke="none" stroke-width="1" fill="none" fill-rule="evenodd">
        <polygon id="24pt-Bounding-Box" opacity="0" fill-rule="nonzero" points="0 0 24 0 24 24 0 24"></polygon>
        <path d="M17.9999998,10 C18.552285,10 18.9999998,10.447715 18.9999998,11 L18.9999998,11 L18.9955979,11.2416684 C18.8766133,14.612315 16.360908,17.4348983 12.9999998,17.9200012 L12.9999998,17.9200012 L12.9999998,20 L15.1099997,20 L15.1099997,20 L15.2216393,20.0069344 C15.6604775,20.0618535 15.9999998,20.4362784 15.9999998,20.8900012 L15.9999998,20.8900012 L15.9999998,21.1100012 L15.9999998,21.1100012 L15.9930654,21.2216408 C15.9381465,21.6604788 15.5637225,22 15.1099997,22 L15.1099997,22 L8.88999974,22 C8.39846574,22 7.99999978,21.6015342 7.99999978,21.1100012 L7.99999978,21.1100012 L7.99999978,20.8900013 L7.99999978,20.8900013 L8.00693415,20.7783617 C8.06185308,20.3395233 8.43627697,20 8.88999974,20 L8.88999974,20 L10.9998098,20 L10.9998098,17.9199713 C7.55889978,17.4232313 5.0039806,14.4763913 4.99999978,10.9998113 L4.99999978,10.9998113 L5.00672751,10.8833788 C5.06449262,10.38604 5.48716391,10 5.99999978,10 C6.552285,10 6.99999978,10.447715 6.99999978,11 L6.99999978,11 L7.0046193,11.2168893 C7.11818187,13.8776897 9.31124894,16 11.9999998,16 C14.76142,16 16.9999998,13.76142 16.9999998,11 L16.9999998,11 L17.0067275,10.8833788 C17.0644926,10.38604 17.4871639,10 17.9999998,10 Z M11.9999998,2 C14.2091398,2 15.9999998,3.79086 15.9999998,6 L15.9999998,6 L15.9999998,11 C15.9999998,13.20914 14.2091398,15 11.9999998,15 L11.9999998,15 L11.8003594,14.9951047 C9.68396735,14.891079 7.99999983,13.1421969 7.99999983,11 L7.99999983,11 L7.99999983,6 C7.99999983,3.79086 9.79085983,2 11.9999998,2 Z" id="Fill" fill="#FFFFFF"></path>
    </g>
</svg>