<?xml version="1.0" encoding="UTF-8"?>
<svg width="24px" height="24px" viewBox="0 0 24 24" version="1.1" xmlns="http://www.w3.org/2000/svg" xmlns:xlink="http://www.w3.org/1999/xlink">
    <title>foundation / icon / 24px / Question Mark</title>
    <g id="foundation-/-icon-/-24px-/-Question-Mark" stroke="none" stroke-width="1" fill="none" fill-rule="evenodd">
        <polygon id="24pt-Bounding-Box" opacity="0" fill-rule="nonzero" points="0 0 24 0 24 24 0 24"></polygon>
        <path d="M12.7071,18.2929 C13.097624,18.683424 13.097624,19.31659 12.7071,19.70711 C12.316576,20.097634 11.68341,20.097634 11.29289,19.70711 C10.902366,19.316586 10.902366,18.68342 11.29289,18.2929 C11.683414,17.902376 12.31658,17.902376 12.7071,18.2929 Z M12,4 C14.76142,4 17,6.23858 17,9 L17,9 L16.9948591,9.22890288 C16.8919167,11.506858 15.2532227,13.440063 13,13.9000007 L13,13.9000007 L13,15 C13,15.5522858 12.552285,16 12,16 C11.447715,16 11,15.5522858 11,15 L11,15 L11,13 L11,13 L11.0067277,12.8833789 C11.0644928,12.3860405 11.4871639,12 12,12 L12,12 L12.1762724,11.9949073 C13.7510761,11.9036606 15,10.5976774 15,9 C15,7.3431506 13.65685,6 12,6 C10.34315,6 9,7.3431506 9,9 L9,9 L8.99327227,9.1166212 C8.93550719,9.61396016 8.51283607,10 8,10 C7.447715,10 7,9.55228515 7,9 L7,9 L7.00461952,8.78311066 C7.11818208,6.12231026 9.31124895,4 12,4 Z" id="Fill" fill="#0473EA"></path>
    </g>
</svg>