<?xml version="1.0" encoding="UTF-8"?>
<svg width="24px" height="24px" viewBox="0 0 24 24" version="1.1" xmlns="http://www.w3.org/2000/svg" xmlns:xlink="http://www.w3.org/1999/xlink">
    <title>foundation / icon / 24px / Monitor - fill</title>
    <g id="foundation-/-icon-/-24px-/-Monitor---fill" stroke="none" stroke-width="1" fill="none" fill-rule="evenodd">
        <polygon id="24pt-Bounding-Box" opacity="0" fill-rule="nonzero" points="0 0 24 0 24 24 0 24"></polygon>
        <path d="M21.9999998,13.0000005 L21.9999998,14.0000005 C21.9999998,15.6568505 20.6568498,17.0000005 18.9999998,17.0000005 L18.9999998,17.0000005 L12.9999998,17.0000005 L12.9999998,19.0000005 L16.9999998,19.0000005 C17.5522849,19.0000005 17.9999998,19.4477155 17.9999998,20.0000005 C17.9999998,20.5522855 17.5522849,21.0000005 16.9999998,21.0000005 L16.9999998,21.0000005 L6.99999978,21.0000005 C6.44771496,21.0000005 5.99999978,20.5522855 5.99999978,20.0000005 C5.99999978,19.4477155 6.44771496,19.0000005 6.99999978,19.0000005 L6.99999978,19.0000005 L10.9999998,19.0000005 L10.9999998,17.0000005 L4.99999978,17.0000005 C3.34315,17.0000005 1.99999978,15.6568505 1.99999978,14.0000005 L1.99999978,14.0000005 L1.99999978,13.0000005 L21.9999998,13.0000005 Z M18.9999999,3 C20.6568499,3 21.9999999,4.34315 21.9999999,6 L21.9999999,6 L21.9999999,11 L1.99999987,11 L1.99999987,6 L1.99999987,6 L2.00509258,5.82372764 C2.09633928,4.24892392 3.40232308,3 4.99999987,3 L4.99999987,3 Z" id="Fill" fill="#0473EA"></path>
    </g>
</svg>