<?xml version="1.0" standalone="no"?>
<!DOCTYPE svg PUBLIC "-//W3C//DTD SVG 1.1//EN" "http://www.w3.org/Graphics/SVG/1.1/DTD/svg11.dtd" >
<svg xmlns="http://www.w3.org/2000/svg" xmlns:xlink="http://www.w3.org/1999/xlink" version="1.1">
<metadata>
Created by FontForge 20170731 at Tue Jul  7 15:46:55 2020
 By Aleksey,,,
Copyright (c)-2020 Indian Type Foundry. All rights reserved.
</metadata>
<defs>
<font id="SCProsperSans-Light" horiz-adv-x="1308" >
  <font-face 
    font-family="SC Prosper Sans Light"
    font-weight="300"
    font-stretch="normal"
    units-per-em="2048"
    panose-1="0 0 0 0 0 0 0 0 0 0"
    ascent="1638"
    descent="-410"
    x-height="1004"
    cap-height="1536"
    bbox="-1356.15 -676 2675 2214"
    underline-thickness="20"
    underline-position="-266"
    unicode-range="U+000D-FB02"
  />
<missing-glyph horiz-adv-x="1138" 
d="M154 0v1536h831v-1536h-831zM246 86h647v1364h-647v-1364zM788 629l-73 -74l-142 141l-141 -141l-72 74l142 141l-142 139l72 74l141 -141l142 141l73 -74l-141 -139z" />
    <glyph glyph-name="ordfeminine" unicode="[[" horiz-adv-x="0" 
d="M-1008 154q-144 0 -243.5 101.5t-104.5 248.5q-4 145 99 247.5t249 102.5q113 0 238 -78l422 -272l-422 -273q-123 -77 -238 -77z" />
    <glyph glyph-name="ordmasculine" unicode="]]" horiz-adv-x="0" 
d="M1008 154q-115 0 -238 77l-422 273l422 272q125 78 238 78q146 0 249 -102.5t99 -247.5q-5 -147 -104.5 -248.5t-243.5 -101.5z" />
    <glyph glyph-name="fi" unicode="fi" horiz-adv-x="1179" 
d="M305 0h-127v1200q0 156 93 254t251 98q112 0 189 -49v-125q-78 54 -179 54q-103 0 -165 -63.5t-62 -164.5v-200h369v-119h-369v-885zM934 1217q-36 0 -61 26t-25 62q0 37 25 63.5t61 26.5q30 0 59 -19l99 -69l-99 -70q-30 -20 -59 -20zM1001 0h-127v1004h127v-1004z" />
    <glyph glyph-name="fl" unicode="fl" horiz-adv-x="1179" 
d="M674 885h-369v-885h-127v1212q0 150 89.5 245t240.5 95q113 0 192 -49v-125q-78 54 -182 54q-96 0 -154.5 -60t-58.5 -155v-213h369v-119zM874 0v1536h127v-1536h-127z" />
    <glyph glyph-name=".notdef" horiz-adv-x="1138" 
d="M154 0v1536h831v-1536h-831zM246 86h647v1364h-647v-1364zM788 629l-73 -74l-142 141l-141 -141l-72 74l142 141l-142 139l72 74l141 -141l142 141l73 -74l-141 -139z" />
    <glyph glyph-name=".null" horiz-adv-x="0" 
 />
    <glyph glyph-name="nonmarkingreturn" horiz-adv-x="682" 
 />
    <glyph glyph-name="CR" unicode="&#xd;" horiz-adv-x="0" 
 />
    <glyph glyph-name="space" unicode=" " horiz-adv-x="481" 
 />
    <glyph glyph-name="exclam" unicode="!" horiz-adv-x="577" 
d="M340 444h-102l-19 482v610h139v-610zM289 -16q-43 0 -71 27t-28 69t28 69t71 27t70.5 -26.5t27.5 -69.5t-27.5 -69.5t-70.5 -26.5z" />
    <glyph glyph-name="quotedbl" unicode="&#x22;" horiz-adv-x="690" 
d="M145 1081v455h119v-455h-119zM426 1081v455h121v-455h-121z" />
    <glyph glyph-name="numbersign" unicode="#" horiz-adv-x="1431" 
d="M623 0l137 426h-314l-139 -426h-125l137 426h-272v119h307l160 479h-301v117h336l127 395h127l-127 -395h313l127 395h127l-127 -395h268v-117h-303l-159 -479h299v-119h-334l-139 -426h-125zM483 545h312l157 479h-311z" />
    <glyph glyph-name="dollar" unicode="$" horiz-adv-x="1114" 
d="M1038 416q0 -175 -108.5 -285t-282.5 -137v-260h-127v250q-253 6 -432 155v168q201 -198 455 -198q97 0 175 30t127.5 95.5t49.5 158.5q0 88 -46 149.5t-157 112.5l-301 140q-132 62 -194 149t-62 217q0 166 109 267.5t276 117.5v254h127v-252q187 -9 328 -118v-156
q-169 156 -385 156q-136 0 -227 -68.5t-91 -194.5q0 -83 47 -144t154 -110l313 -149q130 -60 191 -145t61 -203z" />
    <glyph glyph-name="percent" unicode="%" horiz-adv-x="1871" 
d="M434 840q-158 0 -262 101.5t-104 256.5q0 154 104 254t262 100q159 0 264 -100.5t105 -253.5q0 -155 -105 -256.5t-264 -101.5zM389 0h-129l1233 1536h129zM434 1452q-110 0 -183 -72.5t-73 -181.5q0 -112 72.5 -185t183.5 -73t184.5 73t73.5 185q0 109 -74 181.5
t-184 72.5zM1438 -16q-159 0 -264 100.5t-105 255.5q0 153 105 254.5t264 101.5q158 0 262 -101t104 -255q0 -155 -103.5 -255.5t-262.5 -100.5zM1694 340q0 110 -73 183t-183 73t-184 -73t-74 -183t74 -183t184 -73t183 73t73 183z" />
    <glyph glyph-name="ampersand" unicode="&#x26;" horiz-adv-x="1439" 
d="M1245 0l-188 186q-180 -202 -453 -202q-215 0 -356.5 120t-141.5 324q0 237 232 399l49 35q-123 156 -123 324q0 166 112.5 266t280.5 100q167 0 275 -103t108 -271h-125q-1 115 -75.5 186.5t-186.5 71.5q-110 0 -184 -69t-74 -183q0 -94 47.5 -176.5t130.5 -165.5
l463 -467q103 160 144 407h125q-43 -295 -179 -497l281 -285h-162zM244 436q0 -151 103.5 -240.5t262.5 -89.5q214 0 361 166l-471 473q-4 4 -9.5 9t-12 12t-9.5 10l-53 -37q-172 -120 -172 -303z" />
    <glyph glyph-name="quotesingle" unicode="'" horiz-adv-x="409" 
d="M145 1081v455h119v-455h-119z" />
    <glyph glyph-name="parenleft" unicode="(" horiz-adv-x="806" 
d="M154 639q0 168 35 318.5t105 280t184 228.5t263 152v-127q-232 -96 -344 -319t-112 -533q0 -150 26 -280t80 -241t142.5 -195.5t207.5 -133.5v-127q-149 54 -263 152.5t-184 227.5t-105 279t-35 318z" />
    <glyph glyph-name="parenright" unicode=")" horiz-adv-x="806" 
d="M653 639q0 -168 -35 -318t-105 -279t-184 -227.5t-263 -152.5v127q119 49 207.5 133.5t142.5 195.5t80 241t26 280q0 310 -112 533t-344 319v127q149 -53 263 -152t184 -228.5t105 -280t35 -318.5z" />
    <glyph glyph-name="asterisk" unicode="*" horiz-adv-x="921" 
d="M403 1536h115l-24 -330l274 187l55 -99l-299 -145l299 -143l-55 -101l-274 187l24 -330h-115l25 332l-274 -189l-58 101l299 143l-299 145l58 99l274 -189z" />
    <glyph glyph-name="plus" unicode="+" horiz-adv-x="1124" 
d="M1001 717h-380v-383h-119v383h-379v117h379v380h119v-380h380v-117z" />
    <glyph glyph-name="comma" unicode="," horiz-adv-x="421" 
d="M139 -297h-96l141 283q-75 20 -75 96q0 43 29.5 69.5t72.5 26.5q47 0 75.5 -28.5t28.5 -73.5q0 -42 -32 -101z" />
    <glyph glyph-name="hyphen" unicode="-" horiz-adv-x="819" 
d="M102 545v114h615v-114h-615z" />
    <glyph glyph-name="period" unicode="." horiz-adv-x="421" 
d="M211 -16q-43 0 -70.5 26.5t-27.5 69.5t27.5 69.5t70.5 26.5t70.5 -26.5t27.5 -69.5t-27.5 -69.5t-70.5 -26.5z" />
    <glyph glyph-name="slash" unicode="/" horiz-adv-x="1036" 
d="M137 -338h-127l889 1987h127z" />
    <glyph glyph-name="zero" unicode="0" horiz-adv-x="1337" 
d="M1233 772q0 -160 -34 -299.5t-100.5 -250t-176.5 -174.5t-252 -64q-115 0 -209.5 42t-160 115.5t-110 173.5t-65.5 215t-21 242q0 158 34 296t101.5 247.5t178 173t252.5 63.5q141 0 251 -63.5t177 -173t101 -247.5t34 -296zM670 106q113 0 198 55t134 150t72.5 210.5
t23.5 250.5q0 133 -24 247t-73 208.5t-134 148.5t-197 54q-91 0 -164.5 -36t-122.5 -97.5t-81.5 -146.5t-47 -179t-14.5 -199q0 -107 14 -202t47 -181t81.5 -148t122 -98.5t165.5 -36.5z" />
    <glyph glyph-name="one" unicode="1" horiz-adv-x="706" 
d="M395 0v1366l-350 -172v133l481 240v-1567h-131z" />
    <glyph glyph-name="two" unicode="2" horiz-adv-x="1099" 
d="M1057 117v-117h-1024l573 696q7 9 35 42.5t37 44.5t33 42t33 46.5t27 44.5t25.5 49.5t17.5 48t13.5 54t3.5 54.5q0 137 -93.5 223.5t-233.5 86.5q-205 0 -406 -185v150q195 155 416 155q196 0 324.5 -115t128.5 -304q0 -56 -14.5 -113.5t-34.5 -102t-57 -100t-64.5 -90.5
t-73.5 -92l-436 -518h770z" />
    <glyph glyph-name="three" unicode="3" horiz-adv-x="1089" 
d="M1004 424q0 -138 -74 -239.5t-193 -151t-264 -49.5q-214 0 -412 127v145q201 -154 426 -154q164 0 272.5 86.5t108.5 237.5q0 64 -21.5 117.5t-59 90.5t-88.5 62t-109.5 36.5t-122.5 10.5q-52 0 -150 -8v115l144 22q72 11 130.5 33t106 57t73.5 88t26 119
q0 122 -87 192.5t-218 70.5q-221 0 -390 -166v139q170 147 396 147q185 0 307.5 -104t122.5 -279q0 -124 -77 -211.5t-218 -136.5q174 -36 272.5 -139.5t98.5 -257.5z" />
    <glyph glyph-name="four" unicode="4" horiz-adv-x="1204" 
d="M1169 387h-202v-387h-131v387h-807l620 1149h144l-555 -1028h598v485h131v-485h202v-121z" />
    <glyph glyph-name="five" unicode="5" horiz-adv-x="1126" 
d="M502 -16q-209 0 -396 108v144q172 -134 394 -134q178 0 295.5 102t117.5 271q0 167 -110 270t-281 103q-152 0 -323 -72q-18 -5 -45 -16v776h831v-117h-704v-514q138 56 274 56q216 0 355 -136t139 -352q0 -148 -73.5 -260.5t-197 -170.5t-276.5 -58z" />
    <glyph glyph-name="six" unicode="6" horiz-adv-x="1163" 
d="M1102 485q0 -223 -147.5 -362t-374.5 -139q-220 0 -363 131.5t-143 345.5q0 191 116 362l472 713h149l-422 -629q92 62 213 62q217 0 358.5 -134.5t141.5 -349.5zM580 106q168 0 276.5 105.5t108.5 273.5q0 165 -108 268t-275 103q-170 0 -275 -111q-100 -109 -100 -278
q0 -160 105 -260.5t268 -100.5z" />
    <glyph glyph-name="seven" unicode="7" horiz-adv-x="1073" 
d="M1065 1536l-801 -1536h-143l739 1415h-821v121h1026z" />
    <glyph glyph-name="eight" unicode="8" horiz-adv-x="1191" 
d="M596 -16q-107 0 -201 29.5t-165 84.5t-112.5 140t-41.5 190q0 153 98 260t250 139q-114 29 -191 121t-77 217q0 177 125 282t315 105q188 0 313 -105t125 -282q0 -124 -76 -215.5t-190 -122.5q152 -32 249 -139t97 -260q0 -105 -41 -190t-112 -140t-164.5 -84.5
t-200.5 -29.5zM903 1155q0 125 -87.5 201t-219.5 76q-133 0 -221 -76t-88 -201q0 -127 88 -202.5t221 -75.5q132 0 219.5 75.5t87.5 202.5zM979 434q0 150 -109.5 236t-273.5 86q-165 0 -275 -86t-110 -236q0 -155 109.5 -241.5t275.5 -86.5q165 0 274 86.5t109 241.5z" />
    <glyph glyph-name="nine" unicode="9" horiz-adv-x="1163" 
d="M973 713l-473 -713h-148l420 629q-92 -64 -211 -64q-217 0 -358.5 135t-141.5 349q0 223 148 363t375 140q220 0 363 -132t143 -347q0 -192 -117 -360zM584 1430q-168 0 -276.5 -106.5t-108.5 -274.5q0 -163 108 -267t275 -104q178 0 290 131q84 103 84 258
q0 160 -105 261.5t-267 101.5z" />
    <glyph glyph-name="colon" unicode=":" horiz-adv-x="462" 
d="M231 748q-43 0 -70.5 26.5t-27.5 69.5t27.5 70.5t70.5 27.5t71 -27.5t28 -70.5q0 -42 -28 -69t-71 -27zM231 -16q-43 0 -70.5 26.5t-27.5 69.5t27.5 69.5t70.5 26.5t71 -27t28 -69t-28 -69t-71 -27z" />
    <glyph glyph-name="semicolon" unicode=";" horiz-adv-x="462" 
d="M240 748q-43 0 -71 27t-28 69q0 43 28 70.5t71 27.5t70.5 -27.5t27.5 -70.5t-27.5 -69.5t-70.5 -26.5zM160 -297h-94l141 283q-76 20 -76 96q0 43 29.5 69.5t72.5 26.5q46 0 75.5 -29t29.5 -73q0 -43 -35 -101z" />
    <glyph glyph-name="less" unicode="&#x3c;" horiz-adv-x="1124" 
d="M936 434v-127l-774 391v123l774 393v-124l-657 -330z" />
    <glyph glyph-name="equal" unicode="=" horiz-adv-x="1124" 
d="M123 924v114h878v-114h-878zM123 496v116h878v-116h-878z" />
    <glyph glyph-name="greater" unicode="&#x3e;" horiz-adv-x="1124" 
d="M963 698l-775 -391v127l658 326l-658 330v124l775 -393v-123z" />
    <glyph glyph-name="question" unicode="?" horiz-adv-x="1097" 
d="M702 754l-145 -52l-6 -258h-111l-10 338l191 62q122 41 191 118t69 187q0 131 -89.5 209t-232.5 78q-156 0 -252 -87t-96 -231h-127q0 196 133 315t344 119q198 0 324.5 -109t126.5 -292q0 -137 -82.5 -240.5t-227.5 -156.5zM496 -16q-43 0 -71 27t-28 69t28 69t71 27
t70.5 -26.5t27.5 -69.5t-27.5 -69.5t-70.5 -26.5z" />
    <glyph glyph-name="at" unicode="@" horiz-adv-x="1937" 
d="M1354 -211q-190 -90 -414 -90q-234 0 -419 102.5t-288.5 287t-103.5 417.5q0 178 63.5 330t174.5 257t266 164.5t334 59.5q240 0 431 -99.5t300.5 -284t109.5 -421.5q0 -92 -18.5 -170.5t-57 -143t-103.5 -101t-150 -36.5q-71 0 -124.5 39t-72.5 103q0 2 -5.5 33t-6.5 47
q-42 -108 -133.5 -172t-214.5 -64q-189 0 -307.5 129t-118.5 324q0 198 117.5 328t308.5 130q120 0 208 -59t130 -160v203h116v-651q0 -67 37 -102t98 -35q63 0 107.5 30t68 82.5t34 112.5t10.5 133q0 215 -99.5 383t-273 259t-391.5 91t-391.5 -92t-272 -261.5
t-98.5 -385.5q0 -159 54.5 -296t150.5 -233.5t233 -151t297 -54.5q226 0 414 96v-78zM1260 502q0 151 -90 249.5t-236 98.5q-145 0 -232.5 -98.5t-87.5 -249.5t87.5 -248.5t232.5 -97.5q146 0 236 97.5t90 248.5z" />
    <glyph glyph-name="A" unicode="A" horiz-adv-x="1482" 
d="M1305 0l-172 387h-791l-172 -387h-147l720 1567l715 -1567h-153zM395 502h686l-342 770z" />
    <glyph glyph-name="B" unicode="B" horiz-adv-x="1234" 
d="M178 0v1536h440q188 0 311.5 -107t123.5 -290q0 -116 -58 -199.5t-157 -122.5q140 -38 223.5 -140t83.5 -249q0 -133 -66 -231.5t-174 -147.5t-243 -49h-484zM608 1415h-297v-555h320q129 0 208 76.5t79 202.5q0 129 -86.5 202.5t-223.5 73.5zM670 739h-359v-618h359
q153 0 246.5 81t93.5 226q0 141 -93 226t-247 85z" />
    <glyph glyph-name="C" unicode="C" horiz-adv-x="1433" 
d="M850 -16q-222 0 -396 100t-270 279t-96 405q0 170 57.5 316t158 248.5t244 161t310.5 58.5q305 0 498 -168v-159q-96 103 -226.5 154t-281.5 51q-137 0 -254.5 -50.5t-198.5 -138.5t-126.5 -210t-45.5 -263q0 -190 80 -340.5t225 -236t330 -85.5q327 0 520 187v-150
q-204 -159 -528 -159z" />
    <glyph glyph-name="D" unicode="D" horiz-adv-x="1585" 
d="M178 0v1536h516q362 0 581.5 -209t219.5 -559t-218 -559t-579 -209h-520zM707 1415h-396v-1296h396q302 0 477.5 174.5t175.5 474.5q0 299 -175.5 473t-477.5 174z" />
    <glyph glyph-name="E" unicode="E" horiz-adv-x="1138" 
d="M178 0v1536h889v-121h-756v-575h670v-121h-670v-598h779v-121h-912z" />
    <glyph glyph-name="F" unicode="F" horiz-adv-x="1077" 
d="M178 0v1536h864v-121h-731v-627h645v-120h-645v-668h-133z" />
    <glyph glyph-name="G" unicode="G" horiz-adv-x="1576" 
d="M1468 184q-261 -200 -608 -200q-225 0 -401.5 100.5t-273.5 279.5t-97 406q0 170 58.5 315.5t161 248t248 160.5t314.5 58q321 0 527 -178v-157q-196 215 -529 215q-188 0 -335.5 -85.5t-228.5 -236t-81 -340.5q0 -191 81 -342t229 -236.5t337 -85.5q273 0 467 148v442
h-518v117h649v-629z" />
    <glyph glyph-name="H" unicode="H" horiz-adv-x="1581" 
d="M1268 0v745h-957v-745h-133v1536h133v-674h957v674h133v-1536h-133z" />
    <glyph glyph-name="I" unicode="I" horiz-adv-x="489" 
d="M178 0v1536h133v-1536h-133z" />
    <glyph glyph-name="J" unicode="J" horiz-adv-x="888" 
d="M317 -16q-163 0 -284 90v141q63 -52 139 -80.5t145 -28.5q126 0 198.5 73.5t72.5 199.5v1157h131v-1141q0 -194 -107.5 -302.5t-294.5 -108.5z" />
    <glyph glyph-name="K" unicode="K" horiz-adv-x="1325" 
d="M1153 0l-602 795l-240 -258v-537h-133v1536h133v-817l760 817h168l-598 -643l672 -893h-160z" />
    <glyph glyph-name="L" unicode="L" horiz-adv-x="1089" 
d="M1057 121v-121h-879v1536h133v-1415h746z" />
    <glyph glyph-name="M" unicode="M" horiz-adv-x="1943" 
d="M971 322l-660 876v-1198h-133v1567l799 -1043l788 1043v-1567h-131v1188z" />
    <glyph glyph-name="N" unicode="N" horiz-adv-x="1622" 
d="M1440 -31l-1129 1272v-1241h-133v1567l1131 -1272v1241h131v-1567z" />
    <glyph glyph-name="O" unicode="O" horiz-adv-x="1736" 
d="M1649 770q0 -170 -58 -316t-160 -249.5t-247.5 -162t-315.5 -58.5t-315 58.5t-247.5 162t-160 249.5t-57.5 316t58 315.5t160.5 248t247.5 160.5t314 58q225 0 403 -99.5t278 -278t100 -404.5zM868 106q188 0 335.5 86t228.5 237t81 341q0 288 -181 474t-464 186
q-141 0 -261.5 -49.5t-204.5 -136.5t-131.5 -209.5t-47.5 -264.5q0 -190 80.5 -341t228.5 -237t336 -86z" />
    <glyph glyph-name="P" unicode="P" horiz-adv-x="1183" 
d="M178 0v1536h389q245 0 393 -140t148 -376t-149.5 -376t-395.5 -140h-252v-504h-133zM569 1415h-258v-790h258q185 0 293.5 107t108.5 288t-108.5 288t-293.5 107z" />
    <glyph glyph-name="Q" unicode="Q" horiz-adv-x="1736" 
d="M1649 770q0 -214 -90 -386t-250 -275l321 -357h-174l-264 297q-145 -65 -324 -65q-170 0 -315 58.5t-247.5 162t-160 249.5t-57.5 316t58 315.5t160.5 248t247.5 160.5t314 58q225 0 403 -99.5t278 -278t100 -404.5zM223 770q0 -190 80.5 -341t228.5 -237t336 -86
t335.5 86t228.5 237t81 341q0 288 -181 474t-464 186q-141 0 -261.5 -49.5t-204.5 -136.5t-131.5 -209.5t-47.5 -264.5z" />
    <glyph glyph-name="R" unicode="R" horiz-adv-x="1245" 
d="M178 0v1536h410q233 0 370.5 -127t137.5 -346q0 -172 -94 -290t-250 -159l438 -614h-158l-418 590h-303v-590h-133zM584 1415h-273v-706h273q171 0 272.5 94.5t101.5 259.5q0 166 -98.5 259t-275.5 93z" />
    <glyph glyph-name="S" unicode="S" horiz-adv-x="1101" 
d="M578 1432q-135 0 -226.5 -70t-91.5 -197q0 -84 47 -146t154 -110l313 -149q129 -60 190.5 -145t61.5 -201q0 -136 -67 -234.5t-178.5 -147t-252.5 -48.5q-281 0 -452 157v166q96 -99 214 -150t238 -51q151 0 253 73t102 210q0 88 -45.5 149.5t-157.5 114.5l-301 142
q-132 61 -194 147t-62 215q0 123 62 214t163 136t227 45q229 0 386 -122v-156q-179 158 -383 158z" />
    <glyph glyph-name="T" unicode="T" horiz-adv-x="1265" 
d="M1243 1415h-545v-1415h-131v1415h-544v121h1220v-121z" />
    <glyph glyph-name="U" unicode="U" horiz-adv-x="1542" 
d="M156 637v899h131v-901q0 -238 132 -383.5t353 -145.5q218 0 350.5 146t132.5 383v901h131v-899q0 -193 -76 -341t-216.5 -230t-323.5 -82q-185 0 -324.5 82t-214.5 230t-75 341z" />
    <glyph glyph-name="V" unicode="V" horiz-adv-x="1472" 
d="M1450 1536l-715 -1567l-710 1567h153l561 -1268l561 1268h150z" />
    <glyph glyph-name="W" unicode="W" horiz-adv-x="2326" 
d="M2300 1536l-643 -1567l-492 1274l-497 -1274l-639 1567h151l490 -1245l499 1276l494 -1274l489 1243h148z" />
    <glyph glyph-name="X" unicode="X" horiz-adv-x="1409" 
d="M698 707l-505 -707h-160l585 819l-522 717h158l453 -616l432 616h159l-514 -727l592 -809h-159z" />
    <glyph glyph-name="Y" unicode="Y" horiz-adv-x="1316" 
d="M1298 1536l-571 -940v-596h-131v582l-578 954h154l487 -813l492 813h147z" />
    <glyph glyph-name="Z" unicode="Z" horiz-adv-x="1257" 
d="M1208 117v-117h-1171l946 1419h-901v117h1126l-940 -1419h940z" />
    <glyph glyph-name="bracketleft" unicode="[" horiz-adv-x="712" 
d="M188 -338v1956h441v-117h-320v-1720h320v-119h-441z" />
    <glyph glyph-name="backslash" unicode="\" horiz-adv-x="1036" 
d="M899 -338l-889 1987h127l889 -1987h-127z" />
    <glyph glyph-name="bracketright" unicode="]" horiz-adv-x="712" 
d="M522 -338h-440v119h319v1720h-319v117h440v-1956z" />
    <glyph glyph-name="asciicircum" unicode="^" horiz-adv-x="1124" 
d="M893 741l-332 676l-332 -676h-118l389 795h123l391 -795h-121z" />
    <glyph glyph-name="underscore" unicode="_" horiz-adv-x="1024" 
d="M0 -291v107h1024v-107h-1024z" />
    <glyph glyph-name="grave" unicode="`" horiz-adv-x="919" 
d="M162 1454h162l206 -287h-116z" />
    <glyph glyph-name="a" unicode="a" 
d="M1004 0v231q-55 -116 -159.5 -181.5t-240.5 -65.5q-219 0 -360.5 145.5t-141.5 368.5q0 228 141.5 375t360.5 147q136 0 240.5 -67t159.5 -183v234h126v-1004h-126zM616 899q-168 0 -275.5 -112.5t-107.5 -286.5q0 -173 107.5 -285.5t275.5 -112.5t278 113t110 285
q0 173 -109.5 286t-278.5 113z" />
    <glyph glyph-name="b" unicode="b" 
d="M1206 504q0 -226 -141 -373t-360 -147q-136 0 -241.5 66.5t-158.5 182.5v-233h-127v1536h127v-766q53 116 158.5 183t241.5 67q219 0 360 -145.5t141 -370.5zM692 102q168 0 275.5 113t107.5 287q0 172 -107.5 284.5t-275.5 112.5t-277.5 -112.5t-109.5 -284.5
q0 -174 109.5 -287t277.5 -113z" />
    <glyph glyph-name="c" unicode="c" horiz-adv-x="1056" 
d="M233 502q0 -174 112 -287t288 -113q198 0 332 119v-131q-140 -106 -342 -106q-230 0 -375.5 145t-145.5 373q0 227 146.5 372.5t372.5 145.5q200 0 333 -115v-141q-123 135 -325 135q-173 0 -284.5 -111.5t-111.5 -285.5z" />
    <glyph glyph-name="d" unicode="d" 
d="M1004 0v231q-55 -115 -159.5 -181t-240.5 -66q-219 0 -360.5 145.5t-141.5 368.5q0 228 141.5 375t360.5 147q136 0 240.5 -67t159.5 -183v766h126v-1536h-126zM616 899q-168 0 -275.5 -112.5t-107.5 -286.5q0 -173 107.5 -285.5t275.5 -112.5t278 113t110 285
q0 173 -109.5 286t-278.5 113z" />
    <glyph glyph-name="e" unicode="e" horiz-adv-x="1171" 
d="M637 -16q-237 0 -386 142.5t-149 369.5q0 228 135 376t359 148q215 0 345 -142t130 -364q0 -21 -4 -61h-831q15 -157 124 -255t277 -98q208 0 367 123v-125q-155 -114 -367 -114zM238 557h700q-9 152 -100.5 249t-241.5 97q-154 0 -248 -96.5t-110 -249.5z" />
    <glyph glyph-name="f" unicode="f" horiz-adv-x="718" 
d="M721 885h-416v-885h-127v1210q0 152 90.5 247t243.5 95q141 0 244 -75v-127q-99 82 -236 82q-97 0 -156 -60t-59 -155v-213h416v-119z" />
    <glyph glyph-name="g" unicode="g" 
d="M1130 -16q0 -245 -137.5 -377.5t-388.5 -132.5q-243 0 -405 137v139q77 -76 185.5 -116t219.5 -40q193 0 296.5 98t103.5 283v256q-55 -114 -160 -180.5t-240 -66.5q-219 0 -360.5 145.5t-141.5 368.5q0 226 141.5 374t360.5 148q135 0 240 -67t160 -183v234h126v-1020z
M1004 500q0 173 -109.5 286t-278.5 113q-168 0 -275.5 -112.5t-107.5 -286.5q0 -173 107.5 -285.5t275.5 -112.5t278 113t110 285z" />
    <glyph glyph-name="h" unicode="h" horiz-adv-x="1230" 
d="M305 502v-502h-127v1536h127v-762q52 113 150 179.5t221 66.5q193 0 295 -122.5t102 -324.5v-573h-127v555q0 170 -76.5 256t-224.5 86q-149 0 -244.5 -113t-95.5 -282z" />
    <glyph glyph-name="i" unicode="i" horiz-adv-x="483" 
d="M233 1217q-36 0 -61 26t-25 62q0 37 25 63.5t61 26.5q31 0 60 -19l98 -69l-98 -70q-30 -20 -60 -20zM178 0v1004h129v-1004h-129z" />
    <glyph glyph-name="j" unicode="j" horiz-adv-x="483" 
d="M233 1217q-36 0 -61 26t-25 62q0 37 25 63.5t61 26.5q31 0 60 -19l98 -69l-98 -70q-30 -20 -60 -20zM-145 -479v119q76 -50 147 -50q83 0 129.5 51.5t46.5 143.5v1219h127v-1215q0 -150 -71.5 -233.5t-206.5 -83.5q-85 0 -172 49z" />
    <glyph glyph-name="k" unicode="k" horiz-adv-x="1034" 
d="M858 0l-389 514l-164 -162v-352h-127v1536h127v-1022l498 490h153l-397 -396l455 -608h-156z" />
    <glyph glyph-name="l" unicode="l" horiz-adv-x="485" 
d="M178 0v1536h127v-1536h-127z" />
    <glyph glyph-name="m" unicode="m" horiz-adv-x="1882" 
d="M305 502v-502h-127v1004h127v-226q48 111 141.5 176.5t210.5 65.5q127 0 208 -67.5t116 -188.5q47 116 146.5 186t226.5 70q180 0 275 -122.5t95 -324.5v-573h-127v555q0 342 -268 342q-135 0 -224 -108t-89 -267v-522h-127v555q0 342 -268 342q-137 0 -226.5 -113.5
t-89.5 -281.5z" />
    <glyph glyph-name="n" unicode="n" horiz-adv-x="1230" 
d="M305 502v-502h-127v1004h127v-230q52 113 150 179.5t221 66.5q193 0 295 -122.5t102 -324.5v-573h-127v555q0 170 -76.5 256t-224.5 86q-149 0 -244.5 -113t-95.5 -282z" />
    <glyph glyph-name="o" unicode="o" horiz-adv-x="1239" 
d="M623 -16q-227 0 -374 147t-147 373q0 223 147 369.5t374 146.5q225 0 369.5 -145.5t144.5 -370.5q0 -226 -144.5 -373t-369.5 -147zM1006 502q0 172 -108.5 284.5t-276.5 112.5q-170 0 -279 -112.5t-109 -284.5q0 -174 109 -287t279 -113q168 0 276.5 113t108.5 287z" />
    <glyph glyph-name="p" unicode="p" 
d="M705 -16q-136 0 -241.5 66.5t-158.5 182.5v-745h-127v1516h127v-234q53 116 158.5 183t241.5 67q218 0 359.5 -146.5t141.5 -369.5q0 -226 -141.5 -373t-359.5 -147zM1075 502q0 172 -107.5 284.5t-275.5 112.5t-277.5 -112.5t-109.5 -284.5q0 -174 109.5 -287
t277.5 -113t275.5 113t107.5 287z" />
    <glyph glyph-name="q" unicode="q" 
d="M1130 1004v-1516h-126v743q-55 -114 -160 -180.5t-240 -66.5q-219 0 -360.5 145.5t-141.5 368.5q0 226 141.5 374t360.5 148q135 0 240 -67t160 -183v234h126zM616 899q-168 0 -275.5 -112.5t-107.5 -286.5q0 -173 107.5 -285.5t275.5 -112.5t278 113t110 285
q0 173 -109.5 286t-278.5 113z" />
    <glyph glyph-name="r" unicode="r" horiz-adv-x="694" 
d="M305 483v-483h-127v1004h127v-259q53 128 152.5 201.5t224.5 73.5v-143q-155 15 -266 -94.5t-111 -299.5z" />
    <glyph glyph-name="s" unicode="s" horiz-adv-x="897" 
d="M98 229q150 -141 346 -141q104 0 170 44.5t66 125.5q0 99 -121 148l-256 100q-94 38 -139 94.5t-45 144.5q0 126 94 200.5t244 74.5q186 0 305 -96v-133q-65 60 -144.5 92t-158.5 32q-95 0 -154 -42t-59 -115q0 -52 27.5 -86t91.5 -58l258 -100q184 -74 184 -233
q0 -137 -102 -217t-263 -80q-212 0 -344 106v139z" />
    <glyph glyph-name="t" unicode="t" horiz-adv-x="780" 
d="M748 57q-103 -73 -254 -73q-159 0 -243.5 82t-84.5 264v1001h125v-327h440v-119h-440v-566q0 -110 58 -162.5t157 -52.5q136 0 242 76v-123z" />
    <glyph glyph-name="u" unicode="u" horiz-adv-x="1175" 
d="M899 426v578h127v-566q0 -212 -118.5 -333t-319.5 -121q-203 0 -322 121t-119 333v566h127v-578q0 -156 85.5 -240t228.5 -84t227 84t84 240z" />
    <glyph glyph-name="v" unicode="v" horiz-adv-x="1054" 
d="M1032 1004l-504 -1035l-503 1035h147l363 -766l360 766h137z" />
    <glyph glyph-name="w" unicode="w" horiz-adv-x="1679" 
d="M1649 1004l-435 -1035l-368 807l-373 -807l-444 1035h145l313 -754l359 784l356 -784l314 754h133z" />
    <glyph glyph-name="x" unicode="x" horiz-adv-x="1046" 
d="M858 0l-346 426l-334 -426h-147l405 524l-385 480h158l309 -381l297 381h148l-369 -482l422 -522h-158z" />
    <glyph glyph-name="y" unicode="y" horiz-adv-x="1040" 
d="M1016 1004l-733 -1516h-133l317 659l-444 857h149l365 -713l346 713h133z" />
    <glyph glyph-name="z" unicode="z" horiz-adv-x="948" 
d="M895 117v-117h-852l631 885h-590v119h799l-621 -887h633z" />
    <glyph glyph-name="braceleft" unicode="{" horiz-adv-x="825" 
d="M741 -338h-125q-131 0 -209.5 70.5t-78.5 204.5v444q0 92 -46.5 148.5t-134.5 62.5v106q85 4 133 55t48 134v446q0 138 81 211.5t218 73.5h114v-117h-108q-178 0 -178 -188v-412q0 -103 -45.5 -174t-133.5 -88q88 -15 133.5 -86t45.5 -176v-410q0 -186 178 -186h108v-119
z" />
    <glyph glyph-name="bar" unicode="|" horiz-adv-x="456" 
d="M291 -676h-127v2376h127v-2376z" />
    <glyph glyph-name="braceright" unicode="}" horiz-adv-x="825" 
d="M82 -338v119h108q179 0 179 186v410q0 106 45 177t133 85q-87 17 -132.5 88t-45.5 174v412q0 188 -179 188h-108v117h115q137 0 218 -73.5t81 -211.5v-446q0 -84 48 -134.5t132 -54.5v-106q-88 -6 -134 -62.5t-46 -148.5v-444q0 -134 -79 -204.5t-210 -70.5h-125z" />
    <glyph glyph-name="asciitilde" unicode="~" horiz-adv-x="1124" 
d="M360 903q62 0 132.5 -25.5t142 -51t135.5 -25.5q130 0 231 106v-131q-93 -96 -235 -96q-64 0 -135 25.5t-141.5 51t-133.5 25.5q-116 0 -233 -112v129q99 104 237 104z" />
    <glyph glyph-name="uni00A0" unicode="&#xa0;" horiz-adv-x="481" 
 />
    <glyph glyph-name="exclamdown" unicode="&#xa1;" horiz-adv-x="577" 
d="M289 825q-43 0 -71 28t-28 71q0 42 28 69t71 27t70.5 -26.5t27.5 -69.5t-27.5 -71t-70.5 -28zM358 -471h-141v571l21 457h100l20 -459v-569z" />
    <glyph glyph-name="cent" unicode="&#xa2;" horiz-adv-x="1054" 
d="M965 90q-124 -95 -291 -102v-224h-127v226q-200 20 -322.5 161t-122.5 351q0 208 124 349t321 161v223h127v-219q167 -10 280 -111v-141q-123 135 -325 135q-173 0 -284.5 -111.5t-111.5 -285.5t111.5 -287t284.5 -113q206 0 336 119v-131z" />
    <glyph glyph-name="sterling" unicode="&#xa3;" horiz-adv-x="1167" 
d="M1118 117v-117h-1036v117h149v528h-149v119h149v260q0 234 136.5 381t355.5 147q176 0 326 -90v-133q-148 103 -318 103q-171 0 -272 -110.5t-101 -291.5v-266h545v-119h-545v-528h760z" />
    <glyph glyph-name="currency" unicode="&#xa4;" horiz-adv-x="1116" 
d="M324 451l-131 -134l-80 80l129 131q-78 100 -78 240q0 135 74 231l-125 125l80 82l124 -127q107 80 246 80q140 0 238 -76l123 123l80 -82l-119 -118q78 -100 78 -238q0 -140 -82 -246l123 -121l-82 -82l-125 127q-95 -71 -234 -71q-137 0 -239 76zM563 492q119 0 196 78
t77 198t-77 197t-196 77q-120 0 -196 -77t-76 -197t76 -198t196 -78z" />
    <glyph glyph-name="yen" unicode="&#xa5;" horiz-adv-x="1411" 
d="M1300 483h-526v-483h-131v483h-524v119h512l-148 242h-364v117h295l-348 575h153l488 -815l487 815h152l-351 -575h305v-117h-374l-148 -242h522v-119z" />
    <glyph glyph-name="brokenbar" unicode="&#xa6;" horiz-adv-x="456" 
d="M291 696h-127v1004h127v-1004zM291 -676h-127v1004h127v-1004z" />
    <glyph glyph-name="section" unicode="&#xa7;" horiz-adv-x="1306" 
d="M584 -526q-236 0 -418 127v155q203 -162 432 -162q138 0 232 67.5t94 191.5q0 157 -187 247l-458 215q-110 52 -160.5 143t-28.5 197q15 103 86 168.5t174 83.5q-108 97 -108 236q0 125 66.5 215.5t173.5 134t239 43.5q239 0 418 -127v-156q-201 160 -430 160
q-138 0 -233 -66t-95 -188q0 -83 51.5 -147t136.5 -103l459 -215q110 -52 160.5 -143t28.5 -197q-17 -103 -88.5 -169t-172.5 -81q109 -101 109 -235q0 -126 -67 -217t-174 -134.5t-240 -43.5zM348 430l457 -213q84 -36 164.5 -11.5t111.5 103.5q36 79 0 155.5t-123 115.5
l-462 213q-86 37 -163.5 11.5t-109.5 -104.5q-35 -81 1 -156t124 -114z" />
    <glyph glyph-name="dieresis" unicode="&#xa8;" horiz-adv-x="919" 
d="M262 1221q-37 0 -61.5 23.5t-24.5 60.5q0 38 24.5 62t61.5 24q38 0 62 -24t24 -62q0 -37 -24 -60.5t-62 -23.5zM657 1221q-38 0 -62 23.5t-24 60.5q0 38 24 62t62 24q37 0 60.5 -24t23.5 -62q0 -37 -23.5 -60.5t-60.5 -23.5z" />
    <glyph glyph-name="copyright" unicode="&#xa9;" horiz-adv-x="1748" 
d="M872 -16q-170 0 -316 58t-248.5 160.5t-161 248t-58.5 315.5t58.5 316t161 249.5t248.5 162t316 58.5q228 0 407.5 -100t279.5 -279t100 -407q0 -170 -59 -316t-162.5 -248t-249.5 -160t-316 -58zM872 55q205 0 366.5 90.5t251 252.5t89.5 368t-89 368.5t-250.5 253.5
t-367.5 91q-205 0 -366 -91t-249.5 -253.5t-88.5 -368.5t88.5 -368t249.5 -252.5t366 -90.5zM903 303q-204 0 -330.5 133.5t-126.5 337.5q0 202 128.5 333.5t332.5 131.5q143 0 275 -80v-117q-120 88 -269 88q-153 0 -250.5 -100t-97.5 -254q0 -158 96 -261t248 -103
q149 0 271 86v-117q-128 -78 -277 -78z" />
    <glyph glyph-name="guillemotleft" unicode="&#xab;" horiz-adv-x="962" 
d="M367 139l-291 410l291 393h133l-289 -393l289 -410h-133zM735 139l-289 410l289 393h135l-290 -393l290 -410h-135z" />
    <glyph glyph-name="logicalnot" unicode="&#xac;" horiz-adv-x="1124" 
d="M506 838l487 192l-168 -131l68 33l-76 -41l-207 -162l-88 6l-8 -4v4l-14 2l14 6z" />
    <glyph glyph-name="uni00AD" unicode="&#xad;" horiz-adv-x="0" 
 />
    <glyph glyph-name="registered" unicode="&#xae;" horiz-adv-x="1748" 
d="M872 -16q-170 0 -316 58t-248.5 160.5t-161 248t-58.5 315.5t58.5 316t161 249.5t248.5 162t316 58.5q228 0 407.5 -100t279.5 -279t100 -407q0 -170 -59 -316t-162.5 -248t-249.5 -160t-316 -58zM872 55q205 0 366.5 90.5t251 252.5t89.5 368t-89 368.5t-250.5 253.5
t-367.5 91q-205 0 -366 -91t-249.5 -253.5t-88.5 -368.5t88.5 -368t249.5 -252.5t366 -90.5zM700 313h-116v918h344q130 0 215.5 -80.5t85.5 -206.5q0 -102 -56 -174t-149 -96l223 -361h-137l-203 342h-207v-342zM700 1128v-370h222q80 0 133 50.5t53 135.5q0 84 -51.5 134
t-132.5 50h-224z" />
    <glyph glyph-name="macron" unicode="&#xaf;" horiz-adv-x="919" 
d="M168 1366h582v-106h-582v106z" />
    <glyph glyph-name="degree" unicode="&#xb0;" horiz-adv-x="880" 
d="M440 840q-159 0 -262.5 101t-103.5 257q0 154 104 254t262 100q160 0 263.5 -100t103.5 -254q0 -157 -103.5 -257.5t-263.5 -100.5zM696 1198q0 109 -73 181.5t-183 72.5t-183 -72.5t-73 -181.5q0 -112 72.5 -185t183.5 -73t183.5 73t72.5 185z" />
    <glyph glyph-name="plusminus" unicode="&#xb1;" horiz-adv-x="1124" 
d="M1001 901h-380v-321h-119v321h-379v115h379v321h119v-321h380v-115zM123 348v117h878v-117h-878z" />
    <glyph glyph-name="twosuperior" unicode="&#xb2;" horiz-adv-x="802" 
d="M748 688v-94h-730l383 414q95 105 118 138q46 68 46 134q0 80 -56.5 128t-141.5 48q-139 0 -291 -125v111q134 110 303 110q129 0 213 -71.5t84 -188.5q0 -74 -38 -139t-114 -152l-288 -313h512z" />
    <glyph glyph-name="threesuperior" unicode="&#xb3;" horiz-adv-x="825" 
d="M354 580q-137 0 -276 79v111q126 -94 280 -94q69 0 124 18t91.5 61t36.5 107q0 90 -71 136.5t-174 43.5q-67 0 -132 -12v92l121 23q211 35 211 176q0 68 -50.5 103.5t-127.5 35.5q-151 0 -285 -117v107q120 102 291 102q119 0 198 -59.5t79 -167.5q0 -80 -50.5 -135.5
t-134.5 -85.5q107 -20 171.5 -83.5t64.5 -164.5q0 -91 -52.5 -155t-133.5 -92.5t-181 -28.5z" />
    <glyph glyph-name="acute" unicode="&#xb4;" horiz-adv-x="919" 
d="M592 1454h162l-252 -287h-117z" />
    <glyph glyph-name="paragraph" unicode="&#xb6;" horiz-adv-x="1099" 
d="M635 1536v-1536h-127v778q-189 1 -304.5 105.5t-115.5 273.5q0 168 120.5 273.5t313.5 105.5h113zM848 0v1536h72v-1536h-72z" />
    <glyph glyph-name="periodcentered" unicode="&#xb7;" horiz-adv-x="919" 
d="M459 750q-37 0 -62.5 26.5t-25.5 63.5t25.5 62.5t62.5 25.5t62.5 -25.5t25.5 -62.5t-25.5 -63.5t-62.5 -26.5z" />
    <glyph glyph-name="cedilla" unicode="&#xb8;" horiz-adv-x="919" 
d="M645 -322q0 -80 -62.5 -125t-156.5 -45q-67 0 -139 35v76q70 -39 135 -39q54 0 88.5 25.5t34.5 72.5q0 45 -32 73t-79 28q-40 0 -74 -12l-26 28l92 223h94l-78 -182q14 2 41 2q72 -6 117 -49t45 -111z" />
    <glyph glyph-name="onesuperior" unicode="&#xb9;" horiz-adv-x="532" 
d="M254 592v817l-227 -106v102l335 156v-969h-108z" />
    <glyph glyph-name="guillemotright" unicode="&#xbb;" horiz-adv-x="962" 
d="M596 139h-133l289 410l-289 393h133l291 -393zM227 139h-135l291 410l-291 393h135l289 -393z" />
    <glyph glyph-name="onequarter" unicode="&#xbc;" horiz-adv-x="2148" 
d="M453 592v817l-228 -106v102l336 156v-969h-108zM510 0h-129l1192 1536h129zM1993 205h-138v-207h-106v207h-557l424 739h117l-367 -645h383v332h106v-332h138v-94z" />
    <glyph glyph-name="onehalf" unicode="&#xbd;" horiz-adv-x="2148" 
d="M453 592v817l-228 -106v102l336 156v-969h-108zM500 0h-129l1192 1536h129zM2028 96v-94h-730l383 414q95 105 118 138q46 67 46 134q0 80 -56.5 128t-141.5 48q-139 0 -291 -125v111q136 111 303 111q129 0 213 -72t84 -189q0 -74 -37.5 -138t-114.5 -152l-288 -314h512
z" />
    <glyph glyph-name="threequarters" unicode="&#xbe;" horiz-adv-x="2148" 
d="M406 580q-138 0 -277 79v111q126 -94 281 -94q69 0 124 18t91.5 61t36.5 107q0 90 -71.5 136.5t-174.5 43.5q-66 0 -131 -12v92l121 23q210 35 210 176q0 68 -50.5 103.5t-127.5 35.5q-150 0 -284 -117v107q120 102 290 102q119 0 198 -59.5t79 -167.5q0 -80 -50 -135.5
t-134 -85.5q107 -20 171 -83.5t64 -164.5q0 -91 -52 -155t-133 -92.5t-181 -28.5zM530 0h-129l1192 1536h129zM1999 205h-137v-207h-107v207h-557l424 739h117l-367 -645h383v332h107v-332h137v-94z" />
    <glyph glyph-name="questiondown" unicode="&#xbf;" horiz-adv-x="1081" 
d="M612 1020q43 0 71 -27t28 -69q0 -43 -28 -71t-71 -28t-70.5 28t-27.5 71t27.5 69.5t70.5 26.5zM1024 -115q0 -196 -133 -315t-344 -119q-198 0 -323.5 109.5t-125.5 292.5q0 137 81.5 239.5t226.5 157.5l143 51l8 256h111l10 -336l-191 -63q-122 -39 -191 -116.5
t-69 -186.5q0 -131 90 -210t232 -79q156 0 252 87.5t96 231.5h127z" />
    <glyph glyph-name="Agrave" unicode="&#xc0;" horiz-adv-x="1482" 
d="M453 1935h161l207 -286h-116zM1305 0l-172 387h-791l-172 -387h-147l720 1567l715 -1567h-153zM395 502h686l-342 770z" />
    <glyph glyph-name="Aacute" unicode="&#xc1;" horiz-adv-x="1482" 
d="M856 1935h162l-252 -286h-117zM1305 0l-172 387h-791l-172 -387h-147l720 1567l715 -1567h-153zM395 502h686l-342 770z" />
    <glyph glyph-name="Acircumflex" unicode="&#xc2;" horiz-adv-x="1482" 
d="M930 1649l-191 200l-190 -200h-131l248 286h145l250 -286h-131zM1305 0l-172 387h-791l-172 -387h-147l720 1567l715 -1567h-153zM395 502h686l-342 770z" />
    <glyph glyph-name="Atilde" unicode="&#xc3;" horiz-adv-x="1482" 
d="M870 1708q-48 0 -132 45t-117 45q-42 0 -66.5 -25.5t-24.5 -70.5h-90q-3 94 42 150.5t124 56.5q48 0 137 -47t119 -47q42 0 66 25.5t24 70.5h86q6 -92 -40 -147.5t-128 -55.5zM1305 0l-172 387h-791l-172 -387h-147l720 1567l715 -1567h-153zM395 502h686l-342 770z" />
    <glyph glyph-name="Adieresis" unicode="&#xc4;" horiz-adv-x="1482" 
d="M543 1722q-37 0 -61.5 23.5t-24.5 60.5q0 38 24.5 62t61.5 24q38 0 62 -24t24 -62q0 -37 -24 -60.5t-62 -23.5zM938 1722q-38 0 -62 23.5t-24 60.5q0 38 24 62t62 24q37 0 60.5 -24t23.5 -62q0 -37 -23.5 -60.5t-60.5 -23.5zM1305 0l-172 387h-791l-172 -387h-147
l720 1567l715 -1567h-153zM395 502h686l-342 770z" />
    <glyph glyph-name="Aring" unicode="&#xc5;" 
d="M653 -8q-167 0 -292 99t-190 275t-65 406q0 227 65.5 401.5t190.5 272.5t291 98q167 0 292 -97.5t191 -272t66 -402.5q0 -230 -65.5 -406t-190.5 -275t-293 -99zM653 121q130 0 224.5 83t143 229.5t48.5 338.5q0 288 -111.5 465.5t-304.5 177.5q-128 0 -222 -82.5
t-142.5 -227t-48.5 -333.5q0 -293 110 -472t303 -179z" />
    <glyph glyph-name="AE" unicode="&#xc6;" horiz-adv-x="2039" 
d="M1079 0v399h-630l-277 -399h-149l1054 1536h889v-121h-756v-575h670v-121h-670v-598h779v-121h-910zM1079 516v805l-553 -805h553z" />
    <glyph glyph-name="Ccedilla" unicode="&#xc7;" horiz-adv-x="1433" 
d="M793 -492q-65 0 -140 35v76q70 -39 138 -39q53 0 87.5 25.5t34.5 72.5q0 45 -32 73t-80 28q-37 0 -72 -12l-27 28l78 191q-309 25 -500.5 241.5t-191.5 540.5q0 170 57.5 316t158 248.5t244 161t310.5 58.5q305 0 498 -168v-159q-96 103 -226.5 154t-281.5 51
q-137 0 -254.5 -50.5t-198.5 -138.5t-126.5 -210t-45.5 -263q0 -190 80 -340.5t225 -236t330 -85.5q327 0 520 187v-150q-194 -150 -506 -159l-63 -148q20 2 49 2q67 -6 111.5 -49t44.5 -111q0 -80 -63 -125t-158 -45z" />
    <glyph glyph-name="Egrave" unicode="&#xc8;" horiz-adv-x="1138" 
d="M393 1935h162l207 -286h-117zM178 0v1536h889v-121h-756v-575h670v-121h-670v-598h779v-121h-912z" />
    <glyph glyph-name="Eacute" unicode="&#xc9;" horiz-adv-x="1138" 
d="M698 1935h162l-252 -286h-116zM178 0v1536h889v-121h-756v-575h670v-121h-670v-598h779v-121h-912z" />
    <glyph glyph-name="Ecircumflex" unicode="&#xca;" horiz-adv-x="1138" 
d="M821 1649l-190 200l-191 -200h-131l248 286h145l250 -286h-131zM178 0v1536h889v-121h-756v-575h670v-121h-670v-598h779v-121h-912z" />
    <glyph glyph-name="Edieresis" unicode="&#xcb;" horiz-adv-x="1138" 
d="M426 1712q-37 0 -61.5 23.5t-24.5 60.5q0 38 24.5 62t61.5 24q38 0 62 -24t24 -62q0 -37 -24 -60.5t-62 -23.5zM821 1712q-38 0 -62 23.5t-24 60.5q0 38 24 62t62 24q37 0 60.5 -24t23.5 -62q0 -37 -23.5 -60.5t-60.5 -23.5zM178 0v1536h889v-121h-756v-575h670v-121
h-670v-598h779v-121h-912z" />
    <glyph glyph-name="Igrave" unicode="&#xcc;" horiz-adv-x="489" 
d="M-33 1935h162l207 -286h-117zM178 0v1536h133v-1536h-133z" />
    <glyph glyph-name="Iacute" unicode="&#xcd;" horiz-adv-x="497" 
d="M182 61v1344q0 57 37.5 94t93.5 37v-1475q0 -32 -18.5 -49.5t-46.5 -17.5q-27 0 -46.5 17.5t-19.5 49.5z" />
    <glyph glyph-name="Icircumflex" unicode="&#xce;" horiz-adv-x="1083" 
d="M692 664l-590 -646q-43 25 -49.5 74t29.5 88l491 545q8 9 40 43t42.5 45.5t37.5 42.5t38 47t31.5 45t29.5 49.5t20 47.5t15 53t4 53q0 127 -89 199.5t-228 72.5q-224 0 -418 -178v154q195 153 422 153q192 0 318.5 -105t126.5 -292q0 -56 -17.5 -114t-38 -99.5
t-65.5 -100.5t-69.5 -87t-80.5 -90zM975 0h-760l123 127h637q31 0 49 -19t18 -45q0 -25 -18 -44t-49 -19z" />
    <glyph glyph-name="Idieresis" unicode="&#xcf;" horiz-adv-x="1087" 
d="M670 1409h-533q-32 0 -49.5 18.5t-17.5 45.5t17.5 45t49.5 18h656zM471 -16q-229 0 -416 125v149q194 -149 408 -149q173 0 288 97.5t115 264.5q0 177 -139 272t-367 95h-79l624 682q42 -25 49 -75t-30 -89l-377 -420q200 -19 327 -144t127 -321q0 -112 -42 -204.5
t-114.5 -154t-168.5 -95t-205 -33.5z" />
    <glyph glyph-name="Eth" unicode="&#xd0;" horiz-adv-x="1624" 
d="M27 834h194v702h514q362 0 581.5 -209t219.5 -559t-218 -559t-579 -209h-518v715h-194v119zM858 715h-506v-596h396q302 0 477.5 174.5t175.5 474.5q0 299 -175.5 473t-477.5 174h-396v-581h506v-119z" />
    <glyph glyph-name="Ntilde" unicode="&#xd1;" horiz-adv-x="1622" 
d="M975 1708q-47 0 -132 45t-118 45q-42 0 -66 -25.5t-24 -70.5h-90q-3 94 42 150.5t124 56.5q48 0 137 -47t119 -47q42 0 66 25.5t24 70.5h86q6 -92 -40 -147.5t-128 -55.5zM1440 -31l-1129 1272v-1241h-133v1567l1131 -1272v1241h131v-1567z" />
    <glyph glyph-name="Ograve" unicode="&#xd2;" horiz-adv-x="1191" 
d="M596 -16q-104 0 -198 30.5t-166.5 85.5t-115 139.5t-42.5 186.5q0 129 78 231t210 154q-99 52 -155.5 140t-56.5 196q0 92 36.5 169t98 128t142 79.5t169.5 28.5t169.5 -28.5t142 -79.5t98 -128t36.5 -169q0 -111 -55.5 -198t-152.5 -138q129 -48 205.5 -149.5
t76.5 -235.5q0 -102 -42.5 -186.5t-114 -139.5t-165.5 -85.5t-198 -30.5zM596 864q135 0 227 79.5t92 201.5q0 127 -93 206t-226 79t-226.5 -79t-93.5 -206q0 -121 93 -201t227 -80zM596 109q164 0 276.5 87t112.5 230q0 140 -112.5 232t-276.5 92t-276.5 -92t-112.5 -232
q0 -142 113.5 -229.5t275.5 -87.5z" />
    <glyph glyph-name="Oacute" unicode="&#xd3;" horiz-adv-x="1124" 
d="M918 1409h-539v127h539q31 0 48 -18.5t17 -44.5q0 -25 -17.5 -44.5t-47.5 -19.5zM102 92v148q175 -131 402 -131q187 0 297 96.5t110 263.5q0 84 -31 146t-87.5 99.5t-130.5 55.5t-166 18l-342 -2l-2 623q0 53 37.5 90t91.5 37v-623h211q262 0 408.5 -110.5t146.5 -335.5
q0 -217 -151.5 -350t-389.5 -133q-214 0 -404 108z" />
    <glyph glyph-name="Ocircumflex" unicode="&#xd4;" horiz-adv-x="1153" 
d="M801 1536l-537 -831q-63 -88 -63 -220q0 -157 110.5 -265.5t268.5 -108.5q157 0 266.5 108.5t109.5 265.5q0 123 -67.5 217.5t-178.5 135t-235 14.5l78 127q108 10 207 -25t170.5 -102t114 -163.5t42.5 -203.5q0 -210 -148 -355.5t-359 -145.5q-139 0 -256.5 66
t-185.5 181.5t-68 253.5q0 154 77 273l504 778h150z" />
    <glyph glyph-name="Otilde" unicode="&#xd5;" horiz-adv-x="1736" 
d="M997 1708q-47 0 -132 45t-117 45q-42 0 -66.5 -25.5t-24.5 -70.5h-90q-3 94 42 150.5t124 56.5q48 0 137 -47t119 -47q42 0 66 25.5t24 70.5h86q6 -92 -40 -147.5t-128 -55.5zM1649 770q0 -170 -58 -316t-160 -249.5t-247.5 -162t-315.5 -58.5t-315 58.5t-247.5 162
t-160 249.5t-57.5 316t58 315.5t160.5 248t247.5 160.5t314 58q225 0 403 -99.5t278 -278t100 -404.5zM868 106q188 0 335.5 86t228.5 237t81 341q0 288 -181 474t-464 186q-141 0 -261.5 -49.5t-204.5 -136.5t-131.5 -209.5t-47.5 -264.5q0 -190 80.5 -341t228.5 -237
t336 -86z" />
    <glyph glyph-name="Odieresis" unicode="&#xd6;" horiz-adv-x="1736" 
d="M670 1712q-37 0 -61.5 23.5t-24.5 60.5q0 38 24.5 62t61.5 24q38 0 62 -24t24 -62q0 -37 -24 -60.5t-62 -23.5zM1065 1712q-38 0 -62 23.5t-24 60.5q0 38 24 62t62 24q37 0 60.5 -24t23.5 -62q0 -37 -23.5 -60.5t-60.5 -23.5zM1649 770q0 -170 -58 -316t-160 -249.5
t-247.5 -162t-315.5 -58.5t-315 58.5t-247.5 162t-160 249.5t-57.5 316t58 315.5t160.5 248t247.5 160.5t314 58q225 0 403 -99.5t278 -278t100 -404.5zM868 106q188 0 335.5 86t228.5 237t81 341q0 288 -181 474t-464 186q-141 0 -261.5 -49.5t-204.5 -136.5t-131.5 -209.5
t-47.5 -264.5q0 -190 80.5 -341t228.5 -237t336 -86z" />
    <glyph glyph-name="multiply" unicode="&#xd7;" horiz-adv-x="1124" 
d="M956 449l-79 -80l-316 315l-315 -315l-80 80l315 315l-315 315l80 80l315 -315l316 315l79 -80l-313 -315z" />
    <glyph glyph-name="Oslash" unicode="&#xd8;" horiz-adv-x="1796" 
d="M1675 770q0 -170 -57.5 -316t-160 -249.5t-247.5 -162t-315 -58.5q-312 0 -522 188l-178 -172h-158l254 250q-178 213 -178 520q0 170 58 315.5t160.5 248t248 160.5t315.5 58q315 0 524 -190l178 174h158l-256 -252q176 -214 176 -514zM248 770q0 -248 137 -424l942 924
q-171 160 -432 160q-141 0 -261.5 -49.5t-205 -136.5t-132.5 -209.5t-48 -264.5zM1540 770q0 244 -135 418l-942 -922q171 -160 432 -160q188 0 336 86t228.5 237t80.5 341z" />
    <glyph glyph-name="Ugrave" unicode="&#xd9;" horiz-adv-x="1542" 
d="M522 1935h162l207 -286h-117zM156 637v899h131v-901q0 -238 132 -383.5t353 -145.5q218 0 350.5 146t132.5 383v901h131v-899q0 -193 -76 -341t-216.5 -230t-323.5 -82q-185 0 -324.5 82t-214.5 230t-75 341z" />
    <glyph glyph-name="Uacute" unicode="&#xda;" horiz-adv-x="1153" 
d="M352 0l537 831q63 88 63 220q0 157 -110.5 265.5t-268.5 108.5q-157 0 -266.5 -108.5t-109.5 -265.5q0 -123 67.5 -217.5t178.5 -135t235 -14.5l-78 -127q-108 -10 -207 25t-170.5 102t-114 163.5t-42.5 203.5q0 210 148 355.5t359 145.5q139 0 256.5 -66t185.5 -181.5
t68 -253.5q0 -154 -77 -273l-504 -778h-150z" />
    <glyph glyph-name="Ucircumflex" unicode="&#xdb;" horiz-adv-x="1542" 
d="M965 1649l-191 200l-190 -200h-131l247 286h146l250 -286h-131zM156 637v899h131v-901q0 -238 132 -383.5t353 -145.5q218 0 350.5 146t132.5 383v901h131v-899q0 -193 -76 -341t-216.5 -230t-323.5 -82q-185 0 -324.5 82t-214.5 230t-75 341z" />
    <glyph glyph-name="Udieresis" unicode="&#xdc;" horiz-adv-x="1542" 
d="M573 1712q-37 0 -61.5 23.5t-24.5 60.5q0 38 24.5 62t61.5 24q38 0 62 -24t24 -62q0 -37 -24 -60.5t-62 -23.5zM969 1712q-38 0 -62 23.5t-24 60.5q0 38 24 62t62 24q37 0 60.5 -24t23.5 -62q0 -37 -23.5 -60.5t-60.5 -23.5zM156 637v899h131v-901q0 -238 132 -383.5
t353 -145.5q218 0 350.5 146t132.5 383v901h131v-899q0 -193 -76 -341t-216.5 -230t-323.5 -82q-185 0 -324.5 82t-214.5 230t-75 341z" />
    <glyph glyph-name="Yacute" unicode="&#xdd;" horiz-adv-x="1316" 
d="M772 1935h162l-252 -286h-117zM1298 1536l-571 -940v-596h-131v582l-578 954h154l487 -813l492 813h147z" />
    <glyph glyph-name="Thorn" unicode="&#xde;" horiz-adv-x="1189" 
d="M573 283h-262v-283h-133v1536h133v-264h267q240 0 385 -133.5t145 -360.5t-147 -361t-388 -134zM580 1151h-269v-748h269q180 0 285.5 101.5t105.5 273.5t-105.5 272.5t-285.5 100.5z" />
    <glyph glyph-name="germandbls" unicode="&#xdf;" horiz-adv-x="1241" 
d="M301 0h-127v1149q0 178 110.5 290.5t286.5 112.5q160 0 264.5 -89.5t104.5 -237.5q0 -87 -57 -201l-52 -104q-18 -36 -25.5 -51.5t-13.5 -36t-6 -39.5q0 -36 23.5 -62.5t81.5 -64.5l149 -97q71 -44 110.5 -107.5t39.5 -139.5q0 -155 -110 -246.5t-277 -91.5
q-186 0 -305 92v145q120 -129 305 -129q110 0 183 57t73 158q0 106 -107 176l-161 99q-134 84 -134 184q0 67 50 164l49 96q53 104 53 178q0 101 -69.5 166.5t-176.5 65.5q-116 0 -189 -77.5t-73 -195.5v-1163z" />
    <glyph glyph-name="agrave" unicode="&#xe0;" 
d="M408 1454h161l207 -287h-117zM1004 0v231q-55 -116 -159.5 -181.5t-240.5 -65.5q-219 0 -360.5 145.5t-141.5 368.5q0 228 141.5 375t360.5 147q136 0 240.5 -67t159.5 -183v234h126v-1004h-126zM616 899q-168 0 -275.5 -112.5t-107.5 -286.5q0 -173 107.5 -285.5
t275.5 -112.5t278 113t110 285q0 173 -109.5 286t-278.5 113z" />
    <glyph glyph-name="aacute" unicode="&#xe1;" 
d="M764 1454h162l-252 -287h-117zM1004 0v231q-55 -116 -159.5 -181.5t-240.5 -65.5q-219 0 -360.5 145.5t-141.5 368.5q0 228 141.5 375t360.5 147q136 0 240.5 -67t159.5 -183v234h126v-1004h-126zM616 899q-168 0 -275.5 -112.5t-107.5 -286.5q0 -173 107.5 -285.5
t275.5 -112.5t278 113t110 285q0 173 -109.5 286t-278.5 113z" />
    <glyph glyph-name="acircumflex" unicode="&#xe2;" 
d="M862 1167l-190 201l-191 -201h-131l248 287h145l250 -287h-131zM1004 0v231q-55 -116 -159.5 -181.5t-240.5 -65.5q-219 0 -360.5 145.5t-141.5 368.5q0 228 141.5 375t360.5 147q136 0 240.5 -67t159.5 -183v234h126v-1004h-126zM616 899q-168 0 -275.5 -112.5
t-107.5 -286.5q0 -173 107.5 -285.5t275.5 -112.5t278 113t110 285q0 173 -109.5 286t-278.5 113z" />
    <glyph glyph-name="atilde" unicode="&#xe3;" 
d="M784 1227q-48 0 -132 45t-117 45q-42 0 -66.5 -25.5t-24.5 -70.5h-90q-3 94 42 150t124 56q48 0 137 -47t119 -47q42 0 66 26t24 71h86q6 -92 -40 -147.5t-128 -55.5zM1004 0v231q-55 -116 -159.5 -181.5t-240.5 -65.5q-219 0 -360.5 145.5t-141.5 368.5q0 228 141.5 375
t360.5 147q136 0 240.5 -67t159.5 -183v234h126v-1004h-126zM616 899q-168 0 -275.5 -112.5t-107.5 -286.5q0 -173 107.5 -285.5t275.5 -112.5t278 113t110 285q0 173 -109.5 286t-278.5 113z" />
    <glyph glyph-name="adieresis" unicode="&#xe4;" 
d="M461 1221q-37 0 -61.5 23.5t-24.5 60.5q0 38 24.5 62t61.5 24q38 0 62 -24t24 -62q0 -37 -24 -60.5t-62 -23.5zM856 1221q-38 0 -62 23.5t-24 60.5q0 38 24 62t62 24q37 0 60.5 -24t23.5 -62q0 -37 -23.5 -60.5t-60.5 -23.5zM1004 0v231q-55 -116 -159.5 -181.5
t-240.5 -65.5q-219 0 -360.5 145.5t-141.5 368.5q0 228 141.5 375t360.5 147q136 0 240.5 -67t159.5 -183v234h126v-1004h-126zM616 899q-168 0 -275.5 -112.5t-107.5 -286.5q0 -173 107.5 -285.5t275.5 -112.5t278 113t110 285q0 173 -109.5 286t-278.5 113z" />
    <glyph glyph-name="aring" unicode="&#xe5;" 
d="M664 1511q80 0 133 -49.5t53 -126.5q0 -79 -53 -129.5t-133 -50.5t-133.5 50.5t-53.5 127.5t53.5 127.5t133.5 50.5zM555 1333q0 -46 31 -76t78 -30t77.5 30.5t30.5 77.5q0 45 -31 75t-77 30q-49 0 -79 -29.5t-30 -77.5zM1004 0v231q-55 -116 -159.5 -181.5t-240.5 -65.5
q-219 0 -360.5 145.5t-141.5 368.5q0 228 141.5 375t360.5 147q136 0 240.5 -67t159.5 -183v234h126v-1004h-126zM616 899q-168 0 -275.5 -112.5t-107.5 -286.5q0 -173 107.5 -285.5t275.5 -112.5t278 113t110 285q0 173 -109.5 286t-278.5 113z" />
    <glyph glyph-name="ae" unicode="&#xe6;" horiz-adv-x="1908" 
d="M1739 96q-161 -112 -369 -112q-143 0 -257 58t-183 173q-197 -231 -465 -231q-104 0 -187 32t-135.5 101.5t-52.5 167.5q0 132 93.5 207t236.5 75h422q-3 150 -94.5 243t-237.5 93q-181 0 -338 -110v127q158 100 350 100q140 0 245.5 -70t152.5 -198q51 125 159.5 196.5
t249.5 71.5q212 0 342.5 -138.5t132.5 -355.5q0 -40 -2 -63h-823q12 -163 120.5 -263t270.5 -100q207 0 369 125v-129zM1327 903q-149 0 -244.5 -92.5t-109.5 -243.5h698q-9 153 -102 244.5t-242 91.5zM477 100q124 0 226 56.5t174 154.5q-20 59 -31 152h-424
q-88 0 -144.5 -47t-56.5 -127q0 -96 73.5 -142.5t182.5 -46.5z" />
    <glyph glyph-name="ccedilla" unicode="&#xe7;" horiz-adv-x="1056" 
d="M803 -322q0 -80 -62.5 -125t-156.5 -45q-67 0 -142 35v76q70 -39 138 -39q53 0 87.5 25.5t34.5 72.5q0 45 -32 73t-80 28q-38 0 -72 -12l-26 28l77 191q-208 17 -337.5 159.5t-129.5 356.5q0 227 146.5 372.5t372.5 145.5q200 0 333 -115v-141q-123 135 -325 135
q-173 0 -284.5 -111.5t-111.5 -285.5t112 -287t288 -113q198 0 332 119v-131q-130 -98 -301 -104l-64 -150q14 2 39 2q73 -6 118.5 -48.5t45.5 -111.5z" />
    <glyph glyph-name="egrave" unicode="&#xe8;" horiz-adv-x="1173" 
d="M315 1454h162l207 -287h-117zM637 -16q-237 0 -386 142.5t-149 369.5q0 228 135 376t359 148q215 0 345 -142t130 -364q0 -21 -4 -61h-831q15 -157 124 -255t277 -98q208 0 367 123v-125q-155 -114 -367 -114zM238 557h700q-9 152 -100.5 249t-241.5 97
q-154 0 -248 -96.5t-110 -249.5z" />
    <glyph glyph-name="eacute" unicode="&#xe9;" horiz-adv-x="1173" 
d="M709 1454h161l-252 -287h-116zM637 -16q-237 0 -386 142.5t-149 369.5q0 228 135 376t359 148q215 0 345 -142t130 -364q0 -21 -4 -61h-831q15 -157 124 -255t277 -98q208 0 367 123v-125q-155 -114 -367 -114zM238 557h700q-9 152 -100.5 249t-241.5 97
q-154 0 -248 -96.5t-110 -249.5z" />
    <glyph glyph-name="ecircumflex" unicode="&#xea;" horiz-adv-x="1173" 
d="M788 1167l-190 201l-190 -201h-132l248 287h146l250 -287h-132zM637 -16q-237 0 -386 142.5t-149 369.5q0 228 135 376t359 148q215 0 345 -142t130 -364q0 -21 -4 -61h-831q15 -157 124 -255t277 -98q208 0 367 123v-125q-155 -114 -367 -114zM238 557h700
q-9 152 -100.5 249t-241.5 97q-154 0 -248 -96.5t-110 -249.5z" />
    <glyph glyph-name="edieresis" unicode="&#xeb;" horiz-adv-x="1173" 
d="M399 1221q-37 0 -61.5 23.5t-24.5 60.5q0 38 24.5 62t61.5 24q38 0 62 -24t24 -62q0 -37 -24 -60.5t-62 -23.5zM795 1221q-38 0 -62 23.5t-24 60.5q0 38 24 62t62 24q37 0 60.5 -24t23.5 -62q0 -37 -23.5 -60.5t-60.5 -23.5zM637 -16q-237 0 -386 142.5t-149 369.5
q0 228 135 376t359 148q215 0 345 -142t130 -364q0 -21 -4 -61h-831q15 -157 124 -255t277 -98q208 0 367 123v-125q-155 -114 -367 -114zM238 557h700q-9 152 -100.5 249t-241.5 97q-154 0 -248 -96.5t-110 -249.5z" />
    <glyph glyph-name="igrave" unicode="&#xec;" horiz-adv-x="485" 
d="M-35 1454h162l207 -287h-117zM178 0v1004h127v-1004h-127z" />
    <glyph glyph-name="iacute" unicode="&#xed;" horiz-adv-x="485" 
d="M356 1454h162l-252 -287h-116zM178 0v1004h127v-1004h-127z" />
    <glyph glyph-name="icircumflex" unicode="&#xee;" horiz-adv-x="485" 
d="M434 1167l-190 201l-191 -201h-131l248 287h145l250 -287h-131zM178 0v1004h127v-1004h-127z" />
    <glyph glyph-name="idieresis" unicode="&#xef;" horiz-adv-x="485" 
d="M47 1221q-37 0 -61.5 23.5t-24.5 60.5q0 38 24.5 62t61.5 24q38 0 62 -24t24 -62q0 -37 -24 -60.5t-62 -23.5zM442 1221q-38 0 -62 23.5t-24 60.5q0 38 24 62t62 24q37 0 60.5 -24t23.5 -62q0 -37 -23.5 -60.5t-60.5 -23.5zM178 0v1004h127v-1004h-127z" />
    <glyph glyph-name="eth" unicode="&#xf0;" horiz-adv-x="1153" 
d="M1079 555q0 -252 -141 -411.5t-381 -159.5q-213 0 -351 138t-138 355q0 216 138.5 353t354.5 137q122 0 219.5 -54.5t155.5 -152.5q-38 356 -264 532l-189 -178h-151l246 236q-149 84 -332 84v108q237 0 416 -110l110 104h152l-172 -164q158 -128 242.5 -337.5
t84.5 -479.5zM563 102q169 0 272 107.5t103 282.5q0 158 -104.5 256t-266.5 98t-265 -105t-103 -268q0 -162 102.5 -266.5t261.5 -104.5z" />
    <glyph glyph-name="ntilde" unicode="&#xf1;" horiz-adv-x="1230" 
d="M756 1227q-38 0 -86 22.5t-91.5 45t-72.5 22.5q-42 0 -66 -25.5t-24 -70.5h-90q-3 94 42 150t124 56q48 0 137 -47t119 -47q42 0 66 26t24 71h86q6 -92 -40 -147.5t-128 -55.5zM305 502v-502h-127v1004h127v-230q52 113 150 179.5t221 66.5q193 0 295 -122.5t102 -324.5
v-573h-127v555q0 170 -76.5 256t-224.5 86q-149 0 -244.5 -113t-95.5 -282z" />
    <glyph glyph-name="ograve" unicode="&#xf2;" horiz-adv-x="1239" 
d="M348 1454h162l207 -287h-117zM623 -16q-227 0 -374 147t-147 373q0 223 147 369.5t374 146.5q225 0 369.5 -145.5t144.5 -370.5q0 -226 -144.5 -373t-369.5 -147zM1006 502q0 172 -108.5 284.5t-276.5 112.5q-170 0 -279 -112.5t-109 -284.5q0 -174 109 -287t279 -113
q168 0 276.5 113t108.5 287z" />
    <glyph glyph-name="oacute" unicode="&#xf3;" horiz-adv-x="1239" 
d="M743 1454h162l-252 -287h-116zM623 -16q-227 0 -374 147t-147 373q0 223 147 369.5t374 146.5q225 0 369.5 -145.5t144.5 -370.5q0 -226 -144.5 -373t-369.5 -147zM1006 502q0 172 -108.5 284.5t-276.5 112.5q-170 0 -279 -112.5t-109 -284.5q0 -174 109 -287t279 -113
q168 0 276.5 113t108.5 287z" />
    <glyph glyph-name="ocircumflex" unicode="&#xf4;" horiz-adv-x="1239" 
d="M809 1167l-191 201l-190 -201h-131l248 287h145l250 -287h-131zM623 -16q-227 0 -374 147t-147 373q0 223 147 369.5t374 146.5q225 0 369.5 -145.5t144.5 -370.5q0 -226 -144.5 -373t-369.5 -147zM1006 502q0 172 -108.5 284.5t-276.5 112.5q-170 0 -279 -112.5
t-109 -284.5q0 -174 109 -287t279 -113q168 0 276.5 113t108.5 287z" />
    <glyph glyph-name="otilde" unicode="&#xf5;" horiz-adv-x="1239" 
d="M748 1227q-38 0 -86 22.5t-91.5 45t-72.5 22.5q-42 0 -66 -25.5t-24 -70.5h-91q-3 94 42 150t124 56q48 0 137 -47t119 -47q42 0 66 26t24 71h86q6 -92 -39.5 -147.5t-127.5 -55.5zM623 -16q-227 0 -374 147t-147 373q0 223 147 369.5t374 146.5q225 0 369.5 -145.5
t144.5 -370.5q0 -226 -144.5 -373t-369.5 -147zM1006 502q0 172 -108.5 284.5t-276.5 112.5q-170 0 -279 -112.5t-109 -284.5q0 -174 109 -287t279 -113q168 0 276.5 113t108.5 287z" />
    <glyph glyph-name="odieresis" unicode="&#xf6;" horiz-adv-x="1239" 
d="M420 1221q-37 0 -61.5 23.5t-24.5 60.5q0 38 24.5 62t61.5 24q38 0 62 -24t24 -62q0 -37 -24 -60.5t-62 -23.5zM815 1221q-38 0 -62 23.5t-24 60.5q0 38 24 62t62 24q37 0 60.5 -24t23.5 -62q0 -37 -23.5 -60.5t-60.5 -23.5zM623 -16q-227 0 -374 147t-147 373
q0 223 147 369.5t374 146.5q225 0 369.5 -145.5t144.5 -370.5q0 -226 -144.5 -373t-369.5 -147zM1006 502q0 172 -108.5 284.5t-276.5 112.5q-170 0 -279 -112.5t-109 -284.5q0 -174 109 -287t279 -113q168 0 276.5 113t108.5 287z" />
    <glyph glyph-name="divide" unicode="&#xf7;" horiz-adv-x="1124" 
d="M561 1034q-33 0 -57.5 24.5t-24.5 57.5q0 38 24 62t58 24t58 -24t24 -62q0 -33 -24.5 -57.5t-57.5 -24.5zM123 717v117h878v-117h-878zM561 348q-34 0 -58 24t-24 58q0 37 23.5 60.5t58.5 23.5t58.5 -23.5t23.5 -60.5q0 -34 -24 -58t-58 -24z" />
    <glyph glyph-name="oslash" unicode="&#xf8;" horiz-adv-x="1288" 
d="M1159 504q0 -226 -144 -373t-368 -147q-203 0 -338 120l-110 -104h-156l190 180q-104 135 -104 324q0 223 146.5 369.5t371.5 146.5q196 0 336 -121l107 105h155l-186 -181q100 -130 100 -319zM260 502q0 -134 66 -228l563 537q-98 88 -242 88q-170 0 -278.5 -112.5
t-108.5 -284.5zM1030 502q0 132 -67 227l-562 -536q97 -91 246 -91q167 0 275 113t108 287z" />
    <glyph glyph-name="ugrave" unicode="&#xf9;" horiz-adv-x="1175" 
d="M324 1454h161l207 -287h-117zM899 426v578h127v-566q0 -212 -118.5 -333t-319.5 -121q-203 0 -322 121t-119 333v566h127v-578q0 -156 85.5 -240t228.5 -84t227 84t84 240z" />
    <glyph glyph-name="uacute" unicode="&#xfa;" horiz-adv-x="1175" 
d="M698 1454h162l-252 -287h-116zM899 426v578h127v-566q0 -212 -118.5 -333t-319.5 -121q-203 0 -322 121t-119 333v566h127v-578q0 -156 85.5 -240t228.5 -84t227 84t84 240z" />
    <glyph glyph-name="ucircumflex" unicode="&#xfb;" horiz-adv-x="1175" 
d="M776 1167l-190 201l-191 -201h-131l248 287h145l250 -287h-131zM899 426v578h127v-566q0 -212 -118.5 -333t-319.5 -121q-203 0 -322 121t-119 333v566h127v-578q0 -156 85.5 -240t228.5 -84t227 84t84 240z" />
    <glyph glyph-name="udieresis" unicode="&#xfc;" horiz-adv-x="1175" 
d="M389 1221q-37 0 -61.5 23.5t-24.5 60.5q0 38 24.5 62t61.5 24q38 0 62 -24t24 -62q0 -37 -24 -60.5t-62 -23.5zM784 1221q-38 0 -62 23.5t-24 60.5q0 38 24 62t62 24q37 0 60.5 -24t23.5 -62q0 -37 -23.5 -60.5t-60.5 -23.5zM899 426v578h127v-566q0 -212 -118.5 -333
t-319.5 -121q-203 0 -322 121t-119 333v566h127v-578q0 -156 85.5 -240t228.5 -84t227 84t84 240z" />
    <glyph glyph-name="yacute" unicode="&#xfd;" horiz-adv-x="1040" 
d="M664 1454h161l-252 -287h-116zM1016 1004l-733 -1516h-133l317 659l-444 857h149l365 -713l346 713h133z" />
    <glyph glyph-name="thorn" unicode="&#xfe;" 
d="M705 -16q-136 0 -241.5 66.5t-158.5 182.5v-745h-127v2048h127v-766q53 116 158.5 183t241.5 67q218 0 359.5 -146.5t141.5 -369.5q0 -226 -141.5 -373t-359.5 -147zM1075 502q0 172 -107.5 284.5t-275.5 112.5t-277.5 -112.5t-109.5 -284.5q0 -174 109.5 -287
t277.5 -113t275.5 113t107.5 287z" />
    <glyph glyph-name="ydieresis" unicode="&#xff;" horiz-adv-x="1040" 
d="M334 1221q-37 0 -61.5 23.5t-24.5 60.5q0 38 24.5 62t61.5 24q38 0 62 -24t24 -62q0 -37 -24 -60.5t-62 -23.5zM729 1221q-38 0 -62 23.5t-24 60.5q0 38 24 62t62 24q37 0 60.5 -24t23.5 -62q0 -37 -23.5 -60.5t-60.5 -23.5zM1016 1004l-733 -1516h-133l317 659l-444 857
h149l365 -713l346 713h133z" />
    <glyph glyph-name="Amacron" unicode="&#x100;" horiz-adv-x="1482" 
d="M449 1847h581v-106h-581v106zM1305 0l-172 387h-791l-172 -387h-147l720 1567l715 -1567h-153zM395 502h686l-342 770z" />
    <glyph glyph-name="amacron" unicode="&#x101;" 
d="M369 1366h581v-106h-581v106zM1004 0v231q-55 -116 -159.5 -181.5t-240.5 -65.5q-219 0 -360.5 145.5t-141.5 368.5q0 228 141.5 375t360.5 147q136 0 240.5 -67t159.5 -183v234h126v-1004h-126zM616 899q-168 0 -275.5 -112.5t-107.5 -286.5q0 -173 107.5 -285.5
t275.5 -112.5t278 113t110 285q0 173 -109.5 286t-278.5 113z" />
    <glyph glyph-name="Abreve" unicode="&#x102;" horiz-adv-x="1482" 
d="M739 1763q78 0 130.5 50t52.5 122h108q0 -114 -82 -193t-209 -79t-206.5 78.5t-79.5 193.5h106q0 -72 52.5 -122t127.5 -50zM1305 0l-172 387h-791l-172 -387h-147l720 1567l715 -1567h-153zM395 502h686l-342 770z" />
    <glyph glyph-name="abreve" unicode="&#x103;" 
d="M662 1272q78 0 130 50t52 122h108q0 -115 -81.5 -194t-208.5 -79t-207 79t-80 194h106q0 -72 53 -122t128 -50zM1004 0v231q-55 -116 -159.5 -181.5t-240.5 -65.5q-219 0 -360.5 145.5t-141.5 368.5q0 228 141.5 375t360.5 147q136 0 240.5 -67t159.5 -183v234h126v-1004
h-126zM616 899q-168 0 -275.5 -112.5t-107.5 -286.5q0 -173 107.5 -285.5t275.5 -112.5t278 113t110 285q0 173 -109.5 286t-278.5 113z" />
    <glyph glyph-name="Aogonek" unicode="&#x104;" horiz-adv-x="1482" 
d="M1329 -492q-80 0 -137 43.5t-70 118.5q-32 185 183 332l-172 385h-791l-172 -387h-147l720 1567l715 -1567l-24 -4q-227 -132 -197 -295q7 -49 40 -76.5t81 -27.5q46 0 82 20v-82q-59 -27 -111 -27zM739 1272l-344 -770h686z" />
    <glyph glyph-name="aogonek" unicode="&#x105;" 
d="M1018 -492q-79 0 -135.5 43.5t-71.5 118.5q-12 72 12.5 137t69 110.5t111.5 90.5v223q-55 -116 -159.5 -181.5t-240.5 -65.5q-219 0 -360.5 145.5t-141.5 368.5q0 228 141.5 375t360.5 147q136 0 240.5 -67t159.5 -183v231h126v-1001l-24 -12q-96 -61 -146 -129.5
t-34 -157.5q9 -49 42 -76.5t81 -27.5q42 0 81 20v-82q-59 -27 -112 -27zM616 102q168 0 278 113t110 285q0 173 -109.5 286t-278.5 113q-168 0 -275.5 -112.5t-107.5 -286.5q0 -173 107.5 -285.5t275.5 -112.5z" />
    <glyph glyph-name="Cacute" unicode="&#x106;" horiz-adv-x="1433" 
d="M958 1935h162l-252 -286h-116zM850 -16q-222 0 -396 100t-270 279t-96 405q0 170 57.5 316t158 248.5t244 161t310.5 58.5q305 0 498 -168v-159q-96 103 -226.5 154t-281.5 51q-137 0 -254.5 -50.5t-198.5 -138.5t-126.5 -210t-45.5 -263q0 -190 80 -340.5t225 -236
t330 -85.5q327 0 520 187v-150q-204 -159 -528 -159z" />
    <glyph glyph-name="cacute" unicode="&#x107;" horiz-adv-x="1056" 
d="M692 1454h162l-252 -287h-117zM233 502q0 -174 112 -287t288 -113q198 0 332 119v-131q-140 -106 -342 -106q-230 0 -375.5 145t-145.5 373q0 227 146.5 372.5t372.5 145.5q200 0 333 -115v-141q-123 135 -325 135q-173 0 -284.5 -111.5t-111.5 -285.5z" />
    <glyph glyph-name="Ccircumflex" unicode="&#x108;" horiz-adv-x="1433" 
d="M1051 1649l-191 200l-190 -200h-131l247 286h146l250 -286h-131zM850 -16q-222 0 -396 100t-270 279t-96 405q0 170 57.5 316t158 248.5t244 161t310.5 58.5q305 0 498 -168v-159q-96 103 -226.5 154t-281.5 51q-137 0 -254.5 -50.5t-198.5 -138.5t-126.5 -210
t-45.5 -263q0 -190 80 -340.5t225 -236t330 -85.5q327 0 520 187v-150q-204 -159 -528 -159z" />
    <glyph glyph-name="ccircumflex" unicode="&#x109;" horiz-adv-x="1056" 
d="M793 1167l-191 201l-190 -201h-131l247 287h146l250 -287h-131zM233 502q0 -174 112 -287t288 -113q198 0 332 119v-131q-140 -106 -342 -106q-230 0 -375.5 145t-145.5 373q0 227 146.5 372.5t372.5 145.5q200 0 333 -115v-141q-123 135 -325 135q-173 0 -284.5 -111.5
t-111.5 -285.5z" />
    <glyph glyph-name="Cdotaccent" unicode="&#x10a;" horiz-adv-x="1433" 
d="M854 1710q-36 0 -61 26t-25 62q0 37 25 63.5t61 26.5q32 0 59 -18l99 -70l-99 -69q-32 -21 -59 -21zM850 -16q-222 0 -396 100t-270 279t-96 405q0 170 57.5 316t158 248.5t244 161t310.5 58.5q305 0 498 -168v-159q-96 103 -226.5 154t-281.5 51q-137 0 -254.5 -50.5
t-198.5 -138.5t-126.5 -210t-45.5 -263q0 -190 80 -340.5t225 -236t330 -85.5q327 0 520 187v-150q-204 -159 -528 -159z" />
    <glyph glyph-name="cdotaccent" unicode="&#x10b;" horiz-adv-x="1056" 
d="M600 1219q-36 0 -61 26t-25 62q0 37 25 63.5t61 26.5q30 0 59 -19l99 -69l-99 -70q-30 -20 -59 -20zM233 502q0 -174 112 -287t288 -113q198 0 332 119v-131q-140 -106 -342 -106q-230 0 -375.5 145t-145.5 373q0 227 146.5 372.5t372.5 145.5q200 0 333 -115v-141
q-123 135 -325 135q-173 0 -284.5 -111.5t-111.5 -285.5z" />
    <glyph glyph-name="Ccaron" unicode="&#x10c;" horiz-adv-x="1433" 
d="M1178 1935l-250 -286h-146l-247 286h131l190 -202l191 202h131zM850 -16q-222 0 -396 100t-270 279t-96 405q0 170 57.5 316t158 248.5t244 161t310.5 58.5q305 0 498 -168v-159q-96 103 -226.5 154t-281.5 51q-137 0 -254.5 -50.5t-198.5 -138.5t-126.5 -210t-45.5 -263
q0 -190 80 -340.5t225 -236t330 -85.5q327 0 520 187v-150q-204 -159 -528 -159z" />
    <glyph glyph-name="ccaron" unicode="&#x10d;" horiz-adv-x="1056" 
d="M918 1454l-250 -287h-146l-248 287h132l190 -203l190 203h132zM233 502q0 -174 112 -287t288 -113q198 0 332 119v-131q-140 -106 -342 -106q-230 0 -375.5 145t-145.5 373q0 227 146.5 372.5t372.5 145.5q200 0 333 -115v-141q-123 135 -325 135q-173 0 -284.5 -111.5
t-111.5 -285.5z" />
    <glyph glyph-name="Dcaron" unicode="&#x10e;" horiz-adv-x="1585" 
d="M1087 1935l-249 -286h-146l-248 286h131l191 -202l190 202h131zM178 0v1536h516q362 0 581.5 -209t219.5 -559t-218 -559t-579 -209h-520zM707 1415h-396v-1296h396q302 0 477.5 174.5t175.5 474.5q0 299 -175.5 473t-477.5 174z" />
    <glyph glyph-name="dcaron" unicode="&#x10f;" horiz-adv-x="1400" 
d="M1004 0v231q-55 -115 -159.5 -181t-240.5 -66q-219 0 -360.5 145.5t-141.5 368.5q0 228 141.5 375t360.5 147q136 0 240.5 -67t159.5 -183v766h126v-1536h-126zM1331 1167h-88l68 369h133zM616 899q-168 0 -275.5 -112.5t-107.5 -286.5q0 -173 107.5 -285.5t275.5 -112.5
t278 113t110 285q0 173 -109.5 286t-278.5 113z" />
    <glyph glyph-name="Dcroat" unicode="&#x110;" horiz-adv-x="1615" 
d="M16 834h195v702h514q362 0 581.5 -209t219.5 -559q0 -232 -98.5 -406.5t-279 -268t-419.5 -93.5h-518v715h-195v119zM848 715h-506v-596h395q302 0 478 175t176 474t-176 473t-478 174h-395v-581h506v-119z" />
    <glyph glyph-name="dcroat" unicode="&#x111;" 
d="M1004 0v231q-55 -115 -159.5 -181t-240.5 -66q-219 0 -360.5 145.5t-141.5 368.5q0 228 141.5 375t360.5 147q136 0 240.5 -67t159.5 -183v444h-293v105h293v217h126v-217h162v-105h-162v-1214h-126zM1004 500q0 173 -109.5 286t-278.5 113q-168 0 -275.5 -112.5
t-107.5 -286.5q0 -173 107.5 -285.5t275.5 -112.5t278 113t110 285z" />
    <glyph glyph-name="Emacron" unicode="&#x112;" horiz-adv-x="1138" 
d="M338 1847h582v-106h-582v106zM178 0v1536h889v-121h-756v-575h670v-121h-670v-598h779v-121h-912z" />
    <glyph glyph-name="emacron" unicode="&#x113;" horiz-adv-x="1173" 
d="M295 1366h582v-106h-582v106zM637 -16q-237 0 -386 142.5t-149 369.5q0 228 135 376t359 148q215 0 345 -142t130 -364q0 -21 -4 -61h-831q15 -157 124 -255t277 -98q208 0 367 123v-125q-155 -114 -367 -114zM238 557h700q-9 152 -100.5 249t-241.5 97
q-154 0 -248 -96.5t-110 -249.5z" />
    <glyph glyph-name="Ebreve" unicode="&#x114;" horiz-adv-x="1138" 
d="M633 1763q78 0 130 50t52 122h109q0 -114 -82 -193t-209 -79t-207 78.5t-80 193.5h107q0 -72 52.5 -122t127.5 -50zM178 0v1536h889v-121h-756v-575h670v-121h-670v-598h779v-121h-912z" />
    <glyph glyph-name="ebreve" unicode="&#x115;" horiz-adv-x="1173" 
d="M596 1272q78 0 130 50t52 122h109q0 -115 -82 -194t-209 -79t-207 79t-80 194h107q0 -72 52.5 -122t127.5 -50zM637 -16q-237 0 -386 142.5t-149 369.5q0 228 135 376t359 148q215 0 345 -142t130 -364q0 -21 -4 -61h-831q15 -157 124 -255t277 -98q208 0 367 123v-125
q-155 -114 -367 -114zM238 557h700q-9 152 -100.5 249t-241.5 97q-154 0 -248 -96.5t-110 -249.5z" />
    <glyph glyph-name="Edotaccent" unicode="&#x116;" horiz-adv-x="1138" 
d="M614 1710q-36 0 -61 26t-25 62q0 37 25 63.5t61 26.5q33 0 60 -18l98 -70l-98 -69q-32 -21 -60 -21zM178 0v1536h889v-121h-756v-575h670v-121h-670v-598h779v-121h-912z" />
    <glyph glyph-name="edotaccent" unicode="&#x117;" horiz-adv-x="1173" 
d="M584 1219q-36 0 -61 26t-25 62q0 37 25 63.5t61 26.5q30 0 59 -19l98 -69l-98 -70q-30 -20 -59 -20zM637 -16q-237 0 -386 142.5t-149 369.5q0 228 135 376t359 148q215 0 345 -142t130 -364q0 -21 -4 -61h-831q15 -157 124 -255t277 -98q208 0 367 123v-125
q-155 -114 -367 -114zM238 557h700q-9 152 -100.5 249t-241.5 97q-154 0 -248 -96.5t-110 -249.5z" />
    <glyph glyph-name="Eogonek" unicode="&#x118;" horiz-adv-x="1138" 
d="M977 -492q-79 0 -135.5 43.5t-71.5 118.5q-29 186 178 330h-770v1536h889v-121h-756v-575h670v-121h-670v-598h779v-121q-107 -62 -164.5 -133.5t-40.5 -165.5q9 -49 42 -76.5t81 -27.5q46 0 82 20v-82q-59 -27 -113 -27z" />
    <glyph glyph-name="eogonek" unicode="&#x119;" horiz-adv-x="1173" 
d="M780 -492q-80 0 -137.5 43.5t-69.5 118.5q-32 174 172 324q-58 -10 -108 -10q-249 0 -392 141.5t-143 366.5q0 228 134.5 378t359.5 150q218 0 346.5 -141t128.5 -365q0 -15 -4 -61h-831q14 -159 123 -256t278 -97q207 0 369 125v-129q-35 -25 -138 -92
q-44 -31 -76.5 -61t-61.5 -68t-40.5 -82.5t-3.5 -91.5q9 -47 42.5 -75.5t80.5 -28.5q46 0 82 20v-82q-59 -27 -111 -27zM238 557h700q-9 155 -100.5 248.5t-241.5 93.5q-156 0 -250 -94t-108 -248z" />
    <glyph glyph-name="Ecaron" unicode="&#x11a;" horiz-adv-x="1138" 
d="M961 1935l-250 -286h-146l-248 286h132l190 -202l190 202h132zM178 0v1536h889v-121h-756v-575h670v-121h-670v-598h779v-121h-912z" />
    <glyph glyph-name="ecaron" unicode="&#x11b;" horiz-adv-x="1173" 
d="M918 1454l-250 -287h-146l-248 287h132l190 -203l190 203h132zM637 -16q-237 0 -386 142.5t-149 369.5q0 228 135 376t359 148q215 0 345 -142t130 -364q0 -21 -4 -61h-831q15 -157 124 -255t277 -98q208 0 367 123v-125q-155 -114 -367 -114zM238 557h700
q-9 152 -100.5 249t-241.5 97q-154 0 -248 -96.5t-110 -249.5z" />
    <glyph glyph-name="Gcircumflex" unicode="&#x11c;" horiz-adv-x="1576" 
d="M1055 1649l-191 200l-190 -200h-131l248 286h145l250 -286h-131zM1468 184q-261 -200 -608 -200q-225 0 -401.5 100.5t-273.5 279.5t-97 406q0 170 58.5 315.5t161 248t248 160.5t314.5 58q321 0 527 -178v-157q-196 215 -529 215q-188 0 -335.5 -85.5t-228.5 -236
t-81 -340.5q0 -191 81 -342t229 -236.5t337 -85.5q273 0 467 148v442h-518v117h649v-629z" />
    <glyph glyph-name="gcircumflex" unicode="&#x11d;" 
d="M866 1167l-190 201l-191 -201h-131l248 287h146l249 -287h-131zM1130 -16q0 -245 -137.5 -377.5t-388.5 -132.5q-243 0 -405 137v139q77 -76 185.5 -116t219.5 -40q193 0 296.5 98t103.5 283v256q-55 -114 -160 -180.5t-240 -66.5q-219 0 -360.5 145.5t-141.5 368.5
q0 226 141.5 374t360.5 148q135 0 240 -67t160 -183v234h126v-1020zM1004 500q0 173 -109.5 286t-278.5 113q-168 0 -275.5 -112.5t-107.5 -286.5q0 -173 107.5 -285.5t275.5 -112.5t278 113t110 285z" />
    <glyph glyph-name="Gbreve" unicode="&#x11e;" horiz-adv-x="1576" 
d="M819 1763q78 0 130 50t52 122h109q0 -114 -82 -193t-209 -79t-207 78.5t-80 193.5h107q0 -72 52.5 -122t127.5 -50zM1468 184q-261 -200 -608 -200q-225 0 -401.5 100.5t-273.5 279.5t-97 406q0 170 58.5 315.5t161 248t248 160.5t314.5 58q321 0 527 -178v-157
q-196 215 -529 215q-188 0 -335.5 -85.5t-228.5 -236t-81 -340.5q0 -191 81 -342t229 -236.5t337 -85.5q273 0 467 148v442h-518v117h649v-629z" />
    <glyph glyph-name="gbreve" unicode="&#x11f;" 
d="M676 1272q78 0 130 50t52 122h109q0 -115 -82 -194t-209 -79t-207 79t-80 194h107q0 -72 52.5 -122t127.5 -50zM1130 -16q0 -245 -137.5 -377.5t-388.5 -132.5q-243 0 -405 137v139q77 -76 185.5 -116t219.5 -40q193 0 296.5 98t103.5 283v256q-55 -114 -160 -180.5
t-240 -66.5q-219 0 -360.5 145.5t-141.5 368.5q0 226 141.5 374t360.5 148q135 0 240 -67t160 -183v234h126v-1020zM1004 500q0 173 -109.5 286t-278.5 113q-168 0 -275.5 -112.5t-107.5 -286.5q0 -173 107.5 -285.5t275.5 -112.5t278 113t110 285z" />
    <glyph glyph-name="Gdotaccent" unicode="&#x120;" horiz-adv-x="1576" 
d="M848 1710q-36 0 -61 26t-25 62q0 37 25 63.5t61 26.5q32 0 59 -18l99 -70l-99 -69q-32 -21 -59 -21zM1468 184q-261 -200 -608 -200q-225 0 -401.5 100.5t-273.5 279.5t-97 406q0 170 58.5 315.5t161 248t248 160.5t314.5 58q321 0 527 -178v-157q-196 215 -529 215
q-188 0 -335.5 -85.5t-228.5 -236t-81 -340.5q0 -191 81 -342t229 -236.5t337 -85.5q273 0 467 148v442h-518v117h649v-629z" />
    <glyph glyph-name="gdotaccent" unicode="&#x121;" 
d="M678 1219q-36 0 -61 26t-25 62q0 37 25 63.5t61 26.5q30 0 59 -19l99 -69l-99 -70q-30 -20 -59 -20zM1130 -16q0 -245 -137.5 -377.5t-388.5 -132.5q-243 0 -405 137v139q77 -76 185.5 -116t219.5 -40q193 0 296.5 98t103.5 283v256q-55 -114 -160 -180.5t-240 -66.5
q-219 0 -360.5 145.5t-141.5 368.5q0 226 141.5 374t360.5 148q135 0 240 -67t160 -183v234h126v-1020zM1004 500q0 173 -109.5 286t-278.5 113q-168 0 -275.5 -112.5t-107.5 -286.5q0 -173 107.5 -285.5t275.5 -112.5t278 113t110 285z" />
    <glyph glyph-name="Gcommaaccent" unicode="&#x122;" horiz-adv-x="1576" 
d="M1468 184q-261 -200 -608 -200q-225 0 -401.5 100.5t-273.5 279.5t-97 406q0 170 58.5 315.5t161 248t248 160.5t314.5 58q321 0 527 -178v-157q-196 215 -529 215q-188 0 -335.5 -85.5t-228.5 -236t-81 -340.5q0 -191 81 -342t229 -236.5t337 -85.5q273 0 467 148v442
h-518v117h649v-629zM791 -133h133l-156 -273h-92z" />
    <glyph glyph-name="gcommaaccent" unicode="&#x123;" 
d="M750 1409h94l-117 -272h-131zM1130 -16q0 -245 -137.5 -377.5t-388.5 -132.5q-243 0 -405 137v139q77 -76 185.5 -116t219.5 -40q193 0 296.5 98t103.5 283v256q-55 -114 -160 -180.5t-240 -66.5q-219 0 -360.5 145.5t-141.5 368.5q0 226 141.5 374t360.5 148
q135 0 240 -67t160 -183v234h126v-1020zM1004 500q0 173 -109.5 286t-278.5 113q-168 0 -275.5 -112.5t-107.5 -286.5q0 -173 107.5 -285.5t275.5 -112.5t278 113t110 285z" />
    <glyph glyph-name="Hcircumflex" unicode="&#x124;" horiz-adv-x="1581" 
d="M979 1649l-191 200l-190 -200h-131l248 286h145l250 -286h-131zM1268 0v745h-957v-745h-133v1536h133v-674h957v674h133v-1536h-133z" />
    <glyph glyph-name="hcircumflex" unicode="&#x125;" horiz-adv-x="1230" 
d="M700 1642l-190 201l-191 -201h-131l248 287h146l249 -287h-131zM305 502v-502h-127v1536h127v-762q52 113 150 179.5t221 66.5q193 0 295 -122.5t102 -324.5v-573h-127v555q0 170 -76.5 256t-224.5 86q-149 0 -244.5 -113t-95.5 -282z" />
    <glyph glyph-name="Hbar" unicode="&#x126;" horiz-adv-x="1581" 
d="M1268 0v745h-957v-745h-133v1153h-160v109h160v274h133v-274h957v274h133v-274h162v-109h-162v-1153h-133zM311 862h957v291h-957v-291z" />
    <glyph glyph-name="hbar" unicode="&#x127;" horiz-adv-x="1230" 
d="M305 502v-502h-127v1214h-178v105h178v217h127v-217h277v-105h-277v-440q52 113 150 179.5t221 66.5q193 0 295 -122.5t102 -324.5v-573h-127v555q0 170 -76.5 256t-224.5 86q-149 0 -244.5 -113t-95.5 -282z" />
    <glyph glyph-name="Itilde" unicode="&#x128;" horiz-adv-x="489" 
d="M375 1708q-47 0 -132.5 45t-117.5 45q-42 0 -66 -25.5t-24 -70.5h-90q-3 94 42 150.5t124 56.5q48 0 137 -47t119 -47q42 0 66 25.5t24 70.5h86q6 -92 -40 -147.5t-128 -55.5zM178 0v1536h133v-1536h-133z" />
    <glyph glyph-name="itilde" unicode="&#x129;" horiz-adv-x="485" 
d="M375 1227q-47 0 -132.5 45t-117.5 45q-42 0 -66 -25.5t-24 -70.5h-90q-3 94 42 150t124 56q48 0 137 -47t119 -47q42 0 66 26t24 71h86q6 -92 -40 -147.5t-128 -55.5zM178 0v1004h127v-1004h-127z" />
    <glyph glyph-name="Imacron" unicode="&#x12a;" horiz-adv-x="489" 
d="M-47 1847h582v-106h-582v106zM178 0v1536h133v-1536h-133z" />
    <glyph glyph-name="imacron" unicode="&#x12b;" horiz-adv-x="485" 
d="M-47 1366h582v-106h-582v106zM178 0v1004h127v-1004h-127z" />
    <glyph glyph-name="Ibreve" unicode="&#x12c;" horiz-adv-x="489" 
d="M242 1763q78 0 130 50t52 122h108q0 -115 -81.5 -193.5t-208.5 -78.5t-207 78.5t-80 193.5h106q0 -72 53 -122t128 -50zM178 0v1536h133v-1536h-133z" />
    <glyph glyph-name="ibreve" unicode="&#x12d;" horiz-adv-x="485" 
d="M242 1272q78 0 130 50t52 122h108q0 -115 -81.5 -194t-208.5 -79t-207 79t-80 194h106q0 -72 53 -122t128 -50zM178 0v1004h127v-1004h-127z" />
    <glyph glyph-name="Iogonek" unicode="&#x12e;" horiz-adv-x="489" 
d="M311 -465q-59 -27 -112 -27q-78 0 -135 43.5t-72 118.5q-31 188 186 334v1532h133v-1536l-26 -14q-96 -59 -145.5 -127.5t-33.5 -157.5q9 -49 42 -76.5t81 -27.5q46 0 82 20v-82z" />
    <glyph glyph-name="iogonek" unicode="&#x12f;" horiz-adv-x="485" 
d="M233 1217q-36 0 -61 26t-25 62q0 37 25 63.5t61 26.5q31 0 60 -19l98 -69l-98 -70q-30 -20 -60 -20zM195 -492q-79 0 -135.5 43.5t-71.5 118.5q-17 106 35 187t155 151v996h129v-1004l-41 -27q-88 -57 -133 -122t-31 -150q9 -49 42 -76.5t81 -27.5q43 0 82 20v-82
q-62 -27 -112 -27z" />
    <glyph glyph-name="Idotaccent" unicode="&#x130;" horiz-adv-x="489" 
d="M233 1710q-36 0 -61 26t-25 62q0 37 25 63.5t61 26.5q33 0 60 -18l98 -70l-98 -69q-32 -21 -60 -21zM178 0v1536h133v-1536h-133z" />
    <glyph glyph-name="dotlessi" unicode="&#x131;" horiz-adv-x="485" 
d="M178 0v1004h127v-1004h-127z" />
    <glyph glyph-name="IJ" unicode="&#x132;" horiz-adv-x="1370" 
d="M178 0v1536h133v-1536h-133zM799 -16q-164 0 -285 90v141q63 -52 139.5 -80.5t145.5 -28.5q126 0 198 73.5t72 199.5v1157h131v-1141q0 -194 -107 -302.5t-294 -108.5z" />
    <glyph glyph-name="ij" unicode="&#x133;" horiz-adv-x="970" 
d="M233 1217q-36 0 -61 26t-25 62q0 37 25 63.5t61 26.5q31 0 60 -19l98 -69l-98 -70q-30 -20 -60 -20zM719 1217q-36 0 -61 26t-25 62q0 37 25 63.5t61 26.5q31 0 59 -19l99 -69l-99 -70q-30 -20 -59 -20zM178 0v1004h129v-1004h-129zM340 -479v119q76 -50 147 -50
q83 0 130 51.5t47 143.5v1219h127v-1215q0 -150 -72 -233.5t-207 -83.5q-85 0 -172 49z" />
    <glyph glyph-name="Jcircumflex" unicode="&#x134;" horiz-adv-x="888" 
d="M844 1651l-191 200l-190 -200h-131l248 286h145l250 -286h-131zM317 -16q-163 0 -284 90v141q63 -52 139 -80.5t145 -28.5q126 0 198.5 73.5t72.5 199.5v1157h131v-1141q0 -194 -107.5 -302.5t-294.5 -108.5z" />
    <glyph glyph-name="jcircumflex" unicode="&#x135;" horiz-adv-x="485" 
d="M434 1167l-190 201l-191 -201h-131l248 287h145l250 -287h-131zM27 -528q-85 0 -172 49v119q76 -50 147 -50q83 0 129.5 51.5t46.5 143.5v1219h127v-1215q0 -150 -71.5 -233.5t-206.5 -83.5z" />
    <glyph glyph-name="Kcommaaccent" unicode="&#x136;" horiz-adv-x="1318" 
d="M1153 0l-602 795l-240 -258v-537h-133v1536h133v-817l760 817h168l-598 -643l672 -893h-160zM631 -133h133l-156 -273h-92z" />
    <glyph glyph-name="kcommaaccent" unicode="&#x137;" horiz-adv-x="1034" 
d="M858 0l-389 514l-164 -162v-352h-127v1536h127v-1022l498 490h153l-397 -396l455 -608h-156zM500 -133h133l-156 -273h-92z" />
    <glyph glyph-name="Lacute" unicode="&#x139;" horiz-adv-x="1089" 
d="M360 1935h162l-252 -286h-116zM1057 121v-121h-879v1536h133v-1415h746z" />
    <glyph glyph-name="lacute" unicode="&#x13a;" horiz-adv-x="485" 
d="M365 1933h161l-252 -286h-116zM178 0v1536h127v-1536h-127z" />
    <glyph glyph-name="Lcommaaccent" unicode="&#x13b;" horiz-adv-x="1089" 
d="M1057 121v-121h-879v1536h133v-1415h746zM553 -133h133l-156 -273h-92z" />
    <glyph glyph-name="lcommaaccent" unicode="&#x13c;" horiz-adv-x="485" 
d="M178 0v1536h127v-1536h-127zM172 -133h133l-155 -273h-93z" />
    <glyph glyph-name="Lcaron" unicode="&#x13d;" horiz-adv-x="1089" 
d="M1057 121v-121h-879v1536h133v-1415h746zM565 1167h-88l68 369h133z" />
    <glyph glyph-name="lcaron" unicode="&#x13e;" horiz-adv-x="577" 
d="M178 0v1536h127v-1536h-127zM506 1167h-88l67 369h133z" />
    <glyph glyph-name="Ldot" unicode="&#x13f;" horiz-adv-x="1089" 
d="M1057 121v-121h-879v1536h133v-1415h746zM780 750q-37 0 -62.5 26.5t-25.5 63.5t25.5 62.5t62.5 25.5t62.5 -25.5t25.5 -62.5t-25.5 -63.5t-62.5 -26.5z" />
    <glyph glyph-name="ldot" unicode="&#x140;" horiz-adv-x="579" 
d="M178 0v1536h127v-1536h-127zM530 709q-37 0 -62.5 26.5t-25.5 63.5t25.5 62.5t62.5 25.5t62.5 -25.5t25.5 -62.5t-25.5 -63.5t-62.5 -26.5z" />
    <glyph glyph-name="Lslash" unicode="&#x141;" horiz-adv-x="1177" 
d="M1143 121v-121h-875v674l-243 -144v140l243 143v723h131v-641l349 203v-140l-349 -200v-637h744z" />
    <glyph glyph-name="lslash" unicode="&#x142;" horiz-adv-x="571" 
d="M575 866l-219 -129v-737h-125v657l-211 -125v134l211 122v748h125v-666l219 127v-131z" />
    <glyph glyph-name="Nacute" unicode="&#x143;" horiz-adv-x="1622" 
d="M948 1935h162l-252 -286h-117zM1440 -31l-1129 1272v-1241h-133v1567l1131 -1272v1241h131v-1567z" />
    <glyph glyph-name="nacute" unicode="&#x144;" horiz-adv-x="1230" 
d="M752 1454h161l-251 -287h-117zM305 502v-502h-127v1004h127v-230q52 113 150 179.5t221 66.5q193 0 295 -122.5t102 -324.5v-573h-127v555q0 170 -76.5 256t-224.5 86q-149 0 -244.5 -113t-95.5 -282z" />
    <glyph glyph-name="Ncommaaccent" unicode="&#x145;" horiz-adv-x="1622" 
d="M1440 -31l-1129 1272v-1241h-133v1567l1131 -1272v1241h131v-1567zM786 -133h134l-156 -273h-92z" />
    <glyph glyph-name="ncommaaccent" unicode="&#x146;" horiz-adv-x="1230" 
d="M305 502v-502h-127v1004h127v-230q52 113 150 179.5t221 66.5q193 0 295 -122.5t102 -324.5v-573h-127v555q0 170 -76.5 256t-224.5 86q-149 0 -244.5 -113t-95.5 -282zM561 -133h133l-155 -273h-93z" />
    <glyph glyph-name="Ncaron" unicode="&#x147;" horiz-adv-x="1622" 
d="M1171 1935l-249 -286h-146l-248 286h131l191 -202l190 202h131zM1440 -31l-1129 1272v-1241h-133v1567l1131 -1272v1241h131v-1567z" />
    <glyph glyph-name="ncaron" unicode="&#x148;" horiz-adv-x="1230" 
d="M967 1454l-250 -287h-146l-247 287h131l190 -203l191 203h131zM305 502v-502h-127v1004h127v-230q52 113 150 179.5t221 66.5q193 0 295 -122.5t102 -324.5v-573h-127v555q0 170 -76.5 256t-224.5 86q-149 0 -244.5 -113t-95.5 -282z" />
    <glyph glyph-name="Omacron" unicode="&#x14c;" horiz-adv-x="1736" 
d="M575 1847h582v-106h-582v106zM1649 770q0 -170 -58 -316t-160 -249.5t-247.5 -162t-315.5 -58.5t-315 58.5t-247.5 162t-160 249.5t-57.5 316t58 315.5t160.5 248t247.5 160.5t314 58q225 0 403 -99.5t278 -278t100 -404.5zM868 106q188 0 335.5 86t228.5 237t81 341
q0 288 -181 474t-464 186q-141 0 -261.5 -49.5t-204.5 -136.5t-131.5 -209.5t-47.5 -264.5q0 -190 80.5 -341t228.5 -237t336 -86z" />
    <glyph glyph-name="omacron" unicode="&#x14d;" horiz-adv-x="1239" 
d="M326 1366h581v-106h-581v106zM623 -16q-227 0 -374 147t-147 373q0 223 147 369.5t374 146.5q225 0 369.5 -145.5t144.5 -370.5q0 -226 -144.5 -373t-369.5 -147zM1006 502q0 172 -108.5 284.5t-276.5 112.5q-170 0 -279 -112.5t-109 -284.5q0 -174 109 -287t279 -113
q168 0 276.5 113t108.5 287z" />
    <glyph glyph-name="Obreve" unicode="&#x14e;" horiz-adv-x="1736" 
d="M864 1763q78 0 130.5 50t52.5 122h108q0 -114 -82 -193t-209 -79t-206.5 78.5t-79.5 193.5h106q0 -72 52.5 -122t127.5 -50zM1649 770q0 -170 -58 -316t-160 -249.5t-247.5 -162t-315.5 -58.5t-315 58.5t-247.5 162t-160 249.5t-57.5 316t58 315.5t160.5 248t247.5 160.5
t314 58q225 0 403 -99.5t278 -278t100 -404.5zM868 106q188 0 335.5 86t228.5 237t81 341q0 288 -181 474t-464 186q-141 0 -261.5 -49.5t-204.5 -136.5t-131.5 -209.5t-47.5 -264.5q0 -190 80.5 -341t228.5 -237t336 -86z" />
    <glyph glyph-name="obreve" unicode="&#x14f;" horiz-adv-x="1239" 
d="M614 1272q78 0 130.5 50t52.5 122h108q0 -115 -82 -194t-209 -79q-126 0 -206 79t-80 194h106q0 -72 52.5 -122t127.5 -50zM623 -16q-227 0 -374 147t-147 373q0 223 147 369.5t374 146.5q225 0 369.5 -145.5t144.5 -370.5q0 -226 -144.5 -373t-369.5 -147zM1006 502
q0 172 -108.5 284.5t-276.5 112.5q-170 0 -279 -112.5t-109 -284.5q0 -174 109 -287t279 -113q168 0 276.5 113t108.5 287z" />
    <glyph glyph-name="Ohungarumlaut" unicode="&#x150;" horiz-adv-x="1736" 
d="M664 1683h-105l182 287h138zM952 1683h-104l184 287h146zM1649 770q0 -170 -58 -316t-160 -249.5t-247.5 -162t-315.5 -58.5t-315 58.5t-247.5 162t-160 249.5t-57.5 316t58 315.5t160.5 248t247.5 160.5t314 58q225 0 403 -99.5t278 -278t100 -404.5zM868 106
q188 0 335.5 86t228.5 237t81 341q0 288 -181 474t-464 186q-141 0 -261.5 -49.5t-204.5 -136.5t-131.5 -209.5t-47.5 -264.5q0 -190 80.5 -341t228.5 -237t336 -86z" />
    <glyph glyph-name="ohungarumlaut" unicode="&#x151;" horiz-adv-x="1239" 
d="M414 1167h-105l183 287h137zM702 1167h-104l184 287h146zM623 -16q-227 0 -374 147t-147 373q0 223 147 369.5t374 146.5q225 0 369.5 -145.5t144.5 -370.5q0 -226 -144.5 -373t-369.5 -147zM1006 502q0 172 -108.5 284.5t-276.5 112.5q-170 0 -279 -112.5t-109 -284.5
q0 -174 109 -287t279 -113q168 0 276.5 113t108.5 287z" />
    <glyph glyph-name="OE" unicode="&#x152;" horiz-adv-x="2052" 
d="M88 766q0 352 212 561t577 209h1101v-121h-755v-575h669v-121h-669v-598h778v-121h-1122q-366 0 -578.5 207.5t-212.5 558.5zM879 121h213v1294h-213q-308 0 -482 -176t-174 -473q0 -298 173.5 -471.5t482.5 -173.5z" />
    <glyph glyph-name="oe" unicode="&#x153;" horiz-adv-x="2070" 
d="M621 -16q-226 0 -373.5 147t-147.5 373q0 223 147.5 369.5t373.5 146.5q155 0 273 -77.5t171 -209.5q51 132 161 209.5t265 77.5q220 0 349.5 -141t129.5 -365q0 -15 -4 -61h-829q14 -159 122 -256t277 -97q209 0 367 125v-129q-156 -112 -367 -112q-175 0 -297 76.5
t-176 209.5q-53 -132 -170 -209t-272 -77zM1139 557h698q-11 156 -102.5 251t-241.5 95q-156 0 -249 -95.5t-105 -250.5zM618 102q170 0 276.5 114t106.5 286q0 173 -106.5 285t-276.5 112t-278.5 -112.5t-108.5 -284.5q0 -173 108.5 -286.5t278.5 -113.5z" />
    <glyph glyph-name="Racute" unicode="&#x154;" horiz-adv-x="1245" 
d="M702 1935h162l-252 -286h-116zM178 0v1536h410q233 0 370.5 -127t137.5 -346q0 -172 -94 -290t-250 -159l438 -614h-158l-418 590h-303v-590h-133zM584 1415h-273v-706h273q171 0 272.5 94.5t101.5 259.5q0 166 -98.5 259t-275.5 93z" />
    <glyph glyph-name="racute" unicode="&#x155;" horiz-adv-x="694" 
d="M520 1454h162l-252 -287h-117zM305 483v-483h-127v1004h127v-259q53 128 152.5 201.5t224.5 73.5v-143q-155 15 -266 -94.5t-111 -299.5z" />
    <glyph glyph-name="Rcommaaccent" unicode="&#x156;" horiz-adv-x="1245" 
d="M178 0v1536h410q233 0 370.5 -127t137.5 -346q0 -172 -94 -290t-250 -159l438 -614h-158l-418 590h-303v-590h-133zM584 1415h-273v-706h273q171 0 272.5 94.5t101.5 259.5q0 166 -98.5 259t-275.5 93zM590 -133h133l-156 -273h-92z" />
    <glyph glyph-name="rcommaaccent" unicode="&#x157;" horiz-adv-x="694" 
d="M305 483v-483h-127v1004h127v-259q53 128 152.5 201.5t224.5 73.5v-143q-155 15 -266 -94.5t-111 -299.5zM172 -133h133l-155 -273h-93z" />
    <glyph glyph-name="Rcaron" unicode="&#x158;" horiz-adv-x="1245" 
d="M930 1935l-250 -286h-145l-248 286h131l190 -202l191 202h131zM178 0v1536h410q233 0 370.5 -127t137.5 -346q0 -172 -94 -290t-250 -159l438 -614h-158l-418 590h-303v-590h-133zM584 1415h-273v-706h273q171 0 272.5 94.5t101.5 259.5q0 166 -98.5 259t-275.5 93z" />
    <glyph glyph-name="rcaron" unicode="&#x159;" horiz-adv-x="694" 
d="M752 1454l-250 -287h-146l-247 287h131l190 -203l191 203h131zM305 483v-483h-127v1004h127v-259q53 128 152.5 201.5t224.5 73.5v-143q-155 15 -266 -94.5t-111 -299.5z" />
    <glyph glyph-name="Sacute" unicode="&#x15a;" horiz-adv-x="1099" 
d="M668 1935h161l-251 -286h-117zM578 1432q-135 0 -226.5 -70t-91.5 -197q0 -84 47 -146t154 -110l313 -149q129 -60 190.5 -145t61.5 -201q0 -136 -67 -234.5t-178.5 -147t-252.5 -48.5q-281 0 -452 157v166q96 -99 214 -150t238 -51q151 0 253 73t102 210
q0 88 -45.5 149.5t-157.5 114.5l-301 142q-132 61 -194 147t-62 215q0 123 62 214t163 136t227 45q229 0 386 -122v-156q-179 158 -383 158z" />
    <glyph glyph-name="sacute" unicode="&#x15b;" horiz-adv-x="897" 
d="M596 1454h162l-252 -287h-117zM98 229q150 -141 346 -141q104 0 170 44.5t66 125.5q0 99 -121 148l-256 100q-94 38 -139 94.5t-45 144.5q0 126 94 200.5t244 74.5q186 0 305 -96v-133q-65 60 -144.5 92t-158.5 32q-95 0 -154 -42t-59 -115q0 -52 27.5 -86t91.5 -58
l258 -100q184 -74 184 -233q0 -137 -102 -217t-263 -80q-212 0 -344 106v139z" />
    <glyph glyph-name="Scircumflex" unicode="&#x15c;" horiz-adv-x="1099" 
d="M774 1649l-190 200l-191 -200h-131l248 286h145l250 -286h-131zM578 1432q-135 0 -226.5 -70t-91.5 -197q0 -84 47 -146t154 -110l313 -149q129 -60 190.5 -145t61.5 -201q0 -136 -67 -234.5t-178.5 -147t-252.5 -48.5q-281 0 -452 157v166q96 -99 214 -150t238 -51
q151 0 253 73t102 210q0 88 -45.5 149.5t-157.5 114.5l-301 142q-132 61 -194 147t-62 215q0 123 62 214t163 136t227 45q229 0 386 -122v-156q-179 158 -383 158z" />
    <glyph glyph-name="scircumflex" unicode="&#x15d;" horiz-adv-x="897" 
d="M670 1167l-191 201l-190 -201h-131l248 287h145l250 -287h-131zM98 229q150 -141 346 -141q104 0 170 44.5t66 125.5q0 99 -121 148l-256 100q-94 38 -139 94.5t-45 144.5q0 126 94 200.5t244 74.5q186 0 305 -96v-133q-65 60 -144.5 92t-158.5 32q-95 0 -154 -42
t-59 -115q0 -52 27.5 -86t91.5 -58l258 -100q184 -74 184 -233q0 -137 -102 -217t-263 -80q-212 0 -344 106v139z" />
    <glyph glyph-name="Scedilla" unicode="&#x15e;" horiz-adv-x="1099" 
d="M516 -492q-64 0 -139 35v76q70 -39 135 -39q54 0 88.5 25.5t34.5 72.5q0 45 -31.5 73t-79.5 28q-36 0 -71 -12l-27 28l78 189q-265 10 -428 157v166q96 -99 214 -150t238 -51q151 0 253 73t102 210q0 88 -45.5 149.5t-157.5 114.5l-301 142q-132 61 -194 147t-62 215
q0 123 62 214t163 136t227 45q229 0 386 -122v-156q-179 158 -383 158q-135 0 -226.5 -70t-91.5 -197q0 -84 47 -146t154 -110l313 -149q129 -60 190.5 -145t61.5 -201q0 -184 -118.5 -295t-309.5 -131l-66 -152q14 2 39 2q72 -5 119 -48t47 -112q0 -80 -63 -125t-158 -45z
" />
    <glyph glyph-name="scedilla" unicode="&#x15f;" horiz-adv-x="897" 
d="M645 -322q0 -80 -63 -125t-158 -45q-64 0 -139 35v76q70 -39 137 -39q53 0 88 25.5t35 72.5q0 45 -32.5 73t-80.5 28q-38 0 -72 -12l-26 28l78 189q-191 9 -314 106v139q150 -141 346 -141q104 0 170 44.5t66 125.5q0 99 -121 148l-256 100q-94 38 -139 94.5t-45 144.5
q0 126 94 200.5t244 74.5q186 0 305 -96v-133q-65 60 -144.5 92t-158.5 32q-95 0 -154 -42t-59 -115q0 -52 27.5 -86t91.5 -58l258 -100q184 -74 184 -233q0 -123 -83.5 -200t-217.5 -91l-66 -154q37 3 60 -2q65 -9 105 -50.5t40 -105.5z" />
    <glyph glyph-name="Scaron" unicode="&#x160;" horiz-adv-x="1099" 
d="M903 1935l-250 -286h-145l-248 286h131l191 -202l190 202h131zM578 1432q-135 0 -226.5 -70t-91.5 -197q0 -84 47 -146t154 -110l313 -149q129 -60 190.5 -145t61.5 -201q0 -136 -67 -234.5t-178.5 -147t-252.5 -48.5q-281 0 -452 157v166q96 -99 214 -150t238 -51
q151 0 253 73t102 210q0 88 -45.5 149.5t-157.5 114.5l-301 142q-132 61 -194 147t-62 215q0 123 62 214t163 136t227 45q229 0 386 -122v-156q-179 158 -383 158z" />
    <glyph glyph-name="scaron" unicode="&#x161;" horiz-adv-x="897" 
d="M811 1454l-250 -287h-145l-248 287h131l190 -203l191 203h131zM98 229q150 -141 346 -141q104 0 170 44.5t66 125.5q0 99 -121 148l-256 100q-94 38 -139 94.5t-45 144.5q0 126 94 200.5t244 74.5q186 0 305 -96v-133q-65 60 -144.5 92t-158.5 32q-95 0 -154 -42
t-59 -115q0 -52 27.5 -86t91.5 -58l258 -100q184 -74 184 -233q0 -137 -102 -217t-263 -80q-212 0 -344 106v139z" />
    <glyph glyph-name="uni0162" unicode="&#x162;" horiz-adv-x="1265" 
d="M1243 1415h-545v-1415h-131v1415h-544v121h1220v-121zM559 -133h133l-155 -273h-93z" />
    <glyph glyph-name="uni0163" unicode="&#x163;" horiz-adv-x="782" 
d="M748 57q-103 -73 -254 -73q-159 0 -243.5 82t-84.5 264v1001h125v-327h440v-119h-440v-566q0 -110 58 -162.5t157 -52.5q136 0 242 76v-123zM391 -133h133l-155 -273h-93z" />
    <glyph glyph-name="Tcaron" unicode="&#x164;" horiz-adv-x="1265" 
d="M954 1935l-249 -286h-146l-248 286h131l191 -202l190 202h131zM1243 1415h-545v-1415h-131v1415h-544v121h1220v-121z" />
    <glyph glyph-name="tcaron" unicode="&#x165;" horiz-adv-x="782" 
d="M508 1167h-88l67 369h134zM748 57q-103 -73 -254 -73q-159 0 -243.5 82t-84.5 264v1001h125v-327h440v-119h-440v-566q0 -110 58 -162.5t157 -52.5q136 0 242 76v-123z" />
    <glyph glyph-name="Tbar" unicode="&#x166;" horiz-adv-x="1265" 
d="M23 1415v121h1220v-121h-545v-643h246v-104h-246v-668h-131v668h-243v104h243v643h-544z" />
    <glyph glyph-name="tbar" unicode="&#x167;" horiz-adv-x="780" 
d="M494 -16q-162 0 -245 79t-83 261v1007h125v-327h440v-119h-440v-305h438v-107h-438v-158q0 -211 217 -211q134 0 240 72v-125q-103 -67 -254 -67z" />
    <glyph glyph-name="Utilde" unicode="&#x168;" horiz-adv-x="1542" 
d="M915 1708q-47 0 -131.5 45t-117.5 45q-42 0 -66.5 -25.5t-24.5 -70.5h-90q-3 94 42 150.5t124 56.5q48 0 137 -47t119 -47q42 0 66 25.5t24 70.5h86q6 -92 -40 -147.5t-128 -55.5zM156 637v899h131v-901q0 -238 132 -383.5t353 -145.5q218 0 350.5 146t132.5 383v901h131
v-899q0 -193 -76 -341t-216.5 -230t-323.5 -82q-185 0 -324.5 82t-214.5 230t-75 341z" />
    <glyph glyph-name="utilde" unicode="&#x169;" horiz-adv-x="1175" 
d="M729 1227q-47 0 -132 45t-118 45q-42 0 -66 -25.5t-24 -70.5h-90q-3 94 42 150t124 56q48 0 137 -47t119 -47q42 0 66 26t24 71h86q6 -92 -40 -147.5t-128 -55.5zM899 426v578h127v-566q0 -212 -118.5 -333t-319.5 -121q-203 0 -322 121t-119 333v566h127v-578
q0 -156 85.5 -240t228.5 -84t227 84t84 240z" />
    <glyph glyph-name="Umacron" unicode="&#x16a;" horiz-adv-x="1542" 
d="M479 1847h582v-106h-582v106zM156 637v899h131v-901q0 -238 132 -383.5t353 -145.5q218 0 350.5 146t132.5 383v901h131v-899q0 -193 -76 -341t-216.5 -230t-323.5 -82q-185 0 -324.5 82t-214.5 230t-75 341z" />
    <glyph glyph-name="umacron" unicode="&#x16b;" horiz-adv-x="1175" 
d="M295 1366h582v-106h-582v106zM899 426v578h127v-566q0 -212 -118.5 -333t-319.5 -121q-203 0 -322 121t-119 333v566h127v-578q0 -156 85.5 -240t228.5 -84t227 84t84 240z" />
    <glyph glyph-name="Ubreve" unicode="&#x16c;" horiz-adv-x="1542" 
d="M768 1763q78 0 130 50t52 122h109q0 -114 -82 -193t-209 -79t-207 78.5t-80 193.5h107q0 -72 52.5 -122t127.5 -50zM156 637v899h131v-901q0 -238 132 -383.5t353 -145.5q218 0 350.5 146t132.5 383v901h131v-899q0 -193 -76 -341t-216.5 -230t-323.5 -82
q-185 0 -324.5 82t-214.5 230t-75 341z" />
    <glyph glyph-name="ubreve" unicode="&#x16d;" horiz-adv-x="1175" 
d="M584 1272q78 0 130 50t52 122h108q0 -115 -81.5 -194t-208.5 -79t-207 79t-80 194h106q0 -72 53 -122t128 -50zM899 426v578h127v-566q0 -212 -118.5 -333t-319.5 -121q-203 0 -322 121t-119 333v566h127v-578q0 -156 85.5 -240t228.5 -84t227 84t84 240z" />
    <glyph glyph-name="Uring" unicode="&#x16e;" horiz-adv-x="1542" 
d="M772 1950q80 0 133 -49.5t53 -126.5q0 -79 -53 -130t-133 -51t-133 50.5t-53 128.5t53 128t133 50zM664 1772q0 -46 30.5 -76.5t77.5 -30.5t78 31t31 78q0 45 -31.5 74.5t-77.5 29.5q-49 0 -78.5 -29t-29.5 -77zM156 637v899h131v-901q0 -238 132 -383.5t353 -145.5
q218 0 350.5 146t132.5 383v901h131v-899q0 -193 -76 -341t-216.5 -230t-323.5 -82q-185 0 -324.5 82t-214.5 230t-75 341z" />
    <glyph glyph-name="uring" unicode="&#x16f;" horiz-adv-x="1175" 
d="M586 1511q80 0 133 -49.5t53 -126.5q0 -79 -53 -129.5t-133 -50.5t-133.5 50.5t-53.5 127.5t53.5 127.5t133.5 50.5zM477 1333q0 -46 31 -76t78 -30t77.5 30.5t30.5 77.5q0 45 -31 75t-77 30q-49 0 -79 -29.5t-30 -77.5zM899 426v578h127v-566q0 -212 -118.5 -333
t-319.5 -121q-203 0 -322 121t-119 333v566h127v-578q0 -156 85.5 -240t228.5 -84t227 84t84 240z" />
    <glyph glyph-name="Uhungarumlaut" unicode="&#x170;" horiz-adv-x="1542" 
d="M567 1683h-104l182 287h137zM856 1683h-104l184 287h145zM156 637v899h131v-901q0 -238 132 -383.5t353 -145.5q218 0 350.5 146t132.5 383v901h131v-899q0 -193 -76 -341t-216.5 -230t-323.5 -82q-185 0 -324.5 82t-214.5 230t-75 341z" />
    <glyph glyph-name="uhungarumlaut" unicode="&#x171;" horiz-adv-x="1175" 
d="M383 1167h-104l182 287h137zM672 1167h-105l185 287h145zM899 426v578h127v-566q0 -212 -118.5 -333t-319.5 -121q-203 0 -322 121t-119 333v566h127v-578q0 -156 85.5 -240t228.5 -84t227 84t84 240z" />
    <glyph glyph-name="Uogonek" unicode="&#x172;" horiz-adv-x="1542" 
d="M950 -492q-89 0 -147 51t-64 140q-17 167 138 295q-46 -10 -107 -10q-185 0 -324.5 82t-214.5 230t-75 341v899h131v-901q0 -238 132 -383.5t353 -145.5q218 0 350.5 146t132.5 383v901h131v-899q0 -204 -84 -357.5t-235 -230.5q-236 -135 -215 -325q6 -55 40 -91t87 -36
q45 0 84 20v-82q-62 -27 -113 -27z" />
    <glyph glyph-name="uogonek" unicode="&#x173;" horiz-adv-x="1175" 
d="M717 -492q-80 0 -137 42.5t-70 117.5q-16 92 27.5 175t128.5 151q-42 -10 -78 -10q-203 0 -322 121t-119 333v566h127v-578q0 -156 85.5 -240t228.5 -84t227 84t84 240v578h127v-566q0 -131 -46 -229t-132 -154q-74 -51 -126.5 -105t-81.5 -120.5t-17 -130.5
q9 -47 42 -74.5t80 -27.5q45 0 84 20v-82q-62 -27 -112 -27z" />
    <glyph glyph-name="Wcircumflex" unicode="&#x174;" horiz-adv-x="2326" 
d="M1358 1649l-191 200l-190 -200h-131l248 286h145l250 -286h-131zM2300 1536l-643 -1567l-492 1274l-497 -1274l-639 1567h151l490 -1245l499 1276l494 -1274l489 1243h148z" />
    <glyph glyph-name="wcircumflex" unicode="&#x175;" horiz-adv-x="1679" 
d="M1028 1167l-190 201l-191 -201h-131l248 287h145l250 -287h-131zM1649 1004l-435 -1035l-368 807l-373 -807l-444 1035h145l313 -754l359 784l356 -784l314 754h133z" />
    <glyph glyph-name="Ycircumflex" unicode="&#x176;" horiz-adv-x="1316" 
d="M850 1649l-191 200l-190 -200h-131l248 286h145l250 -286h-131zM1298 1536l-571 -940v-596h-131v582l-578 954h154l487 -813l492 813h147z" />
    <glyph glyph-name="ycircumflex" unicode="&#x177;" horiz-adv-x="1040" 
d="M717 1167l-191 201l-190 -201h-131l248 287h145l250 -287h-131zM1016 1004l-733 -1516h-133l317 659l-444 857h149l365 -713l346 713h133z" />
    <glyph glyph-name="Ydieresis" unicode="&#x178;" horiz-adv-x="1316" 
d="M463 1712q-37 0 -61.5 23.5t-24.5 60.5q0 38 24.5 62t61.5 24q38 0 62 -24t24 -62q0 -37 -24 -60.5t-62 -23.5zM858 1712q-38 0 -62 23.5t-24 60.5q0 38 24 62t62 24q37 0 60.5 -24t23.5 -62q0 -37 -23.5 -60.5t-60.5 -23.5zM1298 1536l-571 -940v-596h-131v582l-578 954
h154l487 -813l492 813h147z" />
    <glyph glyph-name="Zacute" unicode="&#x179;" horiz-adv-x="1257" 
d="M748 1935h161l-252 -286h-116zM1208 117v-117h-1171l946 1419h-901v117h1126l-940 -1419h940z" />
    <glyph glyph-name="zacute" unicode="&#x17a;" horiz-adv-x="948" 
d="M592 1454h162l-252 -287h-117zM895 117v-117h-852l631 885h-590v119h799l-621 -887h633z" />
    <glyph glyph-name="Zdotaccent" unicode="&#x17b;" horiz-adv-x="1257" 
d="M612 1710q-36 0 -61 26t-25 62q0 37 25 63.5t61 26.5q33 0 60 -18l98 -70l-98 -69q-32 -21 -60 -21zM1208 117v-117h-1171l946 1419h-901v117h1126l-940 -1419h940z" />
    <glyph glyph-name="zdotaccent" unicode="&#x17c;" horiz-adv-x="948" 
d="M461 1219q-36 0 -61 26t-25 62q0 37 25 63.5t61 26.5q30 0 59 -19l98 -69l-98 -70q-30 -20 -59 -20zM895 117v-117h-852l631 885h-590v119h799l-621 -887h633z" />
    <glyph glyph-name="Zcaron" unicode="&#x17d;" horiz-adv-x="1257" 
d="M961 1935l-250 -286h-146l-248 286h132l190 -202l190 202h132zM1208 117v-117h-1171l946 1419h-901v117h1126l-940 -1419h940z" />
    <glyph glyph-name="zcaron" unicode="&#x17e;" horiz-adv-x="948" 
d="M809 1454l-250 -287h-145l-248 287h131l190 -203l191 203h131zM895 117v-117h-852l631 885h-590v119h799l-621 -887h633z" />
    <glyph glyph-name="florin" unicode="&#x192;" horiz-adv-x="983" 
d="M475 281q-56 -297 -342 -297q-77 0 -160 34v121q77 -41 162 -41q98 0 150 55t71 154l156 887q72 358 356 358q93 0 166 -36v-121q-71 41 -155 41q-100 0 -160 -63.5t-80 -170.5l-33 -198h357v-119h-381z" />
    <glyph glyph-name="Ohorn" unicode="&#x1a0;" horiz-adv-x="1736" 
d="M868 -16q-170 0 -315 58.5t-247.5 162t-160 249.5t-57.5 316t58 315.5t160.5 248t247.5 160.5t314 58t314 -57q70 -18 141 -18q87 0 135.5 45t48.5 135v82h127v-80q0 -267 -252 -283q127 -108 197 -263.5t70 -342.5q0 -170 -58 -316t-160 -249.5t-247.5 -162
t-315.5 -58.5zM868 106q188 0 335.5 86t228.5 237t81 341q0 288 -181 474t-464 186q-141 0 -261.5 -49.5t-204.5 -136.5t-131.5 -209.5t-47.5 -264.5q0 -190 80.5 -341t228.5 -237t336 -86z" />
    <glyph glyph-name="ohorn" unicode="&#x1a1;" horiz-adv-x="1239" 
d="M623 -16q-227 0 -374 147t-147 373q0 223 147 369.5t374 146.5q79 0 149 -21q46 -6 88 -6q86 0 134 45.5t48 135.5v59h127v-55q0 -241 -204 -279q82 -70 127 -171.5t45 -223.5q0 -226 -144.5 -373t-369.5 -147zM1006 502q0 172 -108.5 284.5t-276.5 112.5
q-170 0 -279 -112.5t-109 -284.5q0 -174 109 -287t279 -113q168 0 276.5 113t108.5 287z" />
    <glyph glyph-name="Uhorn" unicode="&#x1af;" horiz-adv-x="1542" 
d="M156 637v899h131v-901q0 -238 132 -383.5t353 -145.5q218 0 350.5 146t132.5 383v901h127q87 0 127.5 37t40.5 127v59h127v-55q0 -285 -284 -285h-7v-782q0 -193 -76 -341t-216.5 -230t-323.5 -82q-185 0 -324.5 82t-214.5 230t-75 341z" />
    <glyph glyph-name="uhorn" unicode="&#x1b0;" horiz-adv-x="1175" 
d="M899 426v578h80q87 0 135.5 45t48.5 135v59h127v-55q0 -276 -264 -285v-465q0 -212 -118.5 -333t-319.5 -121q-203 0 -322 121t-119 333v566h127v-578q0 -156 85.5 -240t228.5 -84t227 84t84 240z" />
    <glyph glyph-name="uni0218" unicode="&#x218;" horiz-adv-x="1099" 
d="M578 1432q-135 0 -226.5 -70t-91.5 -197q0 -84 47 -146t154 -110l313 -149q129 -60 190.5 -145t61.5 -201q0 -136 -67 -234.5t-178.5 -147t-252.5 -48.5q-281 0 -452 157v166q96 -99 214 -150t238 -51q151 0 253 73t102 210q0 88 -45.5 149.5t-157.5 114.5l-301 142
q-132 61 -194 147t-62 215q0 123 62 214t163 136t227 45q229 0 386 -122v-156q-179 158 -383 158zM504 -133h133l-156 -273h-92z" />
    <glyph glyph-name="uni0219" unicode="&#x219;" horiz-adv-x="897" 
d="M98 229q150 -141 346 -141q104 0 170 44.5t66 125.5q0 99 -121 148l-256 100q-94 38 -139 94.5t-45 144.5q0 126 94 200.5t244 74.5q186 0 305 -96v-133q-65 60 -144.5 92t-158.5 32q-95 0 -154 -42t-59 -115q0 -52 27.5 -86t91.5 -58l258 -100q184 -74 184 -233
q0 -137 -102 -217t-263 -80q-212 0 -344 106v139zM385 -133h133l-156 -273h-92z" />
    <glyph glyph-name="uni021A" unicode="&#x21a;" horiz-adv-x="1265" 
d="M1243 1415h-545v-1415h-131v1415h-544v121h1220v-121zM559 -133h133l-155 -273h-93z" />
    <glyph glyph-name="uni021B" unicode="&#x21b;" horiz-adv-x="782" 
d="M748 57q-103 -73 -254 -73q-159 0 -243.5 82t-84.5 264v1001h125v-327h440v-119h-440v-566q0 -110 58 -162.5t157 -52.5q136 0 242 76v-123zM391 -133h133l-155 -273h-93z" />
    <glyph glyph-name="dotlessj" unicode="&#x237;" horiz-adv-x="485" 
d="M27 -528q-85 0 -172 49v119q76 -50 147 -50q83 0 129.5 51.5t46.5 143.5v1219h127v-1215q0 -150 -71.5 -233.5t-206.5 -83.5z" />
    <glyph glyph-name="circumflex" unicode="&#x2c6;" horiz-adv-x="919" 
d="M649 1167l-190 201l-191 -201h-131l248 287h145l250 -287h-131z" />
    <glyph glyph-name="caron" unicode="&#x2c7;" horiz-adv-x="919" 
d="M780 1454l-250 -287h-145l-248 287h131l191 -203l190 203h131z" />
    <glyph glyph-name="breve" unicode="&#x2d8;" horiz-adv-x="919" 
d="M457 1272q78 0 130 50t52 122h109q0 -115 -82 -194t-209 -79t-207 79t-80 194h106q0 -72 53 -122t128 -50z" />
    <glyph glyph-name="dotaccent" unicode="&#x2d9;" horiz-adv-x="919" 
d="M449 1219q-36 0 -61.5 26t-25.5 62q0 37 25.5 63.5t61.5 26.5q30 0 59 -19l98 -69l-98 -70q-30 -20 -59 -20z" />
    <glyph glyph-name="ring" unicode="&#x2da;" horiz-adv-x="919" 
d="M459 1511q80 0 133 -49.5t53 -126.5q0 -79 -53 -129.5t-133 -50.5t-133.5 50.5t-53.5 127.5t53.5 127.5t133.5 50.5zM350 1333q0 -46 31 -76t78 -30t77.5 30.5t30.5 77.5q0 45 -31 75t-77 30q-49 0 -79 -29.5t-30 -77.5z" />
    <glyph glyph-name="ogonek" unicode="&#x2db;" horiz-adv-x="919" 
d="M297 -330q-39 246 301 391l16 -61q-68 -40 -113.5 -78.5t-73.5 -97t-15 -123.5q7 -49 39.5 -76.5t80.5 -27.5q46 0 82 20v-82q-59 -27 -110 -27q-80 0 -137 43.5t-70 118.5z" />
    <glyph glyph-name="tilde" unicode="&#x2dc;" horiz-adv-x="919" 
d="M590 1227q-47 0 -132.5 45t-117.5 45q-42 0 -66 -25.5t-24 -70.5h-90q-3 94 42 150t124 56q48 0 137 -47t119 -47q42 0 66 26t24 71h86q6 -92 -40 -147.5t-128 -55.5z" />
    <glyph glyph-name="hungarumlaut" unicode="&#x2dd;" horiz-adv-x="1183" 
d="M784 1440l-673 -1039q-43 16 -59 65t11 99l613 940q14 23 35 32t39.5 4t32.5 -18.5t14.5 -36t-13.5 -46.5zM944 0h-133v387h-594l80 129h514v424l133 70v-494h156q30 0 48 -20t18 -44.5t-17.5 -44.5t-48.5 -20h-156v-387z" />
    <glyph glyph-name="gravecomb" unicode="&#x300;" horiz-adv-x="919" 
d="M162 1454h162l206 -287h-116z" />
    <glyph glyph-name="acutecomb" unicode="&#x301;" horiz-adv-x="919" 
d="M592 1454h162l-252 -287h-117z" />
    <glyph glyph-name="uni0302" unicode="&#x302;" horiz-adv-x="919" 
d="M649 1167l-190 201l-191 -201h-131l248 287h145l250 -287h-131z" />
    <glyph glyph-name="tildecomb" unicode="&#x303;" horiz-adv-x="919" 
d="M590 1227q-47 0 -132.5 45t-117.5 45q-42 0 -66 -25.5t-24 -70.5h-90q-3 94 42 150t124 56q48 0 137 -47t119 -47q42 0 66 26t24 71h86q6 -92 -40 -147.5t-128 -55.5z" />
    <glyph glyph-name="uni0304" unicode="&#x304;" horiz-adv-x="919" 
d="M168 1366h582v-106h-582v106z" />
    <glyph glyph-name="uni0306" unicode="&#x306;" horiz-adv-x="919" 
d="M457 1272q78 0 130 50t52 122h109q0 -115 -82 -194t-209 -79t-207 79t-80 194h106q0 -72 53 -122t128 -50z" />
    <glyph glyph-name="uni0307" unicode="&#x307;" horiz-adv-x="0" 
d="M-8 1219q-36 0 -61 26t-25 62q0 37 25 63.5t61 26.5q30 0 59 -19l99 -69l-99 -70q-30 -20 -59 -20z" />
    <glyph glyph-name="uni0308" unicode="&#x308;" horiz-adv-x="0" 
d="M-201 1221q-37 0 -61.5 23.5t-24.5 60.5q0 38 24.5 62t61.5 24q38 0 62 -24t24 -62q0 -37 -24 -60.5t-62 -23.5zM195 1221q-38 0 -62 23.5t-24 60.5q0 38 24 62t62 24q37 0 60.5 -24t23.5 -62q0 -37 -23.5 -60.5t-60.5 -23.5z" />
    <glyph glyph-name="hookabovecomb" unicode="&#x309;" horiz-adv-x="0" 
d="M57 1368h-106q72 71 108.5 120.5t36.5 86.5q0 43 -27 67.5t-69 24.5q-40 0 -68 -27.5t-28 -68.5h-90q0 78 53 128t133 50q81 0 132.5 -48t51.5 -126q0 -88 -127 -207z" />
    <glyph glyph-name="uni030A" unicode="&#x30a;" horiz-adv-x="919" 
d="M459 1511q80 0 133 -49.5t53 -126.5q0 -79 -53 -129.5t-133 -50.5t-133.5 50.5t-53.5 127.5t53.5 127.5t133.5 50.5zM350 1333q0 -46 31 -76t78 -30t77.5 30.5t30.5 77.5q0 45 -31 75t-77 30q-49 0 -79 -29.5t-30 -77.5z" />
    <glyph glyph-name="uni030C" unicode="&#x30c;" horiz-adv-x="919" 
d="M780 1454l-250 -287h-145l-248 287h131l191 -203l190 203h131z" />
    <glyph glyph-name="uni031B" unicode="&#x31b;" horiz-adv-x="0" 
d="M-285 1270q-87 0 -166 20v99q74 -19 142 -19q86 0 134 45t48 135v60h127v-56q0 -284 -285 -284z" />
    <glyph glyph-name="dotbelowcomb" unicode="&#x323;" horiz-adv-x="919" 
d="M455 -350q-36 0 -61 26t-25 62q0 37 25 63.5t61 26.5q32 0 59 -18l98 -70l-98 -70q-30 -20 -59 -20z" />
    <glyph glyph-name="uni0327" unicode="&#x327;" horiz-adv-x="919" 
d="M645 -322q0 -80 -62.5 -125t-156.5 -45q-67 0 -139 35v76q70 -39 135 -39q54 0 88.5 25.5t34.5 72.5q0 45 -32 73t-79 28q-40 0 -74 -12l-26 28l92 223h94l-78 -182q14 2 41 2q72 -6 117 -49t45 -111z" />
    <glyph glyph-name="uni0328" unicode="&#x328;" horiz-adv-x="919" 
d="M297 -330q-39 246 301 391l16 -61q-68 -40 -113.5 -78.5t-73.5 -97t-15 -123.5q7 -49 39.5 -76.5t80.5 -27.5q46 0 82 20v-82q-59 -27 -110 -27q-80 0 -137 43.5t-70 118.5z" />
    <glyph glyph-name="Delta" unicode="&#x394;" horiz-adv-x="1490" 
d="M743 1567l721 -1567h-1437zM221 117h1049l-527 1171z" />
    <glyph glyph-name="Omega" unicode="&#x3a9;" horiz-adv-x="1509" 
d="M682 0h-481v117h364v190q-198 73 -314 234.5t-116 376.5q0 280 173 457t448 177q272 0 446 -175.5t174 -452.5q0 -217 -119 -380.5t-319 -236.5v-190h365v-117h-482v367q195 59 309.5 206t114.5 347q0 225 -136 368.5t-353 143.5q-219 0 -354.5 -145.5t-135.5 -373.5
q0 -197 112.5 -342t303.5 -204v-367z" />
    <glyph glyph-name="mu" unicode="&#x3bc;" horiz-adv-x="1222" 
d="M303 -512h-125v1516h127v-578q0 -149 77 -236.5t212 -87.5q155 0 245.5 107.5t90.5 267.5v527h125v-1004h-125v227q-49 -112 -146 -177.5t-229 -65.5q-88 0 -152.5 39.5t-99.5 109.5v-645z" />
    <glyph glyph-name="pi" unicode="&#x3c0;" horiz-adv-x="1521" 
d="M1305 -16q-122 0 -189 65.5t-67 192.5v643h-588v-885h-131v885h-252v119h1349v-119h-251v-639q0 -75 37.5 -112.5t105.5 -37.5q54 0 121 23v-113q-82 -22 -135 -22z" />
    <glyph glyph-name="baht" unicode="&#xe3f;" horiz-adv-x="1234" 
d="M662 0h-15v-266h-127v266h-342v1536h342v264h127v-264q177 -9 291.5 -115.5t114.5 -281.5q0 -116 -58 -199.5t-157 -122.5q140 -38 223.5 -140t83.5 -249q0 -133 -66 -231.5t-174 -147.5t-243 -49zM311 1415v-555h320q129 0 208 76.5t79 202.5q0 129 -86.5 202.5
t-223.5 73.5h-297zM311 739v-618h359q153 0 246.5 81t93.5 226q0 141 -93 226t-247 85h-359z" />
    <glyph glyph-name="Wgrave" unicode="&#x1e80;" horiz-adv-x="2326" 
d="M895 1935h162l207 -286h-117zM2300 1536l-643 -1567l-492 1274l-497 -1274l-639 1567h151l490 -1245l499 1276l494 -1274l489 1243h148z" />
    <glyph glyph-name="wgrave" unicode="&#x1e81;" horiz-adv-x="1679" 
d="M553 1454h162l207 -287h-117zM1649 1004l-435 -1035l-368 807l-373 -807l-444 1035h145l313 -754l359 784l356 -784l314 754h133z" />
    <glyph glyph-name="Wacute" unicode="&#x1e82;" horiz-adv-x="2326" 
d="M1276 1935h162l-252 -286h-117zM2300 1536l-643 -1567l-492 1274l-497 -1274l-639 1567h151l490 -1245l499 1276l494 -1274l489 1243h148z" />
    <glyph glyph-name="wacute" unicode="&#x1e83;" horiz-adv-x="1679" 
d="M967 1454h161l-251 -287h-117zM1649 1004l-435 -1035l-368 807l-373 -807l-444 1035h145l313 -754l359 784l356 -784l314 754h133z" />
    <glyph glyph-name="Wdieresis" unicode="&#x1e84;" horiz-adv-x="2326" 
d="M971 1712q-37 0 -61.5 23.5t-24.5 60.5q0 38 24.5 62t61.5 24q38 0 62 -24t24 -62q0 -37 -24 -60.5t-62 -23.5zM1366 1712q-38 0 -62 23.5t-24 60.5q0 38 24 62t62 24q37 0 60.5 -24t23.5 -62q0 -37 -23.5 -60.5t-60.5 -23.5zM2300 1536l-643 -1567l-492 1274l-497 -1274
l-639 1567h151l490 -1245l499 1276l494 -1274l489 1243h148z" />
    <glyph glyph-name="wdieresis" unicode="&#x1e85;" horiz-adv-x="1679" 
d="M641 1221q-37 0 -61.5 23.5t-24.5 60.5q0 38 24.5 62t61.5 24q38 0 62 -24t24 -62q0 -37 -24 -60.5t-62 -23.5zM1036 1221q-38 0 -62 23.5t-24 60.5q0 38 24 62t62 24q37 0 60.5 -24t23.5 -62q0 -37 -23.5 -60.5t-60.5 -23.5zM1649 1004l-435 -1035l-368 807l-373 -807
l-444 1035h145l313 -754l359 784l356 -784l314 754h133z" />
    <glyph glyph-name="uni1EA0" unicode="&#x1ea0;" horiz-adv-x="1482" 
d="M1305 0l-172 387h-791l-172 -387h-147l720 1567l715 -1567h-153zM395 502h686l-342 770zM743 -350q-36 0 -61 26t-25 62q0 37 25 63.5t61 26.5q33 0 60 -18l98 -70l-98 -70q-30 -20 -60 -20z" />
    <glyph glyph-name="uni1EA1" unicode="&#x1ea1;" 
d="M1004 0v231q-55 -116 -159.5 -181.5t-240.5 -65.5q-219 0 -360.5 145.5t-141.5 368.5q0 228 141.5 375t360.5 147q136 0 240.5 -67t159.5 -183v234h126v-1004h-126zM616 899q-168 0 -275.5 -112.5t-107.5 -286.5q0 -173 107.5 -285.5t275.5 -112.5t278 113t110 285
q0 173 -109.5 286t-278.5 113zM666 -350q-36 0 -61 26t-25 62q0 37 25 63.5t61 26.5q32 0 59 -18l98 -70l-98 -70q-30 -20 -59 -20z" />
    <glyph glyph-name="uni1EA2" unicode="&#x1ea2;" horiz-adv-x="1482" 
d="M799 1642h-107q73 71 109.5 120.5t36.5 86.5q0 43 -27.5 68t-69.5 25q-40 0 -68 -28t-28 -69h-90q0 78 53 128t133 50q81 0 133 -48t52 -126q0 -88 -127 -207zM1305 0l-172 387h-791l-172 -387h-147l720 1567l715 -1567h-153zM395 502h686l-342 770z" />
    <glyph glyph-name="uni1EA3" unicode="&#x1ea3;" 
d="M690 1104h-106q72 71 108.5 120.5t36.5 86.5q0 43 -27 67.5t-69 24.5q-40 0 -68 -27.5t-28 -68.5h-91q0 77 53.5 127.5t133.5 50.5q81 0 132.5 -48t51.5 -126q0 -88 -127 -207zM1004 0v231q-55 -116 -159.5 -181.5t-240.5 -65.5q-219 0 -360.5 145.5t-141.5 368.5
q0 228 141.5 375t360.5 147q136 0 240.5 -67t159.5 -183v234h126v-1004h-126zM616 899q-168 0 -275.5 -112.5t-107.5 -286.5q0 -173 107.5 -285.5t275.5 -112.5t278 113t110 285q0 173 -109.5 286t-278.5 113z" />
    <glyph glyph-name="uni1EA4" unicode="&#x1ea4;" horiz-adv-x="1482" 
d="M1169 2066h150l-232 -266h-108zM936 1602l-191 200l-190 -200h-131l248 286h145l250 -286h-131zM1305 0l-172 387h-791l-172 -387h-147l720 1567l715 -1567h-153zM395 502h686l-342 770z" />
    <glyph glyph-name="uni1EA5" unicode="&#x1ea5;" 
d="M1073 1589h150l-232 -266h-108zM840 1124l-191 201l-190 -201h-131l247 287h146l250 -287h-131zM1004 0v231q-55 -116 -159.5 -181.5t-240.5 -65.5q-219 0 -360.5 145.5t-141.5 368.5q0 228 141.5 375t360.5 147q136 0 240.5 -67t159.5 -183v234h126v-1004h-126zM616 899
q-168 0 -275.5 -112.5t-107.5 -286.5q0 -173 107.5 -285.5t275.5 -112.5t278 113t110 285q0 173 -109.5 286t-278.5 113z" />
    <glyph glyph-name="uni1EA6" unicode="&#x1ea6;" horiz-adv-x="1482" 
d="M184 2048h152l194 -270h-108zM942 1602l-190 200l-191 -200h-131l248 286h145l250 -286h-131zM1305 0l-172 387h-791l-172 -387h-147l720 1567l715 -1567h-153zM395 502h686l-342 770z" />
    <glyph glyph-name="uni1EA7" unicode="&#x1ea7;" 
d="M125 1583h151l195 -270h-109zM883 1137l-191 200l-190 -200h-131l247 286h146l250 -286h-131zM1004 0v231q-55 -116 -159.5 -181.5t-240.5 -65.5q-219 0 -360.5 145.5t-141.5 368.5q0 228 141.5 375t360.5 147q136 0 240.5 -67t159.5 -183v234h126v-1004h-126zM616 899
q-168 0 -275.5 -112.5t-107.5 -286.5q0 -173 107.5 -285.5t275.5 -112.5t278 113t110 285q0 173 -109.5 286t-278.5 113z" />
    <glyph glyph-name="uni1EA8" unicode="&#x1ea8;" horiz-adv-x="1482" 
d="M1079 1821h-106q145 142 145 209q0 42 -27 66t-69 24q-40 0 -68 -27t-28 -68h-88q0 78 52 128.5t132 50.5t132 -48.5t52 -125.5q0 -88 -127 -209zM944 1612l-190 200l-191 -200h-131l248 286h145l250 -286h-131zM1305 0l-172 387h-791l-172 -387h-147l720 1567l715 -1567
h-153zM395 502h686l-342 770z" />
    <glyph glyph-name="uni1EA9" unicode="&#x1ea9;" 
d="M983 1305h-106q145 142 145 208q0 42 -27 66.5t-69 24.5q-40 0 -68.5 -27t-28.5 -68h-88q0 78 52.5 128.5t132.5 50.5t132 -49t52 -126q0 -87 -127 -208zM848 1096l-191 200l-190 -200h-131l248 286h145l250 -286h-131zM1004 0v231q-55 -116 -159.5 -181.5t-240.5 -65.5
q-219 0 -360.5 145.5t-141.5 368.5q0 228 141.5 375t360.5 147q136 0 240.5 -67t159.5 -183v234h126v-1004h-126zM616 899q-168 0 -275.5 -112.5t-107.5 -286.5q0 -173 107.5 -285.5t275.5 -112.5t278 113t110 285q0 173 -109.5 286t-278.5 113z" />
    <glyph glyph-name="uni1EAA" unicode="&#x1eaa;" horiz-adv-x="1482" 
d="M872 1942q-43 0 -120.5 40.5t-108.5 40.5q-38 0 -60 -23t-22 -65h-82q-3 87 38 139t114 52q44 0 125.5 -43t109.5 -43q38 0 60 23.5t22 64.5h80q4 -85 -38.5 -135.5t-117.5 -50.5zM938 1612l-190 200l-191 -200h-131l248 286h145l250 -286h-131zM1305 0l-172 387h-791
l-172 -387h-147l720 1567l715 -1567h-153zM395 502h686l-342 770z" />
    <glyph glyph-name="uni1EAB" unicode="&#x1eab;" 
d="M797 1456q-43 0 -121 41t-109 41q-38 0 -60 -23t-22 -65h-82q-3 87 38 138.5t114 51.5q44 0 126 -43t110 -43q38 0 59.5 23.5t21.5 64.5h80q4 -85 -38 -135.5t-117 -50.5zM862 1126l-190 201l-191 -201h-131l248 287h145l250 -287h-131zM1004 0v231
q-55 -116 -159.5 -181.5t-240.5 -65.5q-219 0 -360.5 145.5t-141.5 368.5q0 228 141.5 375t360.5 147q136 0 240.5 -67t159.5 -183v234h126v-1004h-126zM616 899q-168 0 -275.5 -112.5t-107.5 -286.5q0 -173 107.5 -285.5t275.5 -112.5t278 113t110 285q0 173 -109.5 286
t-278.5 113z" />
    <glyph glyph-name="uni1EAC" unicode="&#x1eac;" horiz-adv-x="1482" 
d="M940 1614l-190 201l-191 -201h-131l248 287h145l250 -287h-131zM1305 0l-172 387h-791l-172 -387h-147l720 1567l715 -1567h-153zM395 502h686l-342 770zM743 -350q-36 0 -61 26t-25 62q0 37 25 63.5t61 26.5q33 0 60 -18l98 -70l-98 -70q-30 -20 -60 -20z" />
    <glyph glyph-name="uni1EAD" unicode="&#x1ead;" 
d="M874 1157l-190 201l-190 -201h-132l248 287h146l250 -287h-132zM1004 0v231q-55 -116 -159.5 -181.5t-240.5 -65.5q-219 0 -360.5 145.5t-141.5 368.5q0 228 141.5 375t360.5 147q136 0 240.5 -67t159.5 -183v234h126v-1004h-126zM616 899q-168 0 -275.5 -112.5
t-107.5 -286.5q0 -173 107.5 -285.5t275.5 -112.5t278 113t110 285q0 173 -109.5 286t-278.5 113zM629 -350q-36 0 -61 26t-25 62q0 37 25 63.5t61 26.5q32 0 59 -18l98 -70l-98 -70q-30 -20 -59 -20z" />
    <glyph glyph-name="uni1EAE" unicode="&#x1eae;" horiz-adv-x="1482" 
d="M881 2154h161l-251 -286h-117zM1305 0l-172 387h-791l-172 -387h-147l706 1534q-122 4 -198 82.5t-76 189.5h106q0 -72 52.5 -122t127.5 -50q78 0 130.5 50t52.5 122h108q0 -110 -76.5 -188t-197.5 -84l700 -1534h-153zM395 502h686l-342 770z" />
    <glyph glyph-name="uni1EAF" unicode="&#x1eaf;" 
d="M834 1792h161l-252 -287h-116zM694 1272q78 0 130.5 50t52.5 122h108q0 -115 -82 -194t-209 -79q-126 0 -206 79t-80 194h106q0 -72 52.5 -122t127.5 -50zM1004 0v231q-55 -116 -159.5 -181.5t-240.5 -65.5q-219 0 -360.5 145.5t-141.5 368.5q0 228 141.5 375t360.5 147
q136 0 240.5 -67t159.5 -183v234h126v-1004h-126zM616 899q-168 0 -275.5 -112.5t-107.5 -286.5q0 -173 107.5 -285.5t275.5 -112.5t278 113t110 285q0 173 -109.5 286t-278.5 113z" />
    <glyph glyph-name="uni1EB0" unicode="&#x1eb0;" horiz-adv-x="1482" 
d="M430 2150h162l207 -286h-117zM1305 0l-172 387h-791l-172 -387h-147l706 1534q-125 1 -204 80t-79 192h107q0 -72 52.5 -122t127.5 -50q78 0 130 50t52 122h109q0 -108 -74 -185.5t-192 -86.5l700 -1534h-153zM395 502h686l-342 770z" />
    <glyph glyph-name="uni1EB1" unicode="&#x1eb1;" 
d="M365 1788h161l207 -287h-117zM668 1272q78 0 130 50t52 122h108q0 -115 -81.5 -194t-208.5 -79t-207 79t-80 194h106q0 -72 53 -122t128 -50zM1004 0v231q-55 -116 -159.5 -181.5t-240.5 -65.5q-219 0 -360.5 145.5t-141.5 368.5q0 228 141.5 375t360.5 147
q136 0 240.5 -67t159.5 -183v234h126v-1004h-126zM616 899q-168 0 -275.5 -112.5t-107.5 -286.5q0 -173 107.5 -285.5t275.5 -112.5t278 113t110 285q0 173 -109.5 286t-278.5 113z" />
    <glyph glyph-name="uni1EB2" unicode="&#x1eb2;" horiz-adv-x="1482" 
d="M791 1829h-107q72 71 108.5 120.5t36.5 86.5q0 43 -27 67.5t-69 24.5q-40 0 -68 -27.5t-28 -68.5h-90q0 78 53 128t133 50q81 0 133 -48t52 -126q0 -88 -127 -207zM1305 0l-172 387h-791l-172 -387h-147l700 1524q-120 6 -195 83.5t-75 188.5h106q0 -72 52.5 -122
t127.5 -50q78 0 130.5 50t52.5 122h108q0 -109 -74.5 -186t-193.5 -86l696 -1524h-153zM395 502h686l-342 770z" />
    <glyph glyph-name="uni1EB3" unicode="&#x1eb3;" 
d="M731 1477h-106q73 71 109 120t36 86q0 43 -27 68t-69 25q-40 0 -68 -28t-28 -69h-91q0 78 53.5 128.5t133.5 50.5t132 -48t52 -127q0 -87 -127 -206zM680 1272q78 0 130 50t52 122h109q0 -115 -82 -194t-209 -79t-207 79t-80 194h107q0 -72 52.5 -122t127.5 -50zM1004 0
v231q-55 -116 -159.5 -181.5t-240.5 -65.5q-219 0 -360.5 145.5t-141.5 368.5q0 228 141.5 375t360.5 147q136 0 240.5 -67t159.5 -183v234h126v-1004h-126zM616 899q-168 0 -275.5 -112.5t-107.5 -286.5q0 -173 107.5 -285.5t275.5 -112.5t278 113t110 285
q0 173 -109.5 286t-278.5 113z" />
    <glyph glyph-name="uni1EB4" unicode="&#x1eb4;" horiz-adv-x="1482" 
d="M862 1905q-46 0 -125 42t-110 42q-39 0 -61.5 -24.5t-22.5 -66.5h-86q-3 88 39.5 141.5t115.5 53.5q46 0 130.5 -44t111.5 -44q40 0 62 23.5t22 66.5h82q4 -87 -39 -138.5t-119 -51.5zM1305 0l-172 387h-791l-172 -387h-147l706 1534q-124 3 -202 81.5t-78 190.5h106
q0 -72 52.5 -122t127.5 -50q78 0 130.5 50t52.5 122h108q0 -109 -75 -187t-193 -85l700 -1534h-153zM395 502h686l-342 770z" />
    <glyph glyph-name="uni1EB5" unicode="&#x1eb5;" 
d="M782 1520q-46 0 -125 42t-110 42q-39 0 -61.5 -24.5t-22.5 -66.5h-86q-3 88 39.5 141.5t115.5 53.5q46 0 130.5 -44t111.5 -44q40 0 62 23.5t22 66.5h82q4 -87 -39 -138.5t-119 -51.5zM655 1249q78 0 130.5 50t52.5 122h108q0 -114 -82 -193t-209 -79t-206.5 78.5
t-79.5 193.5h106q0 -72 52.5 -122t127.5 -50zM1004 0v231q-55 -116 -159.5 -181.5t-240.5 -65.5q-219 0 -360.5 145.5t-141.5 368.5q0 228 141.5 375t360.5 147q136 0 240.5 -67t159.5 -183v234h126v-1004h-126zM616 899q-168 0 -275.5 -112.5t-107.5 -286.5
q0 -173 107.5 -285.5t275.5 -112.5t278 113t110 285q0 173 -109.5 286t-278.5 113z" />
    <glyph glyph-name="uni1EB6" unicode="&#x1eb6;" horiz-adv-x="1482" 
d="M1305 0l-172 387h-791l-172 -387h-147l704 1532q-122 3 -199 81t-77 191h106q0 -72 52.5 -122t127.5 -50q78 0 130.5 50t52.5 122h108q0 -109 -75 -187t-193 -85l698 -1532h-153zM395 502h686l-342 770zM743 -350q-36 0 -61 26t-25 62q0 37 25 63.5t61 26.5q33 0 60 -18
l98 -70l-98 -70q-30 -20 -60 -20z" />
    <glyph glyph-name="uni1EB7" unicode="&#x1eb7;" 
d="M674 1272q78 0 130 50t52 122h109q0 -115 -82 -194t-209 -79t-207 79t-80 194h107q0 -72 52.5 -122t127.5 -50zM1004 0v231q-55 -116 -159.5 -181.5t-240.5 -65.5q-219 0 -360.5 145.5t-141.5 368.5q0 228 141.5 375t360.5 147q136 0 240.5 -67t159.5 -183v234h126v-1004
h-126zM616 899q-168 0 -275.5 -112.5t-107.5 -286.5q0 -173 107.5 -285.5t275.5 -112.5t278 113t110 285q0 173 -109.5 286t-278.5 113zM647 -352q-36 0 -61 26t-25 62q0 37 25 63.5t61 26.5q31 0 60 -19l98 -69l-98 -70q-30 -20 -60 -20z" />
    <glyph glyph-name="uni1EB8" unicode="&#x1eb8;" horiz-adv-x="1138" 
d="M178 0v1536h889v-121h-756v-575h670v-121h-670v-598h779v-121h-912zM637 -350q-36 0 -61 26t-25 62q0 37 25 63.5t61 26.5q32 0 59 -18l99 -70l-99 -70q-30 -20 -59 -20z" />
    <glyph glyph-name="uni1EB9" unicode="&#x1eb9;" horiz-adv-x="1171" 
d="M637 -16q-237 0 -386 142.5t-149 369.5q0 228 135 376t359 148q215 0 345 -142t130 -364q0 -21 -4 -61h-831q15 -157 124 -255t277 -98q208 0 367 123v-125q-155 -114 -367 -114zM238 557h700q-9 152 -100.5 249t-241.5 97q-154 0 -248 -96.5t-110 -249.5zM584 -350
q-36 0 -61 26t-25 62q0 37 25 63.5t61 26.5q32 0 59 -18l98 -70l-98 -70q-30 -20 -59 -20z" />
    <glyph glyph-name="uni1EBA" unicode="&#x1eba;" horiz-adv-x="1138" 
d="M702 1638h-106q72 71 108.5 120.5t36.5 86.5q0 43 -27 67.5t-69 24.5q-40 0 -68 -27.5t-28 -68.5h-90q0 78 53 128t133 50q81 0 132.5 -48t51.5 -126q0 -88 -127 -207zM178 0v1536h889v-121h-756v-575h670v-121h-670v-598h779v-121h-912z" />
    <glyph glyph-name="uni1EBB" unicode="&#x1ebb;" horiz-adv-x="1171" 
d="M666 1106h-107q73 71 109.5 120.5t36.5 86.5q0 43 -27 67.5t-70 24.5q-40 0 -68 -27.5t-28 -68.5h-90q0 78 53 128t133 50q81 0 133 -48t52 -126q0 -88 -127 -207zM637 -16q-237 0 -386 142.5t-149 369.5q0 228 135 376t359 148q215 0 345 -142t130 -364q0 -21 -4 -61
h-831q15 -157 124 -255t277 -98q208 0 367 123v-125q-155 -114 -367 -114zM238 557h700q-9 152 -100.5 249t-241.5 97q-154 0 -248 -96.5t-110 -249.5z" />
    <glyph glyph-name="uni1EBC" unicode="&#x1ebc;" horiz-adv-x="1138" 
d="M764 1669q-38 0 -86 22.5t-91.5 45t-72.5 22.5q-42 0 -66 -25.5t-24 -70.5h-90q-3 94 42 150.5t124 56.5q48 0 137 -47t119 -47q42 0 66 25.5t24 70.5h86q6 -92 -40 -147.5t-128 -55.5zM178 0v1536h889v-121h-756v-575h670v-121h-670v-598h779v-121h-912z" />
    <glyph glyph-name="uni1EBD" unicode="&#x1ebd;" horiz-adv-x="1171" 
d="M754 1135q-38 0 -86 22.5t-91.5 45t-72.5 22.5q-42 0 -66 -26t-24 -71h-90q-3 94 41.5 150.5t123.5 56.5q48 0 137 -47t119 -47q43 0 67 26t24 70h86q6 -92 -40 -147t-128 -55zM637 -16q-237 0 -386 142.5t-149 369.5q0 228 135 376t359 148q215 0 345 -142t130 -364
q0 -21 -4 -61h-831q15 -157 124 -255t277 -98q208 0 367 123v-125q-155 -114 -367 -114zM238 557h700q-9 152 -100.5 249t-241.5 97q-154 0 -248 -96.5t-110 -249.5z" />
    <glyph glyph-name="uni1EBE" unicode="&#x1ebe;" horiz-adv-x="1138" 
d="M1075 2073h150l-232 -267h-108zM842 1608l-191 200l-190 -200h-131l248 286h145l250 -286h-131zM178 0v1536h889v-121h-756v-575h670v-121h-670v-598h779v-121h-912z" />
    <glyph glyph-name="uni1EBF" unicode="&#x1ebf;" horiz-adv-x="1171" 
d="M1042 1554h150l-231 -266h-109zM809 1090l-191 200l-190 -200h-131l248 286h145l250 -286h-131zM637 -16q-237 0 -386 142.5t-149 369.5q0 228 135 376t359 148q215 0 345 -142t130 -364q0 -21 -4 -61h-831q15 -157 124 -255t277 -98q208 0 367 123v-125
q-155 -114 -367 -114zM238 557h700q-9 152 -100.5 249t-241.5 97q-154 0 -248 -96.5t-110 -249.5z" />
    <glyph glyph-name="uni1EC0" unicode="&#x1ec0;" horiz-adv-x="1138" 
d="M80 2046h151l195 -270h-109zM838 1599l-191 201l-190 -201h-131l247 287h146l250 -287h-131zM178 0v1536h889v-121h-756v-575h670v-121h-670v-598h779v-121h-912z" />
    <glyph glyph-name="uni1EC1" unicode="&#x1ec1;" horiz-adv-x="1171" 
d="M37 1518h151l195 -271h-109zM795 1071l-191 201l-190 -201h-131l247 287h146l250 -287h-131zM637 -16q-237 0 -386 142.5t-149 369.5q0 228 135 376t359 148q215 0 345 -142t130 -364q0 -21 -4 -61h-831q15 -157 124 -255t277 -98q208 0 367 123v-125
q-155 -114 -367 -114zM238 557h700q-9 152 -100.5 249t-241.5 97q-154 0 -248 -96.5t-110 -249.5z" />
    <glyph glyph-name="uni1EC2" unicode="&#x1ec2;" horiz-adv-x="1138" 
d="M985 1825h-106q145 142 145 209q0 42 -27 66t-69 24q-40 0 -68.5 -26.5t-28.5 -67.5h-88q0 78 52.5 128t132.5 50t132 -48.5t52 -125.5q0 -88 -127 -209zM850 1616l-191 201l-190 -201h-131l248 287h145l250 -287h-131zM178 0v1536h889v-121h-756v-575h670v-121h-670
v-598h779v-121h-912z" />
    <glyph glyph-name="uni1EC3" unicode="&#x1ec3;" horiz-adv-x="1171" 
d="M952 1317h-106q145 142 145 209q0 42 -27 66t-69 24q-40 0 -68 -26.5t-28 -67.5h-88q0 78 52 128t132 50t132 -48.5t52 -125.5q0 -88 -127 -209zM817 1108l-190 201l-191 -201h-131l248 287h145l250 -287h-131zM637 -16q-237 0 -386 142.5t-149 369.5q0 228 135 376
t359 148q215 0 345 -142t130 -364q0 -21 -4 -61h-831q15 -157 124 -255t277 -98q208 0 367 123v-125q-155 -114 -367 -114zM238 557h700q-9 152 -100.5 249t-241.5 97q-154 0 -248 -96.5t-110 -249.5z" />
    <glyph glyph-name="uni1EC4" unicode="&#x1ec4;" horiz-adv-x="1138" 
d="M764 1929q-43 0 -120.5 41t-108.5 41q-38 0 -60 -23t-22 -65h-82q-3 87 37.5 139t113.5 52q44 0 126 -43t110 -43q38 0 60 23.5t22 64.5h80q4 -85 -38.5 -136t-117.5 -51zM829 1599l-190 201l-190 -201h-132l248 287h146l250 -287h-132zM178 0v1536h889v-121h-756v-575
h670v-121h-670v-598h779v-121h-912z" />
    <glyph glyph-name="uni1EC5" unicode="&#x1ec5;" horiz-adv-x="1171" 
d="M731 1421q-43 0 -120.5 41t-108.5 41q-38 0 -60 -23t-22 -65h-82q-3 87 37.5 139t113.5 52q44 0 126 -43t110 -43q38 0 60 23.5t22 64.5h80q4 -85 -38.5 -136t-117.5 -51zM797 1092l-191 200l-190 -200h-131l247 286h146l250 -286h-131zM637 -16q-237 0 -386 142.5
t-149 369.5q0 228 135 376t359 148q215 0 345 -142t130 -364q0 -21 -4 -61h-831q15 -157 124 -255t277 -98q208 0 367 123v-125q-155 -114 -367 -114zM238 557h700q-9 152 -100.5 249t-241.5 97q-154 0 -248 -96.5t-110 -249.5z" />
    <glyph glyph-name="uni1EC6" unicode="&#x1ec6;" horiz-adv-x="1138" 
d="M821 1649l-190 200l-191 -200h-131l248 286h145l250 -286h-131zM178 0v1536h889v-121h-756v-575h670v-121h-670v-598h779v-121h-912zM610 -330q-36 0 -61 26t-25 62q0 37 25 63.5t61 26.5q33 0 60 -18l98 -70l-98 -69q-32 -21 -60 -21z" />
    <glyph glyph-name="uni1EC7" unicode="&#x1ec7;" horiz-adv-x="1171" 
d="M813 1087l-190 201l-191 -201h-131l248 287h145l250 -287h-131zM637 -16q-237 0 -386 142.5t-149 369.5q0 228 135 376t359 148q215 0 345 -142t130 -364q0 -21 -4 -61h-831q15 -157 124 -255t277 -98q208 0 367 123v-125q-155 -114 -367 -114zM238 557h700
q-9 152 -100.5 249t-241.5 97q-154 0 -248 -96.5t-110 -249.5zM586 -332q-36 0 -61 26t-25 62q0 37 25 63.5t61 26.5q32 0 59 -18l98 -70l-98 -69q-31 -21 -59 -21z" />
    <glyph glyph-name="uni1EC8" unicode="&#x1ec8;" horiz-adv-x="489" 
d="M309 1628h-106q72 71 108.5 120.5t36.5 86.5q0 43 -27 67.5t-69 24.5q-40 0 -68 -27.5t-28 -68.5h-90q0 78 53 128t133 50q81 0 132.5 -48t51.5 -126q0 -88 -127 -207zM178 0v1536h133v-1536h-133z" />
    <glyph glyph-name="uni1EC9" unicode="&#x1ec9;" horiz-adv-x="483" 
d="M307 1112h-106q72 71 108.5 120.5t36.5 86.5q0 43 -27 67.5t-69 24.5q-40 0 -68 -27.5t-28 -68.5h-91q0 77 53.5 127.5t133.5 50.5q81 0 132.5 -48t51.5 -126q0 -88 -127 -207zM178 0v1004h127v-1004h-127z" />
    <glyph glyph-name="uni1ECA" unicode="&#x1eca;" horiz-adv-x="489" 
d="M178 0v1536h133v-1536h-133zM229 -350q-36 0 -61 26t-25 62q0 37 25 63.5t61 26.5q33 0 60 -18l98 -70l-98 -70q-30 -20 -60 -20z" />
    <glyph glyph-name="uni1ECB" unicode="&#x1ecb;" horiz-adv-x="483" 
d="M233 1217q-36 0 -61 26t-25 62q0 37 25 63.5t61 26.5q31 0 60 -19l98 -69l-98 -70q-30 -20 -60 -20zM178 0v1004h129v-1004h-129zM229 -350q-36 0 -61 26t-25 62q0 37 25 63.5t61 26.5q33 0 60 -18l98 -70l-98 -70q-30 -20 -60 -20z" />
    <glyph glyph-name="uni1ECC" unicode="&#x1ecc;" horiz-adv-x="1736" 
d="M1649 770q0 -170 -58 -316t-160 -249.5t-247.5 -162t-315.5 -58.5t-315 58.5t-247.5 162t-160 249.5t-57.5 316t58 315.5t160.5 248t247.5 160.5t314 58q225 0 403 -99.5t278 -278t100 -404.5zM868 106q188 0 335.5 86t228.5 237t81 341q0 288 -181 474t-464 186
q-141 0 -261.5 -49.5t-204.5 -136.5t-131.5 -209.5t-47.5 -264.5q0 -190 80.5 -341t228.5 -237t336 -86zM842 -356q-36 0 -61 26t-25 62q0 37 25 63.5t61 26.5q30 0 59 -19l98 -69l-98 -70q-30 -20 -59 -20z" />
    <glyph glyph-name="uni1ECD" unicode="&#x1ecd;" horiz-adv-x="1239" 
d="M623 -16q-227 0 -374 147t-147 373q0 223 147 369.5t374 146.5q225 0 369.5 -145.5t144.5 -370.5q0 -226 -144.5 -373t-369.5 -147zM1006 502q0 172 -108.5 284.5t-276.5 112.5q-170 0 -279 -112.5t-109 -284.5q0 -174 109 -287t279 -113q168 0 276.5 113t108.5 287z
M614 -350q-36 0 -61 26t-25 62q0 37 25 63.5t61 26.5q33 0 60 -18l98 -70l-98 -70q-30 -20 -60 -20z" />
    <glyph glyph-name="uni1ECE" unicode="&#x1ece;" horiz-adv-x="1736" 
d="M991 1647h-106q73 71 109 120t36 86q0 43 -27 68t-69 25q-40 0 -68 -28t-28 -69h-90q0 78 53 128.5t133 50.5t132 -48t52 -127q0 -87 -127 -206zM1649 770q0 -170 -58 -316t-160 -249.5t-247.5 -162t-315.5 -58.5t-315 58.5t-247.5 162t-160 249.5t-57.5 316t58 315.5
t160.5 248t247.5 160.5t314 58q225 0 403 -99.5t278 -278t100 -404.5zM868 106q188 0 335.5 86t228.5 237t81 341q0 288 -181 474t-464 186q-141 0 -261.5 -49.5t-204.5 -136.5t-131.5 -209.5t-47.5 -264.5q0 -190 80.5 -341t228.5 -237t336 -86z" />
    <glyph glyph-name="uni1ECF" unicode="&#x1ecf;" horiz-adv-x="1239" 
d="M676 1100h-107q73 71 109.5 120.5t36.5 86.5q0 43 -27 67.5t-70 24.5q-40 0 -68 -27.5t-28 -68.5h-90q0 78 53 128t133 50q81 0 133 -48t52 -126q0 -88 -127 -207zM623 -16q-227 0 -374 147t-147 373q0 223 147 369.5t374 146.5q225 0 369.5 -145.5t144.5 -370.5
q0 -226 -144.5 -373t-369.5 -147zM1006 502q0 172 -108.5 284.5t-276.5 112.5q-170 0 -279 -112.5t-109 -284.5q0 -174 109 -287t279 -113q168 0 276.5 113t108.5 287z" />
    <glyph glyph-name="uni1ED0" unicode="&#x1ed0;" horiz-adv-x="1736" 
d="M1311 2077h149l-231 -267h-109zM1077 1612l-190 200l-191 -200h-131l248 286h145l250 -286h-131zM1649 770q0 -170 -58 -316t-160 -249.5t-247.5 -162t-315.5 -58.5t-315 58.5t-247.5 162t-160 249.5t-57.5 316t58 315.5t160.5 248t247.5 160.5t314 58q225 0 403 -99.5
t278 -278t100 -404.5zM868 106q188 0 335.5 86t228.5 237t81 341q0 288 -181 474t-464 186q-141 0 -261.5 -49.5t-204.5 -136.5t-131.5 -209.5t-47.5 -264.5q0 -190 80.5 -341t228.5 -237t336 -86z" />
    <glyph glyph-name="uni1ED1" unicode="&#x1ed1;" horiz-adv-x="1239" 
d="M1044 1561h150l-231 -267h-109zM811 1096l-190 200l-191 -200h-131l248 286h145l250 -286h-131zM623 -16q-227 0 -374 147t-147 373q0 223 147 369.5t374 146.5q225 0 369.5 -145.5t144.5 -370.5q0 -226 -144.5 -373t-369.5 -147zM1006 502q0 172 -108.5 284.5
t-276.5 112.5q-170 0 -279 -112.5t-109 -284.5q0 -174 109 -287t279 -113q168 0 276.5 113t108.5 287z" />
    <glyph glyph-name="uni1ED2" unicode="&#x1ed2;" horiz-adv-x="1736" 
d="M317 2058h152l195 -270h-109zM1075 1612l-190 200l-191 -200h-131l248 286h145l250 -286h-131zM1649 770q0 -170 -58 -316t-160 -249.5t-247.5 -162t-315.5 -58.5t-315 58.5t-247.5 162t-160 249.5t-57.5 316t58 315.5t160.5 248t247.5 160.5t314 58q225 0 403 -99.5
t278 -278t100 -404.5zM868 106q188 0 335.5 86t228.5 237t81 341q0 288 -181 474t-464 186q-141 0 -261.5 -49.5t-204.5 -136.5t-131.5 -209.5t-47.5 -264.5q0 -190 80.5 -341t228.5 -237t336 -86z" />
    <glyph glyph-name="uni1ED3" unicode="&#x1ed3;" horiz-adv-x="1239" 
d="M61 1509h152l195 -270h-109zM819 1063l-190 201l-191 -201h-131l248 287h145l250 -287h-131zM623 -16q-227 0 -374 147t-147 373q0 223 147 369.5t374 146.5q225 0 369.5 -145.5t144.5 -370.5q0 -226 -144.5 -373t-369.5 -147zM1006 502q0 172 -108.5 284.5t-276.5 112.5
q-170 0 -279 -112.5t-109 -284.5q0 -174 109 -287t279 -113q168 0 276.5 113t108.5 287z" />
    <glyph glyph-name="uni1ED4" unicode="&#x1ed4;" horiz-adv-x="1736" 
d="M1217 1831h-107q145 142 145 209q0 42 -27 66t-69 24q-40 0 -68 -26.5t-28 -67.5h-88q0 78 52 128t132 50t132 -48.5t52 -125.5q0 -88 -126 -209zM1081 1622l-190 201l-191 -201h-131l248 287h146l249 -287h-131zM1649 770q0 -170 -58 -316t-160 -249.5t-247.5 -162
t-315.5 -58.5t-315 58.5t-247.5 162t-160 249.5t-57.5 316t58 315.5t160.5 248t247.5 160.5t314 58q225 0 403 -99.5t278 -278t100 -404.5zM868 106q188 0 335.5 86t228.5 237t81 341q0 288 -181 474t-464 186q-141 0 -261.5 -49.5t-204.5 -136.5t-131.5 -209.5
t-47.5 -264.5q0 -190 80.5 -341t228.5 -237t336 -86z" />
    <glyph glyph-name="uni1ED5" unicode="&#x1ed5;" horiz-adv-x="1239" 
d="M967 1303h-107q72 71 109 121t37 87q0 42 -27.5 66.5t-69.5 24.5q-40 0 -68 -27t-28 -68h-88q0 78 52 128.5t132 50.5t132.5 -49t52.5 -126q0 -87 -127 -208zM831 1094l-190 200l-190 -200h-132l248 286h146l250 -286h-132zM623 -16q-227 0 -374 147t-147 373
q0 223 147 369.5t374 146.5q225 0 369.5 -145.5t144.5 -370.5q0 -226 -144.5 -373t-369.5 -147zM1006 502q0 172 -108.5 284.5t-276.5 112.5q-170 0 -279 -112.5t-109 -284.5q0 -174 109 -287t279 -113q168 0 276.5 113t108.5 287z" />
    <glyph glyph-name="uni1ED6" unicode="&#x1ed6;" horiz-adv-x="1736" 
d="M1006 1948q-43 0 -121 41t-109 41q-38 0 -60 -23t-22 -65h-82q-3 87 38 138.5t114 51.5q44 0 125.5 -43t109.5 -43q38 0 60 23.5t22 64.5h80q4 -85 -38 -135.5t-117 -50.5zM1071 1618l-190 201l-191 -201h-131l248 287h145l250 -287h-131zM1649 770q0 -170 -58 -316
t-160 -249.5t-247.5 -162t-315.5 -58.5t-315 58.5t-247.5 162t-160 249.5t-57.5 316t58 315.5t160.5 248t247.5 160.5t314 58q225 0 403 -99.5t278 -278t100 -404.5zM868 106q188 0 335.5 86t228.5 237t81 341q0 288 -181 474t-464 186q-141 0 -261.5 -49.5t-204.5 -136.5
t-131.5 -209.5t-47.5 -264.5q0 -190 80.5 -341t228.5 -237t336 -86z" />
    <glyph glyph-name="uni1ED7" unicode="&#x1ed7;" horiz-adv-x="1239" 
d="M758 1415q-43 0 -121 41t-109 41q-38 0 -60 -23t-22 -65h-81q-3 87 37.5 138.5t113.5 51.5q44 0 126 -43t110 -43q38 0 60 24t22 65h79q5 -85 -37.5 -136t-117.5 -51zM823 1085l-190 201l-191 -201h-131l248 287h146l249 -287h-131zM623 -16q-227 0 -374 147t-147 373
q0 223 147 369.5t374 146.5q225 0 369.5 -145.5t144.5 -370.5q0 -226 -144.5 -373t-369.5 -147zM1006 502q0 172 -108.5 284.5t-276.5 112.5q-170 0 -279 -112.5t-109 -284.5q0 -174 109 -287t279 -113q168 0 276.5 113t108.5 287z" />
    <glyph glyph-name="uni1ED8" unicode="&#x1ed8;" horiz-adv-x="1736" 
d="M1092 1632l-191 201l-190 -201h-131l247 287h146l250 -287h-131zM1649 770q0 -170 -58 -316t-160 -249.5t-247.5 -162t-315.5 -58.5t-315 58.5t-247.5 162t-160 249.5t-57.5 316t58 315.5t160.5 248t247.5 160.5t314 58q225 0 403 -99.5t278 -278t100 -404.5zM868 106
q188 0 335.5 86t228.5 237t81 341q0 288 -181 474t-464 186q-141 0 -261.5 -49.5t-204.5 -136.5t-131.5 -209.5t-47.5 -264.5q0 -190 80.5 -341t228.5 -237t336 -86zM852 -350q-36 0 -61 26t-25 62q0 37 25 63.5t61 26.5q32 0 59 -18l99 -70l-99 -70q-30 -20 -59 -20z" />
    <glyph glyph-name="uni1ED9" unicode="&#x1ed9;" horiz-adv-x="1239" 
d="M825 1108l-190 201l-191 -201h-131l248 287h146l249 -287h-131zM623 -16q-227 0 -374 147t-147 373q0 223 147 369.5t374 146.5q225 0 369.5 -145.5t144.5 -370.5q0 -226 -144.5 -373t-369.5 -147zM1006 502q0 172 -108.5 284.5t-276.5 112.5q-170 0 -279 -112.5
t-109 -284.5q0 -174 109 -287t279 -113q168 0 276.5 113t108.5 287zM621 -350q-36 0 -61 26t-25 62q0 37 25 63.5t61 26.5q32 0 59 -18l98 -70l-98 -70q-30 -20 -59 -20z" />
    <glyph glyph-name="uni1EDA" unicode="&#x1eda;" horiz-adv-x="1736" 
d="M1051 1944h161l-251 -287h-117zM868 -16q-170 0 -315 58.5t-247.5 162t-160 249.5t-57.5 316t58 315.5t160.5 248t247.5 160.5t314 58t314 -57q70 -18 141 -18q87 0 135.5 45t48.5 135v82h127v-80q0 -267 -252 -283q127 -108 197 -263.5t70 -342.5q0 -170 -58 -316
t-160 -249.5t-247.5 -162t-315.5 -58.5zM868 106q188 0 335.5 86t228.5 237t81 341q0 288 -181 474t-464 186q-141 0 -261.5 -49.5t-204.5 -136.5t-131.5 -209.5t-47.5 -264.5q0 -190 80.5 -341t228.5 -237t336 -86z" />
    <glyph glyph-name="uni1EDB" unicode="&#x1edb;" horiz-adv-x="1239" 
d="M770 1409h162l-252 -287h-117zM623 -16q-227 0 -374 147t-147 373q0 223 147 369.5t374 146.5q79 0 149 -21q46 -6 88 -6q86 0 134 45.5t48 135.5v59h127v-55q0 -241 -204 -279q82 -70 127 -171.5t45 -223.5q0 -226 -144.5 -373t-369.5 -147zM1006 502
q0 172 -108.5 284.5t-276.5 112.5q-170 0 -279 -112.5t-109 -284.5q0 -174 109 -287t279 -113q168 0 276.5 113t108.5 287z" />
    <glyph glyph-name="uni1EDC" unicode="&#x1edc;" horiz-adv-x="1736" 
d="M623 1958h161l207 -287h-117zM868 -16q-170 0 -315 58.5t-247.5 162t-160 249.5t-57.5 316t58 315.5t160.5 248t247.5 160.5t314 58t314 -57q70 -18 141 -18q87 0 135.5 45t48.5 135v82h127v-80q0 -267 -252 -283q127 -108 197 -263.5t70 -342.5q0 -170 -58 -316
t-160 -249.5t-247.5 -162t-315.5 -58.5zM868 106q188 0 335.5 86t228.5 237t81 341q0 288 -181 474t-464 186q-141 0 -261.5 -49.5t-204.5 -136.5t-131.5 -209.5t-47.5 -264.5q0 -190 80.5 -341t228.5 -237t336 -86z" />
    <glyph glyph-name="uni1EDD" unicode="&#x1edd;" horiz-adv-x="1239" 
d="M342 1430h162l207 -287h-117zM623 -16q-227 0 -374 147t-147 373q0 223 147 369.5t374 146.5q79 0 149 -21q46 -6 88 -6q86 0 134 45.5t48 135.5v59h127v-55q0 -241 -204 -279q82 -70 127 -171.5t45 -223.5q0 -226 -144.5 -373t-369.5 -147zM1006 502q0 172 -108.5 284.5
t-276.5 112.5q-170 0 -279 -112.5t-109 -284.5q0 -174 109 -287t279 -113q168 0 276.5 113t108.5 287z" />
    <glyph glyph-name="uni1EDE" unicode="&#x1ede;" horiz-adv-x="1736" 
d="M944 1636h-106q72 71 108.5 120.5t36.5 86.5q0 43 -27 67.5t-69 24.5q-40 0 -68 -27.5t-28 -68.5h-91q0 77 53.5 127.5t133.5 50.5q81 0 132.5 -48t51.5 -126q0 -88 -127 -207zM868 -16q-170 0 -315 58.5t-247.5 162t-160 249.5t-57.5 316t58 315.5t160.5 248
t247.5 160.5t314 58t314 -57q70 -18 141 -18q87 0 135.5 45t48.5 135v82h127v-80q0 -267 -252 -283q127 -108 197 -263.5t70 -342.5q0 -170 -58 -316t-160 -249.5t-247.5 -162t-315.5 -58.5zM868 106q188 0 335.5 86t228.5 237t81 341q0 288 -181 474t-464 186
q-141 0 -261.5 -49.5t-204.5 -136.5t-131.5 -209.5t-47.5 -264.5q0 -190 80.5 -341t228.5 -237t336 -86z" />
    <glyph glyph-name="uni1EDF" unicode="&#x1edf;" horiz-adv-x="1239" 
d="M674 1081h-107q73 71 109.5 120.5t36.5 86.5q0 43 -27 67.5t-70 24.5q-40 0 -68 -27.5t-28 -68.5h-90q0 78 53 128t133 50q81 0 133 -48t52 -126q0 -88 -127 -207zM623 -16q-227 0 -374 147t-147 373q0 223 147 369.5t374 146.5q79 0 149 -21q46 -6 88 -6q86 0 134 45.5
t48 135.5v59h127v-55q0 -241 -204 -279q82 -70 127 -171.5t45 -223.5q0 -226 -144.5 -373t-369.5 -147zM1006 502q0 172 -108.5 284.5t-276.5 112.5q-170 0 -279 -112.5t-109 -284.5q0 -174 109 -287t279 -113q168 0 276.5 113t108.5 287z" />
    <glyph glyph-name="uni1EE0" unicode="&#x1ee0;" horiz-adv-x="1736" 
d="M1042 1690q-48 0 -132 45t-117 45q-42 0 -66.5 -26t-24.5 -71h-90q-3 94 42 150.5t124 56.5q48 0 137 -47t119 -47q42 0 66 25.5t24 70.5h86q6 -92 -40 -147t-128 -55zM868 -16q-170 0 -315 58.5t-247.5 162t-160 249.5t-57.5 316t58 315.5t160.5 248t247.5 160.5t314 58
t314 -57q70 -18 141 -18q87 0 135.5 45t48.5 135v82h127v-80q0 -267 -252 -283q127 -108 197 -263.5t70 -342.5q0 -170 -58 -316t-160 -249.5t-247.5 -162t-315.5 -58.5zM868 106q188 0 335.5 86t228.5 237t81 341q0 288 -181 474t-464 186q-141 0 -261.5 -49.5
t-204.5 -136.5t-131.5 -209.5t-47.5 -264.5q0 -190 80.5 -341t228.5 -237t336 -86z" />
    <glyph glyph-name="uni1EE1" unicode="&#x1ee1;" horiz-adv-x="1239" 
d="M766 1186q-38 0 -86 22.5t-91.5 45t-72.5 22.5q-42 0 -66 -25.5t-24 -70.5h-90q-3 94 42 150t124 56q48 0 137 -47t119 -47q42 0 66 26t24 71h86q6 -92 -40 -147.5t-128 -55.5zM623 -16q-227 0 -374 147t-147 373q0 223 147 369.5t374 146.5q79 0 149 -21q46 -6 88 -6
q86 0 134 45.5t48 135.5v59h127v-55q0 -241 -204 -279q82 -70 127 -171.5t45 -223.5q0 -226 -144.5 -373t-369.5 -147zM1006 502q0 172 -108.5 284.5t-276.5 112.5q-170 0 -279 -112.5t-109 -284.5q0 -174 109 -287t279 -113q168 0 276.5 113t108.5 287z" />
    <glyph glyph-name="uni1EE2" unicode="&#x1ee2;" horiz-adv-x="1736" 
d="M868 -16q-170 0 -315 58.5t-247.5 162t-160 249.5t-57.5 316t58 315.5t160.5 248t247.5 160.5t314 58t314 -57q70 -18 141 -18q87 0 135.5 45t48.5 135v82h127v-80q0 -267 -252 -283q127 -108 197 -263.5t70 -342.5q0 -170 -58 -316t-160 -249.5t-247.5 -162
t-315.5 -58.5zM868 106q188 0 335.5 86t228.5 237t81 341q0 288 -181 474t-464 186q-141 0 -261.5 -49.5t-204.5 -136.5t-131.5 -209.5t-47.5 -264.5q0 -190 80.5 -341t228.5 -237t336 -86zM852 -350q-36 0 -61 26t-25 62q0 37 25 63.5t61 26.5q32 0 59 -18l99 -70l-99 -70
q-30 -20 -59 -20z" />
    <glyph glyph-name="uni1EE3" unicode="&#x1ee3;" horiz-adv-x="1239" 
d="M623 -16q-227 0 -374 147t-147 373q0 223 147 369.5t374 146.5q79 0 149 -21q46 -6 88 -6q86 0 134 45.5t48 135.5v59h127v-55q0 -241 -204 -279q82 -70 127 -171.5t45 -223.5q0 -226 -144.5 -373t-369.5 -147zM1006 502q0 172 -108.5 284.5t-276.5 112.5
q-170 0 -279 -112.5t-109 -284.5q0 -174 109 -287t279 -113q168 0 276.5 113t108.5 287zM633 -350q-36 0 -61 26t-25 62q0 37 25 63.5t61 26.5q32 0 59 -18l99 -70l-99 -70q-30 -20 -59 -20z" />
    <glyph glyph-name="uni1EE4" unicode="&#x1ee4;" horiz-adv-x="1542" 
d="M156 637v899h131v-901q0 -238 132 -383.5t353 -145.5q218 0 350.5 146t132.5 383v901h131v-899q0 -193 -76 -341t-216.5 -230t-323.5 -82q-185 0 -324.5 82t-214.5 230t-75 341zM766 -371q-36 0 -61 26t-25 62q0 37 25 63.5t61 26.5q32 0 59 -18l99 -70l-99 -69
q-31 -21 -59 -21z" />
    <glyph glyph-name="uni1EE5" unicode="&#x1ee5;" horiz-adv-x="1175" 
d="M899 426v578h127v-566q0 -212 -118.5 -333t-319.5 -121q-203 0 -322 121t-119 333v566h127v-578q0 -156 85.5 -240t228.5 -84t227 84t84 240zM573 -350q-36 0 -61 26t-25 62q0 37 25 63.5t61 26.5q33 0 60 -18l98 -70l-98 -70q-30 -20 -60 -20z" />
    <glyph glyph-name="uni1EE6" unicode="&#x1ee6;" horiz-adv-x="1542" 
d="M807 1696h-107q73 71 109.5 120.5t36.5 86.5q0 43 -27 67.5t-69 24.5q-40 0 -68.5 -28t-28.5 -69h-90q0 78 53.5 128.5t133.5 50.5q81 0 132.5 -48t51.5 -126q0 -88 -127 -207zM156 637v899h131v-901q0 -238 132 -383.5t353 -145.5q218 0 350.5 146t132.5 383v901h131
v-899q0 -193 -76 -341t-216.5 -230t-323.5 -82q-185 0 -324.5 82t-214.5 230t-75 341z" />
    <glyph glyph-name="uni1EE7" unicode="&#x1ee7;" horiz-adv-x="1175" 
d="M633 1122h-107q73 71 109.5 120.5t36.5 86.5q0 43 -27 67.5t-70 24.5q-40 0 -68 -27.5t-28 -68.5h-90q0 78 53 128t133 50q81 0 133 -48t52 -126q0 -88 -127 -207zM899 426v578h127v-566q0 -212 -118.5 -333t-319.5 -121q-203 0 -322 121t-119 333v566h127v-578
q0 -156 85.5 -240t228.5 -84t227 84t84 240z" />
    <glyph glyph-name="uni1EE8" unicode="&#x1ee8;" horiz-adv-x="1542" 
d="M913 1933h162l-252 -286h-116zM156 637v899h131v-901q0 -238 132 -383.5t353 -145.5q218 0 350.5 146t132.5 383v901h127q87 0 127.5 37t40.5 127v59h127v-55q0 -285 -284 -285h-7v-782q0 -193 -76 -341t-216.5 -230t-323.5 -82q-185 0 -324.5 82t-214.5 230t-75 341z
" />
    <glyph glyph-name="uni1EE9" unicode="&#x1ee9;" horiz-adv-x="1175" 
d="M735 1430h162l-252 -287h-117zM899 426v578h80q87 0 135.5 45t48.5 135v59h127v-55q0 -276 -264 -285v-465q0 -212 -118.5 -333t-319.5 -121q-203 0 -322 121t-119 333v566h127v-578q0 -156 85.5 -240t228.5 -84t227 84t84 240z" />
    <glyph glyph-name="uni1EEA" unicode="&#x1eea;" horiz-adv-x="1542" 
d="M473 1937h162l207 -286h-117zM156 637v899h131v-901q0 -238 132 -383.5t353 -145.5q218 0 350.5 146t132.5 383v901h127q87 0 127.5 37t40.5 127v59h127v-55q0 -285 -284 -285h-7v-782q0 -193 -76 -341t-216.5 -230t-323.5 -82q-185 0 -324.5 82t-214.5 230t-75 341z" />
    <glyph glyph-name="uni1EEB" unicode="&#x1eeb;" horiz-adv-x="1175" 
d="M297 1430h162l207 -287h-117zM899 426v578h80q87 0 135.5 45t48.5 135v59h127v-55q0 -276 -264 -285v-465q0 -212 -118.5 -333t-319.5 -121q-203 0 -322 121t-119 333v566h127v-578q0 -156 85.5 -240t228.5 -84t227 84t84 240z" />
    <glyph glyph-name="uni1EEC" unicode="&#x1eec;" horiz-adv-x="1542" 
d="M836 1647h-107q73 71 109 120t36 86q0 43 -27 68t-69 25q-40 0 -68 -28t-28 -69h-90q0 78 53 128.5t133 50.5q81 0 133 -48.5t52 -126.5q0 -87 -127 -206zM156 637v899h131v-901q0 -238 132 -383.5t353 -145.5q218 0 350.5 146t132.5 383v901h127q87 0 127.5 37t40.5 127
v59h127v-55q0 -285 -284 -285h-7v-782q0 -193 -76 -341t-216.5 -230t-323.5 -82q-185 0 -324.5 82t-214.5 230t-75 341z" />
    <glyph glyph-name="uni1EED" unicode="&#x1eed;" horiz-adv-x="1175" 
d="M645 1161h-106q72 71 108.5 120.5t36.5 86.5q0 43 -27 67.5t-69 24.5q-40 0 -68 -27.5t-28 -68.5h-91q0 77 53.5 127.5t133.5 50.5q81 0 132.5 -48t51.5 -126q0 -88 -127 -207zM899 426v578h80q87 0 135.5 45t48.5 135v59h127v-55q0 -276 -264 -285v-465
q0 -212 -118.5 -333t-319.5 -121q-203 0 -322 121t-119 333v566h127v-578q0 -156 85.5 -240t228.5 -84t227 84t84 240z" />
    <glyph glyph-name="uni1EEE" unicode="&#x1eee;" horiz-adv-x="1542" 
d="M934 1716q-38 0 -86 22.5t-91.5 45t-72.5 22.5q-42 0 -66 -25.5t-24 -70.5h-90q-3 94 42 150.5t124 56.5q48 0 137 -47t119 -47q42 0 66 25.5t24 70.5h86q6 -92 -40 -147.5t-128 -55.5zM156 637v899h131v-901q0 -238 132 -383.5t353 -145.5q218 0 350.5 146t132.5 383
v901h127q87 0 127.5 37t40.5 127v59h127v-55q0 -285 -284 -285h-7v-782q0 -193 -76 -341t-216.5 -230t-323.5 -82q-185 0 -324.5 82t-214.5 230t-75 341z" />
    <glyph glyph-name="uni1EEF" unicode="&#x1eef;" horiz-adv-x="1175" 
d="M737 1147q-47 0 -132 45t-118 45q-42 0 -66 -25.5t-24 -70.5h-90q-3 94 42 150.5t124 56.5q48 0 137 -47.5t119 -47.5q42 0 66 26t24 71h86q6 -92 -40 -147.5t-128 -55.5zM899 426v578h80q87 0 135.5 45t48.5 135v59h127v-55q0 -276 -264 -285v-465q0 -212 -118.5 -333
t-319.5 -121q-203 0 -322 121t-119 333v566h127v-578q0 -156 85.5 -240t228.5 -84t227 84t84 240z" />
    <glyph glyph-name="uni1EF0" unicode="&#x1ef0;" horiz-adv-x="1542" 
d="M156 637v899h131v-901q0 -238 132 -383.5t353 -145.5q218 0 350.5 146t132.5 383v901h127q87 0 127.5 37t40.5 127v59h127v-55q0 -285 -284 -285h-7v-782q0 -193 -76 -341t-216.5 -230t-323.5 -82q-185 0 -324.5 82t-214.5 230t-75 341zM745 -393q-36 0 -61 26t-25 62
q0 37 25 63.5t61 26.5q33 0 60 -18l98 -70l-98 -70q-30 -20 -60 -20z" />
    <glyph glyph-name="uni1EF1" unicode="&#x1ef1;" horiz-adv-x="1175" 
d="M899 426v578h80q87 0 135.5 45t48.5 135v59h127v-55q0 -276 -264 -285v-465q0 -212 -118.5 -333t-319.5 -121q-203 0 -322 121t-119 333v566h127v-578q0 -156 85.5 -240t228.5 -84t227 84t84 240zM592 -350q-36 0 -61 26t-25 62q0 37 25 63.5t61 26.5q32 0 59 -18l99 -70
l-99 -70q-30 -20 -59 -20z" />
    <glyph glyph-name="Ygrave" unicode="&#x1ef2;" horiz-adv-x="1316" 
d="M387 1935h162l207 -286h-117zM1298 1536l-571 -940v-596h-131v582l-578 954h154l487 -813l492 813h147z" />
    <glyph glyph-name="ygrave" unicode="&#x1ef3;" horiz-adv-x="1040" 
d="M250 1454h162l206 -287h-116zM1016 1004l-733 -1516h-133l317 659l-444 857h149l365 -713l346 713h133z" />
    <glyph glyph-name="uni1EF4" unicode="&#x1ef4;" horiz-adv-x="1316" 
d="M1298 1536l-571 -940v-596h-131v582l-578 954h154l487 -813l492 813h147zM649 -371q-36 0 -61 26t-25 62q0 37 25 63.5t61 26.5q33 0 60 -18l98 -70l-98 -69q-31 -21 -60 -21z" />
    <glyph glyph-name="uni1EF5" unicode="&#x1ef5;" horiz-adv-x="1040" 
d="M1016 1004l-733 -1516h-133l317 659l-444 857h149l365 -713l346 713h133zM737 -424q-36 0 -61 26t-25 62q0 37 25 63.5t61 26.5q33 0 60 -18l98 -70l-98 -69q-32 -21 -60 -21z" />
    <glyph glyph-name="uni1EF6" unicode="&#x1ef6;" horiz-adv-x="1316" 
d="M715 1636h-107q73 71 109.5 120.5t36.5 86.5q0 43 -27 67.5t-70 24.5q-40 0 -68 -27.5t-28 -68.5h-90q0 78 53 128t133 50q81 0 133 -48t52 -126q0 -88 -127 -207zM1298 1536l-571 -940v-596h-131v582l-578 954h154l487 -813l492 813h147z" />
    <glyph glyph-name="uni1EF7" unicode="&#x1ef7;" horiz-adv-x="1040" 
d="M580 1110h-107q72 71 108.5 120.5t36.5 86.5q0 43 -27 67.5t-69 24.5q-40 0 -68 -27.5t-28 -68.5h-90q0 78 53 128t133 50q81 0 133 -48t52 -126q0 -88 -127 -207zM1016 1004l-733 -1516h-133l317 659l-444 857h149l365 -713l346 713h133z" />
    <glyph glyph-name="uni1EF8" unicode="&#x1ef8;" horiz-adv-x="1316" 
d="M803 1669q-47 0 -132 45t-118 45q-42 0 -66 -25.5t-24 -70.5h-90q-3 94 42 150.5t124 56.5q48 0 137 -47t119 -47q42 0 66 25.5t24 70.5h86q6 -92 -40 -147.5t-128 -55.5zM1298 1536l-571 -940v-596h-131v582l-578 954h154l487 -813l492 813h147z" />
    <glyph glyph-name="uni1EF9" unicode="&#x1ef9;" horiz-adv-x="1040" 
d="M682 1176q-48 0 -132.5 45t-117.5 45q-42 0 -66 -26t-24 -71h-90q-3 94 42 150.5t124 56.5q48 0 137 -47t119 -47q42 0 66 25.5t24 70.5h86q6 -92 -40 -147t-128 -55zM1016 1004l-733 -1516h-133l317 659l-444 857h149l365 -713l346 713h133z" />
    <glyph glyph-name="endash" unicode="&#x2013;" horiz-adv-x="1024" 
d="M41 545v114h942v-114h-942z" />
    <glyph glyph-name="emdash" unicode="&#x2014;" horiz-adv-x="2048" 
d="M41 659h1966v-114h-1966v114z" />
    <glyph glyph-name="quoteleft" unicode="&#x2018;" horiz-adv-x="405" 
d="M252 1536h92l-131 -266q74 -21 74 -92q0 -41 -28.5 -68t-70.5 -27q-44 0 -72 28t-28 71q0 47 31 98z" />
    <glyph glyph-name="quoteright" unicode="&#x2019;" horiz-adv-x="405" 
d="M154 1102h-93l134 264q-76 25 -76 92q0 42 28 68t70 26q44 0 72 -27t28 -71q0 -36 -30 -98z" />
    <glyph glyph-name="quotesinglbase" unicode="&#x201a;" horiz-adv-x="405" 
d="M154 -287h-93l134 267q-34 10 -55 33.5t-21 58.5q0 41 28 66.5t70 25.5q44 0 72 -27t28 -71q0 -35 -30 -97z" />
    <glyph glyph-name="quotedblleft" unicode="&#x201c;" horiz-adv-x="731" 
d="M250 1536h94l-133 -266q74 -21 74 -92q0 -41 -28 -68t-71 -27t-70.5 28t-27.5 71q0 41 31 98zM578 1536h92l-133 -266q34 -9 53.5 -32.5t19.5 -59.5q0 -41 -27.5 -68t-70.5 -27t-70.5 28t-27.5 71t30 98z" />
    <glyph glyph-name="quotedblright" unicode="&#x201d;" horiz-adv-x="731" 
d="M154 1102h-93l134 264q-76 25 -76 92q0 42 28 68t70 26q44 0 72 -27t28 -71q0 -36 -30 -98zM479 1102h-92l133 264q-76 25 -76 92q0 42 28.5 68t72.5 26q43 0 70.5 -27t27.5 -71q0 -41 -31 -98z" />
    <glyph glyph-name="quotedblbase" unicode="&#x201e;" horiz-adv-x="731" 
d="M154 -287h-93l134 267q-34 10 -55 33.5t-21 58.5q0 41 28 66.5t70 25.5q44 0 72 -27t28 -71q0 -35 -30 -97zM479 -287h-92l133 267q-34 10 -55 33.5t-21 58.5q0 41 29 66.5t72 25.5t70.5 -27t27.5 -71q0 -40 -31 -97z" />
    <glyph glyph-name="dagger" unicode="&#x2020;" horiz-adv-x="917" 
d="M815 1122h-309v-712h-96v712h-308v99h308v315h96v-315h309v-99z" />
    <glyph glyph-name="daggerdbl" unicode="&#x2021;" horiz-adv-x="917" 
d="M815 389h-309v-389h-96v389h-308v96h308v564h-308v98h308v389h96v-389h309v-98h-309v-564h309v-96z" />
    <glyph glyph-name="bullet" unicode="&#x2022;" horiz-adv-x="706" 
d="M352 438q-77 0 -132.5 54.5t-55.5 132.5q0 79 55.5 133.5t132.5 54.5q80 0 135.5 -54.5t55.5 -133.5q0 -78 -55.5 -132.5t-135.5 -54.5z" />
    <glyph glyph-name="ellipsis" unicode="&#x2026;" horiz-adv-x="1292" 
d="M211 -16q-43 0 -70.5 26.5t-27.5 69.5t27.5 69.5t70.5 26.5t70.5 -26.5t27.5 -69.5t-27.5 -69.5t-70.5 -26.5zM647 -16q-44 0 -72 26.5t-28 69.5t28 69.5t72 26.5q43 0 69.5 -26.5t26.5 -69.5t-26.5 -69.5t-69.5 -26.5zM1081 -16q-43 0 -71.5 27t-28.5 69t28.5 69
t71.5 27t71 -27t28 -69t-28 -69t-71 -27z" />
    <glyph glyph-name="perthousand" unicode="&#x2030;" horiz-adv-x="2740" 
d="M434 840q-158 0 -262 101.5t-104 256.5q0 154 104 254t262 100q159 0 264 -100.5t105 -253.5q0 -155 -105 -256.5t-264 -101.5zM1622 1536l-1233 -1536h-129l1233 1536h129zM434 940q111 0 184.5 73t73.5 185q0 109 -74 181.5t-184 72.5t-183 -72.5t-73 -181.5
q0 -112 72.5 -185t183.5 -73zM2306 -16q-159 0 -263 100.5t-104 255.5q0 154 104.5 255t262.5 101q159 0 264 -101.5t105 -254.5q0 -155 -105 -255.5t-264 -100.5zM1438 -16q-159 0 -264 100.5t-105 255.5q0 153 105 254.5t264 101.5q158 0 262 -101t104 -255
q0 -155 -103.5 -255.5t-262.5 -100.5zM1694 340q0 110 -73 183t-183 73t-184 -73t-74 -183t74 -183t184 -73t183 73t73 183zM2564 340q0 110 -74 183t-184 73t-183 -73t-73 -183t73 -183t183 -73t184 73t74 183z" />
    <glyph glyph-name="guilsinglleft" unicode="&#x2039;" horiz-adv-x="593" 
d="M367 139l-291 410l291 393h133l-289 -393l289 -410h-133z" />
    <glyph glyph-name="guilsinglright" unicode="&#x203a;" horiz-adv-x="593" 
d="M227 139h-135l291 410l-291 393h135l289 -393z" />
    <glyph glyph-name="fraction" unicode="&#x2044;" horiz-adv-x="956" 
d="M-53 0h-129l1192 1536h129z" />
    <glyph glyph-name="zerosuperior" unicode="&#x2070;" horiz-adv-x="991" 
d="M879 1071q0 -100 -23.5 -186.5t-69 -155t-120.5 -108t-170 -39.5t-170 39.5t-120.5 108t-69 155t-23.5 186.5q0 99 24 184.5t69.5 152.5t120 105.5t169.5 38.5t169.5 -38.5t120 -105.5t69.5 -152.5t24 -184.5zM496 678q71 0 124.5 32.5t85 88.5t47 124.5t15.5 147.5
q0 78 -16 145.5t-47.5 122.5t-85 87t-123.5 32q-93 0 -156.5 -56t-90 -140.5t-26.5 -190.5q0 -79 15.5 -147.5t47 -124.5t85.5 -88.5t125 -32.5z" />
    <glyph glyph-name="foursuperior" unicode="&#x2074;" horiz-adv-x="833" 
d="M797 797h-138v-207h-106v207h-557l424 739h117l-367 -645h383v332h106v-332h138v-94z" />
    <glyph glyph-name="fivesuperior" unicode="&#x2075;" horiz-adv-x="835" 
d="M408 1182q152 0 247 -84.5t95 -218.5q0 -138 -106.5 -224t-274.5 -86q-151 0 -277 72v107q136 -89 275 -89q122 0 197 61t75 161q0 96 -68.5 154.5t-187.5 58.5q-128 0 -260 -54v498h575v-90h-471v-297q84 31 181 31z" />
    <glyph glyph-name="sixsuperior" unicode="&#x2076;" horiz-adv-x="839" 
d="M416 569q-156 0 -255.5 85t-99.5 218q0 119 80 228l324 436h121l-273 -365q50 23 117 23q154 0 252 -86t98 -221q0 -140 -102 -229t-262 -89zM416 659q110 0 182 65t72 163q0 97 -71 159t-181 62q-114 0 -182 -68q-66 -63 -66 -163q0 -94 69 -156t177 -62z" />
    <glyph glyph-name="sevensuperior" unicode="&#x2077;" horiz-adv-x="724" 
d="M188 594h-116l495 856h-547v86h711z" />
    <glyph glyph-name="eightsuperior" unicode="&#x2078;" horiz-adv-x="903" 
d="M453 573q-158 0 -260.5 77t-102.5 206q0 87 59.5 153t155.5 91q-70 24 -115 80t-45 127q0 108 86.5 176.5t221.5 68.5t220 -68t85 -177q0 -70 -44.5 -126t-115.5 -81q99 -25 157 -90.5t58 -153.5q0 -130 -101 -206.5t-259 -76.5zM453 1139q87 0 143.5 43t56.5 118
q0 71 -55.5 115.5t-144.5 44.5q-88 0 -145.5 -45t-57.5 -115q0 -74 57.5 -117.5t145.5 -43.5zM453 666q111 0 181.5 51t70.5 141q0 87 -71 139t-181 52t-181 -52t-71 -139q0 -90 70.5 -141t181.5 -51z" />
    <glyph glyph-name="ninesuperior" unicode="&#x2079;" horiz-adv-x="839" 
d="M379 594h-123l270 356q-51 -22 -116 -22q-154 0 -251.5 86t-97.5 221q0 140 102 228.5t263 88.5q155 0 254.5 -85t99.5 -218q0 -120 -82 -227zM424 1014q120 0 192 78q56 62 56 153q0 94 -69.5 154.5t-178.5 60.5q-110 0 -181 -63.5t-71 -161.5q0 -97 71 -159t181 -62z
" />
    <glyph glyph-name="won" unicode="&#x20a9;" horiz-adv-x="2326" 
d="M0 539v116h387l-96 238h-291v117h244l-215 526h151l207 -526h563l219 557l215 -557h562l206 526h148l-215 -526h203v-117h-252l-97 -238h349v-116h-398l-233 -570l-219 570h-547l-223 -570l-232 570h-436zM1165 1243l-92 -233h182zM526 655h287l92 238h-473zM936 655h457
l-93 238h-272zM1522 655h284l92 238h-468zM670 291l96 248h-195zM1663 293l96 246h-190z" />
    <glyph glyph-name="dong" unicode="&#x20ab;" 
d="M1004 324v233q-55 -116 -159.5 -183t-240.5 -67q-219 0 -360.5 145.5t-141.5 370.5q0 226 141.5 373t360.5 147q136 0 240.5 -66t159.5 -183v374h-293v107h293v143h126v-143h162v-107h-162v-1144h-126zM616 1223q-168 0 -275.5 -113t-107.5 -287q0 -171 107.5 -283
t275.5 -112t278 112t110 283q0 173 -109.5 286.5t-278.5 113.5zM203 0v117h927v-117h-927z" />
    <glyph glyph-name="Euro" unicode="&#x20ac;" horiz-adv-x="1388" 
d="M1298 45q-157 -61 -352 -61q-260 0 -441.5 150t-242.5 398h-201v117h177q-9 88 -9 119t9 119h-177v117h199q64 248 248.5 398t445.5 150q211 0 379 -92l-43 -117q-153 87 -346 87q-202 0 -343.5 -116.5t-197.5 -309.5h762l-41 -117h-751q-8 -78 -8 -119t8 -119h665
l-41 -117h-589q56 -193 199 -309.5t347 -116.5q199 0 344 74v-135z" />
    <glyph glyph-name="uni20B9" unicode="&#x20b9;" horiz-adv-x="1236" 
d="M1063 0h-160l-416 592q-10 0 -30.5 -1t-30.5 -1h-334v121h359q156 0 256 80t112 219h-727v106h725q-15 137 -112 218t-254 81h-359v121h1084v-106h-414q87 -42 137.5 -124t58.5 -190h218v-106h-218q-13 -150 -103 -253t-230 -139z" />
    <glyph glyph-name="uni2113" unicode="&#x2113;" horiz-adv-x="962" 
d="M113 379h-74v123h61q74 0 131 14v741q0 127 73 211t198 84q124 0 198 -80t74 -208v-181q0 -226 -113.5 -400t-298.5 -251v-129q0 -86 54.5 -141.5t140.5 -55.5q101 0 227 70v-123q-104 -69 -245 -69q-143 0 -225.5 91t-82.5 230v86q-62 -12 -118 -12zM362 1257v-690
q129 63 205 195t76 309v191q0 73 -37.5 121.5t-103.5 48.5q-68 0 -104 -49.5t-36 -125.5z" />
    <glyph glyph-name="trademark" unicode="&#x2122;" horiz-adv-x="1632" 
d="M1147 1087l-258 261v-422h-90v628l348 -346l348 346v-628h-90v424zM61 1450v86h607v-86h-258v-524h-91v524h-258z" />
    <glyph glyph-name="estimated" unicode="&#x212e;" horiz-adv-x="1597" 
d="M1536 629h-1194q-10 0 -10 -8v-361q0 -25 16 -41q88 -93 205 -144.5t248 -51.5q139 0 262 58.5t213 160.5h106q-101 -119 -254 -187.5t-329 -68.5q-150 0 -287 52t-235.5 140.5t-157 211t-58.5 257.5t58.5 258t157 212t235.5 141.5t287 52.5q201 0 370.5 -89t268 -241.5
t98.5 -333.5v-18zM1266 676v364q0 24 -19 43q-89 89 -204 139t-242 50q-129 0 -246 -52t-205 -143q-18 -18 -18 -45v-356q0 -10 10 -10h915q9 0 9 10z" />
    <glyph glyph-name="partialdiff" unicode="&#x2202;" horiz-adv-x="1179" 
d="M1085 606q0 -102 -22 -195t-67 -171t-109 -135t-151 -89t-189 -32q-202 0 -331.5 132t-129.5 341q0 221 142 365.5t368 144.5q110 0 203 -47t147 -136q-15 138 -63 256t-125 206.5t-187 139t-241 50.5v110q144 0 267 -48t212 -134t151.5 -204t93.5 -258t31 -296zM563 102
q176 0 281.5 119.5t105.5 300.5q0 147 -98.5 235.5t-249.5 88.5q-170 0 -275.5 -112t-105.5 -281q0 -153 96 -252t246 -99z" />
    <glyph glyph-name="product" unicode="&#x220f;" horiz-adv-x="1470" 
d="M178 -322v1858h1114v-1858h-133v1741h-848v-1741h-133z" />
    <glyph glyph-name="summation" unicode="&#x2211;" horiz-adv-x="1419" 
d="M137 -205l703 836l-703 786v117h1159v-117h-991l699 -786l-699 -836h991v-117h-1159v117z" />
    <glyph glyph-name="minus" unicode="&#x2212;" horiz-adv-x="1124" 
d="M123 717v117h878v-117h-878z" />
    <glyph glyph-name="uni2215" unicode="&#x2215;" horiz-adv-x="956" 
d="M-53 0h-129l1192 1536h129z" />
    <glyph glyph-name="radical" unicode="&#x221a;" horiz-adv-x="1501" 
d="M760 -31l-424 916h-303v119h393l334 -758l579 1290h138z" />
    <glyph glyph-name="infinity" unicode="&#x221e;" horiz-adv-x="1855" 
d="M1368 340q-57 0 -110 17.5t-94.5 43.5t-85.5 69.5t-75.5 81.5t-72.5 93q-51 -69 -92.5 -116.5t-97 -94.5t-118.5 -70.5t-133 -23.5q-173 0 -281 115t-108 295q0 183 108.5 301t285.5 118q69 0 130.5 -23.5t116.5 -72t94 -93t93 -116.5q49 69 90.5 117t96 94.5t117 70
t132.5 23.5q176 0 283.5 -117.5t107.5 -299.5q0 -180 -107 -296t-280 -116zM1358 1051q-28 0 -54 -4.5t-50.5 -17t-43.5 -22.5t-42 -32.5t-37 -36t-37.5 -43.5t-33.5 -43.5t-35 -48.5t-34 -47q14 -19 44.5 -60.5t46.5 -62t44.5 -53.5t50.5 -50t52 -36t62.5 -27t68.5 -8
q123 0 195.5 82.5t72.5 210.5q0 129 -73.5 214t-196.5 85zM498 1051q-123 0 -197 -86t-74 -215q0 -127 73.5 -209t197.5 -82q28 0 54 4.5t50.5 17t43 22.5t42 33t37 36t37 43.5t33.5 43.5t35.5 49t33.5 48q-13 18 -43.5 60t-46 61.5t-43.5 53t-50 50t-52 35.5t-62.5 27
t-68.5 8z" />
    <glyph glyph-name="integral" unicode="&#x222b;" horiz-adv-x="757" 
d="M160 -528q-93 0 -176 47v127q79 -54 163 -54q75 0 120.5 53t45.5 136v1460q0 136 78 223.5t209 87.5q91 0 174 -47v-127q-79 54 -164 54q-75 0 -120.5 -53t-45.5 -136v-1460q0 -136 -77 -223.5t-207 -87.5z" />
    <glyph glyph-name="approxequal" unicode="&#x2248;" horiz-adv-x="1124" 
d="M360 1090q50 0 105.5 -16.5t98 -37t99 -37t107.5 -16.5q127 0 231 109v-127q-99 -99 -235 -99q-51 0 -107.5 16.5t-98.5 37t-97.5 37t-106.5 16.5q-113 0 -233 -115v125q102 107 237 107zM360 668q50 0 105.5 -16.5t98 -36t99 -36t107.5 -16.5q129 0 231 107v-125
q-91 -99 -235 -99q-51 0 -107.5 16t-98.5 35.5t-97.5 35.5t-106.5 16q-120 0 -233 -113v125q99 107 237 107z" />
    <glyph glyph-name="notequal" unicode="&#x2260;" horiz-adv-x="1124" 
d="M1001 496h-522l-135 -254h-119l137 254h-239v116h295l176 312h-471v114h526l129 236h117l-127 -236h233v-114h-288l-176 -312h464v-116z" />
    <glyph glyph-name="lessequal" unicode="&#x2264;" horiz-adv-x="1124" 
d="M940 668v-129l-782 352v135l782 352v-127l-666 -293zM158 657l782 -362v-123l-782 363v122z" />
    <glyph glyph-name="greaterequal" unicode="&#x2265;" horiz-adv-x="1124" 
d="M967 891l-783 -352v129l664 290l-664 293v127l783 -352v-135zM967 657v-122l-783 -363v123z" />
    <glyph glyph-name="lozenge" unicode="&#x25ca;" horiz-adv-x="1191" 
d="M1114 709l-518 -746l-518 746l518 747zM969 709l-373 546l-375 -546l375 -547z" />
    <glyph glyph-name="commaaccent" unicode="&#xf6c3;" horiz-adv-x="919" 
d="M446 -133h134l-156 -273h-92z" />
    <glyph glyph-name="apple" unicode="&#xf8ff;" horiz-adv-x="1007" 
d="M745 1409h-651q-30 0 -48 20t-18 43.5t17.5 43.5t48.5 20h715zM270 0h-143l786 1526q50 -15 69.5 -62t-5.5 -100z" />
    <glyph glyph-name="a.alt" horiz-adv-x="1198" 
d="M1018 1004v-1004h-391q-239 0 -383 133t-144 367q0 233 146.5 368.5t380.5 135.5h391zM891 885h-268q-181 0 -287.5 -103t-106.5 -282t106 -281t288 -102h268v768z" />
    <glyph glyph-name="a.alt2" horiz-adv-x="1105" 
d="M180 885v119h746v-1004h-482q-153 0 -245.5 81.5t-92.5 225.5q0 149 93.5 232.5t249.5 83.5h350v262h-619zM799 506h-350q-95 0 -154 -53t-59 -146q0 -90 59 -141t154 -51h350v391z" />
    <glyph glyph-name="b.alt" horiz-adv-x="1200" 
d="M178 0v1536h127v-532h273q234 0 378 -135t144 -369q0 -154 -70.5 -269t-188 -173t-263.5 -58h-400zM305 885v-768h277q172 0 279.5 102.5t107.5 280.5q0 182 -107 283.5t-280 101.5h-277z" />
    <glyph glyph-name="d.alt" horiz-adv-x="1200" 
d="M893 1536h127v-1536h-397q-235 0 -379 134.5t-144 367.5q0 155 70.5 270.5t188 173.5t264.5 58h270v532zM893 885h-277q-172 0 -279.5 -102t-107.5 -281q0 -180 107.5 -282.5t279.5 -102.5h277v768z" />
    <glyph glyph-name="e.alt" horiz-adv-x="1085" 
d="M963 0h-803v641q0 173 123.5 276t312.5 103q110 0 197.5 -32.5t141.5 -103.5t54 -171q0 -146 -104.5 -228t-261.5 -82h-336v-284h676v-119zM287 651v-131h338q105 0 172 49t67 140q0 98 -77.5 146t-194.5 48q-129 0 -217 -67.5t-88 -184.5z" />
    <glyph glyph-name="e.alt2" horiz-adv-x="1105" 
d="M991 0h-813v1004h819v-246q0 -148 -102 -239t-272 -91h-318v-311h686v-117zM305 885v-344h332q100 0 164.5 60t64.5 157v127h-561z" />
    <glyph glyph-name="h.alt2" horiz-adv-x="1214" 
d="M305 1536v-532h729v-1004h-127v885h-602v-885h-127v1536h127z" />
    <glyph glyph-name="m.alt2" horiz-adv-x="1828" 
d="M178 0v1004h1471v-1004h-127v885h-545v-885h-125v885h-547v-885h-127z" />
    <glyph glyph-name="n.alt2" horiz-adv-x="1214" 
d="M178 0v1004h856v-1004h-127v885h-602v-885h-127z" />
    <glyph glyph-name="p.alt" horiz-adv-x="1200" 
d="M578 0h-273v-512h-127v1516h400q234 0 378 -135t144 -369q0 -154 -70.5 -269t-188 -173t-263.5 -58zM305 885v-768h277q172 0 279.5 102.5t107.5 280.5q0 182 -107 283.5t-280 101.5h-277z" />
    <glyph glyph-name="q.alt" horiz-adv-x="1200" 
d="M1020 -512h-127v512h-270q-235 0 -379 134.5t-144 367.5q0 155 70.5 270.5t188 173.5t264.5 58h397v-1516zM616 117h277v768h-277q-172 0 -279.5 -102t-107.5 -281q0 -180 107.5 -282.5t279.5 -102.5z" />
    <glyph glyph-name="r.alt" horiz-adv-x="759" 
d="M758 938l-453 -397v-541h-127v1004h127v-293l363 315z" />
    <glyph glyph-name="r.alt2" horiz-adv-x="745" 
d="M178 0v1004h527v-119h-400v-885h-127z" />
    <glyph glyph-name="aacute.alt" horiz-adv-x="1198" 
d="M770 1454h162l-252 -287h-117zM1018 1004v-1004h-391q-239 0 -383 133t-144 367q0 233 146.5 368.5t380.5 135.5h391zM891 885h-268q-181 0 -287.5 -103t-106.5 -282t106 -281t288 -102h268v768z" />
    <glyph glyph-name="acircumflex.alt" horiz-adv-x="1198" 
d="M862 1167l-190 201l-191 -201h-131l248 287h145l250 -287h-131zM1018 1004v-1004h-391q-239 0 -383 133t-144 367q0 233 146.5 368.5t380.5 135.5h391zM891 885h-268q-181 0 -287.5 -103t-106.5 -282t106 -281t288 -102h268v768z" />
    <glyph glyph-name="adieresis.alt" horiz-adv-x="1198" 
d="M469 1221q-37 0 -61.5 23.5t-24.5 60.5q0 38 24.5 62t61.5 24q38 0 62 -24t24 -62q0 -37 -24 -60.5t-62 -23.5zM864 1221q-38 0 -62 23.5t-24 60.5q0 38 24 62t62 24q37 0 60.5 -24t23.5 -62q0 -37 -23.5 -60.5t-60.5 -23.5zM1018 1004v-1004h-391q-239 0 -383 133
t-144 367q0 233 146.5 368.5t380.5 135.5h391zM891 885h-268q-181 0 -287.5 -103t-106.5 -282t106 -281t288 -102h268v768z" />
    <glyph glyph-name="agrave.alt" horiz-adv-x="1198" 
d="M426 1454h162l207 -287h-117zM1018 1004v-1004h-391q-239 0 -383 133t-144 367q0 233 146.5 368.5t380.5 135.5h391zM891 885h-268q-181 0 -287.5 -103t-106.5 -282t106 -281t288 -102h268v768z" />
    <glyph glyph-name="aring.alt" horiz-adv-x="1198" 
d="M688 1511q80 0 133 -49.5t53 -126.5q0 -79 -53 -129.5t-133 -50.5t-133 50t-53 128t53 128t133 50zM580 1333q0 -46 30.5 -76t77.5 -30t78 30.5t31 77.5q0 45 -31.5 75t-77.5 30q-49 0 -78.5 -29.5t-29.5 -77.5zM1018 1004v-1004h-391q-239 0 -383 133t-144 367
q0 233 146.5 368.5t380.5 135.5h391zM891 885h-268q-181 0 -287.5 -103t-106.5 -282t106 -281t288 -102h268v768z" />
    <glyph glyph-name="atilde.alt" horiz-adv-x="1198" 
d="M784 1227q-48 0 -132 45t-117 45q-42 0 -66.5 -25.5t-24.5 -70.5h-90q-3 94 42 150t124 56q48 0 137 -47t119 -47q42 0 66 26t24 71h86q6 -92 -40 -147.5t-128 -55.5zM1018 1004v-1004h-391q-239 0 -383 133t-144 367q0 233 146.5 368.5t380.5 135.5h391zM891 885h-268
q-181 0 -287.5 -103t-106.5 -282t106 -281t288 -102h268v768z" />
    <glyph glyph-name="abreve.alt" horiz-adv-x="1198" 
d="M676 1272q78 0 130 50t52 122h109q0 -115 -82 -194t-209 -79t-207 79t-80 194h107q0 -72 52.5 -122t127.5 -50zM1018 1004v-1004h-391q-239 0 -383 133t-144 367q0 233 146.5 368.5t380.5 135.5h391zM891 885h-268q-181 0 -287.5 -103t-106.5 -282t106 -281t288 -102h268
v768z" />
    <glyph glyph-name="amacron.alt" horiz-adv-x="1198" 
d="M387 1366h582v-106h-582v106zM1018 1004v-1004h-391q-239 0 -383 133t-144 367q0 233 146.5 368.5t380.5 135.5h391zM891 885h-268q-181 0 -287.5 -103t-106.5 -282t106 -281t288 -102h268v768z" />
    <glyph glyph-name="aogonek.alt" horiz-adv-x="1202" 
d="M1018 -465q-59 -27 -111 -27q-79 0 -136.5 43.5t-72.5 118.5q-29 183 179 330h-250q-239 0 -383 133t-144 367q0 233 146.5 368.5t380.5 135.5h391v-1004q-50 -29 -87 -58t-68.5 -66t-44 -81.5t-3.5 -93.5q7 -49 40 -76.5t81 -27.5q46 0 82 20v-82zM891 885h-268
q-181 0 -287.5 -103t-106.5 -282t106 -281t288 -102h268v768z" />
    <glyph glyph-name="aacute.alt2" horiz-adv-x="1105" 
d="M664 1454h161l-252 -287h-116zM180 885v119h746v-1004h-482q-153 0 -245.5 81.5t-92.5 225.5q0 149 93.5 232.5t249.5 83.5h350v262h-619zM799 506h-350q-95 0 -154 -53t-59 -146q0 -90 59 -141t154 -51h350v391z" />
    <glyph glyph-name="acircumflex.alt2" horiz-adv-x="1105" 
d="M750 1167l-191 201l-190 -201h-131l247 287h146l250 -287h-131zM180 885v119h746v-1004h-482q-153 0 -245.5 81.5t-92.5 225.5q0 149 93.5 232.5t249.5 83.5h350v262h-619zM799 506h-350q-95 0 -154 -53t-59 -146q0 -90 59 -141t154 -51h350v391z" />
    <glyph glyph-name="adieresis.alt2" horiz-adv-x="1105" 
d="M373 1221q-37 0 -61.5 23.5t-24.5 60.5q0 38 24.5 62t61.5 24q38 0 62 -24t24 -62q0 -37 -24 -60.5t-62 -23.5zM768 1221q-38 0 -62 23.5t-24 60.5q0 38 24 62t62 24q37 0 60.5 -24t23.5 -62q0 -37 -23.5 -60.5t-60.5 -23.5zM180 885v119h746v-1004h-482
q-153 0 -245.5 81.5t-92.5 225.5q0 149 93.5 232.5t249.5 83.5h350v262h-619zM799 506h-350q-95 0 -154 -53t-59 -146q0 -90 59 -141t154 -51h350v391z" />
    <glyph glyph-name="agrave.alt2" horiz-adv-x="1105" 
d="M338 1454h162l207 -287h-117zM180 885v119h746v-1004h-482q-153 0 -245.5 81.5t-92.5 225.5q0 149 93.5 232.5t249.5 83.5h350v262h-619zM799 506h-350q-95 0 -154 -53t-59 -146q0 -90 59 -141t154 -51h350v391z" />
    <glyph glyph-name="aring.alt2" horiz-adv-x="1105" 
d="M569 1511q80 0 133.5 -49.5t53.5 -126.5q0 -79 -53.5 -129.5t-133.5 -50.5t-133 50t-53 128t53 128t133 50zM461 1333q0 -46 30.5 -76t77.5 -30t78 30.5t31 77.5q0 45 -31.5 75t-77.5 30q-49 0 -78.5 -29.5t-29.5 -77.5zM180 885v119h746v-1004h-482q-153 0 -245.5 81.5
t-92.5 225.5q0 149 93.5 232.5t249.5 83.5h350v262h-619zM799 506h-350q-95 0 -154 -53t-59 -146q0 -90 59 -141t154 -51h350v391z" />
    <glyph glyph-name="atilde.alt2" horiz-adv-x="1105" 
d="M700 1227q-48 0 -132 45t-117 45q-42 0 -66.5 -25.5t-24.5 -70.5h-90q-3 94 42 150t124 56q48 0 137 -47t119 -47q42 0 66 26t24 71h86q6 -92 -40 -147.5t-128 -55.5zM180 885v119h746v-1004h-482q-153 0 -245.5 81.5t-92.5 225.5q0 149 93.5 232.5t249.5 83.5h350v262
h-619zM799 506h-350q-95 0 -154 -53t-59 -146q0 -90 59 -141t154 -51h350v391z" />
    <glyph glyph-name="abreve.alt2" horiz-adv-x="1105" 
d="M571 1272q78 0 130.5 50t52.5 122h108q0 -115 -82 -194t-209 -79q-126 0 -206 79t-80 194h106q0 -72 52.5 -122t127.5 -50zM180 885v119h746v-1004h-482q-153 0 -245.5 81.5t-92.5 225.5q0 149 93.5 232.5t249.5 83.5h350v262h-619zM799 506h-350q-95 0 -154 -53
t-59 -146q0 -90 59 -141t154 -51h350v391z" />
    <glyph glyph-name="amacron.alt2" horiz-adv-x="1105" 
d="M268 1366h582v-106h-582v106zM180 885v119h746v-1004h-482q-153 0 -245.5 81.5t-92.5 225.5q0 149 93.5 232.5t249.5 83.5h350v262h-619zM799 506h-350q-95 0 -154 -53t-59 -146q0 -90 59 -141t154 -51h350v391z" />
    <glyph glyph-name="aogonek.alt2" horiz-adv-x="1105" 
d="M813 -492q-80 0 -137 43.5t-70 118.5q-32 184 178 330h-340q-153 0 -245.5 81.5t-92.5 225.5q0 149 93.5 232.5t249.5 83.5h350v262h-619v119h746v-1004q-107 -62 -164.5 -133.5t-40.5 -165.5q7 -49 41 -76.5t82 -27.5q43 0 82 20v-82q-62 -27 -113 -27zM449 115h350v391
h-350q-95 0 -154 -53t-59 -146q0 -90 59 -141t154 -51z" />
    <glyph glyph-name="dcaron.alt" horiz-adv-x="1304" 
d="M893 1536h127v-1536h-397q-235 0 -379 134.5t-144 367.5q0 155 70.5 270.5t188 173.5t264.5 58h270v532zM1239 1167h-88l68 369h133zM893 885h-277q-172 0 -279.5 -102t-107.5 -281q0 -180 107.5 -282.5t279.5 -102.5h277v768z" />
    <glyph glyph-name="dcroat.alt" horiz-adv-x="1200" 
d="M1184 1225h-164v-1225h-397q-235 0 -379 134.5t-144 367.5q0 155 70.5 270.5t188 173.5t264.5 58h272v221h-293v106h293v205h125v-205h164v-106zM895 885h-279q-172 0 -279.5 -102t-107.5 -281q0 -180 107.5 -282.5t279.5 -102.5h279v768z" />
    <glyph glyph-name="eacute.alt" horiz-adv-x="1085" 
d="M676 1454h162l-252 -287h-117zM963 0h-803v641q0 173 123.5 276t312.5 103q110 0 197.5 -32.5t141.5 -103.5t54 -171q0 -146 -104.5 -228t-261.5 -82h-336v-284h676v-119zM287 651v-131h338q105 0 172 49t67 140q0 98 -77.5 146t-194.5 48q-129 0 -217 -67.5t-88 -184.5z
" />
    <glyph glyph-name="ecircumflex.alt" horiz-adv-x="1085" 
d="M784 1167l-190 201l-191 -201h-131l248 287h146l249 -287h-131zM963 0h-803v641q0 173 123.5 276t312.5 103q110 0 197.5 -32.5t141.5 -103.5t54 -171q0 -146 -104.5 -228t-261.5 -82h-336v-284h676v-119zM287 651v-131h338q105 0 172 49t67 140q0 98 -77.5 146
t-194.5 48q-129 0 -217 -67.5t-88 -184.5z" />
    <glyph glyph-name="edieresis.alt" horiz-adv-x="1085" 
d="M399 1221q-37 0 -61.5 23.5t-24.5 60.5q0 38 24.5 62t61.5 24q38 0 62 -24t24 -62q0 -37 -24 -60.5t-62 -23.5zM795 1221q-38 0 -62 23.5t-24 60.5q0 38 24 62t62 24q37 0 60.5 -24t23.5 -62q0 -37 -23.5 -60.5t-60.5 -23.5zM963 0h-803v641q0 173 123.5 276t312.5 103
q110 0 197.5 -32.5t141.5 -103.5t54 -171q0 -146 -104.5 -228t-261.5 -82h-336v-284h676v-119zM287 651v-131h338q105 0 172 49t67 140q0 98 -77.5 146t-194.5 48q-129 0 -217 -67.5t-88 -184.5z" />
    <glyph glyph-name="egrave.alt" horiz-adv-x="1085" 
d="M338 1454h162l207 -287h-117zM963 0h-803v641q0 173 123.5 276t312.5 103q110 0 197.5 -32.5t141.5 -103.5t54 -171q0 -146 -104.5 -228t-261.5 -82h-336v-284h676v-119zM287 651v-131h338q105 0 172 49t67 140q0 98 -77.5 146t-194.5 48q-129 0 -217 -67.5t-88 -184.5z
" />
    <glyph glyph-name="ebreve.alt" horiz-adv-x="1085" 
d="M588 1272q78 0 130 50t52 122h109q0 -115 -82 -194t-209 -79t-207 79t-80 194h107q0 -72 52.5 -122t127.5 -50zM963 0h-803v641q0 173 123.5 276t312.5 103q110 0 197.5 -32.5t141.5 -103.5t54 -171q0 -146 -104.5 -228t-261.5 -82h-336v-284h676v-119zM287 651v-131h338
q105 0 172 49t67 140q0 98 -77.5 146t-194.5 48q-129 0 -217 -67.5t-88 -184.5z" />
    <glyph glyph-name="ecaron.alt" horiz-adv-x="1085" 
d="M915 1454l-249 -287h-146l-248 287h131l191 -203l190 203h131zM963 0h-803v641q0 173 123.5 276t312.5 103q110 0 197.5 -32.5t141.5 -103.5t54 -171q0 -146 -104.5 -228t-261.5 -82h-336v-284h676v-119zM287 651v-131h338q105 0 172 49t67 140q0 98 -77.5 146t-194.5 48
q-129 0 -217 -67.5t-88 -184.5z" />
    <glyph glyph-name="edotaccent.alt" horiz-adv-x="1085" 
d="M578 1219q-36 0 -61 26t-25 62q0 37 25 63.5t61 26.5q30 0 59 -19l98 -69l-98 -70q-30 -20 -59 -20zM963 0h-803v641q0 173 123.5 276t312.5 103q110 0 197.5 -32.5t141.5 -103.5t54 -171q0 -146 -104.5 -228t-261.5 -82h-336v-284h676v-119zM287 651v-131h338
q105 0 172 49t67 140q0 98 -77.5 146t-194.5 48q-129 0 -217 -67.5t-88 -184.5z" />
    <glyph glyph-name="emacron.alt" horiz-adv-x="1085" 
d="M299 1366h582v-106h-582v106zM963 0h-803v641q0 173 123.5 276t312.5 103q110 0 197.5 -32.5t141.5 -103.5t54 -171q0 -146 -104.5 -228t-261.5 -82h-336v-284h676v-119zM287 651v-131h338q105 0 172 49t67 140q0 98 -77.5 146t-194.5 48q-129 0 -217 -67.5t-88 -184.5z
" />
    <glyph glyph-name="eogonek.alt" horiz-adv-x="1085" 
d="M850 -492q-79 0 -135.5 43.5t-71.5 118.5q-29 186 178 330h-661v641q0 173 123.5 276t312.5 103q110 0 197.5 -32.5t141.5 -103.5t54 -171q0 -146 -104.5 -228t-261.5 -82h-336v-284h676v-119q-107 -62 -164.5 -133.5t-40.5 -165.5q7 -49 41 -76.5t82 -27.5q46 0 82 20
v-82q-59 -27 -113 -27zM287 651v-131h338q105 0 172 49t67 140q0 98 -77.5 146t-194.5 48q-129 0 -217 -67.5t-88 -184.5z" />
    <glyph glyph-name="eacute.alt2" horiz-adv-x="1105" 
d="M674 1454h162l-252 -287h-117zM991 0h-813v1004h819v-246q0 -148 -102 -239t-272 -91h-318v-311h686v-117zM305 885v-344h332q100 0 164.5 60t64.5 157v127h-561z" />
    <glyph glyph-name="ecircumflex.alt2" horiz-adv-x="1105" 
d="M782 1167l-190 201l-191 -201h-131l248 287h146l249 -287h-131zM991 0h-813v1004h819v-246q0 -148 -102 -239t-272 -91h-318v-311h686v-117zM305 885v-344h332q100 0 164.5 60t64.5 157v127h-561z" />
    <glyph glyph-name="edieresis.alt2" horiz-adv-x="1105" 
d="M397 1221q-37 0 -61.5 23.5t-24.5 60.5q0 38 24.5 62t61.5 24q38 0 62 -24t24 -62q0 -37 -24 -60.5t-62 -23.5zM793 1221q-38 0 -62 23.5t-24 60.5q0 38 24 62t62 24q37 0 60.5 -24t23.5 -62q0 -37 -23.5 -60.5t-60.5 -23.5zM991 0h-813v1004h819v-246q0 -148 -102 -239
t-272 -91h-318v-311h686v-117zM305 885v-344h332q100 0 164.5 60t64.5 157v127h-561z" />
    <glyph glyph-name="egrave.alt2" horiz-adv-x="1105" 
d="M342 1454h162l207 -287h-117zM991 0h-813v1004h819v-246q0 -148 -102 -239t-272 -91h-318v-311h686v-117zM305 885v-344h332q100 0 164.5 60t64.5 157v127h-561z" />
    <glyph glyph-name="ebreve.alt2" horiz-adv-x="1105" 
d="M582 1272q78 0 130 50t52 122h108q0 -115 -81.5 -194t-208.5 -79t-207 79t-80 194h106q0 -72 53 -122t128 -50zM991 0h-813v1004h819v-246q0 -148 -102 -239t-272 -91h-318v-311h686v-117zM305 885v-344h332q100 0 164.5 60t64.5 157v127h-561z" />
    <glyph glyph-name="ecaron.alt2" horiz-adv-x="1105" 
d="M913 1454l-249 -287h-146l-248 287h131l191 -203l190 203h131zM991 0h-813v1004h819v-246q0 -148 -102 -239t-272 -91h-318v-311h686v-117zM305 885v-344h332q100 0 164.5 60t64.5 157v127h-561z" />
    <glyph glyph-name="edotaccent.alt2" horiz-adv-x="1105" 
d="M578 1219q-36 0 -61 26t-25 62q0 37 25 63.5t61 26.5q30 0 59 -19l98 -69l-98 -70q-30 -20 -59 -20zM991 0h-813v1004h819v-246q0 -148 -102 -239t-272 -91h-318v-311h686v-117zM305 885v-344h332q100 0 164.5 60t64.5 157v127h-561z" />
    <glyph glyph-name="emacron.alt2" horiz-adv-x="1105" 
d="M291 1366h581v-106h-581v106zM991 0h-813v1004h819v-246q0 -148 -102 -239t-272 -91h-318v-311h686v-117zM305 885v-344h332q100 0 164.5 60t64.5 157v127h-561z" />
    <glyph glyph-name="eogonek.alt2" horiz-adv-x="1105" 
d="M881 -492q-80 0 -137 43.5t-70 118.5q-32 184 178 330h-674v1004h819v-246q0 -148 -102 -239t-272 -91h-318v-311h686v-117q-107 -62 -164 -133.5t-39 -165.5q7 -49 40 -76.5t83 -27.5q44 0 80 20v-82q-59 -27 -110 -27zM305 885v-344h332q100 0 164.5 60t64.5 157v127
h-561z" />
    <glyph glyph-name="hbar.alt2" horiz-adv-x="1214" 
d="M582 1214h-277v-210h729v-1004h-127v885h-602v-885h-127v1214h-178v105h178v217h127v-217h277v-105z" />
    <glyph glyph-name="hcircumflex.alt2" horiz-adv-x="1214" 
d="M705 1642l-191 201l-190 -201h-131l247 287h146l250 -287h-131zM305 1536v-532h729v-1004h-127v885h-602v-885h-127v1536h127z" />
    <glyph glyph-name="i.dot" horiz-adv-x="485" 
d="M233 1217q-36 0 -61 26t-25 62q0 37 25 63.5t61 26.5q31 0 60 -19l98 -69l-98 -70q-30 -20 -60 -20zM178 0v1004h129v-1004h-129z" />
    <glyph glyph-name="ntilde.alt2" horiz-adv-x="1214" 
d="M760 1227q-38 0 -86 22.5t-91.5 45t-72.5 22.5q-42 0 -66 -25.5t-24 -70.5h-90q-3 94 42 150t124 56q48 0 137 -47t119 -47q42 0 66 26t24 71h86q6 -92 -40 -147.5t-128 -55.5zM178 0v1004h856v-1004h-127v885h-602v-885h-127z" />
    <glyph glyph-name="nacute.alt2" horiz-adv-x="1214" 
d="M696 1454h162l-252 -287h-117zM178 0v1004h856v-1004h-127v885h-602v-885h-127z" />
    <glyph glyph-name="ncaron.alt2" horiz-adv-x="1214" 
d="M938 1454l-250 -287h-145l-248 287h131l190 -203l191 203h131zM178 0v1004h856v-1004h-127v885h-602v-885h-127z" />
    <glyph glyph-name="ncommaaccent.alt2" horiz-adv-x="1214" 
d="M178 0v1004h856v-1004h-127v885h-602v-885h-127zM580 -133h133l-156 -273h-92z" />
    <glyph glyph-name="racute.alt" horiz-adv-x="759" 
d="M526 1454h162l-252 -287h-117zM758 938l-453 -397v-541h-127v1004h127v-293l363 315z" />
    <glyph glyph-name="rcaron.alt" horiz-adv-x="759" 
d="M766 1454l-250 -287h-145l-248 287h131l190 -203l191 203h131zM758 938l-453 -397v-541h-127v1004h127v-293l363 315z" />
    <glyph glyph-name="rcommaaccent.alt" horiz-adv-x="759" 
d="M758 938l-453 -397v-541h-127v1004h127v-293l363 315zM172 -133h133l-155 -273h-93z" />
    <glyph glyph-name="racute.alt2" horiz-adv-x="745" 
d="M522 1454h162l-252 -287h-117zM178 0v1004h527v-119h-400v-885h-127z" />
    <glyph glyph-name="rcaron.alt2" horiz-adv-x="745" 
d="M774 1454l-250 -287h-145l-248 287h131l191 -203l190 203h131zM178 0v1004h527v-119h-400v-885h-127z" />
    <glyph glyph-name="rcommaaccent.alt2" horiz-adv-x="745" 
d="M178 0v1004h527v-119h-400v-885h-127zM172 -133h133l-155 -273h-93z" />
    <glyph glyph-name="caron.alt" horiz-adv-x="919" 
d="M414 1167h-88l67 369h133z" />
    <glyph glyph-name="revcommaaccent" horiz-adv-x="919" 
d="M494 1409h94l-117 -272h-131z" />
    <glyph glyph-name="ampersand.alt" horiz-adv-x="1441" 
d="M1063 195q-179 -211 -467 -211q-210 0 -346.5 129t-136.5 338q0 200 127.5 331.5t328.5 155.5l-399 598h891v-117h-670l680 -1011q114 214 158 596h121q-50 -460 -205 -709l196 -295h-145zM999 295l-356 534q-173 -2 -284 -106.5t-111 -267.5q0 -159 102 -256t260 -97
q237 0 389 193z" />
    <glyph glyph-name="Ugrave.001" horiz-adv-x="1542" 
d="M512 1948h162l207 -287h-117zM156 637v899h131v-901q0 -238 132 -383.5t353 -145.5q218 0 350.5 146t132.5 383v901h131v-899q0 -193 -76 -341t-216.5 -230t-323.5 -82q-185 0 -324.5 82t-214.5 230t-75 341z" />
    <glyph glyph-name="uni1EB6.right" horiz-adv-x="1482" 
d="M1305 0l-172 387h-791l-172 -387h-147l704 1532q-122 3 -199 81t-77 191h106q0 -72 52.5 -122t127.5 -50q78 0 130.5 50t52.5 122h108q0 -109 -75 -187t-193 -85l698 -1532h-153zM395 502h686l-342 770zM754 -350q-30 0 -60 20l-98 70l98 70q27 18 60 18q36 0 61 -26.5
t25 -63.5q0 -36 -25 -62t-61 -26z" />
    <glyph glyph-name="uni1EAC.right" horiz-adv-x="1482" 
d="M940 1614l-190 201l-191 -201h-131l248 287h145l250 -287h-131zM1305 0l-172 387h-791l-172 -387h-147l720 1567l715 -1567h-153zM395 502h686l-342 770zM754 -350q-30 0 -60 20l-98 70l98 70q27 18 60 18q36 0 61 -26.5t25 -63.5q0 -36 -25 -62t-61 -26z" />
    <glyph glyph-name="uni1EA0.right" horiz-adv-x="1482" 
d="M1305 0l-172 387h-791l-172 -387h-147l720 1567l715 -1567h-153zM395 502h686l-342 770zM754 -350q-30 0 -60 20l-98 70l98 70q27 18 60 18q36 0 61 -26.5t25 -63.5q0 -36 -25 -62t-61 -26z" />
    <glyph glyph-name="Cdotaccent.right" horiz-adv-x="1433" 
d="M872 1710q-28 0 -59 21l-98 69l98 70q27 18 59 18q36 0 61 -26.5t25 -63.5q0 -36 -25 -62t-61 -26zM850 -16q-222 0 -396 100t-270 279t-96 405q0 170 57.5 316t158 248.5t244 161t310.5 58.5q305 0 498 -168v-159q-96 103 -226.5 154t-281.5 51q-137 0 -254.5 -50.5
t-198.5 -138.5t-126.5 -210t-45.5 -263q0 -190 80 -340.5t225 -236t330 -85.5q327 0 520 187v-150q-204 -159 -528 -159z" />
    <glyph glyph-name="uni1EC6.right" horiz-adv-x="1138" 
d="M821 1649l-190 200l-191 -200h-131l248 286h145l250 -286h-131zM178 0v1536h889v-121h-756v-575h670v-121h-670v-598h779v-121h-912zM621 -330q-29 0 -60 21l-98 69l98 70q27 18 60 18q36 0 61 -26.5t25 -63.5q0 -36 -25 -62t-61 -26z" />
    <glyph glyph-name="Edotaccent.right" horiz-adv-x="1138" 
d="M627 1710q-29 0 -60 21l-98 69l98 70q27 18 60 18q36 0 61 -26.5t25 -63.5q0 -36 -25 -62t-61 -26zM178 0v1536h889v-121h-756v-575h670v-121h-670v-598h779v-121h-912z" />
    <glyph glyph-name="uni1EB8.right" horiz-adv-x="1138" 
d="M178 0v1536h889v-121h-756v-575h670v-121h-670v-598h779v-121h-912zM647 -350q-29 0 -59 20l-99 70l99 70q27 18 59 18q36 0 61 -26.5t25 -63.5q0 -36 -25 -62t-61 -26z" />
    <glyph glyph-name="Gdotaccent.right" horiz-adv-x="1576" 
d="M860 1710q-28 0 -59 21l-99 69l99 70q27 18 59 18q36 0 61 -26.5t25 -63.5q0 -36 -25 -62t-61 -26zM1468 184q-261 -200 -608 -200q-225 0 -401.5 100.5t-273.5 279.5t-97 406q0 170 58.5 315.5t161 248t248 160.5t314.5 58q321 0 527 -178v-157q-196 215 -529 215
q-188 0 -335.5 -85.5t-228.5 -236t-81 -340.5q0 -191 81 -342t229 -236.5t337 -85.5q273 0 467 148v442h-518v117h649v-629z" />
    <glyph glyph-name="Idotaccent.right" horiz-adv-x="489" 
d="M246 1710q-28 0 -60 21l-98 69l98 70q27 18 60 18q36 0 61 -26.5t25 -63.5q0 -36 -25 -62t-61 -26zM178 0v1536h133v-1536h-133z" />
    <glyph glyph-name="uni1ECA.right" horiz-adv-x="489" 
d="M178 0v1536h133v-1536h-133zM240 -350q-30 0 -60 20l-98 70l98 70q27 18 60 18q36 0 61 -26.5t25 -63.5q0 -36 -25 -62t-61 -26z" />
    <glyph glyph-name="uni1ED8.right" horiz-adv-x="1736" 
d="M1092 1632l-191 201l-190 -201h-131l247 287h146l250 -287h-131zM1649 770q0 -170 -58 -316t-160 -249.5t-247.5 -162t-315.5 -58.5t-315 58.5t-247.5 162t-160 249.5t-57.5 316t58 315.5t160.5 248t247.5 160.5t314 58q225 0 403 -99.5t278 -278t100 -404.5zM868 106
q188 0 335.5 86t228.5 237t81 341q0 288 -181 474t-464 186q-141 0 -261.5 -49.5t-204.5 -136.5t-131.5 -209.5t-47.5 -264.5q0 -190 80.5 -341t228.5 -237t336 -86zM862 -350q-29 0 -59 20l-98 70l98 70q27 18 59 18q36 0 61 -26.5t25 -63.5q0 -36 -25 -62t-61 -26z" />
    <glyph glyph-name="uni1ECC.right" horiz-adv-x="1736" 
d="M1649 770q0 -170 -58 -316t-160 -249.5t-247.5 -162t-315.5 -58.5t-315 58.5t-247.5 162t-160 249.5t-57.5 316t58 315.5t160.5 248t247.5 160.5t314 58q225 0 403 -99.5t278 -278t100 -404.5zM868 106q188 0 335.5 86t228.5 237t81 341q0 288 -181 474t-464 186
q-141 0 -261.5 -49.5t-204.5 -136.5t-131.5 -209.5t-47.5 -264.5q0 -190 80.5 -341t228.5 -237t336 -86zM852 -356q-29 0 -59 20l-99 70l99 69q29 19 59 19q36 0 61 -26.5t25 -63.5q0 -36 -25 -62t-61 -26z" />
    <glyph glyph-name="uni1EE2.right" horiz-adv-x="1736" 
d="M868 -16q-170 0 -315 58.5t-247.5 162t-160 249.5t-57.5 316t58 315.5t160.5 248t247.5 160.5t314 58t314 -57q70 -18 141 -18q87 0 135.5 45t48.5 135v82h127v-80q0 -267 -252 -283q127 -108 197 -263.5t70 -342.5q0 -170 -58 -316t-160 -249.5t-247.5 -162
t-315.5 -58.5zM868 106q188 0 335.5 86t228.5 237t81 341q0 288 -181 474t-464 186q-141 0 -261.5 -49.5t-204.5 -136.5t-131.5 -209.5t-47.5 -264.5q0 -190 80.5 -341t228.5 -237t336 -86zM862 -350q-29 0 -59 20l-98 70l98 70q27 18 59 18q36 0 61 -26.5t25 -63.5
q0 -36 -25 -62t-61 -26z" />
    <glyph glyph-name="uni1EE4.right" horiz-adv-x="1542" 
d="M156 637v899h131v-901q0 -238 132 -383.5t353 -145.5q218 0 350.5 146t132.5 383v901h131v-899q0 -193 -76 -341t-216.5 -230t-323.5 -82q-185 0 -324.5 82t-214.5 230t-75 341zM776 -371q-28 0 -59 21l-99 69l99 70q27 18 59 18q36 0 61 -26.5t25 -63.5q0 -36 -25 -62
t-61 -26z" />
    <glyph glyph-name="uni1EF0.right" horiz-adv-x="1542" 
d="M156 637v899h131v-901q0 -238 132 -383.5t353 -145.5q218 0 350.5 146t132.5 383v901h127q87 0 127.5 37t40.5 127v59h127v-55q0 -285 -284 -285h-7v-782q0 -193 -76 -341t-216.5 -230t-323.5 -82q-185 0 -324.5 82t-214.5 230t-75 341zM756 -393q-30 0 -60 20l-98 70
l98 70q27 18 60 18q36 0 61 -26.5t25 -63.5q0 -36 -25 -62t-61 -26z" />
    <glyph glyph-name="uni1EF4.right" horiz-adv-x="1316" 
d="M1298 1536l-571 -940v-596h-131v582l-578 954h154l487 -813l492 813h147zM659 -371q-27 0 -59 21l-98 69l98 70q27 18 59 18q36 0 61 -26.5t25 -63.5q0 -36 -25 -62t-61 -26z" />
    <glyph glyph-name="Zdotaccent.right" horiz-adv-x="1257" 
d="M625 1710q-29 0 -60 21l-98 69l98 70q27 18 60 18q36 0 61 -26.5t25 -63.5q0 -36 -25 -62t-61 -26zM1208 117v-117h-1171l946 1419h-901v117h1126l-940 -1419h940z" />
    <glyph glyph-name="edotaccent.right" horiz-adv-x="1173" 
d="M596 1219q-29 0 -59 20l-99 70l99 69q29 19 59 19q36 0 61 -26.5t25 -63.5q0 -36 -25 -62t-61 -26zM637 -16q-237 0 -386 142.5t-149 369.5q0 228 135 376t359 148q215 0 345 -142t130 -364q0 -21 -4 -61h-831q15 -157 124 -255t277 -98q208 0 367 123v-125
q-155 -114 -367 -114zM238 557h700q-9 152 -100.5 249t-241.5 97q-154 0 -248 -96.5t-110 -249.5z" />
    <glyph glyph-name="uni1EB7.right" 
d="M674 1272q78 0 130 50t52 122h109q0 -115 -82 -194t-209 -79t-207 79t-80 194h107q0 -72 52.5 -122t127.5 -50zM1004 0v231q-55 -116 -159.5 -181.5t-240.5 -65.5q-219 0 -360.5 145.5t-141.5 368.5q0 228 141.5 375t360.5 147q136 0 240.5 -67t159.5 -183v234h126v-1004
h-126zM616 899q-168 0 -275.5 -112.5t-107.5 -286.5q0 -173 107.5 -285.5t275.5 -112.5t278 113t110 285q0 173 -109.5 286t-278.5 113zM657 -352q-29 0 -59 20l-98 70l98 69q28 19 59 19q36 0 61 -26.5t25 -63.5q0 -36 -25 -62t-61 -26z" />
    <glyph glyph-name="uni1EAD.right" 
d="M874 1157l-190 201l-190 -201h-132l248 287h146l250 -287h-132zM1004 0v231q-55 -116 -159.5 -181.5t-240.5 -65.5q-219 0 -360.5 145.5t-141.5 368.5q0 228 141.5 375t360.5 147q136 0 240.5 -67t159.5 -183v234h126v-1004h-126zM616 899q-168 0 -275.5 -112.5
t-107.5 -286.5q0 -173 107.5 -285.5t275.5 -112.5t278 113t110 285q0 173 -109.5 286t-278.5 113zM639 -350q-29 0 -59 20l-99 70l99 70q27 18 59 18q36 0 61 -26.5t25 -63.5q0 -36 -25 -62t-61 -26z" />
    <glyph glyph-name="uni1EA1.right" 
d="M1004 0v231q-55 -116 -159.5 -181.5t-240.5 -65.5q-219 0 -360.5 145.5t-141.5 368.5q0 228 141.5 375t360.5 147q136 0 240.5 -67t159.5 -183v234h126v-1004h-126zM616 899q-168 0 -275.5 -112.5t-107.5 -286.5q0 -173 107.5 -285.5t275.5 -112.5t278 113t110 285
q0 173 -109.5 286t-278.5 113zM676 -350q-30 0 -60 20l-98 70l98 70q27 18 60 18q36 0 61 -26.5t25 -63.5q0 -36 -25 -62t-61 -26z" />
    <glyph glyph-name="edotaccent.alt.right" horiz-adv-x="1085" 
d="M590 1219q-30 0 -60 20l-98 70l98 69q28 19 60 19q36 0 61 -26.5t25 -63.5q0 -36 -25 -62t-61 -26zM963 0h-803v641q0 173 123.5 276t312.5 103q110 0 197.5 -32.5t141.5 -103.5t54 -171q0 -146 -104.5 -228t-261.5 -82h-336v-284h676v-119zM287 651v-131h338
q105 0 172 49t67 140q0 98 -77.5 146t-194.5 48q-129 0 -217 -67.5t-88 -184.5z" />
    <glyph glyph-name="edotaccent.alt2.right" horiz-adv-x="1105" 
d="M590 1219q-30 0 -60 20l-98 70l98 69q28 19 60 19q36 0 61 -26.5t25 -63.5q0 -36 -25 -62t-61 -26zM991 0h-813v1004h819v-246q0 -148 -102 -239t-272 -91h-318v-311h686v-117zM305 885v-344h332q100 0 164.5 60t64.5 157v127h-561z" />
    <glyph glyph-name="cdotaccent.right" horiz-adv-x="1056" 
d="M612 1219q-29 0 -59 20l-98 70l98 69q29 19 59 19q36 0 61 -26.5t25 -63.5q0 -36 -25 -62t-61 -26zM233 502q0 -174 112 -287t288 -113q198 0 332 119v-131q-140 -106 -342 -106q-230 0 -375.5 145t-145.5 373q0 227 146.5 372.5t372.5 145.5q200 0 333 -115v-141
q-123 135 -325 135q-173 0 -284.5 -111.5t-111.5 -285.5z" />
    <glyph glyph-name="i.dot.right" horiz-adv-x="485" 
d="M252 1217q-29 0 -59 20l-99 70l99 69q29 19 59 19q36 0 61 -26.5t25 -63.5q0 -36 -25 -62t-61 -26zM178 0v1004h129v-1004h-129z" />
    <glyph glyph-name="uni1EC7.right" horiz-adv-x="1171" 
d="M813 1087l-190 201l-191 -201h-131l248 287h145l250 -287h-131zM637 -16q-237 0 -386 142.5t-149 369.5q0 228 135 376t359 148q215 0 345 -142t130 -364q0 -21 -4 -61h-831q15 -157 124 -255t277 -98q208 0 367 123v-125q-155 -114 -367 -114zM238 557h700
q-9 152 -100.5 249t-241.5 97q-154 0 -248 -96.5t-110 -249.5zM596 -332q-28 0 -59 21l-99 69l99 70q27 18 59 18q36 0 61 -26.5t25 -63.5q0 -36 -25 -62t-61 -26z" />
    <glyph glyph-name="uni1EB9.right" horiz-adv-x="1171" 
d="M637 -16q-237 0 -386 142.5t-149 369.5q0 228 135 376t359 148q215 0 345 -142t130 -364q0 -21 -4 -61h-831q15 -157 124 -255t277 -98q208 0 367 123v-125q-155 -114 -367 -114zM238 557h700q-9 152 -100.5 249t-241.5 97q-154 0 -248 -96.5t-110 -249.5zM594 -350
q-29 0 -59 20l-99 70l99 70q27 18 59 18q36 0 61 -26.5t25 -63.5q0 -36 -25 -62t-61 -26z" />
    <glyph glyph-name="gdotaccent.right" 
d="M690 1219q-29 0 -59 20l-99 70l99 69q29 19 59 19q36 0 61 -26.5t25 -63.5q0 -36 -25 -62t-61 -26zM1130 -16q0 -245 -137.5 -377.5t-388.5 -132.5q-243 0 -405 137v139q77 -76 185.5 -116t219.5 -40q193 0 296.5 98t103.5 283v256q-55 -114 -160 -180.5t-240 -66.5
q-219 0 -360.5 145.5t-141.5 368.5q0 226 141.5 374t360.5 148q135 0 240 -67t160 -183v234h126v-1020zM1004 500q0 173 -109.5 286t-278.5 113q-168 0 -275.5 -112.5t-107.5 -286.5q0 -173 107.5 -285.5t275.5 -112.5t278 113t110 285z" />
    <glyph glyph-name="i.right" horiz-adv-x="483" 
d="M252 1217q-29 0 -59 20l-99 70l99 69q29 19 59 19q36 0 61 -26.5t25 -63.5q0 -36 -25 -62t-61 -26zM178 0v1004h129v-1004h-129z" />
    <glyph glyph-name="i.loclTRK.right" horiz-adv-x="483" 
d="M250 1169q-28 0 -60 21l-98 70l98 69q29 19 60 19q36 0 61 -27t25 -64q0 -36 -25 -62t-61 -26zM178 0v1004h127v-1004h-127z" />
    <glyph glyph-name="uni1ECB.right" horiz-adv-x="483" 
d="M252 1217q-29 0 -59 20l-99 70l99 69q29 19 59 19q36 0 61 -26.5t25 -63.5q0 -36 -25 -62t-61 -26zM178 0v1004h129v-1004h-129zM240 -350q-30 0 -60 20l-98 70l98 70q27 18 60 18q36 0 61 -26.5t25 -63.5q0 -36 -25 -62t-61 -26z" />
    <glyph glyph-name="iogonek.right" horiz-adv-x="485" 
d="M252 1217q-29 0 -59 20l-99 70l99 69q29 19 59 19q36 0 61 -26.5t25 -63.5q0 -36 -25 -62t-61 -26zM195 -492q-79 0 -135.5 43.5t-71.5 118.5q-17 106 35 187t155 151v996h129v-1004l-41 -27q-88 -57 -133 -122t-31 -150q9 -49 42 -76.5t81 -27.5q43 0 82 20v-82
q-62 -27 -112 -27z" />
    <glyph glyph-name="j.right" horiz-adv-x="483" 
d="M252 1217q-29 0 -59 20l-99 70l99 69q29 19 59 19q36 0 61 -26.5t25 -63.5q0 -36 -25 -62t-61 -26zM-145 -479v119q76 -50 147 -50q83 0 129.5 51.5t46.5 143.5v1219h127v-1215q0 -150 -71.5 -233.5t-206.5 -83.5q-85 0 -172 49z" />
    <glyph glyph-name="uni1ED9.right" horiz-adv-x="1239" 
d="M825 1108l-190 201l-191 -201h-131l248 287h146l249 -287h-131zM623 -16q-227 0 -374 147t-147 373q0 223 147 369.5t374 146.5q225 0 369.5 -145.5t144.5 -370.5q0 -226 -144.5 -373t-369.5 -147zM1006 502q0 172 -108.5 284.5t-276.5 112.5q-170 0 -279 -112.5
t-109 -284.5q0 -174 109 -287t279 -113q168 0 276.5 113t108.5 287zM623 -350q-30 0 -60 20l-98 70l98 70q27 18 60 18q36 0 61 -26.5t25 -63.5q0 -36 -25 -62t-61 -26z" />
    <glyph glyph-name="uni1ECD.right" horiz-adv-x="1239" 
d="M623 -16q-227 0 -374 147t-147 373q0 223 147 369.5t374 146.5q225 0 369.5 -145.5t144.5 -370.5q0 -226 -144.5 -373t-369.5 -147zM1006 502q0 172 -108.5 284.5t-276.5 112.5q-170 0 -279 -112.5t-109 -284.5q0 -174 109 -287t279 -113q168 0 276.5 113t108.5 287z
M625 -350q-30 0 -60 20l-98 70l98 70q27 18 60 18q36 0 61 -26.5t25 -63.5q0 -36 -25 -62t-61 -26z" />
    <glyph glyph-name="uni1EE3.right" horiz-adv-x="1239" 
d="M623 -16q-227 0 -374 147t-147 373q0 223 147 369.5t374 146.5q79 0 149 -21q46 -6 88 -6q86 0 134 45.5t48 135.5v59h127v-55q0 -241 -204 -279q82 -70 127 -171.5t45 -223.5q0 -226 -144.5 -373t-369.5 -147zM1006 502q0 172 -108.5 284.5t-276.5 112.5
q-170 0 -279 -112.5t-109 -284.5q0 -174 109 -287t279 -113q168 0 276.5 113t108.5 287zM643 -350q-29 0 -59 20l-99 70l99 70q27 18 59 18q36 0 61 -26.5t25 -63.5q0 -36 -25 -62t-61 -26z" />
    <glyph glyph-name="uni1EE5.right" horiz-adv-x="1175" 
d="M899 426v578h127v-566q0 -212 -118.5 -333t-319.5 -121q-203 0 -322 121t-119 333v566h127v-578q0 -156 85.5 -240t228.5 -84t227 84t84 240zM584 -350q-30 0 -60 20l-98 70l98 70q27 18 60 18q36 0 61 -26.5t25 -63.5q0 -36 -25 -62t-61 -26z" />
    <glyph glyph-name="uni1EF1.right" horiz-adv-x="1175" 
d="M899 426v578h80q87 0 135.5 45t48.5 135v59h127v-55q0 -276 -264 -285v-465q0 -212 -118.5 -333t-319.5 -121q-203 0 -322 121t-119 333v566h127v-578q0 -156 85.5 -240t228.5 -84t227 84t84 240zM602 -350q-29 0 -59 20l-99 70l99 70q27 18 59 18q36 0 61 -26.5
t25 -63.5q0 -36 -25 -62t-61 -26z" />
    <glyph glyph-name="uni1EF5.right" horiz-adv-x="1040" 
d="M1016 1004l-733 -1516h-133l317 659l-444 857h149l365 -713l346 713h133zM748 -424q-28 0 -60 21l-98 69l98 70q27 18 60 18q36 0 61 -26.5t25 -63.5q0 -36 -25 -62t-61 -26z" />
    <glyph glyph-name="zdotaccent.right" horiz-adv-x="948" 
d="M485 1219q-29 0 -59 20l-98 70l98 69q28 19 59 19q36 0 61 -26.5t25 -63.5q0 -36 -25 -62t-61 -26zM895 117v-117h-852l631 885h-590v119h799l-621 -887h633z" />
    <glyph glyph-name="i.loclTRK" horiz-adv-x="483" 
d="M238 1169q-36 0 -61 26t-25 62q0 37 25 64t61 27q30 0 59 -19l98 -69l-98 -70q-31 -21 -59 -21zM178 0v1004h127v-1004h-127z" />
    <glyph glyph-name="fi.right" horiz-adv-x="1179" 
d="M305 0h-127v1200q0 156 93 254t251 98q112 0 189 -49v-125q-78 54 -179 54q-103 0 -165 -63.5t-62 -164.5v-200h369v-119h-369v-885zM952 1217q-29 0 -59 20l-98 70l98 69q28 19 59 19q36 0 61 -26.5t25 -63.5q0 -36 -25 -62t-61 -26zM1001 0h-127v1004h127v-1004z" />
    <glyph glyph-name="ordfeminine.alt" horiz-adv-x="962" 
d="M741 823v154q-41 -80 -114.5 -126t-167.5 -46q-159 0 -263 106.5t-104 268.5q0 163 103.5 267.5t263.5 104.5q94 0 168 -45t114 -123v154h95v-715h-95zM465 899q122 0 199 79.5t77 203.5q0 123 -77.5 201.5t-198.5 78.5q-120 0 -197.5 -78.5t-77.5 -201.5t77 -203
t198 -80zM150 666h690v-80h-690v80z" />
    <glyph glyph-name="ordmasculine.alt" horiz-adv-x="944" 
d="M475 1552q165 0 271 -103t106 -267q0 -166 -105 -272.5t-272 -106.5q-169 0 -276 106t-107 273q0 165 107.5 267.5t275.5 102.5zM754 1182q0 123 -78.5 201.5t-202.5 78.5q-125 0 -204 -78t-79 -202q0 -127 79 -208t204 -81t203 81t78 208zM129 586v80h690v-80h-690z" />
    <glyph glyph-name="zero.alt" 
d="M653 -8q-167 0 -292 99t-190 275t-65 406q0 227 65.5 401.5t190.5 272.5t291 98q167 0 292 -97.5t191 -272t66 -402.5q0 -230 -65.5 -406t-190.5 -275t-293 -99zM653 121q130 0 224.5 83t143 229.5t48.5 338.5q0 288 -111.5 465.5t-304.5 177.5q-128 0 -222 -82.5
t-142.5 -227t-48.5 -333.5q0 -293 110 -472t303 -179z" />
    <glyph glyph-name="one.alt" horiz-adv-x="497" 
d="M182 61v1344q0 57 37.5 94t93.5 37v-1475q0 -32 -18.5 -49.5t-46.5 -17.5q-27 0 -46.5 17.5t-19.5 49.5z" />
    <glyph glyph-name="two.alt" horiz-adv-x="1083" 
d="M692 664l-590 -646q-43 25 -49.5 74t29.5 88l491 545q8 9 40 43t42.5 45.5t37.5 42.5t38 47t31.5 45t29.5 49.5t20 47.5t15 53t4 53q0 127 -89 199.5t-228 72.5q-224 0 -418 -178v154q195 153 422 153q192 0 318.5 -105t126.5 -292q0 -56 -17.5 -114t-38 -99.5
t-65.5 -100.5t-69.5 -87t-80.5 -90zM975 0h-760l123 127h637q31 0 49 -19t18 -45q0 -25 -18 -44t-49 -19z" />
    <glyph glyph-name="three.alt" horiz-adv-x="1087" 
d="M670 1409h-533q-32 0 -49.5 18.5t-17.5 45.5t17.5 45t49.5 18h656zM471 -16q-229 0 -416 125v149q194 -149 408 -149q173 0 288 97.5t115 264.5q0 177 -139 272t-367 95h-79l624 682q42 -25 49 -75t-30 -89l-377 -420q200 -19 327 -144t127 -321q0 -112 -42 -204.5
t-114.5 -154t-168.5 -95t-205 -33.5z" />
    <glyph glyph-name="four.alt" horiz-adv-x="1183" 
d="M784 1440l-673 -1039q-43 16 -59 65t11 99l613 940q14 23 35 32t39.5 4t32.5 -18.5t14.5 -36t-13.5 -46.5zM944 0h-133v387h-594l80 129h514v424l133 70v-494h156q30 0 48 -20t18 -44.5t-17.5 -44.5t-48.5 -20h-156v-387z" />
    <glyph glyph-name="five.alt" horiz-adv-x="1124" 
d="M918 1409h-539v127h539q31 0 48 -18.5t17 -44.5q0 -25 -17.5 -44.5t-47.5 -19.5zM102 92v148q175 -131 402 -131q187 0 297 96.5t110 263.5q0 84 -31 146t-87.5 99.5t-130.5 55.5t-166 18l-342 -2l-2 623q0 53 37.5 90t91.5 37v-623h211q262 0 408.5 -110.5t146.5 -335.5
q0 -217 -151.5 -350t-389.5 -133q-214 0 -404 108z" />
    <glyph glyph-name="six.alt" horiz-adv-x="1153" 
d="M801 1536l-537 -831q-63 -88 -63 -220q0 -157 110.5 -265.5t268.5 -108.5q157 0 266.5 108.5t109.5 265.5q0 123 -67.5 217.5t-178.5 135t-235 14.5l78 127q108 10 207 -25t170.5 -102t114 -163.5t42.5 -203.5q0 -210 -148 -355.5t-359 -145.5q-139 0 -256.5 66
t-185.5 181.5t-68 253.5q0 154 77 273l504 778h150z" />
    <glyph glyph-name="seven.alt" horiz-adv-x="1007" 
d="M745 1409h-651q-30 0 -48 20t-18 43.5t17.5 43.5t48.5 20h715zM270 0h-143l786 1526q50 -15 69.5 -62t-5.5 -100z" />
    <glyph glyph-name="eight.alt" horiz-adv-x="1191" 
d="M596 -16q-104 0 -198 30.5t-166.5 85.5t-115 139.5t-42.5 186.5q0 129 78 231t210 154q-99 52 -155.5 140t-56.5 196q0 92 36.5 169t98 128t142 79.5t169.5 28.5t169.5 -28.5t142 -79.5t98 -128t36.5 -169q0 -111 -55.5 -198t-152.5 -138q129 -48 205.5 -149.5
t76.5 -235.5q0 -102 -42.5 -186.5t-114 -139.5t-165.5 -85.5t-198 -30.5zM596 864q135 0 227 79.5t92 201.5q0 127 -93 206t-226 79t-226.5 -79t-93.5 -206q0 -121 93 -201t227 -80zM596 109q164 0 276.5 87t112.5 230q0 140 -112.5 232t-276.5 92t-276.5 -92t-112.5 -232
q0 -142 113.5 -229.5t275.5 -87.5z" />
    <glyph glyph-name="nine.alt" horiz-adv-x="1153" 
d="M352 0l537 831q63 88 63 220q0 157 -110.5 265.5t-268.5 108.5q-157 0 -266.5 -108.5t-109.5 -265.5q0 -123 67.5 -217.5t178.5 -135t235 -14.5l-78 -127q-108 -10 -207 25t-170.5 102t-114 163.5t-42.5 203.5q0 210 148 355.5t359 145.5q139 0 256.5 -66t185.5 -181.5
t68 -253.5q0 -154 -77 -273l-504 -778h-150z" />
    <glyph glyph-name="comma.alt" horiz-adv-x="421" 
d="M166 -248h-98l116 234q-75 20 -75 96q0 43 29.5 69.5t72.5 26.5q47 0 75.5 -28.5t28.5 -73.5q0 -42 -32 -101z" />
    <glyph glyph-name="uni03020300" horiz-adv-x="0" 
d="M-514 1614h152l194 -271h-108zM244 1167l-191 201l-190 -201h-131l248 287h145l250 -287h-131z" />
    <glyph glyph-name="uni03020301" horiz-adv-x="0" 
d="M422 1669h149l-231 -266h-109zM188 1204l-190 201l-191 -201h-131l248 287h146l249 -287h-131z" />
    <glyph glyph-name="uni03020303" horiz-adv-x="0" 
d="M123 1497q-43 0 -120.5 41t-108.5 41q-38 0 -60 -23t-22 -65h-82q-3 87 37.5 138.5t113.5 51.5q44 0 126 -43t110 -43q38 0 60 23.5t22 64.5h80q4 -85 -38.5 -135.5t-117.5 -50.5zM188 1167l-190 201l-191 -201h-131l248 287h146l249 -287h-131z" />
    <glyph glyph-name="uni03020309" horiz-adv-x="0" 
d="M328 1376h-107q146 143 146 209q0 42 -27.5 66t-69.5 24q-40 0 -68 -26.5t-28 -67.5h-88q0 78 52 128t132 50t132.5 -48.5t52.5 -125.5q0 -88 -127 -209zM193 1167l-191 201l-190 -201h-131l247 287h146l250 -287h-131z" />
    <glyph glyph-name="uni03060300" horiz-adv-x="0" 
d="M-311 1788h161l207 -287h-116zM-8 1272q78 0 130 50t52 122h109q0 -115 -82 -194t-209 -79t-207 79t-80 194h107q0 -72 52.5 -122t127.5 -50z" />
    <glyph glyph-name="uni03060301" horiz-adv-x="0" 
d="M131 1792h162l-252 -287h-117zM-8 1272q78 0 130 50t52 122h109q0 -115 -82 -194t-209 -79t-207 79t-80 194h107q0 -72 52.5 -122t127.5 -50z" />
    <glyph glyph-name="uni03060303" horiz-adv-x="0" 
d="M131 1542q-45 0 -125 42t-110 42q-39 0 -61.5 -24t-22.5 -66h-86q-3 88 39.5 141.5t115.5 53.5q46 0 130.5 -44.5t111.5 -44.5q40 0 62 24t22 67h82q4 -87 -39 -139t-119 -52zM4 1272q78 0 130 50t52 122h109q0 -115 -82 -194t-209 -79t-207 79t-80 194h107
q0 -72 52.5 -122t127.5 -50z" />
    <glyph glyph-name="uni03060309" horiz-adv-x="0" 
d="M51 1477h-106q73 71 109 120t36 86q0 43 -27 68t-69 25q-40 0 -68 -28t-28 -69h-91q0 78 53.5 128.5t133.5 50.5t132 -48t52 -127q0 -87 -127 -206zM0 1272q78 0 130 50t52 122h109q0 -115 -82 -194t-209 -79t-207 79t-80 194h107q0 -72 52.5 -122t127.5 -50z" />
    <glyph glyph-name="uni0307.alt" horiz-adv-x="0" 
d="M4 1219q-29 0 -59 20l-99 70l99 69q28 19 59 19q36 0 61 -26.5t25 -63.5q0 -36 -25 -62t-61 -26z" />
    <glyph glyph-name="dotbelowcomb.right" horiz-adv-x="919" 
d="M465 -350q-29 0 -59 20l-99 70l99 70q27 18 59 18q36 0 61 -26.5t25 -63.5q0 -36 -25 -62t-61 -26z" />
    <glyph glyph-name="dotaccent.right" horiz-adv-x="919" 
d="M461 1219q-30 0 -60 20l-98 70l98 69q28 19 60 19q36 0 61 -26.5t25 -63.5q0 -36 -25 -62t-61 -26z" />
    <glyph glyph-name="dotleft" horiz-adv-x="483" 
d="M233 1217q-36 0 -61 26t-25 62q0 37 25 63.5t61 26.5q31 0 60 -19l98 -69l-98 -70q-30 -20 -60 -20z" />
    <glyph glyph-name="dotright" horiz-adv-x="483" 
d="M252 1217q-29 0 -59 20l-99 70l99 69q29 19 59 19q36 0 61 -26.5t25 -63.5q0 -36 -25 -62t-61 -26z" />
    <glyph glyph-name="hungarumlaut.1" horiz-adv-x="919" 
d="M358 1167h-104l182 287h137zM647 1167h-104l184 287h145z" />
    </font>
</defs>
</svg>
