<?xml version="1.0" standalone="no"?>
<!DOCTYPE svg PUBLIC "-//W3C//DTD SVG 1.1//EN" "http://www.w3.org/Graphics/SVG/1.1/DTD/svg11.dtd" >
<svg xmlns="http://www.w3.org/2000/svg" xmlns:xlink="http://www.w3.org/1999/xlink" version="1.1">
<metadata>
Created by FontForge 20170731 at Tue Jul  7 15:46:59 2020
 By Aleksey,,,
Copyright (c)-2020 Indian Type Foundry. All rights reserved.
</metadata>
<defs>
<font id="SCProsperSans-Bold" horiz-adv-x="1308" >
  <font-face 
    font-family="SC Prosper Sans"
    font-weight="600"
    font-stretch="normal"
    units-per-em="2048"
    panose-1="0 0 0 0 0 0 0 0 0 0"
    ascent="1638"
    descent="-410"
    x-height="1032"
    cap-height="1536"
    bbox="-1386.15 -676 2990 2269"
    underline-thickness="86"
    underline-position="-337"
    unicode-range="U+000D-FB02"
  />
<missing-glyph horiz-adv-x="1138" 
d="M154 0v1536h831v-1536h-831zM246 86h647v1364h-647v-1364zM788 629l-73 -74l-142 141l-141 -141l-72 74l142 141l-142 139l72 74l141 -141l142 141l73 -74l-141 -139z" />
    <glyph glyph-name="ordfeminine" unicode="[[" horiz-adv-x="0" 
d="M-1028 160q-150 0 -251.5 104.5t-106.5 257.5q-4 150 102 255.5t256 105.5q115 0 244 -80l436 -281l-436 -282q-129 -80 -244 -80z" />
    <glyph glyph-name="ordmasculine" unicode="]]" horiz-adv-x="0" 
d="M1028 160q-115 0 -244 80l-436 282l436 281q129 80 244 80q150 0 256 -105.5t102 -255.5q-5 -153 -106.5 -257.5t-251.5 -104.5z" />
    <glyph glyph-name="fi" unicode="fi" horiz-adv-x="1275" 
d="M422 0h-283v1130q0 190 113 308t303 118q89 0 152 -18v-252q-48 19 -109 19q-79 0 -127.5 -45t-48.5 -123v-105h280v-241h-280v-791zM983 1182q-66 0 -112 45t-46 110q0 66 46 114t112 48q59 0 107 -39l155 -119l-153 -120q-51 -39 -109 -39zM1137 0h-285v1032h285v-1032
z" />
    <glyph glyph-name="fl" unicode="fl" horiz-adv-x="1275" 
d="M702 791h-280v-791h-283v1130q0 190 112 308t300 118q93 0 156 -18v-252q-50 19 -111 19q-78 0 -126 -44.5t-48 -121.5v-107h280v-241zM852 0v1536h285v-1536h-285z" />
    <glyph glyph-name=".notdef" horiz-adv-x="1138" 
d="M154 0v1536h831v-1536h-831zM246 86h647v1364h-647v-1364zM788 629l-73 -74l-142 141l-141 -141l-72 74l142 141l-142 139l72 74l141 -141l142 141l73 -74l-141 -139z" />
    <glyph glyph-name=".null" horiz-adv-x="0" 
 />
    <glyph glyph-name="nonmarkingreturn" horiz-adv-x="682" 
 />
    <glyph glyph-name="CR" unicode="&#xd;" horiz-adv-x="0" 
 />
    <glyph glyph-name="space" unicode=" " horiz-adv-x="454" 
 />
    <glyph glyph-name="exclam" unicode="!" horiz-adv-x="630" 
d="M420 500h-209l-59 583v453h327v-453zM317 -20q-80 0 -131 48t-51 126t51 127t131 49t130.5 -49t50.5 -127t-50.5 -126t-130.5 -48z" />
    <glyph glyph-name="quotedbl" unicode="&#x22;" horiz-adv-x="831" 
d="M109 971l-9 565h258l-8 -565h-241zM481 971l-8 565h258l-8 -565h-242z" />
    <glyph glyph-name="numbersign" unicode="#" horiz-adv-x="1460" 
d="M621 0l102 352h-223l-103 -352h-250l103 352h-213v240h280l109 369h-242v237h312l96 338h252l-99 -338h224l96 338h252l-98 -338h204v-237h-272l-109 -369h234v-240h-303l-103 -352h-249zM569 592h222l108 369h-221z" />
    <glyph glyph-name="dollar" unicode="$" horiz-adv-x="1167" 
d="M1116 451q0 -169 -102 -288t-273 -163v-274h-260v260q-223 17 -401 137v340q258 -225 495 -225q95 0 156.5 40.5t61.5 116.5q0 57 -30 93.5t-108 76.5l-288 142q-137 66 -206 161t-69 240q0 170 107.5 285.5t283.5 150.5v262h260v-258q167 -19 297 -100v-322
q-218 172 -419 172q-93 0 -152 -41.5t-59 -119.5q0 -52 31 -89t96 -71l307 -152q140 -70 206 -158.5t66 -215.5z" />
    <glyph glyph-name="percent" unicode="%" horiz-adv-x="2103" 
d="M489 756q-185 0 -306.5 114t-121.5 289q0 170 122 283.5t306 113.5q186 0 307.5 -113t121.5 -284q0 -175 -121.5 -289t-307.5 -114zM575 0h-251l1206 1536h252zM489 1358q-89 0 -147.5 -56.5t-58.5 -142.5q0 -89 58.5 -148t147.5 -59t148 59t59 148q0 86 -59 142.5
t-148 56.5zM1614 -20q-186 0 -308 113.5t-122 285.5q0 173 122 286t308 113q185 0 306.5 -113t121.5 -286q0 -172 -122 -285.5t-306 -113.5zM1819 379q0 88 -58 145.5t-147 57.5q-90 0 -148.5 -57.5t-58.5 -145.5t58.5 -145.5t148.5 -57.5q89 0 147 57.5t58 145.5z" />
    <glyph glyph-name="ampersand" unicode="&#x26;" horiz-adv-x="1536" 
d="M1214 0l-159 154q-190 -174 -451 -174q-146 0 -263 52.5t-187 156.5t-70 243q0 129 66.5 232t181.5 172l20 12q-108 147 -108 307q0 93 35.5 170.5t97 129t144.5 80t177 28.5q190 0 315.5 -114.5t125.5 -299.5h-271q-2 72 -50.5 120t-121.5 48q-70 0 -118 -46t-48 -120
q0 -44 13.5 -84t44 -81t52.5 -65t66 -68l13 -13l301 -299q52 112 82 282h274q-47 -283 -162 -475l351 -348h-351zM383 453q0 -99 66.5 -159.5t168.5 -60.5q145 0 252 99l-325 313q-6 8 -23 25l-18 -11q-121 -75 -121 -206z" />
    <glyph glyph-name="quotesingle" unicode="'" horiz-adv-x="458" 
d="M109 971l-9 565h258l-8 -565h-241z" />
    <glyph glyph-name="parenleft" unicode="(" horiz-adv-x="858" 
d="M119 627q0 360 183.5 628.5t510.5 362.5v-272q-198 -77 -301.5 -264t-103.5 -455q0 -267 103 -454t302 -265v-273q-327 94 -510.5 363t-183.5 629z" />
    <glyph glyph-name="parenright" unicode=")" horiz-adv-x="858" 
d="M739 627q0 -360 -183.5 -629t-510.5 -363v273q200 78 303 265t103 454t-103.5 454.5t-302.5 264.5v272q327 -94 510.5 -362.5t183.5 -628.5z" />
    <glyph glyph-name="asterisk" unicode="*" horiz-adv-x="954" 
d="M367 1536h221l-56 -301l238 197l109 -191l-287 -106l287 -105l-109 -192l-235 198l53 -303h-221l53 301l-236 -196l-110 190l288 107l-288 106l108 191l238 -199z" />
    <glyph glyph-name="plus" unicode="+" horiz-adv-x="1273" 
d="M1110 659h-352v-352h-242v352h-352v240h352v354h242v-354h352v-240z" />
    <glyph glyph-name="comma" unicode="," horiz-adv-x="546" 
d="M231 -332h-188l166 314q-119 48 -119 170q0 80 52 128t132 48q85 0 136 -51.5t51 -131.5q0 -81 -51 -165z" />
    <glyph glyph-name="hyphen" unicode="-" horiz-adv-x="856" 
d="M102 477v248h652v-248h-652z" />
    <glyph glyph-name="period" unicode="." horiz-adv-x="546" 
d="M274 -20q-82 0 -132 48t-50 126t50.5 127t131.5 49q80 0 130.5 -49t50.5 -127t-50.5 -126t-130.5 -48z" />
    <glyph glyph-name="slash" unicode="/" horiz-adv-x="1169" 
d="M260 -362h-276l923 2039h279z" />
    <glyph glyph-name="zero" unicode="0" horiz-adv-x="1368" 
d="M1292 772q0 -162 -39.5 -304.5t-114 -251.5t-192 -172.5t-262.5 -63.5q-117 0 -216 41t-170 114.5t-121 173t-74.5 217t-24.5 246.5q0 161 39.5 302.5t114 249t191 170t261.5 62.5t262 -62.5t191.5 -170t114.5 -249t40 -302.5zM684 254q78 0 136.5 39.5t92 111.5
t50 163.5t16.5 203.5q0 149 -28.5 260t-96 180.5t-170.5 69.5q-78 0 -136.5 -39t-92.5 -110t-50 -160.5t-16 -200.5q0 -89 9.5 -165t32 -142t56 -112t83.5 -72.5t114 -26.5z" />
    <glyph glyph-name="one" unicode="1" horiz-adv-x="813" 
d="M367 0v1145l-328 -146v291l627 289v-1579h-299z" />
    <glyph glyph-name="two" unicode="2" horiz-adv-x="1155" 
d="M1110 262v-262h-1098l535 705q6 9 31 41.5t31.5 41.5t26.5 37t26 39.5t20.5 35.5t19 39t11.5 36.5t9.5 41t2.5 40.5q0 102 -71.5 164.5t-176.5 62.5q-181 0 -371 -178v309q199 141 433 141q217 0 359 -127t142 -331q0 -129 -59 -250.5t-180 -282.5l-242 -303h551z" />
    <glyph glyph-name="three" unicode="3" horiz-adv-x="1134" 
d="M1071 451q0 -114 -48.5 -205t-131 -148.5t-188 -87.5t-224.5 -30q-221 0 -426 116v291q204 -147 430 -147q117 0 195 56t78 159q0 106 -78 159.5t-195 53.5q-79 0 -186 -17v236l184 31q213 40 213 202q0 80 -57.5 126t-144.5 46q-215 0 -392 -159v278q188 145 439 145
q198 0 330 -112.5t132 -300.5q0 -198 -186 -320q125 -60 190.5 -155.5t65.5 -216.5z" />
    <glyph glyph-name="four" unicode="4" horiz-adv-x="1300" 
d="M1266 332h-172v-332h-291v332h-789l555 1204h301l-428 -954h361v407h291v-407h172v-250z" />
    <glyph glyph-name="five" unicode="5" horiz-adv-x="1146" 
d="M502 -20q-220 0 -402 102v283q167 -132 373 -132q128 0 213.5 68.5t85.5 187.5q0 118 -82.5 187t-208.5 69q-127 0 -266 -47q-18 -4 -72 -26v864h881v-260h-594v-318q68 21 148 21q220 0 362.5 -136.5t142.5 -353.5q0 -118 -45.5 -215t-124.5 -161t-184.5 -98.5
t-226.5 -34.5z" />
    <glyph glyph-name="six" unicode="6" horiz-adv-x="1224" 
d="M1176 489q0 -154 -75.5 -271t-203.5 -177.5t-287 -60.5q-240 0 -398.5 137.5t-158.5 365.5q0 190 123 373l449 680h333l-380 -567q39 10 96 10q218 -5 360 -140.5t142 -349.5zM610 248q113 0 185.5 69t72.5 181q0 109 -73 177t-183 68q-106 0 -176 -61q-82 -72 -82 -188
q0 -108 72.5 -177t183.5 -69z" />
    <glyph glyph-name="seven" unicode="7" horiz-adv-x="1157" 
d="M1159 1536l-751 -1536h-322l621 1270h-666v266h1118z" />
    <glyph glyph-name="eight" unicode="8" horiz-adv-x="1239" 
d="M618 -20q-113 0 -213.5 31t-177 88.5t-121.5 147t-45 199.5q0 127 69.5 228.5t188.5 154.5q-87 54 -136.5 137t-49.5 183q0 127 67 221t175.5 140t242.5 46t243 -46t176 -140t67 -221q0 -99 -48.5 -182t-135.5 -138q119 -53 187.5 -154.5t68.5 -228.5q0 -145 -78 -253
t-203 -160.5t-277 -52.5zM819 1126q0 83 -57 133t-144 50t-143.5 -50t-56.5 -133q0 -85 57 -136.5t143 -51.5q87 0 144 51.5t57 136.5zM870 465q0 99 -72.5 157t-179.5 58t-178 -57.5t-71 -157.5q0 -101 71 -159t178 -58t179.5 58t72.5 159z" />
    <glyph glyph-name="nine" unicode="9" horiz-adv-x="1224" 
d="M1049 680l-449 -680h-334l377 563q-36 -10 -94 -10q-217 6 -358.5 141t-141.5 350q0 231 161 371.5t404 140.5q157 0 283 -60t200 -176t74 -269q0 -193 -122 -371zM614 1288q-114 0 -186 -69.5t-72 -182.5q0 -108 73.5 -175.5t184.5 -67.5q126 0 201 88q55 64 55 159
q0 109 -72.5 178.5t-183.5 69.5z" />
    <glyph glyph-name="colon" unicode=":" horiz-adv-x="581" 
d="M293 692q-82 0 -133 48.5t-51 127.5q0 77 51 125.5t133 48.5q78 0 128 -49t50 -125q0 -79 -49.5 -127.5t-128.5 -48.5zM293 -20q-82 0 -133 48t-51 126t51 127t133 49q78 0 128 -49t50 -127t-50 -126t-128 -48z" />
    <glyph glyph-name="semicolon" unicode=";" horiz-adv-x="581" 
d="M301 692q-80 0 -131 48.5t-51 127.5q0 76 51 125t131 49q79 0 129.5 -48.5t50.5 -125.5q0 -79 -50 -127.5t-130 -48.5zM250 -332h-189l166 314q-118 47 -118 170q0 80 52.5 128t133.5 48q82 0 134 -52t52 -131q0 -78 -53 -165z" />
    <glyph glyph-name="less" unicode="&#x3c;" horiz-adv-x="1273" 
d="M1042 524v-258l-813 385v254l813 385v-256l-571 -256z" />
    <glyph glyph-name="equal" unicode="=" horiz-adv-x="1273" 
d="M164 872v236h946v-236h-946zM164 418v237h946v-237h-946z" />
    <glyph glyph-name="greater" unicode="&#x3e;" horiz-adv-x="1273" 
d="M1047 651l-816 -385v258l572 254l-572 256v256l816 -385v-254z" />
    <glyph glyph-name="question" unicode="?" horiz-adv-x="1132" 
d="M737 719l-108 -35l-17 -184h-225l-29 344l222 57q88 24 144 77t56 136q0 88 -62 138.5t-155 50.5q-106 0 -173.5 -61.5t-67.5 -162.5h-279q0 216 147.5 346.5t382.5 130.5q219 0 358.5 -114t139.5 -307q0 -150 -88.5 -259.5t-245.5 -156.5zM500 -20q-80 0 -131.5 48.5
t-51.5 125.5q0 78 51.5 127t131.5 49t130 -49t50 -127t-50 -126t-130 -48z" />
    <glyph glyph-name="at" unicode="@" horiz-adv-x="1843" 
d="M1296 -193q-182 -86 -403 -86q-234 0 -419 102t-288.5 286t-103.5 417q0 179 63.5 331.5t175 257t266 163.5t333.5 59q239 0 429.5 -96t301 -276.5t110.5 -415.5q0 -101 -21 -185.5t-63.5 -152t-114.5 -105.5t-167 -38q-151 0 -228 104q-4 7 -12 21.5t-12 21.5
q-43 -78 -114.5 -122t-166.5 -44q-191 0 -307.5 132t-116.5 331q0 204 115.5 339.5t308.5 135.5q163 0 254 -129v109h238v-635q0 -56 31 -84.5t83 -28.5q54 0 90.5 27.5t54 78.5t23.5 103t6 121q0 202 -95 358t-259 239t-368 83q-206 0 -369.5 -87.5t-256.5 -248.5t-93 -367
q0 -202 87.5 -360t245 -246t359.5 -88q216 0 403 90v-115zM1114 514q0 106 -60.5 176t-160.5 70q-98 0 -154.5 -71t-56.5 -175q0 -103 57 -170.5t154 -67.5q100 0 160.5 67.5t60.5 170.5z" />
    <glyph glyph-name="A" unicode="A" horiz-adv-x="1552" 
d="M1202 0l-106 238h-656l-106 -238h-326l760 1579l776 -1579h-342zM547 473h440l-221 488z" />
    <glyph glyph-name="B" unicode="B" horiz-adv-x="1325" 
d="M147 0v1536h553q203 0 334 -114t131 -306q0 -189 -159 -299q116 -54 182.5 -150.5t66.5 -226.5q0 -135 -67.5 -236t-182 -152.5t-257.5 -51.5h-601zM664 1280h-220v-367h224q90 0 143 50.5t53 134.5t-55 133t-145 49zM731 664h-287v-408h287q101 0 160 53.5t59 147.5
t-58 150.5t-161 56.5z" />
    <glyph glyph-name="C" unicode="C" horiz-adv-x="1406" 
d="M846 -20q-227 0 -404.5 101.5t-274.5 280.5t-97 406q0 171 58.5 317.5t161.5 250t249 162t317 58.5q272 0 473 -141v-336q-194 197 -469 197q-215 0 -348 -143t-133 -363q0 -224 139 -367t361 -143q275 0 458 160v-314q-210 -126 -491 -126z" />
    <glyph glyph-name="D" unicode="D" horiz-adv-x="1570" 
d="M147 0v1536h568q227 0 406 -96t279.5 -271.5t100.5 -400.5q0 -168 -58 -311.5t-160.5 -243.5t-247.5 -156.5t-314 -56.5h-574zM709 1266h-267v-996h267q221 0 354 136t133 362t-133 362t-354 136z" />
    <glyph glyph-name="E" unicode="E" horiz-adv-x="1206" 
d="M147 0v1536h971v-266h-674v-352h590v-265h-590v-387h697v-266h-994z" />
    <glyph glyph-name="F" unicode="F" horiz-adv-x="1122" 
d="M147 0v1536h930v-268h-633v-412h547v-268h-547v-588h-297z" />
    <glyph glyph-name="G" unicode="G" horiz-adv-x="1562" 
d="M1460 158q-293 -178 -610 -178q-227 0 -405.5 100.5t-276.5 280t-98 407.5q0 229 103 409t286.5 279.5t414.5 99.5q292 0 508 -147v-326q-97 99 -225 150t-272 51q-222 0 -364 -143.5t-142 -368.5t139.5 -368.5t360.5 -143.5q161 0 290 66v303h-350v231h641v-702z" />
    <glyph glyph-name="H" unicode="H" horiz-adv-x="1597" 
d="M1151 0v668h-707v-668h-297v1536h297v-606h707v606h297v-1536h-297z" />
    <glyph glyph-name="I" unicode="I" horiz-adv-x="591" 
d="M147 0v1536h297v-1536h-297z" />
    <glyph glyph-name="J" unicode="J" horiz-adv-x="950" 
d="M319 -20q-75 0 -151 21.5t-131 57.5v283q65 -45 138 -68.5t128 -23.5q104 0 158.5 54.5t54.5 158.5v1073h299v-1057q0 -245 -129 -372t-367 -127z" />
    <glyph glyph-name="K" unicode="K" horiz-adv-x="1445" 
d="M1083 0l-452 664l-187 -209v-455h-297v1536h297v-678l588 678h365l-566 -643l613 -893h-361z" />
    <glyph glyph-name="L" unicode="L" horiz-adv-x="1155" 
d="M1110 268v-268h-963v1536h297v-1268h666z" />
    <glyph glyph-name="M" unicode="M" horiz-adv-x="1931" 
d="M967 266l-523 584v-850h-297v1579l826 -897l811 897v-1579h-297v840z" />
    <glyph glyph-name="N" unicode="N" horiz-adv-x="1599" 
d="M1452 -43l-1008 961v-918h-297v1579l1006 -961v918h299v-1579z" />
    <glyph glyph-name="O" unicode="O" horiz-adv-x="1728" 
d="M1659 772q0 -172 -59 -319.5t-163.5 -251t-252.5 -162.5t-320 -59q-230 0 -411 100.5t-282 281t-101 410.5q0 227 101.5 406.5t282.5 278.5t410 99q171 0 319 -58t252.5 -160.5t164 -249t59.5 -316.5zM864 260q217 0 353.5 144.5t136.5 365.5t-136.5 363.5t-353.5 142.5
t-353 -142.5t-136 -363.5t136 -365.5t353 -144.5z" />
    <glyph glyph-name="P" unicode="P" horiz-adv-x="1280" 
d="M147 0v1536h492q253 0 416.5 -152t163.5 -397q0 -248 -164 -399.5t-420 -151.5h-191v-436h-297zM627 1276h-183v-580h183q129 0 206.5 81t77.5 210q0 128 -77.5 208.5t-206.5 80.5z" />
    <glyph glyph-name="Q" unicode="Q" horiz-adv-x="1728" 
d="M1659 772q0 -202 -80.5 -367.5t-224.5 -271.5l329 -360h-378l-213 239q-97 -32 -228 -32q-230 0 -411 100.5t-282 281t-101 410.5q0 227 101.5 406.5t282.5 278.5t410 99q171 0 319 -58t252.5 -160.5t164 -249t59.5 -316.5zM375 770q0 -221 136 -365.5t353 -144.5
t353.5 144.5t136.5 365.5t-136.5 363.5t-353.5 142.5t-353 -142.5t-136 -363.5z" />
    <glyph glyph-name="R" unicode="R" horiz-adv-x="1325" 
d="M147 0v1536h515q246 0 397 -140.5t151 -373.5q0 -159 -81 -278.5t-216 -178.5l377 -565h-352l-330 512h-164v-512h-297zM637 1276h-193v-506h193q124 0 195 67.5t71 184.5t-71 185.5t-195 68.5z" />
    <glyph glyph-name="S" unicode="S" horiz-adv-x="1181" 
d="M629 1300q-93 0 -152 -42t-59 -123q0 -52 31 -89t96 -71l307 -152q140 -69 206 -157t66 -215q0 -213 -154.5 -342t-396.5 -129q-287 0 -485 145v340q124 -113 253.5 -170t238.5 -57q97 0 159 40.5t62 118.5q0 58 -29 94t-108 78l-289 140q-137 66 -206 160t-69 239
q0 135 69.5 238t188 156.5t267.5 53.5q244 0 417 -108v-322q-224 174 -413 174z" />
    <glyph glyph-name="T" unicode="T" horiz-adv-x="1306" 
d="M1276 1268h-473v-1268h-299v1268h-475v268h1247v-268z" />
    <glyph glyph-name="U" unicode="U" horiz-adv-x="1548" 
d="M135 623v913h299v-909q0 -172 91.5 -271.5t248.5 -99.5q155 0 248.5 100t93.5 271v909h297v-913q0 -291 -177 -467t-464 -176q-288 0 -462.5 176t-174.5 467z" />
    <glyph glyph-name="V" unicode="V" horiz-adv-x="1550" 
d="M1538 1536l-770 -1579l-756 1579h344l422 -936l428 936h332z" />
    <glyph glyph-name="W" unicode="W" horiz-adv-x="2326" 
d="M2312 1536l-717 -1579l-430 956l-440 -956l-711 1579h342l381 -899l434 942l428 -938l381 895h332z" />
    <glyph glyph-name="X" unicode="X" horiz-adv-x="1527" 
d="M754 563l-381 -563h-355l557 815l-503 721h362l342 -487l328 487h350l-506 -735l561 -801h-362z" />
    <glyph glyph-name="Y" unicode="Y" horiz-adv-x="1478" 
d="M1468 1536l-569 -971v-565h-297v539l-594 997h344l393 -688l394 688h329z" />
    <glyph glyph-name="Z" unicode="Z" horiz-adv-x="1359" 
d="M1292 262v-262h-1265l800 1272h-737v264h1237l-790 -1274h755z" />
    <glyph glyph-name="bracketleft" unicode="[" horiz-adv-x="796" 
d="M164 -365v1983h584v-254h-308v-1473h308v-256h-584z" />
    <glyph glyph-name="backslash" unicode="\" horiz-adv-x="1169" 
d="M907 -362l-923 2039h276l926 -2039h-279z" />
    <glyph glyph-name="bracketright" unicode="]" horiz-adv-x="796" 
d="M631 -365h-582v256h305v1473h-305v254h582v-1983z" />
    <glyph glyph-name="asciicircum" unicode="^" horiz-adv-x="1273" 
d="M895 694l-258 596l-258 -596h-244l375 842h254l377 -842h-246z" />
    <glyph glyph-name="underscore" unicode="_" horiz-adv-x="1085" 
d="M0 -369v217h1085v-217h-1085z" />
    <glyph glyph-name="grave" unicode="`" horiz-adv-x="1112" 
d="M164 1460h350l195 -284h-248z" />
    <glyph glyph-name="a" unicode="a" 
d="M885 0v117q-118 -137 -305 -137q-225 0 -369.5 150.5t-144.5 381.5q0 235 144 388t370 153q187 0 305 -140v119h286v-1032h-286zM618 788q-113 0 -186.5 -78t-73.5 -198q0 -117 73.5 -192.5t186.5 -75.5q116 0 191.5 75t75.5 193q0 120 -75.5 198t-191.5 78z" />
    <glyph glyph-name="b" unicode="b" 
d="M1243 520q0 -234 -144.5 -387t-369.5 -153q-183 0 -307 137v-117h-283v1536h283v-621q125 138 307 138q224 0 369 -151t145 -382zM690 244q114 0 188 77.5t74 198.5q0 117 -74.5 192.5t-187.5 75.5q-116 0 -192 -75.5t-76 -192.5q0 -121 76 -198.5t192 -77.5z" />
    <glyph glyph-name="c" unicode="c" horiz-adv-x="1038" 
d="M358 518q0 -125 84.5 -202.5t214.5 -77.5q169 0 287 86v-267q-140 -77 -323 -77q-244 0 -399.5 149t-155.5 387q0 239 157.5 388t399.5 149q180 0 317 -86v-287q-118 115 -291 115q-127 0 -209 -77t-82 -200z" />
    <glyph glyph-name="d" unicode="d" 
d="M885 0v117q-121 -137 -305 -137q-225 0 -369.5 150.5t-144.5 381.5q0 234 144.5 387.5t369.5 153.5q184 0 305 -140v623h286v-1536h-286zM618 788q-113 0 -186.5 -78t-73.5 -198q0 -117 73.5 -192.5t186.5 -75.5q116 0 191.5 75t75.5 193q0 120 -75.5 198t-191.5 78z" />
    <glyph glyph-name="e" unicode="e" horiz-adv-x="1167" 
d="M643 -20q-250 0 -413.5 143.5t-163.5 382.5t146.5 393t381.5 154q223 0 364.5 -143t141.5 -367q0 -60 -6 -119h-721q28 -96 107.5 -150.5t193.5 -54.5q179 0 342 94v-237q-167 -96 -373 -96zM365 614h444q-11 95 -67 154t-148 59q-93 0 -151 -58t-78 -155z" />
    <glyph glyph-name="f" unicode="f" horiz-adv-x="798" 
d="M795 791h-373v-791h-283v1130q0 190 112 308t302 118q150 0 262 -67v-252q-100 68 -219 68q-78 0 -126 -44.5t-48 -119.5v-109h373v-241z" />
    <glyph glyph-name="g" unicode="g" 
d="M1171 10q0 -256 -151.5 -399t-413.5 -143q-225 0 -416 114v281q90 -70 194 -106t204 -36q141 0 219 71.5t78 203.5v119q-122 -135 -305 -135q-225 0 -369.5 151.5t-144.5 382.5q0 153 65 276t183 193t266 70q183 0 305 -138v117h286v-1022zM885 512q0 120 -75.5 198
t-191.5 78q-113 0 -186.5 -78t-73.5 -198q0 -117 73.5 -192.5t186.5 -75.5q116 0 191.5 75t75.5 193z" />
    <glyph glyph-name="h" unicode="h" horiz-adv-x="1236" 
d="M422 520v-520h-283v1536h283v-627q124 144 313 144q176 0 279.5 -119t103.5 -303v-631h-287v561q0 105 -45 162t-137 57q-102 0 -164.5 -75t-62.5 -185z" />
    <glyph glyph-name="i" unicode="i" horiz-adv-x="559" 
d="M256 1182q-66 0 -112 45t-46 110q0 66 46 114t112 48q58 0 106 -39l156 -119l-153 -120q-51 -39 -109 -39zM137 0v1032h285v-1032h-285z" />
    <glyph glyph-name="j" unicode="j" horiz-adv-x="559" 
d="M256 1182q-66 0 -112 45t-46 110q0 66 46 114t112 48q58 0 106 -39l156 -119l-153 -120q-51 -39 -109 -39zM-147 -489v239q68 -35 135 -35q66 0 108.5 40t42.5 108v1169h283v-1173q0 -180 -100.5 -285.5t-270.5 -105.5q-105 0 -198 43z" />
    <glyph glyph-name="k" unicode="k" horiz-adv-x="1179" 
d="M836 0l-287 420l-127 -133v-287h-283v1536h283v-903l373 399h331l-385 -407l437 -625h-342z" />
    <glyph glyph-name="l" unicode="l" horiz-adv-x="563" 
d="M139 0v1536h283v-1536h-283z" />
    <glyph glyph-name="m" unicode="m" horiz-adv-x="1855" 
d="M422 520v-520h-283v1032h283v-117q116 138 293 138q195 0 297 -162q126 162 338 162q178 0 282.5 -119t104.5 -303v-631h-285v563q0 217 -170 217q-92 0 -147.5 -74t-55.5 -184v-522h-284v563q0 217 -170 217q-91 0 -147 -75t-56 -185z" />
    <glyph glyph-name="n" unicode="n" horiz-adv-x="1236" 
d="M422 520v-520h-283v1032h283v-123q124 144 313 144q176 0 279.5 -119t103.5 -303v-631h-287v561q0 105 -45 162t-137 57q-102 0 -164.5 -75t-62.5 -185z" />
    <glyph glyph-name="o" unicode="o" horiz-adv-x="1243" 
d="M629 -20q-244 0 -403.5 152t-159.5 390q0 233 160 382t403 149q237 0 393 -149.5t156 -381.5q0 -157 -71.5 -281t-196.5 -192.5t-281 -68.5zM887 518q0 118 -74 194t-188 76q-117 0 -192 -76t-75 -194q0 -120 75 -197t192 -77q114 0 188 77t74 197z" />
    <glyph glyph-name="p" unicode="p" 
d="M729 -20q-183 0 -307 137v-629h-283v1544h283v-117q125 138 307 138q224 0 369 -151t145 -382q0 -234 -144.5 -387t-369.5 -153zM952 520q0 117 -74.5 192.5t-187.5 75.5q-116 0 -192 -75.5t-76 -192.5q0 -121 76 -198.5t192 -77.5q114 0 188 77.5t74 198.5z" />
    <glyph glyph-name="q" unicode="q" 
d="M1171 1032v-1544h-286v627q-122 -135 -305 -135q-225 0 -369.5 150.5t-144.5 381.5q0 234 144.5 387.5t369.5 153.5q183 0 305 -138v117h286zM618 788q-113 0 -186.5 -78t-73.5 -198q0 -117 73.5 -192.5t186.5 -75.5q116 0 191.5 75t75.5 193q0 120 -75.5 198t-191.5 78z
" />
    <glyph glyph-name="r" unicode="r" horiz-adv-x="792" 
d="M422 451v-451h-283v1032h283v-186q131 207 358 207v-314q-93 20 -174 -7.5t-132.5 -101t-51.5 -179.5z" />
    <glyph glyph-name="s" unicode="s" horiz-adv-x="919" 
d="M80 348q171 -160 360 -160q63 0 99 24.5t36 66.5q0 29 -15.5 49.5t-55.5 38.5l-193 79q-75 32 -122.5 67t-77 91.5t-29.5 132.5q0 147 106.5 231.5t284.5 84.5q191 0 328 -84v-260q-75 66 -159 103.5t-155 37.5q-58 0 -91.5 -23t-33.5 -63q0 -32 17.5 -51.5t62.5 -36.5
l201 -86q112 -48 164.5 -111t52.5 -157q0 -159 -119 -250.5t-307 -91.5q-206 0 -354 98v270z" />
    <glyph glyph-name="t" unicode="t" horiz-adv-x="827" 
d="M784 51q-107 -71 -270 -71q-395 0 -395 411v940h284v-299h371v-241h-371v-385q0 -84 46.5 -125t123.5 -41q120 0 211 59v-248z" />
    <glyph glyph-name="u" unicode="u" horiz-adv-x="1189" 
d="M793 451v581h284v-579q0 -216 -133 -344.5t-350 -128.5q-216 0 -349.5 128.5t-133.5 344.5v579h284v-581q0 -99 54.5 -153t144.5 -54q91 0 145 54t54 153z" />
    <glyph glyph-name="v" unicode="v" horiz-adv-x="1130" 
d="M1126 1032l-561 -1071l-563 1071h330l248 -512l247 512h299z" />
    <glyph glyph-name="w" unicode="w" horiz-adv-x="1665" 
d="M1661 1032l-492 -1071l-323 600l-334 -600l-510 1071h328l223 -500l293 537l291 -534l219 497h305z" />
    <glyph glyph-name="x" unicode="x" horiz-adv-x="1163" 
d="M809 0l-246 324l-235 -324h-318l391 541l-372 491h342l219 -289l209 289h317l-366 -500l401 -532h-342z" />
    <glyph glyph-name="y" unicode="y" horiz-adv-x="1134" 
d="M1133 1032l-750 -1544h-297l342 709l-426 835h334l248 -518l250 518h299z" />
    <glyph glyph-name="z" unicode="z" horiz-adv-x="1007" 
d="M946 242v-242h-917l497 791h-444v241h887l-488 -790h465z" />
    <glyph glyph-name="braceleft" unicode="{" horiz-adv-x="892" 
d="M844 -365h-154q-82 0 -152 22t-124.5 65t-85.5 112.5t-31 159.5v299q0 98 -44.5 161.5t-135.5 69.5v221q86 6 133 58.5t47 136.5v299q0 96 31.5 170t87 119t128 67.5t158.5 22.5h142v-244h-82q-180 0 -180 -182v-246q0 -262 -183 -319q183 -59 183 -322v-246
q0 -96 44 -138t136 -42h82v-244z" />
    <glyph glyph-name="bar" unicode="|" horiz-adv-x="512" 
d="M383 -676h-254v2376h254v-2376z" />
    <glyph glyph-name="braceright" unicode="}" horiz-adv-x="892" 
d="M49 -365v244h82q92 0 136 42t44 138v246q0 263 181 322q-181 57 -181 319v246q0 182 -180 182h-82v244h139q117 0 207 -38.5t145.5 -126t55.5 -214.5v-299q0 -84 46.5 -136.5t133.5 -58.5v-221q-92 -6 -136 -69t-44 -162v-299q0 -90 -31 -159.5t-85.5 -112.5t-124.5 -65
t-152 -22h-154z" />
    <glyph glyph-name="asciitilde" unicode="~" horiz-adv-x="1273" 
d="M434 965q74 0 205 -49.5t205 -49.5q71 0 141 29t119 78v-254q-47 -45 -117 -70.5t-143 -25.5q-75 0 -206 49t-206 49q-66 0 -136 -33t-126 -86v254q50 50 120.5 79.5t143.5 29.5z" />
    <glyph glyph-name="uni00A0" unicode="&#xa0;" horiz-adv-x="454" 
 />
    <glyph glyph-name="exclamdown" unicode="&#xa1;" horiz-adv-x="630" 
d="M311 702q-79 0 -129.5 50t-50.5 127q0 78 50 126t130 48q82 0 132.5 -48t50.5 -126q0 -77 -51 -127t-132 -50zM477 -471h-327v422l59 581h209l59 -581v-422z" />
    <glyph glyph-name="cent" unicode="&#xa2;" horiz-adv-x="1034" 
d="M942 57q-98 -54 -227 -71v-203h-262v219q-179 43 -285.5 180.5t-106.5 333.5q0 195 109.5 334t290.5 184v215h260v-205q116 -15 215 -77v-287q-118 115 -289 115q-127 0 -209 -77t-82 -200q0 -125 83.5 -202.5t213.5 -77.5q171 0 289 86v-267z" />
    <glyph glyph-name="sterling" unicode="&#xa3;" horiz-adv-x="1222" 
d="M1176 260v-260h-1117v260h164v367h-164v225h164v152q0 247 152 399.5t391 152.5q181 0 342 -90v-276q-157 100 -311 100q-133 0 -211 -80t-78 -217v-141h457v-225h-457v-367h668z" />
    <glyph glyph-name="currency" unicode="&#xa4;" horiz-adv-x="1243" 
d="M391 375l-153 -152l-162 162l143 145q-67 106 -67 244q0 134 61 232l-137 135l166 166l141 -142q111 62 244 62q128 0 235 -58l142 140l163 -164l-133 -131q66 -109 66 -240q0 -138 -72 -250l135 -133l-166 -166l-145 148q-102 -54 -225 -54q-127 0 -236 56zM627 559
q92 0 151.5 60.5t59.5 154.5t-59.5 153.5t-151.5 59.5q-94 0 -154.5 -59.5t-60.5 -153.5t60.5 -154.5t154.5 -60.5z" />
    <glyph glyph-name="yen" unicode="&#xa5;" horiz-adv-x="1507" 
d="M1372 358h-457v-358h-299v358h-464v209h446l-96 166h-350v207h225l-354 596h346l393 -682l389 682h332l-346 -596h235v-207h-360l-94 -166h454v-209z" />
    <glyph glyph-name="brokenbar" unicode="&#xa6;" horiz-adv-x="512" 
d="M383 696h-254v1004h254v-1004zM383 -676h-254v1004h254v-1004z" />
    <glyph glyph-name="section" unicode="&#xa7;" horiz-adv-x="1339" 
d="M586 -528q-249 0 -434 112v316q238 -181 446 -181q86 0 143.5 41.5t57.5 116.5q0 97 -111 152l-428 217q-215 108 -209 319q1 122 65.5 206.5t174.5 125.5q-64 85 -64 201q0 134 70 234.5t188.5 151t268.5 50.5q247 0 434 -113v-315q-238 178 -449 178q-85 0 -142.5 -41
t-57.5 -115q0 -97 112 -153l428 -215q214 -111 211 -322q-3 -121 -67 -204t-172 -125q61 -88 61 -201q0 -135 -70 -235t-188 -150.5t-268 -50.5zM406 492l413 -207q52 -25 109 -14.5t82 63.5q26 55 4 103t-80 77l-420 207q-54 26 -107 14.5t-77 -63.5q-26 -56 -4 -104.5
t80 -75.5z" />
    <glyph glyph-name="dieresis" unicode="&#xa8;" horiz-adv-x="1099" 
d="M354 1182q-66 0 -106.5 39t-40.5 102q0 64 40.5 103.5t106.5 39.5q65 0 105.5 -39.5t40.5 -103.5q0 -63 -40.5 -102t-105.5 -39zM768 1182q-66 0 -106.5 39t-40.5 102q0 64 40.5 103.5t106.5 39.5q65 0 105 -39.5t40 -103.5q0 -63 -40 -102t-105 -39z" />
    <glyph glyph-name="copyright" unicode="&#xa9;" horiz-adv-x="1714" 
d="M854 -20q-228 0 -407 100t-279 279t-100 407q0 171 58.5 317.5t161.5 250.5t249.5 163t316.5 59q172 0 319.5 -58.5t251.5 -162.5t163 -251t59 -318t-59 -317t-163.5 -249t-252 -161.5t-318.5 -58.5zM854 90q146 0 271 50.5t212.5 139t137 214.5t49.5 272t-49 272
t-136.5 215.5t-212.5 140t-272 50.5q-195 0 -347 -87t-235.5 -241.5t-83.5 -349.5q0 -297 185.5 -486.5t480.5 -189.5zM889 289q-213 0 -343 136.5t-130 348.5q0 208 133 343.5t344 135.5q138 0 281 -73v-219q-117 88 -265 88q-117 0 -191.5 -77t-74.5 -196
q0 -124 73.5 -204t192.5 -80q147 0 269 83v-219q-147 -67 -289 -67z" />
    <glyph glyph-name="guillemotleft" unicode="&#xab;" horiz-adv-x="1150" 
d="M350 121l-291 434l291 416h289l-291 -416l291 -434h-289zM791 121l-289 434l289 416h288l-291 -416l291 -434h-288z" />
    <glyph glyph-name="logicalnot" unicode="&#xac;" horiz-adv-x="1273" 
d="M170 1110h934v-610h-240v370h-694v240z" />
    <glyph glyph-name="uni00AD" unicode="&#xad;" horiz-adv-x="0" 
 />
    <glyph glyph-name="registered" unicode="&#xae;" horiz-adv-x="1714" 
d="M854 -20q-228 0 -407 100t-279 279t-100 407q0 171 58.5 317.5t161.5 250.5t249.5 163t316.5 59q172 0 319.5 -58.5t251.5 -162.5t163 -251t59 -318t-59 -317t-163.5 -249t-252 -161.5t-318.5 -58.5zM854 90q146 0 271 50.5t212.5 139t137 214.5t49.5 272t-49 272
t-136.5 215.5t-212.5 140t-272 50.5q-195 0 -347 -87t-235.5 -241.5t-83.5 -349.5q0 -297 185.5 -486.5t480.5 -189.5zM756 305h-221v942h366q144 0 239 -86.5t95 -226.5q0 -96 -47 -168.5t-127 -110.5l209 -350h-256l-172 318h-86v-318zM756 1059v-248h121q55 0 92 31
t37 92t-36.5 93t-92.5 32h-121z" />
    <glyph glyph-name="macron" unicode="&#xaf;" horiz-adv-x="1112" 
d="M238 1425h647v-213h-647v213z" />
    <glyph glyph-name="degree" unicode="&#xb0;" horiz-adv-x="980" 
d="M492 756q-186 0 -307.5 114t-121.5 289q0 171 121.5 284t307.5 113q185 0 305.5 -113t120.5 -284q0 -175 -120 -289t-306 -114zM696 1159q0 86 -58 142.5t-146 56.5q-89 0 -148 -56.5t-59 -142.5q0 -89 59 -148t148 -59q88 0 146 59t58 148z" />
    <glyph glyph-name="plusminus" unicode="&#xb1;" horiz-adv-x="1273" 
d="M1110 881h-352v-263h-242v263h-352v235h352v262h242v-262h352v-235zM164 285v235h946v-235h-946z" />
    <glyph glyph-name="twosuperior" unicode="&#xb2;" horiz-adv-x="905" 
d="M856 748v-189h-842l392 442q76 89 101 132.5t25 93.5q0 58 -42.5 93.5t-106.5 35.5q-137 0 -293 -123v219q147 104 346 104q153 0 248.5 -79.5t95.5 -206.5q0 -75 -33.5 -147t-107.5 -162l-174 -213h391z" />
    <glyph glyph-name="threesuperior" unicode="&#xb3;" horiz-adv-x="903" 
d="M401 537q-163 0 -313 69v211q145 -92 309 -92q78 0 130.5 29.5t52.5 93.5q0 62 -49.5 92.5t-124.5 30.5q-76 0 -173 -17v176l162 27q144 24 144 117q0 47 -37 69.5t-96 22.5q-145 0 -287 -106v204q134 92 325 92q140 0 233 -69t93 -191q0 -137 -129 -213
q83 -34 132.5 -97t49.5 -148q0 -98 -60 -167.5t-153.5 -101.5t-208.5 -32z" />
    <glyph glyph-name="acute" unicode="&#xb4;" horiz-adv-x="1112" 
d="M623 1460h352l-299 -284h-248z" />
    <glyph glyph-name="paragraph" unicode="&#xb6;" horiz-adv-x="1230" 
d="M825 1536v-1536h-284v639q-109 1 -198 34.5t-149.5 93t-93 142t-32.5 178.5q0 196 132.5 322.5t358.5 126.5h266zM967 0v1536h116v-1536h-116z" />
    <glyph glyph-name="periodcentered" unicode="&#xb7;" horiz-adv-x="864" 
d="M432 676q-70 0 -119 46t-49 116q0 69 49 114t119 45t118 -45t48 -114q0 -70 -48 -116t-118 -46z" />
    <glyph glyph-name="cedilla" unicode="&#xb8;" horiz-adv-x="1021" 
d="M768 -317q0 -96 -82 -147.5t-203 -51.5q-67 0 -157 33v137q80 -41 143 -41q40 0 67 19t27 53t-25 53.5t-63 19.5q-40 0 -80 -16l-37 41l115 268h172l-86 -184q24 -4 33 -4q79 -13 127.5 -59t48.5 -121z" />
    <glyph glyph-name="onesuperior" unicode="&#xb9;" horiz-adv-x="636" 
d="M262 557v713l-231 -90v202l458 183v-1008h-227z" />
    <glyph glyph-name="guillemotright" unicode="&#xbb;" horiz-adv-x="1150" 
d="M801 121h-289l289 434l-289 416h289l289 -416zM360 121h-288l288 434l-288 416h288l289 -416z" />
    <glyph glyph-name="onequarter" unicode="&#xbc;" horiz-adv-x="2355" 
d="M428 557v713l-231 -90v202l458 183v-1008h-227zM700 0h-251l1155 1536h251zM2222 193h-121v-195h-227v195h-569l391 786h235l-293 -604h236v262h227v-262h121v-182z" />
    <glyph glyph-name="onehalf" unicode="&#xbd;" horiz-adv-x="2355" 
d="M428 557v713l-231 -90v202l458 183v-1008h-227zM688 0h-252l1155 1536h252zM2241 190v-188h-842l391 442q77 90 102 133t25 93q0 58 -43 93.5t-107 35.5q-136 0 -292 -123v219q147 104 346 104q153 0 248.5 -79.5t95.5 -206.5q0 -75 -34 -147.5t-108 -162.5l-174 -213
h392z" />
    <glyph glyph-name="threequarters" unicode="&#xbe;" horiz-adv-x="2371" 
d="M451 537q-164 0 -314 69v211q145 -92 309 -92q78 0 130.5 29.5t52.5 93.5q0 62 -49.5 92.5t-124.5 30.5t-172 -17v176l161 27q144 24 144 117q0 47 -37 69.5t-96 22.5q-145 0 -287 -106v204q134 92 326 92q139 0 232 -69t93 -191q0 -137 -129 -213q83 -34 132.5 -97
t49.5 -148q0 -98 -59.5 -167.5t-153 -101.5t-208.5 -32zM725 0h-252l1155 1536h252zM2245 193h-121v-195h-228v195h-569l391 786h236l-293 -604h235v262h228v-262h121v-182z" />
    <glyph glyph-name="questiondown" unicode="&#xbf;" horiz-adv-x="1112" 
d="M633 1053q80 0 132 -48.5t52 -125.5q0 -76 -52 -126.5t-132 -50.5q-79 0 -129.5 50t-50.5 127q0 78 50 126t130 48zM1087 -45q0 -218 -146 -347.5t-382 -129.5q-218 0 -357 113.5t-139 306.5q0 150 87.5 259t246.5 156l105 35l16 184h227l27 -344l-217 -57
q-91 -26 -147 -78.5t-56 -134.5q0 -87 62.5 -137.5t156.5 -50.5q105 0 173.5 62t68.5 163h274z" />
    <glyph glyph-name="Agrave" unicode="&#xc0;" horiz-adv-x="1552" 
d="M379 1933h350l195 -284h-248zM1202 0l-106 238h-656l-106 -238h-326l760 1579l776 -1579h-342zM547 473h440l-221 488z" />
    <glyph glyph-name="Aacute" unicode="&#xc1;" horiz-adv-x="1552" 
d="M797 1933h352l-299 -284h-248zM1202 0l-106 238h-656l-106 -238h-326l760 1579l776 -1579h-342zM547 473h440l-221 488z" />
    <glyph glyph-name="Acircumflex" unicode="&#xc2;" horiz-adv-x="1552" 
d="M907 1649l-141 129l-143 -129h-256l245 284h306l245 -284h-256zM1202 0l-106 238h-656l-106 -238h-326l760 1579l776 -1579h-342zM547 473h440l-221 488z" />
    <glyph glyph-name="Atilde" unicode="&#xc3;" horiz-adv-x="1552" 
d="M889 1657q-49 0 -135 29.5t-109 29.5q-34 0 -55 -18.5t-21 -50.5h-157q-4 129 56.5 206.5t166.5 77.5q49 0 142 -31.5t110 -31.5q34 0 56 19.5t22 51.5h155q6 -126 -57.5 -204t-173.5 -78zM1202 0l-106 238h-656l-106 -238h-326l760 1579l776 -1579h-342zM547 473h440
l-221 488z" />
    <glyph glyph-name="Adieresis" unicode="&#xc4;" horiz-adv-x="1552" 
d="M559 1657q-66 0 -106.5 39t-40.5 102q0 65 40.5 104.5t106.5 39.5q65 0 105.5 -40t40.5 -104q0 -63 -40.5 -102t-105.5 -39zM973 1657q-66 0 -107 39t-41 102q0 64 41 104t107 40q65 0 105 -40t40 -104q0 -63 -40 -102t-105 -39zM1202 0l-106 238h-656l-106 -238h-326
l760 1579l776 -1579h-342zM547 473h440l-221 488z" />
    <glyph glyph-name="Aring" unicode="&#xc5;" horiz-adv-x="1318" 
d="M659 -16q-138 0 -249 59.5t-183 165.5t-110.5 249.5t-38.5 313.5q0 224 66 399t199 278t316 103q138 0 249 -59.5t183.5 -164.5t111 -247t38.5 -309q0 -228 -66 -404.5t-199 -280t-317 -103.5zM659 260q139 0 212 138t73 374q0 230 -73.5 366t-211.5 136t-211 -136
t-73 -366q0 -237 72.5 -374.5t211.5 -137.5z" />
    <glyph glyph-name="AE" unicode="&#xc6;" horiz-adv-x="2109" 
d="M1049 0v256h-535l-172 -256h-334l1051 1536h962v-266h-673v-352h589v-265h-589v-387h696v-266h-995zM1049 489v564l-381 -564h381z" />
    <glyph glyph-name="Ccedilla" unicode="&#xc7;" horiz-adv-x="1406" 
d="M778 -516q-67 0 -157 33v137q77 -41 141 -41q42 0 69 19t27 53t-25.5 53.5t-62.5 19.5q-40 0 -80 -16l-39 41l88 203q-300 35 -484.5 251t-184.5 531q0 171 58.5 317.5t161.5 250t249 162t317 58.5q272 0 473 -141v-336q-194 197 -469 197q-215 0 -348 -143t-133 -363
q0 -224 139 -367t361 -143q275 0 458 160v-314q-187 -111 -432 -124l-51 -115q40 -4 47 -4q71 -14 115.5 -60t44.5 -120q0 -96 -81.5 -147.5t-201.5 -51.5z" />
    <glyph glyph-name="Egrave" unicode="&#xc8;" horiz-adv-x="1206" 
d="M305 1933h350l195 -284h-248zM147 0v1536h971v-266h-674v-352h590v-265h-590v-387h697v-266h-994z" />
    <glyph glyph-name="Eacute" unicode="&#xc9;" horiz-adv-x="1206" 
d="M657 1933h353l-299 -284h-248zM147 0v1536h971v-266h-674v-352h590v-265h-590v-387h697v-266h-994z" />
    <glyph glyph-name="Ecircumflex" unicode="&#xca;" horiz-adv-x="1206" 
d="M782 1649l-141 129l-143 -129h-256l245 284h306l245 -284h-256zM147 0v1536h971v-266h-674v-352h590v-265h-590v-387h697v-266h-994z" />
    <glyph glyph-name="Edieresis" unicode="&#xcb;" horiz-adv-x="1206" 
d="M440 1655q-66 0 -106.5 39t-40.5 102q0 64 40.5 103.5t106.5 39.5q65 0 105.5 -39.5t40.5 -103.5q0 -63 -40.5 -102t-105.5 -39zM854 1655q-66 0 -106.5 39t-40.5 102q0 64 40.5 103.5t106.5 39.5q65 0 105 -39.5t40 -103.5q0 -63 -40 -102t-105 -39zM147 0v1536h971
v-266h-674v-352h590v-265h-590v-387h697v-266h-994z" />
    <glyph glyph-name="Igrave" unicode="&#xcc;" horiz-adv-x="591" 
d="M-90 1933h350l195 -284h-248zM147 0v1536h297v-1536h-297z" />
    <glyph glyph-name="Iacute" unicode="&#xcd;" horiz-adv-x="598" 
d="M150 139v1104q0 129 84 214t212 85v-1403q0 -72 -43.5 -111.5t-105.5 -39.5q-60 0 -103.5 39.5t-43.5 111.5z" />
    <glyph glyph-name="Icircumflex" unicode="&#xce;" horiz-adv-x="1114" 
d="M782 643l-628 -616q-63 30 -94.5 91t-20 130t64.5 121l424 415q110 108 141 146q72 89 72 170q0 84 -62.5 131t-160.5 47q-93 0 -203.5 -42.5t-203.5 -121.5v311q195 131 432 131q137 0 247 -50.5t177 -152t67 -237.5q0 -127 -66.5 -240.5t-185.5 -232.5zM934 0h-686
l284 274h402q68 0 105.5 -40t37.5 -97t-37.5 -97t-105.5 -40z" />
    <glyph glyph-name="Idieresis" unicode="&#xcf;" horiz-adv-x="1124" 
d="M528 1262h-329q-71 0 -111.5 40.5t-40.5 98.5q0 55 40.5 95t111.5 40h614zM469 -18q-246 0 -418 110l-2 299q199 -141 395 -141q134 0 225 72.5t91 201.5q0 135 -118 209t-327 74h-127l719 702q60 -30 89.5 -90.5t18.5 -129.5t-65 -120l-223 -215q145 -40 239.5 -158
t94.5 -286q0 -122 -46.5 -223t-127 -167t-188 -102t-230.5 -36z" />
    <glyph glyph-name="Eth" unicode="&#xd0;" horiz-adv-x="1650" 
d="M37 889h188v647h568q227 0 405.5 -96t279.5 -271.5t101 -400.5q0 -168 -58 -311.5t-160.5 -243.5t-247.5 -156.5t-314 -56.5h-574v651h-188v238zM891 651h-371v-381h268q220 0 353 136t133 362t-133 362t-353 136h-268v-377h371v-238z" />
    <glyph glyph-name="Ntilde" unicode="&#xd1;" horiz-adv-x="1599" 
d="M952 1655q-49 0 -134.5 29.5t-108.5 29.5q-34 0 -55 -18.5t-21 -50.5h-158q-4 129 56.5 206.5t166.5 77.5q49 0 142 -31.5t110 -31.5q34 0 56 19.5t22 51.5h156q6 -126 -58 -204t-174 -78zM1452 -43l-1008 961v-918h-297v1579l1006 -961v918h299v-1579z" />
    <glyph glyph-name="Ograve" unicode="&#xd2;" horiz-adv-x="1253" 
d="M627 -20q-112 0 -212 31.5t-177 89.5t-122.5 148.5t-45.5 201.5q0 116 56 208t157 152q-146 117 -146 301q0 138 69.5 240.5t179 152t241.5 49.5q98 0 185.5 -29t155.5 -83.5t108 -140t40 -189.5q0 -188 -139 -301q98 -59 152.5 -150.5t54.5 -209.5q0 -147 -79 -256
t-203.5 -162t-274.5 -53zM627 913q91 0 152 53.5t61 139.5q0 92 -63 144.5t-150 52.5q-89 0 -152 -52.5t-63 -144.5q0 -85 63 -139t152 -54zM627 246q110 0 187 56t77 157q0 95 -76.5 156t-187.5 61t-188 -61t-77 -156q0 -99 78 -156t187 -57z" />
    <glyph glyph-name="Oacute" unicode="&#xd3;" horiz-adv-x="1146" 
d="M881 1264h-371v272h371q66 0 102.5 -40t36.5 -95q0 -57 -36 -97t-103 -40zM96 82v293q161 -131 375 -131q140 0 219.5 63.5t79.5 177.5q0 117 -85.5 170.5t-231.5 53.5l-312 -2l-2 553q0 120 79.5 198t209.5 78v-571h80q270 0 420.5 -122.5t150.5 -357.5
q0 -227 -162.5 -366t-416.5 -139q-222 0 -404 102z" />
    <glyph glyph-name="Ocircumflex" unicode="&#xd4;" horiz-adv-x="1216" 
d="M948 1536l-553 -864q-49 -76 -49 -168q0 -107 76.5 -180.5t187.5 -73.5q109 0 186.5 73.5t77.5 180.5q0 129 -99 201.5t-228 50.5l164 254q193 -19 324.5 -164t131.5 -342q0 -145 -74.5 -265.5t-202.5 -189.5t-280 -69q-153 0 -281 69t-202 189.5t-74 265.5
q0 87 28 163.5t93 174.5l440 694h334z" />
    <glyph glyph-name="Otilde" unicode="&#xd5;" horiz-adv-x="1728" 
d="M989 1655q-49 0 -135 29.5t-109 29.5q-34 0 -54.5 -18.5t-20.5 -50.5h-158q-4 129 56.5 206.5t166.5 77.5q49 0 142 -31.5t110 -31.5q34 0 56 19.5t22 51.5h156q6 -126 -58 -204t-174 -78zM1659 772q0 -172 -59 -319.5t-163.5 -251t-252.5 -162.5t-320 -59
q-230 0 -411 100.5t-282 281t-101 410.5q0 227 101.5 406.5t282.5 278.5t410 99q171 0 319 -58t252.5 -160.5t164 -249t59.5 -316.5zM864 260q217 0 353.5 144.5t136.5 365.5t-136.5 363.5t-353.5 142.5t-353 -142.5t-136 -363.5t136 -365.5t353 -144.5z" />
    <glyph glyph-name="Odieresis" unicode="&#xd6;" horiz-adv-x="1728" 
d="M659 1655q-66 0 -106.5 39t-40.5 102q0 64 40.5 103.5t106.5 39.5q65 0 105.5 -39.5t40.5 -103.5q0 -63 -40.5 -102t-105.5 -39zM1073 1655q-66 0 -106.5 39t-40.5 102q0 64 40.5 103.5t106.5 39.5q65 0 105.5 -39.5t40.5 -103.5q0 -63 -40.5 -102t-105.5 -39zM1659 772
q0 -172 -59 -319.5t-163.5 -251t-252.5 -162.5t-320 -59q-230 0 -411 100.5t-282 281t-101 410.5q0 227 101.5 406.5t282.5 278.5t410 99q171 0 319 -58t252.5 -160.5t164 -249t59.5 -316.5zM864 260q217 0 353.5 144.5t136.5 365.5t-136.5 363.5t-353.5 142.5t-353 -142.5
t-136 -363.5t136 -365.5t353 -144.5z" />
    <glyph glyph-name="multiply" unicode="&#xd7;" horiz-adv-x="1273" 
d="M1092 473l-162 -162l-291 291l-295 -293l-164 164l293 295l-293 293l162 162l295 -293l293 293l164 -166l-293 -293z" />
    <glyph glyph-name="Oslash" unicode="&#xd8;" horiz-adv-x="1804" 
d="M1690 772q0 -172 -59 -319.5t-163.5 -251t-252.5 -162.5t-320 -59q-268 0 -469 139l-115 -119h-301l256 266q-166 208 -166 506q0 170 59.5 316.5t164 249t252.5 160.5t319 58q276 0 477 -143l119 123h301l-262 -272q160 -205 160 -492zM406 770q0 -162 75 -281l684 709
q-121 78 -270 78q-217 0 -353 -142.5t-136 -363.5zM1384 770q0 153 -69 270l-682 -706q117 -74 262 -74q217 0 353 144.5t136 365.5z" />
    <glyph glyph-name="Ugrave" unicode="&#xd9;" horiz-adv-x="1548" 
d="M428 1933h350l195 -284h-248zM135 623v913h299v-909q0 -172 91.5 -271.5t248.5 -99.5q155 0 248.5 100t93.5 271v909h297v-913q0 -291 -177 -467t-464 -176q-288 0 -462.5 176t-174.5 467z" />
    <glyph glyph-name="Uacute" unicode="&#xda;" horiz-adv-x="1216" 
d="M268 0l553 864q49 76 49 168q0 107 -76.5 180.5t-187.5 73.5q-109 0 -186.5 -73.5t-77.5 -180.5q0 -129 99.5 -201.5t228.5 -50.5l-164 -254q-193 19 -325 164t-132 342q0 145 74.5 265.5t202.5 189.5t280 69q153 0 281 -69t202 -189.5t74 -265.5q0 -87 -28 -163.5
t-93 -174.5l-440 -694h-334z" />
    <glyph glyph-name="Ucircumflex" unicode="&#xdb;" horiz-adv-x="1548" 
d="M926 1649l-142 129l-143 -129h-256l246 284h305l246 -284h-256zM135 623v913h299v-909q0 -172 91.5 -271.5t248.5 -99.5q155 0 248.5 100t93.5 271v909h297v-913q0 -291 -177 -467t-464 -176q-288 0 -462.5 176t-174.5 467z" />
    <glyph glyph-name="Udieresis" unicode="&#xdc;" horiz-adv-x="1548" 
d="M567 1655q-66 0 -106.5 39t-40.5 102q0 64 40.5 103.5t106.5 39.5q65 0 105.5 -39.5t40.5 -103.5q0 -63 -40.5 -102t-105.5 -39zM981 1655q-66 0 -106.5 39t-40.5 102q0 64 40.5 103.5t106.5 39.5q65 0 105 -39.5t40 -103.5q0 -63 -40 -102t-105 -39zM135 623v913h299
v-909q0 -172 91.5 -271.5t248.5 -99.5q155 0 248.5 100t93.5 271v909h297v-913q0 -291 -177 -467t-464 -176q-288 0 -462.5 176t-174.5 467z" />
    <glyph glyph-name="Yacute" unicode="&#xdd;" horiz-adv-x="1478" 
d="M770 1933h352l-299 -284h-248zM1468 1536l-569 -971v-565h-297v539l-594 997h344l393 -688l394 688h329z" />
    <glyph glyph-name="Thorn" unicode="&#xde;" horiz-adv-x="1290" 
d="M647 248h-203v-248h-297v1536h297v-231h209q248 0 407 -146t159 -383t-161 -382.5t-411 -145.5zM641 1044h-197v-538h197q122 0 196 74.5t74 195.5q0 119 -74 193.5t-196 74.5z" />
    <glyph glyph-name="germandbls" unicode="&#xdf;" horiz-adv-x="1304" 
d="M418 0h-285v1077q0 213 129 346t346 133q183 0 301.5 -89t118.5 -244q0 -84 -53 -193l-47 -108q-39 -77 -39 -117q0 -32 18.5 -56.5t71.5 -58.5l131 -84q166 -112 166 -264q0 -167 -117 -264.5t-301 -97.5q-179 0 -295 77v281q62 -65 139.5 -101t155.5 -36q58 0 93.5 28
t35.5 80q0 60 -67 101l-156 94q-154 91 -154 223q0 85 43 178l49 107q43 91 43 153q0 65 -43 105.5t-112 40.5q-82 0 -127 -54t-45 -137v-1120z" />
    <glyph glyph-name="agrave" unicode="&#xe0;" 
d="M338 1460h350l195 -284h-248zM885 0v117q-118 -137 -305 -137q-225 0 -369.5 150.5t-144.5 381.5q0 235 144 388t370 153q187 0 305 -140v119h286v-1032h-286zM618 788q-113 0 -186.5 -78t-73.5 -198q0 -117 73.5 -192.5t186.5 -75.5q116 0 191.5 75t75.5 193
q0 120 -75.5 198t-191.5 78z" />
    <glyph glyph-name="aacute" unicode="&#xe1;" 
d="M690 1460h352l-299 -284h-247zM885 0v117q-118 -137 -305 -137q-225 0 -369.5 150.5t-144.5 381.5q0 235 144 388t370 153q187 0 305 -140v119h286v-1032h-286zM618 788q-113 0 -186.5 -78t-73.5 -198q0 -117 73.5 -192.5t186.5 -75.5q116 0 191.5 75t75.5 193
q0 120 -75.5 198t-191.5 78z" />
    <glyph glyph-name="acircumflex" unicode="&#xe2;" 
d="M815 1176l-141 129l-144 -129h-256l246 284h305l246 -284h-256zM885 0v117q-118 -137 -305 -137q-225 0 -369.5 150.5t-144.5 381.5q0 235 144 388t370 153q187 0 305 -140v119h286v-1032h-286zM618 788q-113 0 -186.5 -78t-73.5 -198q0 -117 73.5 -192.5t186.5 -75.5
q116 0 191.5 75t75.5 193q0 120 -75.5 198t-191.5 78z" />
    <glyph glyph-name="atilde" unicode="&#xe3;" 
d="M788 1190q-49 0 -134.5 29.5t-108.5 29.5q-34 0 -55 -18.5t-21 -50.5h-158q-4 129 57 206.5t167 77.5q49 0 141.5 -31.5t109.5 -31.5q34 0 56 20t22 52h156q6 -126 -58 -204.5t-174 -78.5zM885 0v117q-118 -137 -305 -137q-225 0 -369.5 150.5t-144.5 381.5
q0 235 144 388t370 153q187 0 305 -140v119h286v-1032h-286zM618 788q-113 0 -186.5 -78t-73.5 -198q0 -117 73.5 -192.5t186.5 -75.5q116 0 191.5 75t75.5 193q0 120 -75.5 198t-191.5 78z" />
    <glyph glyph-name="adieresis" unicode="&#xe4;" 
d="M463 1182q-66 0 -107 39t-41 102q0 64 41 103.5t107 39.5q65 0 105 -39.5t40 -103.5q0 -63 -40 -102t-105 -39zM877 1182q-66 0 -107 39t-41 102q0 64 41 103.5t107 39.5q65 0 105 -39.5t40 -103.5q0 -63 -40 -102t-105 -39zM885 0v117q-118 -137 -305 -137
q-225 0 -369.5 150.5t-144.5 381.5q0 235 144 388t370 153q187 0 305 -140v119h286v-1032h-286zM618 788q-113 0 -186.5 -78t-73.5 -198q0 -117 73.5 -192.5t186.5 -75.5q116 0 191.5 75t75.5 193q0 120 -75.5 198t-191.5 78z" />
    <glyph glyph-name="aring" unicode="&#xe5;" 
d="M674 1579q100 0 164.5 -58t64.5 -155q0 -96 -64.5 -156.5t-164.5 -60.5t-164 59t-64 156q0 96 64.5 155.5t163.5 59.5zM590 1364q0 -37 23.5 -59.5t60.5 -22.5q38 0 61 23t23 61q0 35 -23.5 57.5t-60.5 22.5q-38 0 -61 -22.5t-23 -59.5zM885 0v117q-118 -137 -305 -137
q-225 0 -369.5 150.5t-144.5 381.5q0 235 144 388t370 153q187 0 305 -140v119h286v-1032h-286zM618 788q-113 0 -186.5 -78t-73.5 -198q0 -117 73.5 -192.5t186.5 -75.5q116 0 191.5 75t75.5 193q0 120 -75.5 198t-191.5 78z" />
    <glyph glyph-name="ae" unicode="&#xe6;" horiz-adv-x="1806" 
d="M1651 72q-167 -92 -361 -92q-260 0 -407 147q-197 -147 -420 -147q-111 0 -200.5 36t-145.5 112t-56 181q0 98 52.5 168.5t136 103.5t186.5 33h279q-3 96 -68 149.5t-166 53.5q-159 0 -327 -106v245q166 97 358 97q249 0 373 -156q141 156 358 156q221 0 357.5 -142.5
t136.5 -365.5q0 -59 -6 -121h-709q26 -98 103 -151.5t182 -53.5q186 0 344 96v-243zM1229 827q-94 0 -153 -57t-77 -154h447q-11 99 -67.5 155t-149.5 56zM522 203q141 0 252 90q-28 61 -41 135h-252q-56 0 -92.5 -29.5t-36.5 -79.5q0 -59 48.5 -87.5t121.5 -28.5z" />
    <glyph glyph-name="ccedilla" unicode="&#xe7;" horiz-adv-x="1038" 
d="M840 -317q0 -96 -82 -147.5t-203 -51.5q-68 0 -158 33v137q80 -41 144 -41q40 0 67 19t27 53t-25 53.5t-63 19.5q-37 0 -80 -16l-37 41l86 205q-202 30 -326 173t-124 355q0 239 157.5 388t399.5 149q180 0 317 -86v-287q-118 115 -291 115q-127 0 -209 -77t-82 -200
q0 -125 84.5 -202.5t214.5 -77.5q169 0 287 86v-267q-119 -64 -260 -73l-53 -117q12 0 28 -4q81 -13 131 -58.5t50 -121.5z" />
    <glyph glyph-name="egrave" unicode="&#xe8;" horiz-adv-x="1167" 
d="M219 1460h350l195 -284h-248zM643 -20q-250 0 -413.5 143.5t-163.5 382.5t146.5 393t381.5 154q223 0 364.5 -143t141.5 -367q0 -60 -6 -119h-721q28 -96 107.5 -150.5t193.5 -54.5q179 0 342 94v-237q-167 -96 -373 -96zM365 614h444q-11 95 -67 154t-148 59
q-93 0 -151 -58t-78 -155z" />
    <glyph glyph-name="eacute" unicode="&#xe9;" horiz-adv-x="1167" 
d="M618 1460h353l-299 -284h-248zM643 -20q-250 0 -413.5 143.5t-163.5 382.5t146.5 393t381.5 154q223 0 364.5 -143t141.5 -367q0 -60 -6 -119h-721q28 -96 107.5 -150.5t193.5 -54.5q179 0 342 94v-237q-167 -96 -373 -96zM365 614h444q-11 95 -67 154t-148 59
q-93 0 -151 -58t-78 -155z" />
    <glyph glyph-name="ecircumflex" unicode="&#xea;" horiz-adv-x="1167" 
d="M733 1176l-141 129l-143 -129h-256l245 284h305l246 -284h-256zM643 -20q-250 0 -413.5 143.5t-163.5 382.5t146.5 393t381.5 154q223 0 364.5 -143t141.5 -367q0 -60 -6 -119h-721q28 -96 107.5 -150.5t193.5 -54.5q179 0 342 94v-237q-167 -96 -373 -96zM365 614h444
q-11 95 -67 154t-148 59q-93 0 -151 -58t-78 -155z" />
    <glyph glyph-name="edieresis" unicode="&#xeb;" horiz-adv-x="1167" 
d="M385 1182q-66 0 -106.5 39t-40.5 102q0 64 40.5 103.5t106.5 39.5q65 0 105 -39.5t40 -103.5q0 -63 -40 -102t-105 -39zM799 1182q-66 0 -107 39t-41 102q0 64 41 103.5t107 39.5q65 0 105 -39.5t40 -103.5q0 -63 -40 -102t-105 -39zM643 -20q-250 0 -413.5 143.5
t-163.5 382.5t146.5 393t381.5 154q223 0 364.5 -143t141.5 -367q0 -60 -6 -119h-721q28 -96 107.5 -150.5t193.5 -54.5q179 0 342 94v-237q-167 -96 -373 -96zM365 614h444q-11 95 -67 154t-148 59q-93 0 -151 -58t-78 -155z" />
    <glyph glyph-name="igrave" unicode="&#xec;" horiz-adv-x="563" 
d="M-98 1460h350l194 -284h-247zM139 0v1032h283v-1032h-283z" />
    <glyph glyph-name="iacute" unicode="&#xed;" horiz-adv-x="563" 
d="M311 1460h353l-299 -284h-248zM139 0v1032h283v-1032h-283z" />
    <glyph glyph-name="icircumflex" unicode="&#xee;" horiz-adv-x="563" 
d="M428 1176l-141 129l-144 -129h-256l246 284h305l246 -284h-256zM139 0v1032h283v-1032h-283z" />
    <glyph glyph-name="idieresis" unicode="&#xef;" horiz-adv-x="563" 
d="M78 1182q-66 0 -107 39t-41 102q0 64 41 103.5t107 39.5q65 0 105 -39.5t40 -103.5q0 -63 -40 -102t-105 -39zM492 1182q-66 0 -107 39t-41 102q0 64 41 103.5t107 39.5q65 0 105 -39.5t40 -103.5q0 -63 -40 -102t-105 -39zM139 0v1032h283v-1032h-283z" />
    <glyph glyph-name="eth" unicode="&#xf0;" horiz-adv-x="1191" 
d="M1128 590q0 -129 -38.5 -240.5t-109 -193.5t-176 -129t-233.5 -47q-225 0 -370.5 135.5t-145.5 357.5q0 213 139 349t353 136q144 0 266 -112q-29 210 -186 338l-127 -125h-285l223 221q-112 33 -217 33v231q219 0 400 -82l79 82h285l-186 -188q159 -126 244 -323.5
t85 -442.5zM582 244q106 0 172.5 65.5t66.5 171.5q0 104 -67 170t-172 66q-103 0 -169.5 -67t-66.5 -171q0 -103 66.5 -169t169.5 -66z" />
    <glyph glyph-name="ntilde" unicode="&#xf1;" horiz-adv-x="1236" 
d="M756 1190q-49 0 -135 29.5t-109 29.5q-34 0 -55 -18.5t-21 -50.5h-157q-4 129 56.5 206.5t166.5 77.5q49 0 142 -31.5t110 -31.5q34 0 55.5 20t21.5 52h156q6 -126 -57.5 -204.5t-173.5 -78.5zM422 520v-520h-283v1032h283v-123q124 144 313 144q176 0 279.5 -119
t103.5 -303v-631h-287v561q0 105 -45 162t-137 57q-102 0 -164.5 -75t-62.5 -185z" />
    <glyph glyph-name="ograve" unicode="&#xf2;" horiz-adv-x="1243" 
d="M254 1460h350l195 -284h-248zM629 -20q-244 0 -403.5 152t-159.5 390q0 233 160 382t403 149q237 0 393 -149.5t156 -381.5q0 -157 -71.5 -281t-196.5 -192.5t-281 -68.5zM887 518q0 118 -74 194t-188 76q-117 0 -192 -76t-75 -194q0 -120 75 -197t192 -77q114 0 188 77
t74 197z" />
    <glyph glyph-name="oacute" unicode="&#xf3;" horiz-adv-x="1243" 
d="M668 1460h352l-299 -284h-248zM629 -20q-244 0 -403.5 152t-159.5 390q0 233 160 382t403 149q237 0 393 -149.5t156 -381.5q0 -157 -71.5 -281t-196.5 -192.5t-281 -68.5zM887 518q0 118 -74 194t-188 76q-117 0 -192 -76t-75 -194q0 -120 75 -197t192 -77q114 0 188 77
t74 197z" />
    <glyph glyph-name="ocircumflex" unicode="&#xf4;" horiz-adv-x="1243" 
d="M764 1176l-141 129l-144 -129h-256l246 284h305l246 -284h-256zM629 -20q-244 0 -403.5 152t-159.5 390q0 233 160 382t403 149q237 0 393 -149.5t156 -381.5q0 -157 -71.5 -281t-196.5 -192.5t-281 -68.5zM887 518q0 118 -74 194t-188 76q-117 0 -192 -76t-75 -194
q0 -120 75 -197t192 -77q114 0 188 77t74 197z" />
    <glyph glyph-name="otilde" unicode="&#xf5;" horiz-adv-x="1243" 
d="M748 1184q-49 0 -135 29.5t-109 29.5q-34 0 -55 -18.5t-21 -50.5h-158q-4 129 57 206.5t167 77.5q49 0 141.5 -31.5t109.5 -31.5q34 0 56 19.5t22 51.5h156q6 -126 -57.5 -204t-173.5 -78zM629 -20q-244 0 -403.5 152t-159.5 390q0 233 160 382t403 149q237 0 393 -149.5
t156 -381.5q0 -157 -71.5 -281t-196.5 -192.5t-281 -68.5zM887 518q0 118 -74 194t-188 76q-117 0 -192 -76t-75 -194q0 -120 75 -197t192 -77q114 0 188 77t74 197z" />
    <glyph glyph-name="odieresis" unicode="&#xf6;" horiz-adv-x="1243" 
d="M418 1182q-66 0 -107 39t-41 102q0 64 41 103.5t107 39.5q65 0 105 -39.5t40 -103.5q0 -63 -40 -102t-105 -39zM831 1182q-66 0 -106.5 39t-40.5 102q0 64 40.5 103.5t106.5 39.5q65 0 105.5 -39.5t40.5 -103.5q0 -63 -40.5 -102t-105.5 -39zM629 -20q-244 0 -403.5 152
t-159.5 390q0 233 160 382t403 149q237 0 393 -149.5t156 -381.5q0 -157 -71.5 -281t-196.5 -192.5t-281 -68.5zM887 518q0 118 -74 194t-188 76q-117 0 -192 -76t-75 -194q0 -120 75 -197t192 -77q114 0 188 77t74 197z" />
    <glyph glyph-name="divide" unicode="&#xf7;" horiz-adv-x="1273" 
d="M637 1042q-62 0 -103.5 39t-41.5 99q0 62 41 100.5t104 38.5q61 0 102 -38.5t41 -100.5q0 -58 -41.5 -98t-101.5 -40zM164 659v240h946v-240h-946zM637 240q-62 0 -103.5 38.5t-41.5 98.5q0 61 41.5 100t103.5 39q61 0 102 -39t41 -100q0 -59 -41 -98t-102 -39z" />
    <glyph glyph-name="oslash" unicode="&#xf8;" horiz-adv-x="1343" 
d="M1227 522q0 -157 -71.5 -281t-196.5 -192.5t-281 -68.5q-181 0 -320 88l-69 -68h-295l217 209q-94 133 -94 313q0 233 159 382t402 149q173 0 309 -84l66 63h297l-211 -207q88 -134 88 -303zM408 518q0 -68 24 -123l371 361q-59 32 -129 32q-116 0 -191 -76t-75 -194z
M936 518q0 68 -27 121l-370 -363q62 -32 135 -32q114 0 188 77t74 197z" />
    <glyph glyph-name="ugrave" unicode="&#xf9;" horiz-adv-x="1189" 
d="M233 1460h351l194 -284h-248zM793 451v581h284v-579q0 -216 -133 -344.5t-350 -128.5q-216 0 -349.5 128.5t-133.5 344.5v579h284v-581q0 -99 54.5 -153t144.5 -54q91 0 145 54t54 153z" />
    <glyph glyph-name="uacute" unicode="&#xfa;" horiz-adv-x="1189" 
d="M616 1460h353l-299 -284h-248zM793 451v581h284v-579q0 -216 -133 -344.5t-350 -128.5q-216 0 -349.5 128.5t-133.5 344.5v579h284v-581q0 -99 54.5 -153t144.5 -54q91 0 145 54t54 153z" />
    <glyph glyph-name="ucircumflex" unicode="&#xfb;" horiz-adv-x="1189" 
d="M735 1176l-141 129l-143 -129h-256l245 284h305l246 -284h-256zM793 451v581h284v-579q0 -216 -133 -344.5t-350 -128.5q-216 0 -349.5 128.5t-133.5 344.5v579h284v-581q0 -99 54.5 -153t144.5 -54q91 0 145 54t54 153z" />
    <glyph glyph-name="udieresis" unicode="&#xfc;" horiz-adv-x="1189" 
d="M389 1182q-66 0 -106.5 39t-40.5 102q0 64 40.5 103.5t106.5 39.5q65 0 105.5 -39.5t40.5 -103.5q0 -63 -40.5 -102t-105.5 -39zM803 1182q-66 0 -107 39t-41 102q0 64 41 103.5t107 39.5q65 0 105 -39.5t40 -103.5q0 -63 -40 -102t-105 -39zM793 451v581h284v-579
q0 -216 -133 -344.5t-350 -128.5q-216 0 -349.5 128.5t-133.5 344.5v579h284v-581q0 -99 54.5 -153t144.5 -54q91 0 145 54t54 153z" />
    <glyph glyph-name="yacute" unicode="&#xfd;" horiz-adv-x="1134" 
d="M625 1460h352l-299 -284h-248zM1133 1032l-750 -1544h-297l342 709l-426 835h334l248 -518l250 518h299z" />
    <glyph glyph-name="thorn" unicode="&#xfe;" 
d="M729 -20q-183 0 -307 137v-629h-283v2048h283v-621q125 138 307 138q224 0 369 -151t145 -382q0 -234 -144.5 -387t-369.5 -153zM952 520q0 117 -74.5 192.5t-187.5 75.5q-116 0 -192 -75.5t-76 -192.5q0 -121 76 -198.5t192 -77.5q114 0 188 77.5t74 198.5z" />
    <glyph glyph-name="ydieresis" unicode="&#xff;" horiz-adv-x="1134" 
d="M379 1182q-66 0 -107 39t-41 102q0 64 41 103.5t107 39.5q65 0 105 -39.5t40 -103.5q0 -63 -40 -102t-105 -39zM793 1182q-66 0 -107 39t-41 102q0 64 41 103.5t107 39.5q65 0 105 -39.5t40 -103.5q0 -63 -40 -102t-105 -39zM1133 1032l-750 -1544h-297l342 709l-426 835
h334l248 -518l250 518h299z" />
    <glyph glyph-name="Amacron" unicode="&#x100;" horiz-adv-x="1552" 
d="M440 1898h647v-212h-647v212zM1202 0l-106 238h-656l-106 -238h-326l760 1579l776 -1579h-342zM547 473h440l-221 488z" />
    <glyph glyph-name="amacron" unicode="&#x101;" 
d="M342 1425h647v-213h-647v213zM885 0v117q-118 -137 -305 -137q-225 0 -369.5 150.5t-144.5 381.5q0 235 144 388t370 153q187 0 305 -140v119h286v-1032h-286zM618 788q-113 0 -186.5 -78t-73.5 -198q0 -117 73.5 -192.5t186.5 -75.5q116 0 191.5 75t75.5 193
q0 120 -75.5 198t-191.5 78z" />
    <glyph glyph-name="Abreve" unicode="&#x102;" horiz-adv-x="1552" 
d="M766 1825q53 0 87.5 31.5t35.5 80.5h219q-3 -132 -97.5 -218.5t-244.5 -86.5t-243 86.5t-95 218.5h215q3 -50 37 -81t86 -31zM1202 0l-106 238h-656l-106 -238h-326l760 1579l776 -1579h-342zM547 473h440l-221 488z" />
    <glyph glyph-name="abreve" unicode="&#x103;" 
d="M688 1352q53 0 87.5 31.5t35.5 80.5h219q-3 -132 -97.5 -218.5t-244.5 -86.5t-243 86.5t-95 218.5h215q3 -50 37 -81t86 -31zM885 0v117q-118 -137 -305 -137q-225 0 -369.5 150.5t-144.5 381.5q0 235 144 388t370 153q187 0 305 -140v119h286v-1032h-286zM618 788
q-113 0 -186.5 -78t-73.5 -198q0 -117 73.5 -192.5t186.5 -75.5q116 0 191.5 75t75.5 193q0 120 -75.5 198t-191.5 78z" />
    <glyph glyph-name="Aogonek" unicode="&#x104;" horiz-adv-x="1552" 
d="M1321 -518q-98 0 -169.5 52t-88.5 144q-28 195 139 322l-106 238h-656l-106 -238h-326l760 1579l776 -1579h-88q-89 -44 -137 -109t-31 -147q7 -38 35.5 -61t67.5 -23q35 0 65 12v-159q-74 -31 -135 -31zM766 961l-219 -488h440z" />
    <glyph glyph-name="aogonek" unicode="&#x105;" 
d="M995 -518q-99 0 -171 52t-89 144q-32 198 150 328v111q-118 -137 -305 -137q-225 0 -369.5 150.5t-144.5 381.5q0 235 144 388t370 153q187 0 305 -140v119h286v-1032l-55 -8q-81 -41 -125 -105t-30 -143q7 -38 35.5 -61t66.5 -23q37 0 67 12v-159q-74 -31 -135 -31z
M618 244q116 0 191.5 75t75.5 193q0 120 -75.5 198t-191.5 78q-113 0 -186.5 -78t-73.5 -198q0 -117 73.5 -192.5t186.5 -75.5z" />
    <glyph glyph-name="Cacute" unicode="&#x106;" horiz-adv-x="1406" 
d="M850 1933h352l-299 -284h-248zM846 -20q-227 0 -404.5 101.5t-274.5 280.5t-97 406q0 171 58.5 317.5t161.5 250t249 162t317 58.5q272 0 473 -141v-336q-194 197 -469 197q-215 0 -348 -143t-133 -363q0 -224 139 -367t361 -143q275 0 458 160v-314q-210 -126 -491 -126
z" />
    <glyph glyph-name="cacute" unicode="&#x107;" horiz-adv-x="1038" 
d="M612 1460h353l-299 -284h-248zM358 518q0 -125 84.5 -202.5t214.5 -77.5q169 0 287 86v-267q-140 -77 -323 -77q-244 0 -399.5 149t-155.5 387q0 239 157.5 388t399.5 149q180 0 317 -86v-287q-118 115 -291 115q-127 0 -209 -77t-82 -200z" />
    <glyph glyph-name="Ccircumflex" unicode="&#x108;" horiz-adv-x="1406" 
d="M991 1649l-141 129l-143 -129h-256l245 284h305l246 -284h-256zM846 -20q-227 0 -404.5 101.5t-274.5 280.5t-97 406q0 171 58.5 317.5t161.5 250t249 162t317 58.5q272 0 473 -141v-336q-194 197 -469 197q-215 0 -348 -143t-133 -363q0 -224 139 -367t361 -143
q275 0 458 160v-314q-210 -126 -491 -126z" />
    <glyph glyph-name="ccircumflex" unicode="&#x109;" horiz-adv-x="1038" 
d="M737 1176l-141 129l-143 -129h-256l245 284h306l245 -284h-256zM358 518q0 -125 84.5 -202.5t214.5 -77.5q169 0 287 86v-267q-140 -77 -323 -77q-244 0 -399.5 149t-155.5 387q0 239 157.5 388t399.5 149q180 0 317 -86v-287q-118 115 -291 115q-127 0 -209 -77
t-82 -200z" />
    <glyph glyph-name="Cdotaccent" unicode="&#x10a;" horiz-adv-x="1406" 
d="M838 1657q-66 0 -112 45t-46 110q0 66 46 114t112 48q58 0 106 -39l156 -118l-154 -121q-51 -39 -108 -39zM846 -20q-227 0 -404.5 101.5t-274.5 280.5t-97 406q0 171 58.5 317.5t161.5 250t249 162t317 58.5q272 0 473 -141v-336q-194 197 -469 197q-215 0 -348 -143
t-133 -363q0 -224 139 -367t361 -143q275 0 458 160v-314q-210 -126 -491 -126z" />
    <glyph glyph-name="cdotaccent" unicode="&#x10b;" horiz-adv-x="1038" 
d="M565 1182q-66 0 -111.5 45t-45.5 110q0 66 45.5 114t111.5 48q59 0 107 -39l155 -119l-153 -120q-51 -39 -109 -39zM358 518q0 -125 84.5 -202.5t214.5 -77.5q169 0 287 86v-267q-140 -77 -323 -77q-244 0 -399.5 149t-155.5 387q0 239 157.5 388t399.5 149
q180 0 317 -86v-287q-118 115 -291 115q-127 0 -209 -77t-82 -200z" />
    <glyph glyph-name="Ccaron" unicode="&#x10c;" horiz-adv-x="1406" 
d="M1253 1933l-252 -284h-305l-252 284h263l143 -129l141 129h262zM846 -20q-227 0 -404.5 101.5t-274.5 280.5t-97 406q0 171 58.5 317.5t161.5 250t249 162t317 58.5q272 0 473 -141v-336q-194 197 -469 197q-215 0 -348 -143t-133 -363q0 -224 139 -367t361 -143
q275 0 458 160v-314q-210 -126 -491 -126z" />
    <glyph glyph-name="ccaron" unicode="&#x10d;" horiz-adv-x="1038" 
d="M993 1460l-252 -284h-305l-252 284h262l144 -129l141 129h262zM358 518q0 -125 84.5 -202.5t214.5 -77.5q169 0 287 86v-267q-140 -77 -323 -77q-244 0 -399.5 149t-155.5 387q0 239 157.5 388t399.5 149q180 0 317 -86v-287q-118 115 -291 115q-127 0 -209 -77t-82 -200
z" />
    <glyph glyph-name="Dcaron" unicode="&#x10e;" horiz-adv-x="1570" 
d="M1141 1933l-252 -284h-305l-252 284h262l143 -129l142 129h262zM147 0v1536h568q227 0 406 -96t279.5 -271.5t100.5 -400.5q0 -168 -58 -311.5t-160.5 -243.5t-247.5 -156.5t-314 -56.5h-574zM709 1266h-267v-996h267q221 0 354 136t133 362t-133 362t-354 136z" />
    <glyph glyph-name="dcaron" unicode="&#x10f;" horiz-adv-x="1540" 
d="M885 0v117q-121 -137 -305 -137q-225 0 -369.5 150.5t-144.5 381.5q0 234 144.5 387.5t369.5 153.5q184 0 305 -140v623h286v-1536h-286zM1438 1139h-176l61 397h268zM618 788q-113 0 -186.5 -78t-73.5 -198q0 -117 73.5 -192.5t186.5 -75.5q116 0 191.5 75t75.5 193
q0 120 -75.5 198t-191.5 78z" />
    <glyph glyph-name="Dcroat" unicode="&#x110;" horiz-adv-x="1636" 
d="M23 889h190v647h567q227 0 406 -96t280 -271.5t101 -400.5q0 -224 -99.5 -399.5t-277.5 -272t-404 -96.5h-573v651h-190v238zM877 651h-369v-381h266q221 0 354.5 136t133.5 362q0 225 -134 361.5t-354 136.5h-266v-377h369v-238z" />
    <glyph glyph-name="dcroat" unicode="&#x111;" 
d="M885 0v117q-121 -137 -305 -137q-225 0 -369.5 150.5t-144.5 381.5q0 234 144.5 387.5t369.5 153.5q184 0 305 -140v269h-238v194h238v160h286v-160h138v-194h-138v-1182h-286zM885 512q0 120 -75.5 198t-191.5 78q-113 0 -186.5 -78t-73.5 -198q0 -117 73.5 -192.5
t186.5 -75.5q116 0 191.5 75.5t75.5 192.5z" />
    <glyph glyph-name="Emacron" unicode="&#x112;" horiz-adv-x="1206" 
d="M322 1898h647v-212h-647v212zM147 0v1536h971v-266h-674v-352h590v-265h-590v-387h697v-266h-994z" />
    <glyph glyph-name="emacron" unicode="&#x113;" horiz-adv-x="1167" 
d="M252 1425h647v-213h-647v213zM643 -20q-250 0 -413.5 143.5t-163.5 382.5t146.5 393t381.5 154q223 0 364.5 -143t141.5 -367q0 -60 -6 -119h-721q28 -96 107.5 -150.5t193.5 -54.5q179 0 342 94v-237q-167 -96 -373 -96zM365 614h444q-11 95 -67 154t-148 59
q-93 0 -151 -58t-78 -155z" />
    <glyph glyph-name="Ebreve" unicode="&#x114;" horiz-adv-x="1206" 
d="M647 1825q53 0 87.5 31.5t35.5 80.5h219q-3 -132 -97.5 -218.5t-244.5 -86.5t-243 86.5t-95 218.5h215q3 -50 37 -81t86 -31zM147 0v1536h971v-266h-674v-352h590v-265h-590v-387h697v-266h-994z" />
    <glyph glyph-name="ebreve" unicode="&#x115;" horiz-adv-x="1167" 
d="M586 1352q53 0 87.5 31.5t35.5 80.5h219q-3 -132 -97.5 -218.5t-244.5 -86.5t-243 86.5t-95 218.5h215q3 -50 37 -81t86 -31zM643 -20q-250 0 -413.5 143.5t-163.5 382.5t146.5 393t381.5 154q223 0 364.5 -143t141.5 -367q0 -60 -6 -119h-721q28 -96 107.5 -150.5
t193.5 -54.5q179 0 342 94v-237q-167 -96 -373 -96zM365 614h444q-11 95 -67 154t-148 59q-93 0 -151 -58t-78 -155z" />
    <glyph glyph-name="Edotaccent" unicode="&#x116;" horiz-adv-x="1206" 
d="M621 1655q-66 0 -112 45t-46 110q0 66 46 114t112 48q58 0 106 -39l156 -118l-154 -121q-51 -39 -108 -39zM147 0v1536h971v-266h-674v-352h590v-265h-590v-387h697v-266h-994z" />
    <glyph glyph-name="edotaccent" unicode="&#x117;" horiz-adv-x="1167" 
d="M555 1182q-66 0 -112 45t-46 110q0 66 46 114t112 48q59 0 107 -39l155 -119l-153 -120q-51 -39 -109 -39zM643 -20q-250 0 -413.5 143.5t-163.5 382.5t146.5 393t381.5 154q223 0 364.5 -143t141.5 -367q0 -60 -6 -119h-721q28 -96 107.5 -150.5t193.5 -54.5
q179 0 342 94v-237q-167 -96 -373 -96zM365 614h444q-11 95 -67 154t-148 59q-93 0 -151 -58t-78 -155z" />
    <glyph glyph-name="Eogonek" unicode="&#x118;" horiz-adv-x="1206" 
d="M1006 -518q-98 0 -169.5 52t-88.5 144q-28 191 137 322h-738v1536h971v-266h-674v-352h590v-265h-590v-387h697v-266q-89 -44 -137 -109t-31 -147q8 -38 35 -61t65 -23t68 12v-159q-74 -31 -135 -31z" />
    <glyph glyph-name="eogonek" unicode="&#x119;" horiz-adv-x="1167" 
d="M860 -516q-98 0 -170.5 53t-87.5 144q-26 174 113 303q-50 -4 -72 -4q-266 0 -421.5 143t-155.5 379q0 239 146 395t382 156q228 0 367 -141.5t139 -368.5q0 -57 -6 -119h-721q26 -99 105.5 -152t195.5 -53q178 0 340 96v-243q-63 -37 -115 -92q-96 -110 -74 -236
q7 -37 36 -59.5t67 -22.5q37 0 67 12v-159q-74 -31 -135 -31zM365 614h444q-11 98 -66.5 152.5t-148.5 54.5q-95 0 -153 -55t-76 -152z" />
    <glyph glyph-name="Ecaron" unicode="&#x11a;" horiz-adv-x="1206" 
d="M1063 1933l-252 -284h-305l-252 284h262l143 -129l142 129h262zM147 0v1536h971v-266h-674v-352h590v-265h-590v-387h697v-266h-994z" />
    <glyph glyph-name="ecaron" unicode="&#x11b;" horiz-adv-x="1167" 
d="M989 1460l-252 -284h-305l-252 284h262l144 -129l141 129h262zM643 -20q-250 0 -413.5 143.5t-163.5 382.5t146.5 393t381.5 154q223 0 364.5 -143t141.5 -367q0 -60 -6 -119h-721q28 -96 107.5 -150.5t193.5 -54.5q179 0 342 94v-237q-167 -96 -373 -96zM365 614h444
q-11 95 -67 154t-148 59q-93 0 -151 -58t-78 -155z" />
    <glyph glyph-name="Gcircumflex" unicode="&#x11c;" horiz-adv-x="1562" 
d="M997 1649l-141 129l-143 -129h-256l245 284h306l245 -284h-256zM1460 158q-293 -178 -610 -178q-227 0 -405.5 100.5t-276.5 280t-98 407.5q0 229 103 409t286.5 279.5t414.5 99.5q292 0 508 -147v-326q-97 99 -225 150t-272 51q-222 0 -364 -143.5t-142 -368.5
t139.5 -368.5t360.5 -143.5q161 0 290 66v303h-350v231h641v-702z" />
    <glyph glyph-name="gcircumflex" unicode="&#x11d;" 
d="M819 1176l-141 129l-143 -129h-256l245 284h305l246 -284h-256zM1171 10q0 -256 -151.5 -399t-413.5 -143q-225 0 -416 114v281q90 -70 194 -106t204 -36q141 0 219 71.5t78 203.5v119q-122 -135 -305 -135q-225 0 -369.5 151.5t-144.5 382.5q0 153 65 276t183 193
t266 70q183 0 305 -138v117h286v-1022zM885 512q0 120 -75.5 198t-191.5 78q-113 0 -186.5 -78t-73.5 -198q0 -117 73.5 -192.5t186.5 -75.5q116 0 191.5 75t75.5 193z" />
    <glyph glyph-name="Gbreve" unicode="&#x11e;" horiz-adv-x="1562" 
d="M846 1825q53 0 87.5 31.5t35.5 80.5h219q-3 -132 -97.5 -218.5t-244.5 -86.5t-243 86.5t-95 218.5h215q3 -50 37 -81t86 -31zM1460 158q-293 -178 -610 -178q-227 0 -405.5 100.5t-276.5 280t-98 407.5q0 229 103 409t286.5 279.5t414.5 99.5q292 0 508 -147v-326
q-97 99 -225 150t-272 51q-222 0 -364 -143.5t-142 -368.5t139.5 -368.5t360.5 -143.5q161 0 290 66v303h-350v231h641v-702z" />
    <glyph glyph-name="gbreve" unicode="&#x11f;" 
d="M684 1352q53 0 87.5 31.5t35.5 80.5h219q-3 -132 -97.5 -218.5t-244.5 -86.5t-243 86.5t-95 218.5h215q3 -50 37 -81t86 -31zM1171 10q0 -256 -151.5 -399t-413.5 -143q-225 0 -416 114v281q90 -70 194 -106t204 -36q141 0 219 71.5t78 203.5v119q-122 -135 -305 -135
q-225 0 -369.5 151.5t-144.5 382.5q0 153 65 276t183 193t266 70q183 0 305 -138v117h286v-1022zM885 512q0 120 -75.5 198t-191.5 78q-113 0 -186.5 -78t-73.5 -198q0 -117 73.5 -192.5t186.5 -75.5q116 0 191.5 75t75.5 193z" />
    <glyph glyph-name="Gdotaccent" unicode="&#x120;" horiz-adv-x="1562" 
d="M829 1655q-66 0 -111.5 45t-45.5 110q0 66 45.5 114t111.5 48q59 0 107 -39l156 -118l-154 -121q-51 -39 -109 -39zM1460 158q-293 -178 -610 -178q-227 0 -405.5 100.5t-276.5 280t-98 407.5q0 229 103 409t286.5 279.5t414.5 99.5q292 0 508 -147v-326q-97 99 -225 150
t-272 51q-222 0 -364 -143.5t-142 -368.5t139.5 -368.5t360.5 -143.5q161 0 290 66v303h-350v231h641v-702z" />
    <glyph glyph-name="gdotaccent" unicode="&#x121;" 
d="M676 1182q-66 0 -112 45t-46 110q0 66 46 114t112 48q58 0 106 -39l156 -119l-154 -120q-51 -39 -108 -39zM1171 10q0 -256 -151.5 -399t-413.5 -143q-225 0 -416 114v281q90 -70 194 -106t204 -36q141 0 219 71.5t78 203.5v119q-122 -135 -305 -135q-225 0 -369.5 151.5
t-144.5 382.5q0 153 65 276t183 193t266 70q183 0 305 -138v117h286v-1022zM885 512q0 120 -75.5 198t-191.5 78q-113 0 -186.5 -78t-73.5 -198q0 -117 73.5 -192.5t186.5 -75.5q116 0 191.5 75t75.5 193z" />
    <glyph glyph-name="Gcommaaccent" unicode="&#x122;" horiz-adv-x="1562" 
d="M1460 158q-293 -178 -610 -178q-227 0 -405.5 100.5t-276.5 280t-98 407.5q0 229 103 409t286.5 279.5t414.5 99.5q292 0 508 -147v-326q-97 99 -225 150t-272 51q-222 0 -364 -143.5t-142 -368.5t139.5 -368.5t360.5 -143.5q161 0 290 66v303h-350v231h641v-702z
M709 -119h272l-211 -342h-178z" />
    <glyph glyph-name="gcommaaccent" unicode="&#x123;" 
d="M745 1497h181l-119 -342h-272zM1171 10q0 -256 -151.5 -399t-413.5 -143q-225 0 -416 114v281q90 -70 194 -106t204 -36q141 0 219 71.5t78 203.5v119q-122 -135 -305 -135q-225 0 -369.5 151.5t-144.5 382.5q0 153 65 276t183 193t266 70q183 0 305 -138v117h286v-1022z
M885 512q0 120 -75.5 198t-191.5 78q-113 0 -186.5 -78t-73.5 -198q0 -117 73.5 -192.5t186.5 -75.5q116 0 191.5 75t75.5 193z" />
    <glyph glyph-name="Hcircumflex" unicode="&#x124;" horiz-adv-x="1597" 
d="M940 1649l-141 129l-144 -129h-256l246 284h305l246 -284h-256zM1151 0v668h-707v-668h-297v1536h297v-606h707v606h297v-1536h-297z" />
    <glyph glyph-name="hcircumflex" unicode="&#x125;" horiz-adv-x="1236" 
d="M727 1647l-141 129l-144 -129h-256l246 284h305l246 -284h-256zM422 520v-520h-283v1536h283v-627q124 144 313 144q176 0 279.5 -119t103.5 -303v-631h-287v561q0 105 -45 162t-137 57q-102 0 -164.5 -75t-62.5 -185z" />
    <glyph glyph-name="Hbar" unicode="&#x126;" horiz-adv-x="1597" 
d="M1151 0v668h-707v-668h-297v1135h-145v196h145v205h297v-205h707v205h297v-205h145v-196h-145v-1135h-297zM444 930h707v205h-707v-205z" />
    <glyph glyph-name="hbar" unicode="&#x127;" horiz-adv-x="1245" 
d="M432 520v-520h-285v1182h-159v194h159v160h285v-160h217v-194h-217v-273q121 144 311 144q176 0 279.5 -119t103.5 -303v-631h-286v561q0 219 -183 219q-100 0 -162.5 -75t-62.5 -185z" />
    <glyph glyph-name="Itilde" unicode="&#x128;" horiz-adv-x="591" 
d="M418 1657q-49 0 -135 29.5t-109 29.5q-34 0 -55 -18.5t-21 -50.5h-157q-4 129 56.5 206.5t166.5 77.5q49 0 142 -31.5t110 -31.5q34 0 56 19.5t22 51.5h155q6 -126 -57.5 -204t-173.5 -78zM147 0v1536h297v-1536h-297z" />
    <glyph glyph-name="itilde" unicode="&#x129;" horiz-adv-x="563" 
d="M408 1190q-49 0 -135 29.5t-109 29.5q-34 0 -55 -18.5t-21 -50.5h-158q-4 129 57 206.5t167 77.5q49 0 142 -31.5t110 -31.5q34 0 55.5 20t21.5 52h156q6 -126 -57.5 -204.5t-173.5 -78.5zM139 0v1032h283v-1032h-283z" />
    <glyph glyph-name="Imacron" unicode="&#x12a;" horiz-adv-x="591" 
d="M-29 1898h647v-212h-647v212zM147 0v1536h297v-1536h-297z" />
    <glyph glyph-name="imacron" unicode="&#x12b;" horiz-adv-x="563" 
d="M-41 1425h647v-213h-647v213zM139 0v1032h283v-1032h-283z" />
    <glyph glyph-name="Ibreve" unicode="&#x12c;" horiz-adv-x="591" 
d="M295 1825q53 0 87.5 31.5t35.5 80.5h219q-3 -132 -97.5 -218.5t-244.5 -86.5t-243 86.5t-95 218.5h215q3 -50 37 -81t86 -31zM147 0v1536h297v-1536h-297z" />
    <glyph glyph-name="ibreve" unicode="&#x12d;" horiz-adv-x="563" 
d="M283 1352q53 0 87.5 31.5t35.5 80.5h219q-3 -132 -97.5 -218.5t-244.5 -86.5t-243 86.5t-95 218.5h215q3 -50 37 -81t86 -31zM139 0v1032h283v-1032h-283z" />
    <glyph glyph-name="Iogonek" unicode="&#x12e;" horiz-adv-x="591" 
d="M399 -487q-74 -31 -135 -31q-98 0 -169.5 52t-88.5 144q-32 192 141 324v1534h297v-1536l-65 -10q-80 -44 -122 -106t-26 -140q7 -38 35 -61t66 -23q37 0 67 12v-159z" />
    <glyph glyph-name="iogonek" unicode="&#x12f;" horiz-adv-x="563" 
d="M256 1182q-66 0 -112 45t-46 110q0 66 46 114t112 48q58 0 106 -39l156 -119l-153 -120q-51 -39 -109 -39zM248 -518q-98 0 -170.5 52.5t-89.5 143.5q-32 198 149 328v1026h285v-1032l-72 -20q-73 -42 -112 -102t-25 -134q7 -38 35.5 -61t66.5 -23t68 12v-159
q-74 -31 -135 -31z" />
    <glyph glyph-name="Idotaccent" unicode="&#x130;" horiz-adv-x="591" 
d="M270 1655q-66 0 -111.5 45t-45.5 110q0 66 45.5 114t111.5 48q59 0 107 -39l155 -118l-153 -121q-51 -39 -109 -39zM147 0v1536h297v-1536h-297z" />
    <glyph glyph-name="dotlessi" unicode="&#x131;" horiz-adv-x="563" 
d="M139 0v1032h283v-1032h-283z" />
    <glyph glyph-name="IJ" unicode="&#x132;" horiz-adv-x="1529" 
d="M147 0v1536h297v-1536h-297zM901 -20q-75 0 -151.5 21.5t-131.5 57.5v283q65 -45 138.5 -68.5t128.5 -23.5q104 0 158.5 54.5t54.5 158.5v1073h299v-1057q0 -245 -129 -372t-367 -127z" />
    <glyph glyph-name="ij" unicode="&#x133;" horiz-adv-x="1142" 
d="M256 1182q-66 0 -112 45t-46 110q0 66 46 114t112 48q58 0 106 -39l156 -119l-153 -120q-51 -39 -109 -39zM838 1182q-66 0 -112 45t-46 110q0 66 46 114t112 48q58 0 106 -39l156 -119l-154 -120q-51 -39 -108 -39zM137 0v1032h285v-1032h-285zM434 -489v239
q68 -35 135 -35q66 0 109 40t43 108v1169h283v-1173q0 -180 -100.5 -285.5t-270.5 -105.5q-106 0 -199 43z" />
    <glyph glyph-name="Jcircumflex" unicode="&#x134;" horiz-adv-x="950" 
d="M803 1649l-141 129l-144 -129h-256l246 284h305l246 -284h-256zM319 -20q-75 0 -151 21.5t-131 57.5v283q65 -45 138 -68.5t128 -23.5q104 0 158.5 54.5t54.5 158.5v1073h299v-1057q0 -245 -129 -372t-367 -127z" />
    <glyph glyph-name="jcircumflex" unicode="&#x135;" horiz-adv-x="563" 
d="M426 1176l-141 129l-144 -129h-256l246 284h305l246 -284h-256zM63 -532q-116 0 -210 43v239q66 -35 145 -35q64 0 102.5 39.5t38.5 102.5v1175h283v-1184q0 -172 -96 -276t-263 -104z" />
    <glyph glyph-name="Kcommaaccent" unicode="&#x136;" horiz-adv-x="1437" 
d="M1083 0l-452 664l-187 -209v-455h-297v1536h297v-678l588 678h365l-566 -643l613 -893h-361zM602 -119h272l-210 -342h-179z" />
    <glyph glyph-name="kcommaaccent" unicode="&#x137;" horiz-adv-x="1179" 
d="M836 0l-287 420l-127 -133v-287h-283v1536h283v-903l373 399h331l-385 -407l437 -625h-342zM487 -119h273l-211 -342h-178z" />
    <glyph glyph-name="Lacute" unicode="&#x139;" horiz-adv-x="1155" 
d="M330 1933h352l-299 -284h-248zM1110 268v-268h-963v1536h297v-1268h666z" />
    <glyph glyph-name="lacute" unicode="&#x13a;" horiz-adv-x="563" 
d="M309 1935h353l-300 -284h-247zM139 0v1536h283v-1536h-283z" />
    <glyph glyph-name="Lcommaaccent" unicode="&#x13b;" horiz-adv-x="1155" 
d="M1110 268v-268h-963v1536h297v-1268h666zM494 -119h272l-211 -342h-178z" />
    <glyph glyph-name="lcommaaccent" unicode="&#x13c;" horiz-adv-x="563" 
d="M139 0v1536h283v-1536h-283zM141 -119h273l-211 -342h-178z" />
    <glyph glyph-name="Lcaron" unicode="&#x13d;" horiz-adv-x="1155" 
d="M1110 268v-268h-963v1536h297v-1268h666zM758 1139h-176l61 397h268z" />
    <glyph glyph-name="lcaron" unicode="&#x13e;" horiz-adv-x="796" 
d="M139 0v1536h283v-1536h-283zM690 1139h-176l61 397h269z" />
    <glyph glyph-name="Ldot" unicode="&#x13f;" horiz-adv-x="1155" 
d="M1110 268v-268h-963v1536h297v-1268h666zM850 719q-70 0 -119 46t-49 116q0 69 49 114t119 45t118 -45t48 -114q0 -70 -48 -116t-118 -46z" />
    <glyph glyph-name="ldot" unicode="&#x140;" horiz-adv-x="825" 
d="M139 0v1536h283v-1536h-283zM688 627q-70 0 -119 46t-49 115t49 114.5t119 45.5t118 -45t48 -115t-48 -115.5t-118 -45.5z" />
    <glyph glyph-name="Lslash" unicode="&#x141;" horiz-adv-x="1241" 
d="M1196 268v-268h-960v545l-218 -144v273l218 141v721h296v-526l254 166v-267l-254 -166v-475h664z" />
    <glyph glyph-name="lslash" unicode="&#x142;" horiz-adv-x="724" 
d="M717 825l-205 -133v-692h-285v500l-194 -127v264l194 127v772h285v-584l205 133v-260z" />
    <glyph glyph-name="Nacute" unicode="&#x143;" horiz-adv-x="1599" 
d="M799 1933h352l-299 -284h-248zM1452 -43l-1008 961v-918h-297v1579l1006 -961v918h299v-1579z" />
    <glyph glyph-name="nacute" unicode="&#x144;" horiz-adv-x="1236" 
d="M645 1460h352l-299 -284h-247zM422 520v-520h-283v1032h283v-123q124 144 313 144q176 0 279.5 -119t103.5 -303v-631h-287v561q0 105 -45 162t-137 57q-102 0 -164.5 -75t-62.5 -185z" />
    <glyph glyph-name="Ncommaaccent" unicode="&#x145;" horiz-adv-x="1599" 
d="M1452 -43l-1008 961v-918h-297v1579l1006 -961v918h299v-1579zM729 -119h272l-210 -342h-179z" />
    <glyph glyph-name="ncommaaccent" unicode="&#x146;" horiz-adv-x="1236" 
d="M422 520v-520h-283v1032h283v-123q124 144 313 144q176 0 279.5 -119t103.5 -303v-631h-287v561q0 105 -45 162t-137 57q-102 0 -164.5 -75t-62.5 -185zM498 -119h272l-211 -342h-178z" />
    <glyph glyph-name="Ncaron" unicode="&#x147;" horiz-adv-x="1599" 
d="M1229 1933l-252 -284h-305l-252 284h262l143 -129l142 129h262zM1452 -43l-1008 961v-918h-297v1579l1006 -961v918h299v-1579z" />
    <glyph glyph-name="ncaron" unicode="&#x148;" horiz-adv-x="1236" 
d="M1049 1460l-252 -284h-305l-252 284h262l143 -129l141 129h263zM422 520v-520h-283v1032h283v-123q124 144 313 144q176 0 279.5 -119t103.5 -303v-631h-287v561q0 105 -45 162t-137 57q-102 0 -164.5 -75t-62.5 -185z" />
    <glyph glyph-name="Omacron" unicode="&#x14c;" horiz-adv-x="1728" 
d="M539 1898h647v-212h-647v212zM1659 772q0 -172 -59 -319.5t-163.5 -251t-252.5 -162.5t-320 -59q-230 0 -411 100.5t-282 281t-101 410.5q0 227 101.5 406.5t282.5 278.5t410 99q171 0 319 -58t252.5 -160.5t164 -249t59.5 -316.5zM864 260q217 0 353.5 144.5
t136.5 365.5t-136.5 363.5t-353.5 142.5t-353 -142.5t-136 -363.5t136 -365.5t353 -144.5z" />
    <glyph glyph-name="omacron" unicode="&#x14d;" horiz-adv-x="1243" 
d="M293 1425h647v-213h-647v213zM629 -20q-244 0 -403.5 152t-159.5 390q0 233 160 382t403 149q237 0 393 -149.5t156 -381.5q0 -157 -71.5 -281t-196.5 -192.5t-281 -68.5zM887 518q0 118 -74 194t-188 76q-117 0 -192 -76t-75 -194q0 -120 75 -197t192 -77q114 0 188 77
t74 197z" />
    <glyph glyph-name="Obreve" unicode="&#x14e;" horiz-adv-x="1728" 
d="M860 1825q53 0 87.5 31.5t35.5 80.5h219q-3 -132 -97.5 -218.5t-244.5 -86.5t-243 86.5t-95 218.5h215q3 -50 37 -81t86 -31zM1659 772q0 -172 -59 -319.5t-163.5 -251t-252.5 -162.5t-320 -59q-230 0 -411 100.5t-282 281t-101 410.5q0 227 101.5 406.5t282.5 278.5
t410 99q171 0 319 -58t252.5 -160.5t164 -249t59.5 -316.5zM864 260q217 0 353.5 144.5t136.5 365.5t-136.5 363.5t-353.5 142.5t-353 -142.5t-136 -363.5t136 -365.5t353 -144.5z" />
    <glyph glyph-name="obreve" unicode="&#x14f;" horiz-adv-x="1243" 
d="M618 1352q53 0 87.5 31.5t35.5 80.5h220q-3 -132 -98 -218.5t-245 -86.5t-242.5 86t-94.5 219h215q3 -50 36.5 -81t85.5 -31zM629 -20q-244 0 -403.5 152t-159.5 390q0 233 160 382t403 149q237 0 393 -149.5t156 -381.5q0 -157 -71.5 -281t-196.5 -192.5t-281 -68.5z
M887 518q0 118 -74 194t-188 76q-117 0 -192 -76t-75 -194q0 -120 75 -197t192 -77q114 0 188 77t74 197z" />
    <glyph glyph-name="Ohungarumlaut" unicode="&#x150;" horiz-adv-x="1728" 
d="M670 1692h-205l156 284h282zM1018 1692h-207l162 284h293zM1659 772q0 -172 -59 -319.5t-163.5 -251t-252.5 -162.5t-320 -59q-230 0 -411 100.5t-282 281t-101 410.5q0 227 101.5 406.5t282.5 278.5t410 99q171 0 319 -58t252.5 -160.5t164 -249t59.5 -316.5zM864 260
q217 0 353.5 144.5t136.5 365.5t-136.5 363.5t-353.5 142.5t-353 -142.5t-136 -363.5t136 -365.5t353 -144.5z" />
    <glyph glyph-name="ohungarumlaut" unicode="&#x151;" horiz-adv-x="1243" 
d="M426 1176h-205l156 284h282zM774 1176h-207l162 284h293zM629 -20q-244 0 -403.5 152t-159.5 390q0 233 160 382t403 149q237 0 393 -149.5t156 -381.5q0 -157 -71.5 -281t-196.5 -192.5t-281 -68.5zM887 518q0 118 -74 194t-188 76q-117 0 -192 -76t-75 -194
q0 -120 75 -197t192 -77q114 0 188 77t74 197z" />
    <glyph glyph-name="OE" unicode="&#x152;" horiz-adv-x="2068" 
d="M70 766q0 226 95 400.5t272 272t409 97.5h1134v-266h-673v-352h589v-265h-589v-387h696v-266h-1151q-174 0 -320.5 56t-247.5 156t-157.5 242.5t-56.5 311.5zM860 270h150v996h-150q-224 0 -354.5 -139.5t-130.5 -360.5q0 -222 130 -359t355 -137z" />
    <glyph glyph-name="oe" unicode="&#x153;" horiz-adv-x="1988" 
d="M627 -20q-160 0 -287.5 68.5t-200.5 192.5t-73 281q0 154 73.5 275.5t201.5 188.5t286 67q127 0 232.5 -45.5t176.5 -130.5q140 176 387 176q223 0 359.5 -141.5t136.5 -368.5q0 -57 -6 -119h-717q26 -98 103.5 -151.5t189.5 -53.5q186 0 344 96v-243q-170 -92 -371 -92
q-286 0 -430 174q-71 -84 -175.5 -129t-229.5 -45zM1186 614h442q-11 99 -67.5 156t-149.5 57q-95 0 -152 -57.5t-73 -155.5zM625 244q115 0 186.5 77.5t71.5 196.5t-71 194.5t-187 75.5q-118 0 -192.5 -75.5t-74.5 -194.5q0 -120 74.5 -197t192.5 -77z" />
    <glyph glyph-name="Racute" unicode="&#x154;" horiz-adv-x="1325" 
d="M637 1933h352l-299 -284h-248zM147 0v1536h515q246 0 397 -140.5t151 -373.5q0 -159 -81 -278.5t-216 -178.5l377 -565h-352l-330 512h-164v-512h-297zM637 1276h-193v-506h193q124 0 195 67.5t71 184.5t-71 185.5t-195 68.5z" />
    <glyph glyph-name="racute" unicode="&#x155;" horiz-adv-x="792" 
d="M459 1460h352l-299 -284h-248zM422 451v-451h-283v1032h283v-186q131 207 358 207v-314q-93 20 -174 -7.5t-132.5 -101t-51.5 -179.5z" />
    <glyph glyph-name="Rcommaaccent" unicode="&#x156;" horiz-adv-x="1325" 
d="M147 0v1536h515q246 0 397 -140.5t151 -373.5q0 -159 -81 -278.5t-216 -178.5l377 -565h-352l-330 512h-164v-512h-297zM637 1276h-193v-506h193q124 0 195 67.5t71 184.5t-71 185.5t-195 68.5zM569 -119h273l-211 -342h-178z" />
    <glyph glyph-name="rcommaaccent" unicode="&#x157;" horiz-adv-x="792" 
d="M422 451v-451h-283v1032h283v-186q131 207 358 207v-314q-93 20 -174 -7.5t-132.5 -101t-51.5 -179.5zM152 -119h272l-211 -342h-178z" />
    <glyph glyph-name="Rcaron" unicode="&#x158;" horiz-adv-x="1325" 
d="M1051 1933l-252 -284h-305l-252 284h262l143 -129l141 129h263zM147 0v1536h515q246 0 397 -140.5t151 -373.5q0 -159 -81 -278.5t-216 -178.5l377 -565h-352l-330 512h-164v-512h-297zM637 1276h-193v-506h193q124 0 195 67.5t71 184.5t-71 185.5t-195 68.5z" />
    <glyph glyph-name="rcaron" unicode="&#x159;" horiz-adv-x="792" 
d="M872 1460l-251 -284h-306l-252 284h263l143 -129l141 129h262zM422 451v-451h-283v1032h283v-186q131 207 358 207v-314q-93 20 -174 -7.5t-132.5 -101t-51.5 -179.5z" />
    <glyph glyph-name="Sacute" unicode="&#x15a;" horiz-adv-x="1179" 
d="M639 1933h352l-299 -284h-248zM629 1300q-93 0 -152 -42t-59 -123q0 -52 31 -89t96 -71l307 -152q140 -69 206 -157t66 -215q0 -213 -154.5 -342t-396.5 -129q-287 0 -485 145v340q124 -113 253.5 -170t238.5 -57q97 0 159 40.5t62 118.5q0 58 -29 94t-108 78l-289 140
q-137 66 -206 160t-69 239q0 135 69.5 238t188 156.5t267.5 53.5q244 0 417 -108v-322q-224 174 -413 174z" />
    <glyph glyph-name="sacute" unicode="&#x15b;" horiz-adv-x="919" 
d="M514 1460h352l-299 -284h-248zM80 348q171 -160 360 -160q63 0 99 24.5t36 66.5q0 29 -15.5 49.5t-55.5 38.5l-193 79q-75 32 -122.5 67t-77 91.5t-29.5 132.5q0 147 106.5 231.5t284.5 84.5q191 0 328 -84v-260q-75 66 -159 103.5t-155 37.5q-58 0 -91.5 -23t-33.5 -63
q0 -32 17.5 -51.5t62.5 -36.5l201 -86q112 -48 164.5 -111t52.5 -157q0 -159 -119 -250.5t-307 -91.5q-206 0 -354 98v270z" />
    <glyph glyph-name="Scircumflex" unicode="&#x15c;" horiz-adv-x="1179" 
d="M782 1649l-141 129l-143 -129h-256l245 284h306l245 -284h-256zM629 1300q-93 0 -152 -42t-59 -123q0 -52 31 -89t96 -71l307 -152q140 -69 206 -157t66 -215q0 -213 -154.5 -342t-396.5 -129q-287 0 -485 145v340q124 -113 253.5 -170t238.5 -57q97 0 159 40.5t62 118.5
q0 58 -29 94t-108 78l-289 140q-137 66 -206 160t-69 239q0 135 69.5 238t188 156.5t267.5 53.5q244 0 417 -108v-322q-224 174 -413 174z" />
    <glyph glyph-name="scircumflex" unicode="&#x15d;" horiz-adv-x="919" 
d="M633 1176l-141 129l-144 -129h-256l246 284h305l246 -284h-256zM80 348q171 -160 360 -160q63 0 99 24.5t36 66.5q0 29 -15.5 49.5t-55.5 38.5l-193 79q-75 32 -122.5 67t-77 91.5t-29.5 132.5q0 147 106.5 231.5t284.5 84.5q191 0 328 -84v-260q-75 66 -159 103.5
t-155 37.5q-58 0 -91.5 -23t-33.5 -63q0 -32 17.5 -51.5t62.5 -36.5l201 -86q112 -48 164.5 -111t52.5 -157q0 -159 -119 -250.5t-307 -91.5q-206 0 -354 98v270z" />
    <glyph glyph-name="Scedilla" unicode="&#x15e;" horiz-adv-x="1179" 
d="M543 -516q-70 0 -156 33v137q77 -41 141 -41q40 0 67.5 19t27.5 53t-25 53.5t-63 19.5q-37 0 -80 -16l-37 41l86 199q-254 20 -416 143v340q124 -113 253.5 -170t238.5 -57q97 0 159 40.5t62 118.5q0 58 -29 94t-108 78l-289 140q-137 66 -206 160t-69 239
q0 135 69.5 238t188 156.5t267.5 53.5q244 0 417 -108v-322q-224 174 -413 174q-93 0 -152 -42t-59 -123q0 -52 31 -89t96 -71l307 -152q140 -69 206 -157t66 -215q0 -188 -123.5 -313t-326.5 -152l-56 -119q7 0 27 -4q82 -11 132 -57t50 -123q0 -96 -81 -147.5t-203 -51.5z
" />
    <glyph glyph-name="scedilla" unicode="&#x15f;" horiz-adv-x="919" 
d="M707 -317q0 -96 -82 -147.5t-203 -51.5q-68 0 -158 33v137q80 -41 144 -41q40 0 67 19t27 53t-25 53.5t-63 19.5q-40 0 -80 -16l-37 41l84 199q-174 12 -301 96v270q171 -160 360 -160q63 0 99 24.5t36 66.5q0 29 -15.5 49.5t-55.5 38.5l-193 79q-75 32 -122.5 67
t-77 91.5t-29.5 132.5q0 147 106.5 231.5t284.5 84.5q191 0 328 -84v-260q-75 66 -159 103.5t-155 37.5q-58 0 -91.5 -23t-33.5 -63q0 -32 17.5 -51.5t62.5 -36.5l201 -86q112 -48 164.5 -111t52.5 -157q0 -131 -83 -217t-222 -113l-57 -125q34 -3 61 -12q67 -16 107.5 -60
t40.5 -112z" />
    <glyph glyph-name="Scaron" unicode="&#x160;" horiz-adv-x="1179" 
d="M1028 1933l-252 -284h-305l-252 284h262l144 -129l141 129h262zM629 1300q-93 0 -152 -42t-59 -123q0 -52 31 -89t96 -71l307 -152q140 -69 206 -157t66 -215q0 -213 -154.5 -342t-396.5 -129q-287 0 -485 145v340q124 -113 253.5 -170t238.5 -57q97 0 159 40.5t62 118.5
q0 58 -29 94t-108 78l-289 140q-137 66 -206 160t-69 239q0 135 69.5 238t188 156.5t267.5 53.5q244 0 417 -108v-322q-224 174 -413 174z" />
    <glyph glyph-name="scaron" unicode="&#x161;" horiz-adv-x="919" 
d="M909 1460l-252 -284h-305l-252 284h262l144 -129l141 129h262zM80 348q171 -160 360 -160q63 0 99 24.5t36 66.5q0 29 -15.5 49.5t-55.5 38.5l-193 79q-75 32 -122.5 67t-77 91.5t-29.5 132.5q0 147 106.5 231.5t284.5 84.5q191 0 328 -84v-260q-75 66 -159 103.5
t-155 37.5q-58 0 -91.5 -23t-33.5 -63q0 -32 17.5 -51.5t62.5 -36.5l201 -86q112 -48 164.5 -111t52.5 -157q0 -159 -119 -250.5t-307 -91.5q-206 0 -354 98v270z" />
    <glyph glyph-name="uni0162" unicode="&#x162;" horiz-adv-x="1306" 
d="M1276 1268h-473v-1268h-299v1268h-475v268h1247v-268zM514 -119h272l-211 -342h-178z" />
    <glyph glyph-name="uni0163" unicode="&#x163;" horiz-adv-x="829" 
d="M784 51q-107 -71 -270 -71q-395 0 -395 411v940h284v-299h371v-241h-371v-385q0 -84 46.5 -125t123.5 -41q120 0 211 59v-248zM340 -119h272l-211 -342h-178z" />
    <glyph glyph-name="Tcaron" unicode="&#x164;" horiz-adv-x="1306" 
d="M1061 1933l-252 -284h-305l-252 284h262l143 -129l142 129h262zM1276 1268h-473v-1268h-299v1268h-475v268h1247v-268z" />
    <glyph glyph-name="tcaron" unicode="&#x165;" horiz-adv-x="829" 
d="M682 1159h-176l61 397h269zM784 51q-107 -71 -270 -71q-395 0 -395 411v940h284v-299h371v-241h-371v-385q0 -84 46.5 -125t123.5 -41q120 0 211 59v-248z" />
    <glyph glyph-name="Tbar" unicode="&#x166;" horiz-adv-x="1306" 
d="M29 1268v268h1247v-268h-473v-498h225v-219h-225v-551h-299v551h-225v219h225v498h-475z" />
    <glyph glyph-name="tbar" unicode="&#x167;" horiz-adv-x="835" 
d="M522 -20q-395 0 -395 409v942h285v-299h370v-241h-370v-166h368v-172h-368l2 -66q4 -76 49 -111.5t117 -35.5q122 0 211 57v-246q-104 -71 -269 -71z" />
    <glyph glyph-name="Utilde" unicode="&#x168;" horiz-adv-x="1548" 
d="M924 1655q-49 0 -135 29.5t-109 29.5q-34 0 -55 -18.5t-21 -50.5h-158q-4 129 57 206.5t167 77.5q49 0 142 -31.5t110 -31.5q34 0 55.5 19.5t21.5 51.5h156q6 -126 -57.5 -204t-173.5 -78zM135 623v913h299v-909q0 -172 91.5 -271.5t248.5 -99.5q155 0 248.5 100
t93.5 271v909h297v-913q0 -291 -177 -467t-464 -176q-288 0 -462.5 176t-174.5 467z" />
    <glyph glyph-name="utilde" unicode="&#x169;" horiz-adv-x="1189" 
d="M737 1184q-49 0 -134.5 29.5t-108.5 29.5q-34 0 -55 -18.5t-21 -50.5h-158q-4 129 56.5 206.5t166.5 77.5q49 0 142 -31.5t110 -31.5q34 0 56 19.5t22 51.5h156q6 -126 -58 -204t-174 -78zM793 451v581h284v-579q0 -216 -133 -344.5t-350 -128.5q-216 0 -349.5 128.5
t-133.5 344.5v579h284v-581q0 -99 54.5 -153t144.5 -54q91 0 145 54t54 153z" />
    <glyph glyph-name="Umacron" unicode="&#x16a;" horiz-adv-x="1548" 
d="M451 1898h647v-212h-647v212zM135 623v913h299v-909q0 -172 91.5 -271.5t248.5 -99.5q155 0 248.5 100t93.5 271v909h297v-913q0 -291 -177 -467t-464 -176q-288 0 -462.5 176t-174.5 467z" />
    <glyph glyph-name="umacron" unicode="&#x16b;" horiz-adv-x="1189" 
d="M268 1425h647v-213h-647v213zM793 451v581h284v-579q0 -216 -133 -344.5t-350 -128.5q-216 0 -349.5 128.5t-133.5 344.5v579h284v-581q0 -99 54.5 -153t144.5 -54q91 0 145 54t54 153z" />
    <glyph glyph-name="Ubreve" unicode="&#x16c;" horiz-adv-x="1548" 
d="M772 1825q53 0 87.5 31.5t35.5 80.5h219q-3 -132 -97.5 -218.5t-244.5 -86.5t-243 86.5t-95 218.5h215q3 -50 37 -81t86 -31zM135 623v913h299v-909q0 -172 91.5 -271.5t248.5 -99.5q155 0 248.5 100t93.5 271v909h297v-913q0 -291 -177 -467t-464 -176
q-288 0 -462.5 176t-174.5 467z" />
    <glyph glyph-name="ubreve" unicode="&#x16d;" horiz-adv-x="1189" 
d="M590 1352q53 0 87.5 31.5t35.5 80.5h219q-3 -132 -97.5 -218.5t-244.5 -86.5t-243 86.5t-95 218.5h215q3 -50 37 -81t86 -31zM793 451v581h284v-579q0 -216 -133 -344.5t-350 -128.5q-216 0 -349.5 128.5t-133.5 344.5v579h284v-581q0 -99 54.5 -153t144.5 -54
q91 0 145 54t54 153z" />
    <glyph glyph-name="Uring" unicode="&#x16e;" horiz-adv-x="1548" 
d="M774 1999q100 0 165 -58t65 -155q0 -96 -65 -156.5t-165 -60.5t-163.5 59t-63.5 156q0 96 64 155.5t163 59.5zM690 1784q0 -37 23.5 -59.5t60.5 -22.5q38 0 61 23t23 61q0 35 -23.5 57.5t-60.5 22.5q-38 0 -61 -22.5t-23 -59.5zM135 623v913h299v-909q0 -172 91.5 -271.5
t248.5 -99.5q155 0 248.5 100t93.5 271v909h297v-913q0 -291 -177 -467t-464 -176q-288 0 -462.5 176t-174.5 467z" />
    <glyph glyph-name="uring" unicode="&#x16f;" horiz-adv-x="1189" 
d="M590 1577q100 0 164.5 -58t64.5 -155q0 -96 -64.5 -156.5t-164.5 -60.5t-164 59t-64 156q0 96 64.5 155.5t163.5 59.5zM506 1362q0 -37 23.5 -59.5t60.5 -22.5q38 0 61 23t23 61q0 35 -23.5 57.5t-60.5 22.5q-38 0 -61 -22.5t-23 -59.5zM793 451v581h284v-579
q0 -216 -133 -344.5t-350 -128.5q-216 0 -349.5 128.5t-133.5 344.5v579h284v-581q0 -99 54.5 -153t144.5 -54q91 0 145 54t54 153z" />
    <glyph glyph-name="Uhungarumlaut" unicode="&#x170;" horiz-adv-x="1548" 
d="M580 1692h-205l155 284h283zM928 1692h-207l162 284h293zM135 623v913h299v-909q0 -172 91.5 -271.5t248.5 -99.5q155 0 248.5 100t93.5 271v909h297v-913q0 -291 -177 -467t-464 -176q-288 0 -462.5 176t-174.5 467z" />
    <glyph glyph-name="uhungarumlaut" unicode="&#x171;" horiz-adv-x="1189" 
d="M399 1176h-204l155 284h283zM748 1176h-207l161 284h293zM793 451v581h284v-579q0 -216 -133 -344.5t-350 -128.5q-216 0 -349.5 128.5t-133.5 344.5v579h284v-581q0 -99 54.5 -153t144.5 -54q91 0 145 54t54 153z" />
    <glyph glyph-name="Uogonek" unicode="&#x172;" horiz-adv-x="1548" 
d="M961 -516q-113 0 -187.5 66t-75.5 182q-3 140 117 250h-43q-288 0 -462.5 175t-174.5 466v913h299v-909q0 -170 91.5 -269.5t248.5 -99.5q155 0 248.5 100t93.5 269v909h297v-913q0 -193 -82 -340t-229 -226q-183 -112 -180 -270q2 -55 29 -90t77 -35q36 0 70 12v-159
q-77 -31 -137 -31z" />
    <glyph glyph-name="uogonek" unicode="&#x173;" horiz-adv-x="1189" 
d="M737 -516q-98 0 -169.5 52.5t-88.5 144.5q-28 177 113 299h-19q-209 6 -335.5 133.5t-126.5 339.5v579h284v-581q0 -99 54.5 -153t144.5 -54q91 0 145 54t54 153v581h284v-579q0 -132 -50 -232.5t-142 -161.5q-217 -142 -183 -313q6 -38 35 -61t68 -23q35 0 69 12v-159
q-78 -31 -137 -31z" />
    <glyph glyph-name="Wcircumflex" unicode="&#x174;" horiz-adv-x="2326" 
d="M1313 1649l-142 129l-143 -129h-256l246 284h305l246 -284h-256zM2312 1536l-717 -1579l-430 956l-440 -956l-711 1579h342l381 -899l434 942l428 -938l381 895h332z" />
    <glyph glyph-name="wcircumflex" unicode="&#x175;" horiz-adv-x="1665" 
d="M981 1176l-141 129l-144 -129h-256l246 284h305l246 -284h-256zM1661 1032l-492 -1071l-323 600l-334 -600l-510 1071h328l223 -500l293 537l291 -534l219 497h305z" />
    <glyph glyph-name="Ycircumflex" unicode="&#x176;" horiz-adv-x="1478" 
d="M883 1649l-142 129l-143 -129h-256l246 284h305l246 -284h-256zM1468 1536l-569 -971v-565h-297v539l-594 997h344l393 -688l394 688h329z" />
    <glyph glyph-name="ycircumflex" unicode="&#x177;" horiz-adv-x="1134" 
d="M721 1176l-141 129l-144 -129h-256l246 284h305l246 -284h-256zM1133 1032l-750 -1544h-297l342 709l-426 835h334l248 -518l250 518h299z" />
    <glyph glyph-name="Ydieresis" unicode="&#x178;" horiz-adv-x="1478" 
d="M537 1655q-66 0 -107 39t-41 102q0 64 41 103.5t107 39.5q65 0 105 -39.5t40 -103.5q0 -63 -40 -102t-105 -39zM950 1655q-66 0 -106.5 39t-40.5 102q0 64 40.5 103.5t106.5 39.5q65 0 105.5 -39.5t40.5 -103.5q0 -63 -40.5 -102t-105.5 -39zM1468 1536l-569 -971v-565
h-297v539l-594 997h344l393 -688l394 688h329z" />
    <glyph glyph-name="Zacute" unicode="&#x179;" horiz-adv-x="1359" 
d="M717 1933h352l-299 -284h-248zM1292 262v-262h-1265l800 1272h-737v264h1237l-790 -1274h755z" />
    <glyph glyph-name="zacute" unicode="&#x17a;" horiz-adv-x="1007" 
d="M528 1460h353l-299 -284h-248zM946 242v-242h-917l497 791h-444v241h887l-488 -790h465z" />
    <glyph glyph-name="Zdotaccent" unicode="&#x17b;" horiz-adv-x="1359" 
d="M659 1655q-66 0 -111.5 45t-45.5 110q0 66 45.5 114t111.5 48q59 0 107 -39l156 -118l-154 -121q-51 -39 -109 -39zM1292 262v-262h-1265l800 1272h-737v264h1237l-790 -1274h755z" />
    <glyph glyph-name="zdotaccent" unicode="&#x17c;" horiz-adv-x="1007" 
d="M483 1182q-66 0 -111.5 45t-45.5 110q0 66 45.5 114t111.5 48q59 0 107 -39l155 -119l-153 -120q-51 -39 -109 -39zM946 242v-242h-917l497 791h-444v241h887l-488 -790h465z" />
    <glyph glyph-name="Zcaron" unicode="&#x17d;" horiz-adv-x="1359" 
d="M1106 1933l-252 -284h-305l-252 284h262l143 -129l142 129h262zM1292 262v-262h-1265l800 1272h-737v264h1237l-790 -1274h755z" />
    <glyph glyph-name="zcaron" unicode="&#x17e;" horiz-adv-x="1007" 
d="M922 1460l-252 -284h-305l-252 284h262l143 -129l141 129h263zM946 242v-242h-917l497 791h-444v241h887l-488 -790h465z" />
    <glyph glyph-name="florin" unicode="&#x192;" horiz-adv-x="1085" 
d="M614 340q-32 -167 -141 -263.5t-285 -96.5q-104 0 -184 38v240q80 -39 156 -39q153 0 186 170l143 737q19 98 51.5 173.5t84 134.5t127 90.5t172.5 31.5q110 0 190 -38v-244q-76 39 -149 39q-157 0 -191 -168l-22 -113h301v-241h-348z" />
    <glyph glyph-name="Ohorn" unicode="&#x1a0;" horiz-adv-x="1728" 
d="M864 -20q-230 0 -411 100.5t-282 281t-101 410.5q0 227 101.5 406.5t282.5 278.5t410 99q205 0 365 -77h20q66 0 103 39t37 108v115h284v-119q0 -258 -198 -328q184 -209 184 -522q0 -172 -59 -319.5t-163.5 -251t-252.5 -162.5t-320 -59zM864 260q217 0 353.5 144.5
t136.5 365.5t-136.5 363.5t-353.5 142.5t-353 -142.5t-136 -363.5t136 -365.5t353 -144.5z" />
    <glyph glyph-name="ohorn" unicode="&#x1a1;" horiz-adv-x="1243" 
d="M629 -20q-244 0 -403.5 152t-159.5 390q0 233 160 382t403 149q115 0 213 -37q64 1 99.5 40t35.5 107v86h285v-90q0 -247 -183 -321q99 -140 99 -316q0 -157 -71.5 -281t-196.5 -192.5t-281 -68.5zM887 518q0 118 -74 194t-188 76q-117 0 -192 -76t-75 -194
q0 -120 75 -197t192 -77q114 0 188 77t74 197z" />
    <glyph glyph-name="Uhorn" unicode="&#x1af;" horiz-adv-x="1548" 
d="M135 623v913h299v-909q0 -172 91.5 -271.5t248.5 -99.5q155 0 248.5 100t93.5 271v909h178q65 0 92 28t27 97v86h285v-90q0 -157 -73.5 -242.5t-211.5 -103.5v-688q0 -291 -177 -467t-464 -176q-288 0 -462.5 176t-174.5 467z" />
    <glyph glyph-name="uhorn" unicode="&#x1b0;" horiz-adv-x="1189" 
d="M793 451v581h147q65 0 102 41t37 111v86h285v-90q0 -157 -74 -244t-213 -105v-378q0 -216 -133 -344.5t-350 -128.5q-216 0 -349.5 128.5t-133.5 344.5v579h284v-581q0 -99 54.5 -153t144.5 -54q91 0 145 54t54 153z" />
    <glyph glyph-name="uni0218" unicode="&#x218;" horiz-adv-x="1179" 
d="M629 1300q-93 0 -152 -42t-59 -123q0 -52 31 -89t96 -71l307 -152q140 -69 206 -157t66 -215q0 -213 -154.5 -342t-396.5 -129q-287 0 -485 145v340q124 -113 253.5 -170t238.5 -57q97 0 159 40.5t62 118.5q0 58 -29 94t-108 78l-289 140q-137 66 -206 160t-69 239
q0 135 69.5 238t188 156.5t267.5 53.5q244 0 417 -108v-322q-224 174 -413 174zM467 -119h272l-211 -342h-178z" />
    <glyph glyph-name="uni0219" unicode="&#x219;" horiz-adv-x="919" 
d="M80 348q171 -160 360 -160q63 0 99 24.5t36 66.5q0 29 -15.5 49.5t-55.5 38.5l-193 79q-75 32 -122.5 67t-77 91.5t-29.5 132.5q0 147 106.5 231.5t284.5 84.5q191 0 328 -84v-260q-75 66 -159 103.5t-155 37.5q-58 0 -91.5 -23t-33.5 -63q0 -32 17.5 -51.5t62.5 -36.5
l201 -86q112 -48 164.5 -111t52.5 -157q0 -159 -119 -250.5t-307 -91.5q-206 0 -354 98v270zM344 -119h272l-210 -342h-179z" />
    <glyph glyph-name="uni021A" unicode="&#x21a;" horiz-adv-x="1306" 
d="M1276 1268h-473v-1268h-299v1268h-475v268h1247v-268zM514 -119h272l-211 -342h-178z" />
    <glyph glyph-name="uni021B" unicode="&#x21b;" horiz-adv-x="829" 
d="M784 51q-107 -71 -270 -71q-395 0 -395 411v940h284v-299h371v-241h-371v-385q0 -84 46.5 -125t123.5 -41q120 0 211 59v-248zM340 -119h272l-211 -342h-178z" />
    <glyph glyph-name="dotlessj" unicode="&#x237;" horiz-adv-x="563" 
d="M63 -532q-116 0 -210 43v239q66 -35 145 -35q64 0 102.5 39.5t38.5 102.5v1175h283v-1184q0 -172 -96 -276t-263 -104z" />
    <glyph glyph-name="circumflex" unicode="&#x2c6;" horiz-adv-x="1112" 
d="M700 1176l-141 129l-143 -129h-256l246 284h305l245 -284h-256z" />
    <glyph glyph-name="caron" unicode="&#x2c7;" horiz-adv-x="1112" 
d="M963 1460l-252 -284h-305l-252 284h262l143 -129l141 129h263z" />
    <glyph glyph-name="breve" unicode="&#x2d8;" horiz-adv-x="1112" 
d="M563 1352q53 0 87.5 31.5t35.5 80.5h219q-3 -132 -97.5 -218.5t-244.5 -86.5t-243 86.5t-95 218.5h215q3 -50 37 -81t86 -31z" />
    <glyph glyph-name="dotaccent" unicode="&#x2d9;" horiz-adv-x="1015" 
d="M510 1182q-66 0 -112 45t-46 110q0 66 46 114t112 48q58 0 106 -39l156 -119l-154 -120q-51 -39 -108 -39z" />
    <glyph glyph-name="ring" unicode="&#x2da;" horiz-adv-x="1112" 
d="M559 1577q100 0 164.5 -58t64.5 -155q0 -96 -64.5 -156.5t-164.5 -60.5t-163.5 59t-63.5 156q0 96 64 155.5t163 59.5zM475 1362q0 -37 23.5 -59.5t60.5 -22.5q38 0 61 23t23 61q0 35 -23.5 57.5t-60.5 22.5q-38 0 -61 -22.5t-23 -59.5z" />
    <glyph glyph-name="ogonek" unicode="&#x2db;" horiz-adv-x="1069" 
d="M410 -322q-13 82 11 153t77.5 124t123.5 91.5t156 64.5l27 -111q-90 -44 -139 -109t-31 -147q7 -38 35.5 -61t66.5 -23t68 12v-159q-77 -31 -135 -31q-99 0 -171 52t-89 144z" />
    <glyph glyph-name="tilde" unicode="&#x2dc;" horiz-adv-x="1112" 
d="M692 1184q-49 0 -134.5 29.5t-108.5 29.5q-34 0 -55 -18.5t-21 -50.5h-158q-4 129 56.5 206.5t166.5 77.5q49 0 142 -31.5t110 -31.5q34 0 56 19.5t22 51.5h156q6 -126 -58 -204t-174 -78z" />
    <glyph glyph-name="hungarumlaut" unicode="&#x2dd;" horiz-adv-x="1257" 
d="M799 1325l-623 -975q-51 16 -86.5 54t-50 85t-7.5 101t36 100l499 785q21 34 51.5 53t61 21t60 -6t51 -29.5t33 -48.5t5.5 -64.5t-30 -75.5zM1030 0h-280v332h-488l172 266h316v311l280 138v-449h74q52 0 87.5 -27.5t44 -66.5t0.5 -78t-44 -66.5t-88 -27.5h-74v-332z" />
    <glyph glyph-name="gravecomb" unicode="&#x300;" horiz-adv-x="1112" 
d="M164 1460h350l195 -284h-248z" />
    <glyph glyph-name="acutecomb" unicode="&#x301;" horiz-adv-x="1112" 
d="M623 1460h352l-299 -284h-248z" />
    <glyph glyph-name="uni0302" unicode="&#x302;" horiz-adv-x="1112" 
d="M700 1176l-141 129l-143 -129h-256l246 284h305l245 -284h-256z" />
    <glyph glyph-name="tildecomb" unicode="&#x303;" horiz-adv-x="1112" 
d="M692 1184q-49 0 -134.5 29.5t-108.5 29.5q-34 0 -55 -18.5t-21 -50.5h-158q-4 129 56.5 206.5t166.5 77.5q49 0 142 -31.5t110 -31.5q34 0 56 19.5t22 51.5h156q6 -126 -58 -204t-174 -78z" />
    <glyph glyph-name="uni0304" unicode="&#x304;" horiz-adv-x="1112" 
d="M238 1425h647v-213h-647v213z" />
    <glyph glyph-name="uni0306" unicode="&#x306;" horiz-adv-x="1112" 
d="M563 1352q53 0 87.5 31.5t35.5 80.5h219q-3 -132 -97.5 -218.5t-244.5 -86.5t-243 86.5t-95 218.5h215q3 -50 37 -81t86 -31z" />
    <glyph glyph-name="uni0307" unicode="&#x307;" horiz-adv-x="0" 
d="M-23 1182q-66 0 -111.5 45t-45.5 110q0 66 45.5 114t111.5 48q59 0 107 -39l156 -119l-154 -120q-51 -39 -109 -39z" />
    <glyph glyph-name="uni0308" unicode="&#x308;" horiz-adv-x="0" 
d="M-205 1182q-66 0 -106.5 39t-40.5 102q0 64 40.5 103.5t106.5 39.5q65 0 105.5 -39.5t40.5 -103.5q0 -63 -40.5 -102t-105.5 -39zM209 1182q-66 0 -107 39t-41 102q0 64 41 103.5t107 39.5q65 0 105 -39.5t40 -103.5q0 -63 -40 -102t-105 -39z" />
    <glyph glyph-name="hookabovecomb" unicode="&#x309;" horiz-adv-x="0" 
d="M111 1389h-205q82 73 116.5 115t34.5 73q0 32 -18 48.5t-49 16.5q-29 0 -49.5 -18.5t-20.5 -48.5h-158q0 96 64.5 155.5t163.5 59.5q100 0 164.5 -57t64.5 -152q0 -87 -108 -192z" />
    <glyph glyph-name="uni030A" unicode="&#x30a;" horiz-adv-x="1112" 
d="M559 1577q100 0 164.5 -58t64.5 -155q0 -96 -64.5 -156.5t-164.5 -60.5t-163.5 59t-63.5 156q0 96 64 155.5t163 59.5zM475 1362q0 -37 23.5 -59.5t60.5 -22.5q38 0 61 23t23 61q0 35 -23.5 57.5t-60.5 22.5q-38 0 -61 -22.5t-23 -59.5z" />
    <glyph glyph-name="uni030C" unicode="&#x30c;" horiz-adv-x="1112" 
d="M963 1460l-252 -284h-305l-252 284h262l143 -129l141 129h263z" />
    <glyph glyph-name="uni031B" unicode="&#x31b;" horiz-adv-x="0" 
d="M-356 1272q-120 0 -207 43l14 192q61 -28 125 -28q66 0 102.5 39t36.5 108v86h285v-90q0 -177 -92 -263.5t-264 -86.5z" />
    <glyph glyph-name="dotbelowcomb" unicode="&#x323;" horiz-adv-x="1015" 
d="M520 -471q-66 0 -112 45.5t-46 110.5q0 66 46 113.5t112 47.5q59 0 107 -39l155 -118l-153 -121q-51 -39 -109 -39z" />
    <glyph glyph-name="uni0327" unicode="&#x327;" horiz-adv-x="1021" 
d="M768 -317q0 -96 -82 -147.5t-203 -51.5q-67 0 -157 33v137q80 -41 143 -41q40 0 67 19t27 53t-25 53.5t-63 19.5q-40 0 -80 -16l-37 41l115 268h172l-86 -184q24 -4 33 -4q79 -13 127.5 -59t48.5 -121z" />
    <glyph glyph-name="uni0328" unicode="&#x328;" horiz-adv-x="1069" 
d="M410 -322q-13 82 11 153t77.5 124t123.5 91.5t156 64.5l27 -111q-90 -44 -139 -109t-31 -147q7 -38 35.5 -61t66.5 -23t68 12v-159q-77 -31 -135 -31q-99 0 -171 52t-89 144z" />
    <glyph glyph-name="Delta" unicode="&#x394;" horiz-adv-x="1564" 
d="M776 1579l774 -1579h-1536zM442 250h678l-342 741z" />
    <glyph glyph-name="Omega" unicode="&#x3a9;" horiz-adv-x="1490" 
d="M684 0h-522v248h282v114q-156 88 -243.5 234.5t-87.5 333.5q0 183 81.5 326.5t225.5 221.5t325 78q180 0 324 -76.5t226.5 -218.5t82.5 -325q0 -187 -91 -336.5t-249 -239.5v-112h283v-248h-520v489q132 53 208 166t76 260q0 161 -94 265t-246 104q-153 0 -245 -105
t-92 -270q0 -146 72.5 -257t203.5 -163v-489z" />
    <glyph glyph-name="mu" unicode="&#x3bc;" horiz-adv-x="1261" 
d="M410 -512h-263v1544h285v-592q0 -94 46 -146t128 -52q105 0 164 74.5t59 183.5v532h285v-1032h-285v145q-111 -160 -311 -163q-56 -3 -108 16v-510z" />
    <glyph glyph-name="pi" unicode="&#x3c0;" horiz-adv-x="1497" 
d="M1245 -20q-156 0 -249 89.5t-93 245.5v457h-368v-772h-289v772h-201v260h1344v-260h-199v-434q0 -57 33.5 -91t89.5 -34q53 0 106 18v-217q-81 -34 -174 -34z" />
    <glyph glyph-name="baht" unicode="&#xe3f;" horiz-adv-x="1325" 
d="M748 0h-7v-274h-260v274h-334v1536h336v270h260v-272q186 -12 304 -124t118 -294q0 -189 -159 -299q116 -54 182.5 -150.5t66.5 -226.5q0 -135 -67.5 -236t-182 -152.5t-257.5 -51.5zM444 1280v-367h224q90 0 143 50.5t53 134.5t-55 133t-145 49h-220zM444 664v-408h287
q101 0 160 53.5t59 147.5t-58 150.5t-161 56.5h-287z" />
    <glyph glyph-name="Wgrave" unicode="&#x1e80;" horiz-adv-x="2326" 
d="M797 1933h350l194 -284h-247zM2312 1536l-717 -1579l-430 956l-440 -956l-711 1579h342l381 -899l434 942l428 -938l381 895h332z" />
    <glyph glyph-name="wgrave" unicode="&#x1e81;" horiz-adv-x="1665" 
d="M444 1460h351l194 -284h-248zM1661 1032l-492 -1071l-323 600l-334 -600l-510 1071h328l223 -500l293 537l291 -534l219 497h305z" />
    <glyph glyph-name="Wacute" unicode="&#x1e82;" horiz-adv-x="2326" 
d="M1192 1933h352l-299 -284h-248zM2312 1536l-717 -1579l-430 956l-440 -956l-711 1579h342l381 -899l434 942l428 -938l381 895h332z" />
    <glyph glyph-name="wacute" unicode="&#x1e83;" horiz-adv-x="1665" 
d="M881 1460h352l-299 -284h-248zM1661 1032l-492 -1071l-323 600l-334 -600l-510 1071h328l223 -500l293 537l291 -534l219 497h305z" />
    <glyph glyph-name="Wdieresis" unicode="&#x1e84;" horiz-adv-x="2326" 
d="M967 1655q-66 0 -107 39t-41 102q0 64 41 103.5t107 39.5q65 0 105 -39.5t40 -103.5q0 -63 -40 -102t-105 -39zM1380 1655q-66 0 -106.5 39t-40.5 102q0 64 40.5 103.5t106.5 39.5q65 0 105.5 -39.5t40.5 -103.5q0 -63 -40.5 -102t-105.5 -39zM2312 1536l-717 -1579
l-430 956l-440 -956l-711 1579h342l381 -899l434 942l428 -938l381 895h332z" />
    <glyph glyph-name="wdieresis" unicode="&#x1e85;" horiz-adv-x="1665" 
d="M633 1182q-66 0 -107 39t-41 102q0 64 41 103.5t107 39.5q65 0 105 -39.5t40 -103.5q0 -63 -40 -102t-105 -39zM1047 1182q-66 0 -107 39t-41 102q0 64 41 103.5t107 39.5q65 0 105 -39.5t40 -103.5q0 -63 -40 -102t-105 -39zM1661 1032l-492 -1071l-323 600l-334 -600
l-510 1071h328l223 -500l293 537l291 -534l219 497h305z" />
    <glyph glyph-name="uni1EA0" unicode="&#x1ea0;" horiz-adv-x="1552" 
d="M1202 0l-106 238h-656l-106 -238h-326l760 1579l776 -1579h-342zM547 473h440l-221 488zM766 -459q-66 0 -112 45.5t-46 110.5q0 66 46 114t112 48q58 0 106 -39l156 -119l-154 -121q-51 -39 -108 -39z" />
    <glyph glyph-name="uni1EA1" unicode="&#x1ea1;" 
d="M885 0v117q-118 -137 -305 -137q-225 0 -369.5 150.5t-144.5 381.5q0 235 144 388t370 153q187 0 305 -140v119h286v-1032h-286zM618 788q-113 0 -186.5 -78t-73.5 -198q0 -117 73.5 -192.5t186.5 -75.5q116 0 191.5 75t75.5 193q0 120 -75.5 198t-191.5 78zM655 -453
q-66 0 -111.5 45.5t-45.5 110.5q0 66 45.5 114t111.5 48q59 0 107 -39l156 -119l-154 -121q-51 -39 -109 -39z" />
    <glyph glyph-name="uni1EA2" unicode="&#x1ea2;" horiz-adv-x="1552" 
d="M885 1653h-205q82 73 116.5 115t34.5 73q0 33 -18 49.5t-49 16.5q-29 0 -49.5 -19t-20.5 -49h-157q0 96 64 155.5t163 59.5q100 0 164.5 -57t64.5 -152q0 -87 -108 -192zM1202 0l-106 238h-656l-106 -238h-326l760 1579l776 -1579h-342zM547 473h440l-221 488z" />
    <glyph glyph-name="uni1EA3" unicode="&#x1ea3;" 
d="M743 1141h-204q82 73 116.5 115t34.5 73q0 33 -18 49.5t-49 16.5q-29 0 -49.5 -19t-20.5 -49h-158q0 96 64.5 155.5t163.5 59.5q100 0 164.5 -57t64.5 -152q0 -86 -109 -192zM885 0v117q-118 -137 -305 -137q-225 0 -369.5 150.5t-144.5 381.5q0 235 144 388t370 153
q187 0 305 -140v119h286v-1032h-286zM618 788q-113 0 -186.5 -78t-73.5 -198q0 -117 73.5 -192.5t186.5 -75.5q116 0 191.5 75t75.5 193q0 120 -75.5 198t-191.5 78z" />
    <glyph glyph-name="uni1EA4" unicode="&#x1ea4;" horiz-adv-x="1552" 
d="M1217 2054h301l-256 -246h-213zM918 1610l-142 129l-143 -129h-256l246 284h305l246 -284h-256zM1202 0l-106 238h-656l-106 -238h-326l760 1579l776 -1579h-342zM547 473h440l-221 488z" />
    <glyph glyph-name="uni1EA5" unicode="&#x1ea5;" 
d="M1104 1569h301l-256 -246h-213zM805 1124l-141 129l-144 -129h-256l246 285h305l246 -285h-256zM885 0v117q-118 -137 -305 -137q-225 0 -369.5 150.5t-144.5 381.5q0 235 144 388t370 153q187 0 305 -140v119h286v-1032h-286zM618 788q-113 0 -186.5 -78t-73.5 -198
q0 -117 73.5 -192.5t186.5 -75.5q116 0 191.5 75t75.5 193q0 120 -75.5 198t-191.5 78z" />
    <glyph glyph-name="uni1EA6" unicode="&#x1ea6;" horiz-adv-x="1552" 
d="M39 2032h303l170 -248h-215zM924 1610l-142 129l-143 -129h-256l246 284h305l246 -284h-256zM1202 0l-106 238h-656l-106 -238h-326l760 1579l776 -1579h-342zM547 473h440l-221 488z" />
    <glyph glyph-name="uni1EA7" unicode="&#x1ea7;" 
d="M-29 1563h303l170 -248h-215zM856 1141l-141 129l-144 -129h-256l246 284h305l246 -284h-256zM885 0v117q-118 -137 -305 -137q-225 0 -369.5 150.5t-144.5 381.5q0 235 144 388t370 153q187 0 305 -140v119h286v-1032h-286zM618 788q-113 0 -186.5 -78t-73.5 -198
q0 -117 73.5 -192.5t186.5 -75.5q116 0 191.5 75t75.5 193q0 120 -75.5 198t-191.5 78z" />
    <glyph glyph-name="uni1EA8" unicode="&#x1ea8;" horiz-adv-x="1552" 
d="M1255 1829h-204q83 75 117 116t34 72q0 33 -18 49.5t-49 16.5q-29 0 -49.5 -19t-20.5 -49h-158q0 96 64.5 155.5t163.5 59.5q100 0 164.5 -57t64.5 -152q0 -86 -109 -192zM918 1610l-142 129l-143 -129h-256l246 284h305l246 -284h-256zM1202 0l-106 238h-656l-106 -238
h-326l760 1579l776 -1579h-342zM547 473h440l-221 488z" />
    <glyph glyph-name="uni1EA9" unicode="&#x1ea9;" 
d="M1159 1325h-205q83 75 117.5 116t34.5 72q0 32 -18.5 49t-49.5 17q-29 0 -49 -19t-20 -49h-158q0 96 64 155.5t163 59.5q100 0 165 -56.5t65 -151.5q0 -87 -109 -193zM821 1106l-141 129l-143 -129h-256l245 285h305l246 -285h-256zM885 0v117q-118 -137 -305 -137
q-225 0 -369.5 150.5t-144.5 381.5q0 235 144 388t370 153q187 0 305 -140v119h286v-1032h-286zM618 788q-113 0 -186.5 -78t-73.5 -198q0 -117 73.5 -192.5t186.5 -75.5q116 0 191.5 75t75.5 193q0 120 -75.5 198t-191.5 78z" />
    <glyph glyph-name="uni1EAA" unicode="&#x1eaa;" horiz-adv-x="1552" 
d="M881 1935q-42 0 -113 26t-90 26q-29 0 -46.5 -16t-17.5 -44h-131q-5 107 46.5 172.5t140.5 65.5q40 0 117.5 -27t91.5 -27q29 0 47 17t18 43h129q6 -105 -47 -170.5t-145 -65.5zM913 1610l-141 129l-143 -129h-256l245 284h306l245 -284h-256zM1202 0l-106 238h-656
l-106 -238h-326l760 1579l776 -1579h-342zM547 473h440l-221 488z" />
    <glyph glyph-name="uni1EAB" unicode="&#x1eab;" 
d="M786 1460q-42 0 -112.5 25.5t-89.5 25.5q-29 0 -46.5 -15.5t-17.5 -43.5h-131q-5 108 46 173t140 65q40 0 117.5 -27t91.5 -27q29 0 47.5 17t18.5 43h129q6 -105 -47.5 -170.5t-145.5 -65.5zM819 1135l-141 129l-143 -129h-256l245 284h305l246 -284h-256zM885 0v117
q-118 -137 -305 -137q-225 0 -369.5 150.5t-144.5 381.5q0 235 144 388t370 153q187 0 305 -140v119h286v-1032h-286zM618 788q-113 0 -186.5 -78t-73.5 -198q0 -117 73.5 -192.5t186.5 -75.5q116 0 191.5 75t75.5 193q0 120 -75.5 198t-191.5 78z" />
    <glyph glyph-name="uni1EAC" unicode="&#x1eac;" horiz-adv-x="1552" 
d="M920 1622l-142 129l-143 -129h-256l246 285h305l246 -285h-256zM1202 0l-106 238h-656l-106 -238h-326l760 1579l776 -1579h-342zM547 473h440l-221 488zM766 -459q-66 0 -112 45.5t-46 110.5q0 66 46 114t112 48q58 0 106 -39l156 -119l-154 -121q-51 -39 -108 -39z" />
    <glyph glyph-name="uni1EAD" unicode="&#x1ead;" 
d="M838 1155l-142 129l-143 -129h-256l246 285h305l246 -285h-256zM885 0v117q-118 -137 -305 -137q-225 0 -369.5 150.5t-144.5 381.5q0 235 144 388t370 153q187 0 305 -140v119h286v-1032h-286zM618 788q-113 0 -186.5 -78t-73.5 -198q0 -117 73.5 -192.5t186.5 -75.5
q116 0 191.5 75t75.5 193q0 120 -75.5 198t-191.5 78zM641 -446q-66 0 -112 45t-46 110q0 66 46 114t112 48q59 0 107 -39l155 -119l-153 -121q-50 -38 -109 -38z" />
    <glyph glyph-name="uni1EAE" unicode="&#x1eae;" horiz-adv-x="1552" 
d="M831 2189h353l-299 -284h-248zM1202 0l-106 238h-656l-106 -238h-326l737 1532q-140 7 -225.5 92.5t-87.5 212.5h215q3 -50 37 -81.5t86 -31.5t86.5 31.5t36.5 81.5h219q-3 -128 -90.5 -213.5t-230.5 -91.5l753 -1532h-342zM547 473h440l-221 488z" />
    <glyph glyph-name="uni1EAF" unicode="&#x1eaf;" 
d="M760 1823h352l-299 -285h-248zM698 1358q53 0 87.5 31.5t35.5 80.5h219q-3 -132 -97.5 -218.5t-244.5 -86.5t-243 86.5t-95 218.5h215q3 -50 37 -81t86 -31zM885 0v117q-118 -137 -305 -137q-225 0 -369.5 150.5t-144.5 381.5q0 235 144 388t370 153q187 0 305 -140v119
h286v-1032h-286zM618 788q-113 0 -186.5 -78t-73.5 -198q0 -117 73.5 -192.5t186.5 -75.5q116 0 191.5 75t75.5 193q0 120 -75.5 198t-191.5 78z" />
    <glyph glyph-name="uni1EB0" unicode="&#x1eb0;" horiz-adv-x="1552" 
d="M356 2187h351l194 -284h-248zM1202 0l-106 238h-656l-106 -238h-326l737 1532q-141 6 -228 91.5t-89 213.5h215q3 -50 37 -81.5t86 -31.5t86.5 31.5t36.5 81.5h219q-3 -126 -90.5 -212t-226.5 -93l753 -1532h-342zM547 473h440l-221 488z" />
    <glyph glyph-name="uni1EB1" unicode="&#x1eb1;" 
d="M264 1821h350l195 -285h-248zM674 1358q53 0 87.5 31.5t35.5 80.5h219q-3 -132 -97.5 -218.5t-244.5 -86.5t-243 86.5t-95 218.5h215q3 -50 37 -81t86 -31zM885 0v117q-118 -137 -305 -137q-225 0 -369.5 150.5t-144.5 381.5q0 235 144 388t370 153q187 0 305 -140v119
h286v-1032h-286zM618 788q-113 0 -186.5 -78t-73.5 -198q0 -117 73.5 -192.5t186.5 -75.5q116 0 191.5 75t75.5 193q0 120 -75.5 198t-191.5 78z" />
    <glyph glyph-name="uni1EB2" unicode="&#x1eb2;" horiz-adv-x="1552" 
d="M872 1868h-204q82 73 116.5 115t34.5 73q0 33 -18 49.5t-49 16.5q-29 0 -49.5 -19t-20.5 -49h-158q0 96 64.5 155.5t163.5 59.5q100 0 164.5 -57t64.5 -152q0 -86 -109 -192zM1202 0l-106 238h-656l-106 -238h-326l731 1518q-141 7 -228 92.5t-89 212.5h215
q3 -50 37 -81.5t86 -31.5t86.5 31.5t36.5 81.5h219q-3 -124 -86.5 -208.5t-218.5 -94.5l747 -1520h-342zM547 473h440l-221 488z" />
    <glyph glyph-name="uni1EB3" unicode="&#x1eb3;" 
d="M801 1509h-205q83 73 117.5 115.5t34.5 73.5q0 32 -18.5 48.5t-49.5 16.5q-29 0 -49.5 -18.5t-20.5 -48.5h-157q0 96 64 155.5t163 59.5q100 0 164.5 -57t64.5 -152q0 -88 -108 -193zM688 1352q53 0 87.5 31.5t35.5 80.5h219q-3 -132 -97.5 -218.5t-244.5 -86.5
t-243 86.5t-95 218.5h215q3 -50 37 -81t86 -31zM885 0v117q-118 -137 -305 -137q-225 0 -369.5 150.5t-144.5 381.5q0 235 144 388t370 153q187 0 305 -140v119h286v-1032h-286zM618 788q-113 0 -186.5 -78t-73.5 -198q0 -117 73.5 -192.5t186.5 -75.5q116 0 191.5 75
t75.5 193q0 120 -75.5 198t-191.5 78z" />
    <glyph glyph-name="uni1EB4" unicode="&#x1eb4;" horiz-adv-x="1552" 
d="M883 1925q-45 0 -122 26.5t-99 26.5q-31 0 -49.5 -16t-18.5 -45h-143q-4 117 50.5 186.5t151.5 69.5q45 0 128.5 -28.5t99.5 -28.5q31 0 50 18t19 47h142q6 -114 -51.5 -185t-157.5 -71zM1202 0l-106 238h-656l-106 -238h-326l737 1532q-141 7 -227 92.5t-88 212.5h215
q3 -50 37 -81.5t86 -31.5t86.5 31.5t36.5 81.5h219q-3 -127 -90.5 -212.5t-228.5 -92.5l753 -1532h-342zM547 473h440l-221 488z" />
    <glyph glyph-name="uni1EB5" unicode="&#x1eb5;" 
d="M772 1530q-45 0 -122 26.5t-99 26.5q-31 0 -49.5 -16t-18.5 -45h-143q-4 117 51 186.5t152 69.5q45 0 128 -29t99 -29q31 0 50.5 18.5t19.5 47.5h141q6 -114 -51.5 -185t-157.5 -71zM657 1329q52 0 86.5 31.5t36.5 81.5h219q-3 -132 -97.5 -218.5t-244.5 -86.5t-243 86.5
t-95 218.5h216q3 -50 36.5 -81.5t85.5 -31.5zM885 0v117q-118 -137 -305 -137q-225 0 -369.5 150.5t-144.5 381.5q0 235 144 388t370 153q187 0 305 -140v119h286v-1032h-286zM618 788q-113 0 -186.5 -78t-73.5 -198q0 -117 73.5 -192.5t186.5 -75.5q116 0 191.5 75
t75.5 193q0 120 -75.5 198t-191.5 78z" />
    <glyph glyph-name="uni1EB6" unicode="&#x1eb6;" horiz-adv-x="1552" 
d="M1202 0l-106 238h-656l-106 -238h-326l737 1532q-143 4 -231 90t-90 215h215q3 -50 37 -81.5t86 -31.5t86.5 31.5t36.5 81.5h219q-3 -126 -89 -211t-224 -94l753 -1532h-342zM547 473h440l-221 488zM766 -459q-66 0 -112 45.5t-46 110.5q0 66 46 114t112 48q58 0 106 -39
l156 -119l-154 -121q-51 -39 -108 -39z" />
    <glyph glyph-name="uni1EB7" unicode="&#x1eb7;" 
d="M678 1352q53 0 87.5 31.5t35.5 80.5h219q-3 -132 -97.5 -218.5t-244.5 -86.5t-243 86.5t-95 218.5h215q3 -50 37 -81t86 -31zM885 0v117q-118 -137 -305 -137q-225 0 -369.5 150.5t-144.5 381.5q0 235 144 388t370 153q187 0 305 -140v119h286v-1032h-286zM618 788
q-113 0 -186.5 -78t-73.5 -198q0 -117 73.5 -192.5t186.5 -75.5q116 0 191.5 75t75.5 193q0 120 -75.5 198t-191.5 78zM668 -457q-66 0 -112 45.5t-46 110.5q0 66 46 114t112 48q58 0 106 -39l156 -119l-154 -121q-51 -39 -108 -39z" />
    <glyph glyph-name="uni1EB8" unicode="&#x1eb8;" horiz-adv-x="1206" 
d="M147 0v1536h971v-266h-674v-352h590v-265h-590v-387h697v-266h-994zM641 -442q-66 0 -112 45t-46 110q0 66 46 114t112 48q59 0 107 -39l155 -119l-153 -120q-51 -39 -109 -39z" />
    <glyph glyph-name="uni1EB9" unicode="&#x1eb9;" horiz-adv-x="1167" 
d="M643 -20q-250 0 -413.5 143.5t-163.5 382.5t146.5 393t381.5 154q223 0 364.5 -143t141.5 -367q0 -60 -6 -119h-721q28 -96 107.5 -150.5t193.5 -54.5q179 0 342 94v-237q-167 -96 -373 -96zM365 614h444q-11 95 -67 154t-148 59q-93 0 -151 -58t-78 -155zM582 -455
q-66 0 -112 45.5t-46 110.5q0 66 46 114t112 48q58 0 106 -39l156 -119l-154 -121q-51 -39 -108 -39z" />
    <glyph glyph-name="uni1EBA" unicode="&#x1eba;" horiz-adv-x="1206" 
d="M760 1636h-205q83 73 117.5 115.5t34.5 73.5q0 32 -18.5 48.5t-49.5 16.5q-29 0 -49.5 -18.5t-20.5 -48.5h-157q0 96 64 155.5t163 59.5q100 0 164.5 -57t64.5 -152q0 -88 -108 -193zM147 0v1536h971v-266h-674v-352h590v-265h-590v-387h697v-266h-994z" />
    <glyph glyph-name="uni1EBB" unicode="&#x1ebb;" horiz-adv-x="1167" 
d="M719 1122h-205q83 73 117.5 115.5t34.5 73.5q0 32 -18.5 48.5t-49.5 16.5q-29 0 -49.5 -18.5t-20.5 -48.5h-157q0 96 64 155.5t163 59.5q100 0 164.5 -57t64.5 -152q0 -88 -108 -193zM643 -20q-250 0 -413.5 143.5t-163.5 382.5t146.5 393t381.5 154q223 0 364.5 -143
t141.5 -367q0 -60 -6 -119h-721q28 -96 107.5 -150.5t193.5 -54.5q179 0 342 94v-237q-167 -96 -373 -96zM365 614h444q-11 95 -67 154t-148 59q-93 0 -151 -58t-78 -155z" />
    <glyph glyph-name="uni1EBC" unicode="&#x1ebc;" horiz-adv-x="1206" 
d="M786 1634q-49 0 -134.5 30t-108.5 30q-34 0 -55 -19t-21 -51h-158q-5 129 56 207t167 78q49 0 142 -32t110 -32q34 0 56 20t22 52h156q6 -126 -58 -204.5t-174 -78.5zM147 0v1536h971v-266h-674v-352h590v-265h-590v-387h697v-266h-994z" />
    <glyph glyph-name="uni1EBD" unicode="&#x1ebd;" horiz-adv-x="1167" 
d="M725 1124q-49 0 -135 30t-109 30q-34 0 -54.5 -19t-20.5 -51h-158q-5 129 56 207t167 78q49 0 142 -32t110 -32q34 0 56 20t22 52h155q6 -126 -57.5 -204.5t-173.5 -78.5zM643 -20q-250 0 -413.5 143.5t-163.5 382.5t146.5 393t381.5 154q223 0 364.5 -143t141.5 -367
q0 -60 -6 -119h-721q28 -96 107.5 -150.5t193.5 -54.5q179 0 342 94v-237q-167 -96 -373 -96zM365 614h444q-11 95 -67 154t-148 59q-93 0 -151 -58t-78 -155z" />
    <glyph glyph-name="uni1EBE" unicode="&#x1ebe;" horiz-adv-x="1206" 
d="M1098 2034h301l-256 -246h-213zM799 1589l-142 129l-143 -129h-256l246 285h305l246 -285h-256zM147 0v1536h971v-266h-674v-352h590v-265h-590v-387h697v-266h-994z" />
    <glyph glyph-name="uni1EBF" unicode="&#x1ebf;" horiz-adv-x="1167" 
d="M1069 1550h301l-256 -245h-213zM770 1106l-141 129l-144 -129h-256l246 285h305l246 -285h-256zM643 -20q-250 0 -413.5 143.5t-163.5 382.5t146.5 393t381.5 154q223 0 364.5 -143t141.5 -367q0 -60 -6 -119h-721q28 -96 107.5 -150.5t193.5 -54.5q179 0 342 94v-237
q-167 -96 -373 -96zM365 614h444q-11 95 -67 154t-148 59q-93 0 -151 -58t-78 -155z" />
    <glyph glyph-name="uni1EC0" unicode="&#x1ec0;" horiz-adv-x="1206" 
d="M-88 2019h303l170 -247h-215zM797 1597l-142 129l-143 -129h-256l246 285h305l246 -285h-256zM147 0v1536h971v-266h-674v-352h590v-265h-590v-387h697v-266h-994z" />
    <glyph glyph-name="uni1EC1" unicode="&#x1ec1;" horiz-adv-x="1167" 
d="M-143 1520h303l170 -248h-215zM741 1098l-141 129l-143 -129h-256l245 284h306l245 -284h-256zM643 -20q-250 0 -413.5 143.5t-163.5 382.5t146.5 393t381.5 154q223 0 364.5 -143t141.5 -367q0 -60 -6 -119h-721q28 -96 107.5 -150.5t193.5 -54.5q179 0 342 94v-237
q-167 -96 -373 -96zM365 614h444q-11 95 -67 154t-148 59q-93 0 -151 -58t-78 -155z" />
    <glyph glyph-name="uni1EC2" unicode="&#x1ec2;" horiz-adv-x="1206" 
d="M1139 1843h-205q82 74 116.5 116t34.5 73q0 32 -18 48.5t-49 16.5q-29 0 -49.5 -18.5t-20.5 -48.5h-157q0 96 64 155.5t163 59.5q100 0 164.5 -57t64.5 -152q0 -88 -108 -193zM801 1624l-142 129l-143 -129h-256l246 285h305l246 -285h-256zM147 0v1536h971v-266h-674
v-352h590v-265h-590v-387h697v-266h-994z" />
    <glyph glyph-name="uni1EC3" unicode="&#x1ec3;" horiz-adv-x="1167" 
d="M1106 1341h-205q83 75 117.5 116.5t34.5 72.5q0 32 -18.5 48.5t-49.5 16.5q-29 0 -49.5 -18.5t-20.5 -48.5h-157q0 96 64 155.5t163 59.5q100 0 164.5 -57t64.5 -152q0 -88 -108 -193zM768 1122l-141 129l-144 -129h-256l246 285h305l246 -285h-256zM643 -20
q-250 0 -413.5 143.5t-163.5 382.5t146.5 393t381.5 154q223 0 364.5 -143t141.5 -367q0 -60 -6 -119h-721q28 -96 107.5 -150.5t193.5 -54.5q179 0 342 94v-237q-167 -96 -373 -96zM365 614h444q-11 95 -67 154t-148 59q-93 0 -151 -58t-78 -155z" />
    <glyph glyph-name="uni1EC4" unicode="&#x1ec4;" horiz-adv-x="1206" 
d="M754 1923q-42 0 -113 25.5t-90 25.5q-29 0 -46.5 -15.5t-17.5 -43.5h-131q-5 107 46.5 172t140.5 65q40 0 117.5 -26.5t91.5 -26.5q29 0 47 17t18 43h129q6 -105 -47 -170.5t-145 -65.5zM786 1597l-141 129l-143 -129h-256l246 285h305l245 -285h-256zM147 0v1536h971
v-266h-674v-352h590v-265h-590v-387h697v-266h-994z" />
    <glyph glyph-name="uni1EC5" unicode="&#x1ec5;" horiz-adv-x="1167" 
d="M727 1432q-42 0 -113 25.5t-90 25.5q-29 0 -46 -16t-17 -44h-131q-5 108 46 173t140 65q40 0 117.5 -26.5t91.5 -26.5q29 0 47.5 16.5t18.5 42.5h129q6 -104 -47.5 -169.5t-145.5 -65.5zM760 1106l-142 129l-143 -129h-256l246 285h305l246 -285h-256zM643 -20
q-250 0 -413.5 143.5t-163.5 382.5t146.5 393t381.5 154q223 0 364.5 -143t141.5 -367q0 -60 -6 -119h-721q28 -96 107.5 -150.5t193.5 -54.5q179 0 342 94v-237q-167 -96 -373 -96zM365 614h444q-11 95 -67 154t-148 59q-93 0 -151 -58t-78 -155z" />
    <glyph glyph-name="uni1EC6" unicode="&#x1ec6;" horiz-adv-x="1206" 
d="M782 1649l-141 129l-143 -129h-256l245 284h306l245 -284h-256zM147 0v1536h971v-266h-674v-352h590v-265h-590v-387h697v-266h-994zM600 -414q-66 0 -112 45.5t-46 110.5q0 66 46 114t112 48q59 0 107 -39l155 -119l-153 -121q-51 -39 -109 -39z" />
    <glyph glyph-name="uni1EC7" unicode="&#x1ec7;" horiz-adv-x="1167" 
d="M774 1108l-141 129l-144 -129h-256l246 285h305l246 -285h-256zM643 -20q-250 0 -413.5 143.5t-163.5 382.5t146.5 393t381.5 154q223 0 364.5 -143t141.5 -367q0 -60 -6 -119h-721q28 -96 107.5 -150.5t193.5 -54.5q179 0 342 94v-237q-167 -96 -373 -96zM365 614h444
q-11 95 -67 154t-148 59q-93 0 -151 -58t-78 -155zM588 -430q-66 0 -112 45.5t-46 110.5q0 66 46 113.5t112 47.5q58 0 106 -39l156 -118l-154 -121q-51 -39 -108 -39z" />
    <glyph glyph-name="uni1EC8" unicode="&#x1ec8;" horiz-adv-x="591" 
d="M414 1616h-205q82 73 116.5 115t34.5 73q0 33 -18 49.5t-49 16.5q-29 0 -49.5 -19t-20.5 -49h-157q0 96 64 155.5t163 59.5q100 0 164.5 -57t64.5 -152q0 -87 -108 -192zM147 0v1536h297v-1536h-297z" />
    <glyph glyph-name="uni1EC9" unicode="&#x1ec9;" horiz-adv-x="559" 
d="M387 1120h-205q83 73 117.5 115.5t34.5 73.5q0 32 -18.5 48.5t-49.5 16.5q-29 0 -49 -18.5t-20 -48.5h-158q0 96 64 155.5t163 59.5q100 0 165 -57t65 -152q0 -87 -109 -193zM139 0v1032h283v-1032h-283z" />
    <glyph glyph-name="uni1ECA" unicode="&#x1eca;" horiz-adv-x="591" 
d="M147 0v1536h297v-1536h-297zM260 -453q-66 0 -112 45.5t-46 110.5q0 66 46 114t112 48q59 0 107 -39l155 -119l-153 -121q-51 -39 -109 -39z" />
    <glyph glyph-name="uni1ECB" unicode="&#x1ecb;" horiz-adv-x="559" 
d="M256 1182q-66 0 -112 45t-46 110q0 66 46 114t112 48q58 0 106 -39l156 -119l-153 -120q-51 -39 -109 -39zM137 0v1032h285v-1032h-285zM252 -471q-66 0 -112 45.5t-46 110.5q0 66 46 113.5t112 47.5q58 0 106 -39l156 -118l-154 -121q-51 -39 -108 -39z" />
    <glyph glyph-name="uni1ECC" unicode="&#x1ecc;" horiz-adv-x="1728" 
d="M1659 772q0 -172 -59 -319.5t-163.5 -251t-252.5 -162.5t-320 -59q-230 0 -411 100.5t-282 281t-101 410.5q0 227 101.5 406.5t282.5 278.5t410 99q171 0 319 -58t252.5 -160.5t164 -249t59.5 -316.5zM864 260q217 0 353.5 144.5t136.5 365.5t-136.5 363.5t-353.5 142.5
t-353 -142.5t-136 -363.5t136 -365.5t353 -144.5zM840 -459q-66 0 -112 45.5t-46 110.5q0 66 46 114t112 48q58 0 106 -39l156 -119l-154 -121q-51 -39 -108 -39z" />
    <glyph glyph-name="uni1ECD" unicode="&#x1ecd;" horiz-adv-x="1243" 
d="M629 -20q-244 0 -403.5 152t-159.5 390q0 233 160 382t403 149q237 0 393 -149.5t156 -381.5q0 -157 -71.5 -281t-196.5 -192.5t-281 -68.5zM887 518q0 118 -74 194t-188 76q-117 0 -192 -76t-75 -194q0 -120 75 -197t192 -77q114 0 188 77t74 197zM600 -457
q-66 0 -112 45.5t-46 110.5q0 66 46 114t112 48q59 0 107 -39l155 -119l-153 -121q-51 -39 -109 -39z" />
    <glyph glyph-name="uni1ECE" unicode="&#x1ece;" horiz-adv-x="1728" 
d="M1026 1636h-205q83 73 117.5 115.5t34.5 73.5q0 32 -18.5 48.5t-49.5 16.5q-29 0 -49 -18.5t-20 -48.5h-158q0 96 64 155.5t163 59.5q100 0 165 -57t65 -152q0 -87 -109 -193zM1659 772q0 -172 -59 -319.5t-163.5 -251t-252.5 -162.5t-320 -59q-230 0 -411 100.5
t-282 281t-101 410.5q0 227 101.5 406.5t282.5 278.5t410 99q171 0 319 -58t252.5 -160.5t164 -249t59.5 -316.5zM864 260q217 0 353.5 144.5t136.5 365.5t-136.5 363.5t-353.5 142.5t-353 -142.5t-136 -363.5t136 -365.5t353 -144.5z" />
    <glyph glyph-name="uni1ECF" unicode="&#x1ecf;" horiz-adv-x="1243" 
d="M729 1126h-205q83 73 117.5 115.5t34.5 73.5q0 32 -18.5 48.5t-49.5 16.5q-29 0 -49 -18.5t-20 -48.5h-158q0 96 64 155.5t163 59.5q100 0 165 -57t65 -152q0 -87 -109 -193zM629 -20q-244 0 -403.5 152t-159.5 390q0 233 160 382t403 149q237 0 393 -149.5t156 -381.5
q0 -157 -71.5 -281t-196.5 -192.5t-281 -68.5zM887 518q0 118 -74 194t-188 76q-117 0 -192 -76t-75 -194q0 -120 75 -197t192 -77q114 0 188 77t74 197z" />
    <glyph glyph-name="uni1ED0" unicode="&#x1ed0;" horiz-adv-x="1728" 
d="M1321 2052h301l-256 -246h-213zM1022 1608l-141 129l-144 -129h-256l246 284h305l246 -284h-256zM1659 772q0 -172 -59 -319.5t-163.5 -251t-252.5 -162.5t-320 -59q-230 0 -411 100.5t-282 281t-101 410.5q0 227 101.5 406.5t282.5 278.5t410 99q171 0 319 -58
t252.5 -160.5t164 -249t59.5 -316.5zM864 260q217 0 353.5 144.5t136.5 365.5t-136.5 363.5t-353.5 142.5t-353 -142.5t-136 -363.5t136 -365.5t353 -144.5z" />
    <glyph glyph-name="uni1ED1" unicode="&#x1ed1;" horiz-adv-x="1243" 
d="M1073 1548h301l-256 -245h-213zM774 1104l-141 129l-144 -129h-256l246 285h305l246 -285h-256zM629 -20q-244 0 -403.5 152t-159.5 390q0 233 160 382t403 149q237 0 393 -149.5t156 -381.5q0 -157 -71.5 -281t-196.5 -192.5t-281 -68.5zM887 518q0 118 -74 194t-188 76
q-117 0 -192 -76t-75 -194q0 -120 75 -197t192 -77q114 0 188 77t74 197z" />
    <glyph glyph-name="uni1ED2" unicode="&#x1ed2;" horiz-adv-x="1728" 
d="M133 2030h303l170 -248h-215zM1018 1608l-141 129l-144 -129h-256l246 284h305l246 -284h-256zM1659 772q0 -172 -59 -319.5t-163.5 -251t-252.5 -162.5t-320 -59q-230 0 -411 100.5t-282 281t-101 410.5q0 227 101.5 406.5t282.5 278.5t410 99q171 0 319 -58
t252.5 -160.5t164 -249t59.5 -316.5zM864 260q217 0 353.5 144.5t136.5 365.5t-136.5 363.5t-353.5 142.5t-353 -142.5t-136 -363.5t136 -365.5t353 -144.5z" />
    <glyph glyph-name="uni1ED3" unicode="&#x1ed3;" horiz-adv-x="1243" 
d="M-113 1513h303l170 -247h-215zM772 1092l-141 129l-144 -129h-256l246 284h305l246 -284h-256zM629 -20q-244 0 -403.5 152t-159.5 390q0 233 160 382t403 149q237 0 393 -149.5t156 -381.5q0 -157 -71.5 -281t-196.5 -192.5t-281 -68.5zM887 518q0 118 -74 194t-188 76
q-117 0 -192 -76t-75 -194q0 -120 75 -197t192 -77q114 0 188 77t74 197z" />
    <glyph glyph-name="uni1ED4" unicode="&#x1ed4;" horiz-adv-x="1728" 
d="M1370 1849h-205q83 75 117.5 116.5t34.5 72.5q0 32 -18.5 48.5t-49.5 16.5q-29 0 -49 -18.5t-20 -48.5h-158q0 96 64 155.5t163 59.5q100 0 165 -57t65 -152q0 -87 -109 -193zM1032 1630l-141 129l-143 -129h-256l245 285h305l246 -285h-256zM1659 772q0 -172 -59 -319.5
t-163.5 -251t-252.5 -162.5t-320 -59q-230 0 -411 100.5t-282 281t-101 410.5q0 227 101.5 406.5t282.5 278.5t410 99q171 0 319 -58t252.5 -160.5t164 -249t59.5 -316.5zM864 260q217 0 353.5 144.5t136.5 365.5t-136.5 363.5t-353.5 142.5t-353 -142.5t-136 -363.5
t136 -365.5t353 -144.5z" />
    <glyph glyph-name="uni1ED5" unicode="&#x1ed5;" horiz-adv-x="1243" 
d="M1120 1329h-205q83 75 117.5 116.5t34.5 72.5q0 32 -18.5 48.5t-49.5 16.5q-29 0 -49 -18.5t-20 -48.5h-158q0 96 64 155.5t163 59.5q100 0 165 -57t65 -152q0 -87 -109 -193zM782 1110l-141 129l-143 -129h-256l245 285h306l245 -285h-256zM629 -20q-244 0 -403.5 152
t-159.5 390q0 233 160 382t403 149q237 0 393 -149.5t156 -381.5q0 -157 -71.5 -281t-196.5 -192.5t-281 -68.5zM887 518q0 118 -74 194t-188 76q-117 0 -192 -76t-75 -194q0 -120 75 -197t192 -77q114 0 188 77t74 197z" />
    <glyph glyph-name="uni1ED6" unicode="&#x1ed6;" horiz-adv-x="1728" 
d="M983 1942q-42 0 -113 25.5t-90 25.5q-29 0 -46 -16t-17 -44h-131q-5 108 46 173t140 65q40 0 117.5 -26.5t91.5 -26.5q29 0 47.5 16.5t18.5 42.5h129q6 -104 -47.5 -169.5t-145.5 -65.5zM1016 1616l-142 129l-143 -129h-256l246 285h305l246 -285h-256zM1659 772
q0 -172 -59 -319.5t-163.5 -251t-252.5 -162.5t-320 -59q-230 0 -411 100.5t-282 281t-101 410.5q0 227 101.5 406.5t282.5 278.5t410 99q171 0 319 -58t252.5 -160.5t164 -249t59.5 -316.5zM864 260q217 0 353.5 144.5t136.5 365.5t-136.5 363.5t-353.5 142.5t-353 -142.5
t-136 -363.5t136 -365.5t353 -144.5z" />
    <glyph glyph-name="uni1ED7" unicode="&#x1ed7;" horiz-adv-x="1243" 
d="M745 1427q-42 0 -112.5 26t-89.5 26q-29 0 -46.5 -16t-17.5 -44h-131q-5 107 46.5 172.5t140.5 65.5q40 0 117 -26.5t91 -26.5q29 0 47.5 16.5t18.5 42.5h129q6 -105 -47.5 -170.5t-145.5 -65.5zM778 1102l-141 129l-143 -129h-256l245 284h305l246 -284h-256zM629 -20
q-244 0 -403.5 152t-159.5 390q0 233 160 382t403 149q237 0 393 -149.5t156 -381.5q0 -157 -71.5 -281t-196.5 -192.5t-281 -68.5zM887 518q0 118 -74 194t-188 76q-117 0 -192 -76t-75 -194q0 -120 75 -197t192 -77q114 0 188 77t74 197z" />
    <glyph glyph-name="uni1ED8" unicode="&#x1ed8;" horiz-adv-x="1728" 
d="M1042 1624l-141 129l-143 -129h-256l246 285h305l245 -285h-256zM1659 772q0 -172 -59 -319.5t-163.5 -251t-252.5 -162.5t-320 -59q-230 0 -411 100.5t-282 281t-101 410.5q0 227 101.5 406.5t282.5 278.5t410 99q171 0 319 -58t252.5 -160.5t164 -249t59.5 -316.5z
M864 260q217 0 353.5 144.5t136.5 365.5t-136.5 363.5t-353.5 142.5t-353 -142.5t-136 -363.5t136 -365.5t353 -144.5zM866 -457q-66 0 -111.5 45.5t-45.5 110.5q0 66 45.5 114t111.5 48q59 0 107 -39l155 -119l-153 -121q-51 -39 -109 -39z" />
    <glyph glyph-name="uni1ED9" unicode="&#x1ed9;" horiz-adv-x="1243" 
d="M788 1126l-141 129l-143 -129h-256l246 285h305l245 -285h-256zM629 -20q-244 0 -403.5 152t-159.5 390q0 233 160 382t403 149q237 0 393 -149.5t156 -381.5q0 -157 -71.5 -281t-196.5 -192.5t-281 -68.5zM887 518q0 118 -74 194t-188 76q-117 0 -192 -76t-75 -194
q0 -120 75 -197t192 -77q114 0 188 77t74 197zM608 -449q-66 0 -111.5 45.5t-45.5 110.5q0 66 45.5 114t111.5 48q59 0 107 -39l155 -119l-153 -121q-51 -39 -109 -39z" />
    <glyph glyph-name="uni1EDA" unicode="&#x1eda;" horiz-adv-x="1728" 
d="M936 1933h352l-299 -284h-248zM864 -20q-230 0 -411 100.5t-282 281t-101 410.5q0 227 101.5 406.5t282.5 278.5t410 99q205 0 365 -77h20q66 0 103 39t37 108v115h284v-119q0 -258 -198 -328q184 -209 184 -522q0 -172 -59 -319.5t-163.5 -251t-252.5 -162.5t-320 -59z
M864 260q217 0 353.5 144.5t136.5 365.5t-136.5 363.5t-353.5 142.5t-353 -142.5t-136 -363.5t136 -365.5t353 -144.5z" />
    <glyph glyph-name="uni1EDB" unicode="&#x1edb;" horiz-adv-x="1243" 
d="M682 1434h352l-299 -285h-248zM629 -20q-244 0 -403.5 152t-159.5 390q0 233 160 382t403 149q115 0 213 -37q64 1 99.5 40t35.5 107v86h285v-90q0 -247 -183 -321q99 -140 99 -316q0 -157 -71.5 -281t-196.5 -192.5t-281 -68.5zM887 518q0 118 -74 194t-188 76
q-117 0 -192 -76t-75 -194q0 -120 75 -197t192 -77q114 0 188 77t74 197z" />
    <glyph glyph-name="uni1EDC" unicode="&#x1edc;" horiz-adv-x="1728" 
d="M530 1958h351l194 -285h-248zM864 -20q-230 0 -411 100.5t-282 281t-101 410.5q0 227 101.5 406.5t282.5 278.5t410 99q205 0 365 -77h20q66 0 103 39t37 108v115h284v-119q0 -258 -198 -328q184 -209 184 -522q0 -172 -59 -319.5t-163.5 -251t-252.5 -162.5t-320 -59z
M864 260q217 0 353.5 144.5t136.5 365.5t-136.5 363.5t-353.5 142.5t-353 -142.5t-136 -363.5t136 -365.5t353 -144.5z" />
    <glyph glyph-name="uni1EDD" unicode="&#x1edd;" horiz-adv-x="1243" 
d="M250 1440h350l195 -285h-248zM629 -20q-244 0 -403.5 152t-159.5 390q0 233 160 382t403 149q115 0 213 -37q64 1 99.5 40t35.5 107v86h285v-90q0 -247 -183 -321q99 -140 99 -316q0 -157 -71.5 -281t-196.5 -192.5t-281 -68.5zM887 518q0 118 -74 194t-188 76
q-117 0 -192 -76t-75 -194q0 -120 75 -197t192 -77q114 0 188 77t74 197z" />
    <glyph glyph-name="uni1EDE" unicode="&#x1ede;" horiz-adv-x="1728" 
d="M985 1624h-205q83 74 117.5 115.5t34.5 72.5q0 32 -18.5 49t-49.5 17q-29 0 -49 -19t-20 -49h-158q0 96 64 155.5t163 59.5q100 0 165 -56.5t65 -151.5q0 -87 -109 -193zM864 -20q-230 0 -411 100.5t-282 281t-101 410.5q0 227 101.5 406.5t282.5 278.5t410 99
q205 0 365 -77h20q66 0 103 39t37 108v115h284v-119q0 -258 -198 -328q184 -209 184 -522q0 -172 -59 -319.5t-163.5 -251t-252.5 -162.5t-320 -59zM864 260q217 0 353.5 144.5t136.5 365.5t-136.5 363.5t-353.5 142.5t-353 -142.5t-136 -363.5t136 -365.5t353 -144.5z" />
    <glyph glyph-name="uni1EDF" unicode="&#x1edf;" horiz-adv-x="1243" 
d="M727 1112h-205q83 74 117.5 115.5t34.5 72.5q0 32 -18.5 49t-49.5 17q-29 0 -49 -19t-20 -49h-158q0 96 64 155.5t163 59.5q100 0 165 -56.5t65 -151.5q0 -87 -109 -193zM629 -20q-244 0 -403.5 152t-159.5 390q0 233 160 382t403 149q115 0 213 -37q64 1 99.5 40
t35.5 107v86h285v-90q0 -247 -183 -321q99 -140 99 -316q0 -157 -71.5 -281t-196.5 -192.5t-281 -68.5zM887 518q0 118 -74 194t-188 76q-117 0 -192 -76t-75 -194q0 -120 75 -197t192 -77q114 0 188 77t74 197z" />
    <glyph glyph-name="uni1EE0" unicode="&#x1ee0;" horiz-adv-x="1728" 
d="M991 1665q-49 0 -134.5 29.5t-108.5 29.5q-34 0 -55 -18.5t-21 -50.5h-158q-4 129 56.5 206.5t166.5 77.5q49 0 142 -31.5t110 -31.5q34 0 56 20t22 52h156q6 -126 -58 -204.5t-174 -78.5zM864 -20q-230 0 -411 100.5t-282 281t-101 410.5q0 227 101.5 406.5t282.5 278.5
t410 99q205 0 365 -77h20q66 0 103 39t37 108v115h284v-119q0 -258 -198 -328q184 -209 184 -522q0 -172 -59 -319.5t-163.5 -251t-252.5 -162.5t-320 -59zM864 260q217 0 353.5 144.5t136.5 365.5t-136.5 363.5t-353.5 142.5t-353 -142.5t-136 -363.5t136 -365.5
t353 -144.5z" />
    <glyph glyph-name="uni1EE1" unicode="&#x1ee1;" horiz-adv-x="1243" 
d="M741 1163q-49 0 -134.5 30t-108.5 30q-34 0 -55 -19t-21 -51h-158q-5 129 56 207t167 78q49 0 142 -32t110 -32q34 0 56 20t22 52h156q6 -126 -58 -204.5t-174 -78.5zM629 -20q-244 0 -403.5 152t-159.5 390q0 233 160 382t403 149q115 0 213 -37q64 1 99.5 40t35.5 107
v86h285v-90q0 -247 -183 -321q99 -140 99 -316q0 -157 -71.5 -281t-196.5 -192.5t-281 -68.5zM887 518q0 118 -74 194t-188 76q-117 0 -192 -76t-75 -194q0 -120 75 -197t192 -77q114 0 188 77t74 197z" />
    <glyph glyph-name="uni1EE2" unicode="&#x1ee2;" horiz-adv-x="1728" 
d="M864 -20q-230 0 -411 100.5t-282 281t-101 410.5q0 227 101.5 406.5t282.5 278.5t410 99q205 0 365 -77h20q66 0 103 39t37 108v115h284v-119q0 -258 -198 -328q184 -209 184 -522q0 -172 -59 -319.5t-163.5 -251t-252.5 -162.5t-320 -59zM864 260q217 0 353.5 144.5
t136.5 365.5t-136.5 363.5t-353.5 142.5t-353 -142.5t-136 -363.5t136 -365.5t353 -144.5zM862 -455q-66 0 -111.5 45.5t-45.5 110.5q0 66 45.5 114t111.5 48q59 0 107 -39l155 -119l-153 -121q-51 -39 -109 -39z" />
    <glyph glyph-name="uni1EE3" unicode="&#x1ee3;" horiz-adv-x="1243" 
d="M629 -20q-244 0 -403.5 152t-159.5 390q0 233 160 382t403 149q115 0 213 -37q64 1 99.5 40t35.5 107v86h285v-90q0 -247 -183 -321q99 -140 99 -316q0 -157 -71.5 -281t-196.5 -192.5t-281 -68.5zM887 518q0 118 -74 194t-188 76q-117 0 -192 -76t-75 -194
q0 -120 75 -197t192 -77q114 0 188 77t74 197zM627 -453q-66 0 -112 45.5t-46 110.5q0 66 46 114t112 48q58 0 106 -39l156 -119l-154 -121q-51 -39 -108 -39z" />
    <glyph glyph-name="uni1EE4" unicode="&#x1ee4;" horiz-adv-x="1548" 
d="M135 623v913h299v-909q0 -172 91.5 -271.5t248.5 -99.5q155 0 248.5 100t93.5 271v909h297v-913q0 -291 -177 -467t-464 -176q-288 0 -462.5 176t-174.5 467zM758 -471q-66 0 -112 45.5t-46 110.5q0 66 46 113.5t112 47.5q58 0 106 -39l156 -118l-154 -121
q-51 -39 -108 -39z" />
    <glyph glyph-name="uni1EE5" unicode="&#x1ee5;" horiz-adv-x="1189" 
d="M793 451v581h284v-579q0 -216 -133 -344.5t-350 -128.5q-216 0 -349.5 128.5t-133.5 344.5v579h284v-581q0 -99 54.5 -153t144.5 -54q91 0 145 54t54 153zM565 -451q-66 0 -111.5 45.5t-45.5 110.5q0 66 45.5 114t111.5 48q59 0 107 -39l155 -119l-153 -121
q-51 -39 -109 -39z" />
    <glyph glyph-name="uni1EE6" unicode="&#x1ee6;" horiz-adv-x="1548" 
d="M848 1700h-205q83 74 117.5 115.5t34.5 72.5q0 32 -18.5 49t-49.5 17q-29 0 -49.5 -19t-20.5 -49h-157q0 96 64 155.5t163 59.5q100 0 164.5 -57t64.5 -152q0 -87 -108 -192zM135 623v913h299v-909q0 -172 91.5 -271.5t248.5 -99.5q155 0 248.5 100t93.5 271v909h297
v-913q0 -291 -177 -467t-464 -176q-288 0 -462.5 176t-174.5 467z" />
    <glyph glyph-name="uni1EE7" unicode="&#x1ee7;" horiz-adv-x="1189" 
d="M686 1130h-205q83 73 117.5 115.5t34.5 73.5q0 32 -18.5 48.5t-49.5 16.5q-29 0 -49 -18.5t-20 -48.5h-158q0 96 64 155.5t163 59.5q100 0 165 -57t65 -152q0 -87 -109 -193zM793 451v581h284v-579q0 -216 -133 -344.5t-350 -128.5q-216 0 -349.5 128.5t-133.5 344.5v579
h284v-581q0 -99 54.5 -153t144.5 -54q91 0 145 54t54 153z" />
    <glyph glyph-name="uni1EE8" unicode="&#x1ee8;" horiz-adv-x="1548" 
d="M821 1907h353l-300 -285h-247zM135 623v913h299v-909q0 -172 91.5 -271.5t248.5 -99.5q155 0 248.5 100t93.5 271v909h178q65 0 92 28t27 97v86h285v-90q0 -157 -73.5 -242.5t-211.5 -103.5v-688q0 -291 -177 -467t-464 -176q-288 0 -462.5 176t-174.5 467z" />
    <glyph glyph-name="uni1EE9" unicode="&#x1ee9;" horiz-adv-x="1189" 
d="M653 1436h353l-299 -285h-248zM793 451v581h147q65 0 102 41t37 111v86h285v-90q0 -157 -74 -244t-213 -105v-378q0 -216 -133 -344.5t-350 -128.5q-216 0 -349.5 128.5t-133.5 344.5v579h284v-581q0 -99 54.5 -153t144.5 -54q91 0 145 54t54 153z" />
    <glyph glyph-name="uni1EEA" unicode="&#x1eea;" horiz-adv-x="1548" 
d="M346 1921h350l195 -285h-248zM135 623v913h299v-909q0 -172 91.5 -271.5t248.5 -99.5q155 0 248.5 100t93.5 271v909h178q65 0 92 28t27 97v86h285v-90q0 -157 -73.5 -242.5t-211.5 -103.5v-688q0 -291 -177 -467t-464 -176q-288 0 -462.5 176t-174.5 467z" />
    <glyph glyph-name="uni1EEB" unicode="&#x1eeb;" horiz-adv-x="1189" 
d="M197 1436h350l194 -285h-247zM793 451v581h147q65 0 102 41t37 111v86h285v-90q0 -157 -74 -244t-213 -105v-378q0 -216 -133 -344.5t-350 -128.5q-216 0 -349.5 128.5t-133.5 344.5v579h284v-581q0 -99 54.5 -153t144.5 -54q91 0 145 54t54 153z" />
    <glyph glyph-name="uni1EEC" unicode="&#x1eec;" horiz-adv-x="1548" 
d="M870 1630h-204q82 73 116.5 115.5t34.5 73.5q0 32 -18 48.5t-49 16.5q-29 0 -49.5 -18.5t-20.5 -48.5h-158q0 96 64.5 155.5t163.5 59.5q100 0 164.5 -57t64.5 -152q0 -87 -109 -193zM135 623v913h299v-909q0 -172 91.5 -271.5t248.5 -99.5q155 0 248.5 100t93.5 271v909
h178q65 0 92 28t27 97v86h285v-90q0 -157 -73.5 -242.5t-211.5 -103.5v-688q0 -291 -177 -467t-464 -176q-288 0 -462.5 176t-174.5 467z" />
    <glyph glyph-name="uni1EED" unicode="&#x1eed;" horiz-adv-x="1189" 
d="M700 1176h-204q82 73 116.5 115t34.5 73q0 33 -18 49.5t-49 16.5q-29 0 -49.5 -19t-20.5 -49h-158q0 96 64.5 155.5t163.5 59.5q100 0 164.5 -57t64.5 -152q0 -86 -109 -192zM793 451v581h147q65 0 102 41t37 111v86h285v-90q0 -157 -74 -244t-213 -105v-378
q0 -216 -133 -344.5t-350 -128.5q-216 0 -349.5 128.5t-133.5 344.5v579h284v-581q0 -99 54.5 -153t144.5 -54q91 0 145 54t54 153z" />
    <glyph glyph-name="uni1EEE" unicode="&#x1eee;" horiz-adv-x="1548" 
d="M922 1673q-49 0 -135 30t-109 30q-34 0 -55 -19t-21 -51h-158q-4 129 57 207t167 78q49 0 142 -32t110 -32q34 0 55.5 20t21.5 52h156q6 -126 -57.5 -204.5t-173.5 -78.5zM135 623v913h299v-909q0 -172 91.5 -271.5t248.5 -99.5q155 0 248.5 100t93.5 271v909h178
q65 0 92 28t27 97v86h285v-90q0 -157 -73.5 -242.5t-211.5 -103.5v-688q0 -291 -177 -467t-464 -176q-288 0 -462.5 176t-174.5 467z" />
    <glyph glyph-name="uni1EEF" unicode="&#x1eef;" horiz-adv-x="1189" 
d="M743 1135q-49 0 -134.5 29.5t-108.5 29.5q-34 0 -55 -19t-21 -51h-158q-5 129 56 207t167 78q49 0 142 -31.5t110 -31.5q34 0 56 19.5t22 51.5h156q6 -126 -58 -204t-174 -78zM793 451v581h147q65 0 102 41t37 111v86h285v-90q0 -157 -74 -244t-213 -105v-378
q0 -216 -133 -344.5t-350 -128.5q-216 0 -349.5 128.5t-133.5 344.5v579h284v-581q0 -99 54.5 -153t144.5 -54q91 0 145 54t54 153z" />
    <glyph glyph-name="uni1EF0" unicode="&#x1ef0;" horiz-adv-x="1548" 
d="M135 623v913h299v-909q0 -172 91.5 -271.5t248.5 -99.5q155 0 248.5 100t93.5 271v909h178q65 0 92 28t27 97v86h285v-90q0 -157 -73.5 -242.5t-211.5 -103.5v-688q0 -291 -177 -467t-464 -176q-288 0 -462.5 176t-174.5 467zM756 -481q-66 0 -112 45t-46 110
q0 66 46 114t112 48q58 0 106 -39l156 -119l-154 -120q-51 -39 -108 -39z" />
    <glyph glyph-name="uni1EF1" unicode="&#x1ef1;" horiz-adv-x="1189" 
d="M793 451v581h147q65 0 102 41t37 111v86h285v-90q0 -157 -74 -244t-213 -105v-378q0 -216 -133 -344.5t-350 -128.5q-216 0 -349.5 128.5t-133.5 344.5v579h284v-581q0 -99 54.5 -153t144.5 -54q91 0 145 54t54 153zM592 -451q-66 0 -112 45.5t-46 110.5q0 66 46 114
t112 48q58 0 106 -39l156 -119l-154 -121q-51 -39 -108 -39z" />
    <glyph glyph-name="Ygrave" unicode="&#x1ef2;" horiz-adv-x="1478" 
d="M379 1933h350l195 -284h-248zM1468 1536l-569 -971v-565h-297v539l-594 997h344l393 -688l394 688h329z" />
    <glyph glyph-name="ygrave" unicode="&#x1ef3;" horiz-adv-x="1134" 
d="M201 1460h350l194 -284h-247zM1133 1032l-750 -1544h-297l342 709l-426 835h334l248 -518l250 518h299z" />
    <glyph glyph-name="uni1EF4" unicode="&#x1ef4;" horiz-adv-x="1478" 
d="M1468 1536l-569 -971v-565h-297v539l-594 997h344l393 -688l394 688h329zM721 -465q-66 0 -112 45.5t-46 110.5q0 66 46 114t112 48q58 0 106 -39l156 -119l-154 -121q-51 -39 -108 -39z" />
    <glyph glyph-name="uni1EF5" unicode="&#x1ef5;" horiz-adv-x="1134" 
d="M1133 1032l-750 -1544h-297l342 709l-426 835h334l248 -518l250 518h299zM821 -487q-66 0 -111.5 45t-45.5 110q0 66 45.5 114t111.5 48q59 0 107 -39l155 -119l-153 -121q-50 -38 -109 -38z" />
    <glyph glyph-name="uni1EF6" unicode="&#x1ef6;" horiz-adv-x="1478" 
d="M834 1628h-205q82 73 116.5 115.5t34.5 73.5q0 32 -18 48.5t-49 16.5q-29 0 -49.5 -18.5t-20.5 -48.5h-158q0 96 64.5 155.5t163.5 59.5q100 0 164.5 -57t64.5 -152q0 -88 -108 -193zM1468 1536l-569 -971v-565h-297v539l-594 997h344l393 -688l394 688h329z" />
    <glyph glyph-name="uni1EF7" unicode="&#x1ef7;" horiz-adv-x="1134" 
d="M684 1114h-205q83 73 117.5 115.5t34.5 73.5q0 32 -18.5 48.5t-49.5 16.5q-29 0 -49 -19t-20 -49h-158q0 96 64 156t163 60q100 0 165 -57t65 -152q0 -87 -109 -193zM1133 1032l-750 -1544h-297l342 709l-426 835h334l248 -518l250 518h299z" />
    <glyph glyph-name="uni1EF8" unicode="&#x1ef8;" horiz-adv-x="1478" 
d="M881 1626q-49 0 -135 30t-109 30q-34 0 -55 -19t-21 -51h-158q-4 129 57 207t167 78q49 0 142 -32t110 -32q34 0 55.5 20t21.5 52h156q6 -126 -57.5 -204.5t-173.5 -78.5zM1468 1536l-569 -971v-565h-297v539l-594 997h344l393 -688l394 688h329z" />
    <glyph glyph-name="uni1EF9" unicode="&#x1ef9;" horiz-adv-x="1134" 
d="M733 1151q-49 0 -135 29.5t-109 29.5q-34 0 -54.5 -18.5t-20.5 -50.5h-158q-4 129 56.5 206.5t166.5 77.5q49 0 142 -31.5t110 -31.5q34 0 56 20t22 52h156q6 -126 -58 -204.5t-174 -78.5zM1133 1032l-750 -1544h-297l342 709l-426 835h334l248 -518l250 518h299z" />
    <glyph glyph-name="endash" unicode="&#x2013;" horiz-adv-x="1024" 
d="M41 477v248h942v-248h-942z" />
    <glyph glyph-name="emdash" unicode="&#x2014;" horiz-adv-x="2048" 
d="M41 725h1966v-248h-1966v248z" />
    <glyph glyph-name="quoteleft" unicode="&#x2018;" horiz-adv-x="487" 
d="M266 1536h176l-149 -276q53 -23 84 -64t31 -96q0 -74 -49.5 -120t-125.5 -46t-125 48.5t-49 123.5q0 76 50 158z" />
    <glyph glyph-name="quoteright" unicode="&#x2019;" horiz-adv-x="487" 
d="M223 956h-176l150 277q-117 50 -117 160q0 73 49 118t125 45t124 -48.5t48 -123.5q0 -76 -49 -155z" />
    <glyph glyph-name="quotesinglbase" unicode="&#x201a;" horiz-adv-x="487" 
d="M223 -332h-176l150 279q-54 21 -85.5 61t-31.5 96q0 73 49 118.5t125 45.5t124 -48.5t48 -123.5q0 -74 -49 -153z" />
    <glyph glyph-name="quotedblleft" unicode="&#x201c;" horiz-adv-x="917" 
d="M262 1536h178l-151 -276q54 -23 85.5 -64t31.5 -96q0 -74 -49 -120t-126 -46q-75 0 -123.5 48.5t-48.5 123.5q0 70 50 158zM694 1536h176l-149 -276q53 -23 84 -64t31 -96q0 -75 -48.5 -120.5t-125.5 -45.5q-75 0 -124 48.5t-49 123.5q0 64 50 158z" />
    <glyph glyph-name="quotedblright" unicode="&#x201d;" horiz-adv-x="917" 
d="M223 956h-176l150 277q-117 50 -117 160q0 73 49 118t125 45t124 -48.5t48 -123.5q0 -76 -49 -155zM653 956h-176l150 277q-115 49 -115 160q0 73 49 118t125 45t124 -48.5t48 -123.5q0 -70 -49 -155z" />
    <glyph glyph-name="quotedblbase" unicode="&#x201e;" horiz-adv-x="917" 
d="M223 -332h-176l150 279q-54 21 -85.5 61t-31.5 96q0 73 49 118.5t125 45.5t124 -48.5t48 -123.5q0 -74 -49 -153zM653 -332h-176l150 279q-115 46 -115 157q0 73 49 118.5t125 45.5t124 -48.5t48 -123.5q0 -68 -49 -153z" />
    <glyph glyph-name="dagger" unicode="&#x2020;" horiz-adv-x="958" 
d="M854 1047h-274v-619h-201v619h-275v202h275v287h201v-287h274v-202z" />
    <glyph glyph-name="daggerdbl" unicode="&#x2021;" horiz-adv-x="958" 
d="M854 360h-274v-360h-201v360h-275v201h275v426h-275v201h275v348h201v-348h274v-201h-274v-426h274v-201z" />
    <glyph glyph-name="bullet" unicode="&#x2022;" horiz-adv-x="878" 
d="M438 399q-124 0 -213.5 88.5t-89.5 212.5q0 125 89.5 214.5t213.5 89.5q126 0 215.5 -89t89.5 -215q0 -124 -89.5 -212.5t-215.5 -88.5z" />
    <glyph glyph-name="ellipsis" unicode="&#x2026;" horiz-adv-x="1675" 
d="M274 -20q-82 0 -132 48t-50 126t50.5 127t131.5 49q80 0 130.5 -49t50.5 -127t-50.5 -126t-130.5 -48zM840 -20q-82 0 -133.5 48t-51.5 126t51.5 127t133.5 49q78 0 128 -49t50 -127t-50 -126t-128 -48zM1403 -20q-80 0 -131 48t-51 126t51 127t131 49t130 -49t50 -127
t-50 -126t-130 -48z" />
    <glyph glyph-name="perthousand" unicode="&#x2030;" horiz-adv-x="3051" 
d="M489 756q-185 0 -306.5 114t-121.5 289q0 170 122 283.5t306 113.5q186 0 307.5 -113t121.5 -284q0 -175 -121.5 -289t-307.5 -114zM1782 1536l-1207 -1536h-251l1206 1536h252zM489 952q89 0 148 59t59 148q0 86 -59 142.5t-148 56.5t-147.5 -56.5t-58.5 -142.5
q0 -89 58.5 -148t147.5 -59zM2562 -20q-184 0 -306 113.5t-122 285.5q0 173 121.5 286t306.5 113t306.5 -113t121.5 -286q0 -172 -122 -285.5t-306 -113.5zM1614 -20q-186 0 -308 113.5t-122 285.5q0 173 122 286t308 113q185 0 306.5 -113t121.5 -286q0 -172 -122 -285.5
t-306 -113.5zM1819 379q0 88 -58 145.5t-147 57.5q-90 0 -148.5 -57.5t-58.5 -145.5t58.5 -145.5t148.5 -57.5q89 0 147 57.5t58 145.5zM2769 379q0 87 -59.5 145t-147.5 58q-89 0 -148 -57.5t-59 -145.5t59 -145.5t148 -57.5q88 0 147.5 58t59.5 145z" />
    <glyph glyph-name="guilsinglleft" unicode="&#x2039;" horiz-adv-x="710" 
d="M350 121l-291 434l291 416h289l-291 -416l291 -434h-289z" />
    <glyph glyph-name="guilsinglright" unicode="&#x203a;" horiz-adv-x="710" 
d="M360 121h-288l288 434l-288 416h288l289 -416z" />
    <glyph glyph-name="fraction" unicode="&#x2044;" horiz-adv-x="940" 
d="M18 0h-251l1155 1536h252z" />
    <glyph glyph-name="zerosuperior" unicode="&#x2070;" horiz-adv-x="1075" 
d="M989 1053q0 -140 -49.5 -253t-154 -183t-248.5 -70q-109 0 -196.5 40.5t-142.5 110t-84.5 160.5t-29.5 195q0 105 29 195.5t84.5 159.5t143 108.5t196.5 39.5q144 0 248 -69t154 -181t50 -253zM537 737q73 0 122.5 46.5t69 115t19.5 154.5q0 63 -11.5 117.5t-35.5 99.5
t-66 70.5t-98 25.5t-98 -25.5t-66.5 -70.5t-36.5 -99.5t-12 -117.5t12 -118t36.5 -100.5t66.5 -71.5t98 -26z" />
    <glyph glyph-name="foursuperior" unicode="&#x2074;" horiz-adv-x="935" 
d="M911 750h-120v-195h-228v195h-569l391 786h236l-293 -604h235v262h228v-262h120v-182z" />
    <glyph glyph-name="fivesuperior" unicode="&#x2075;" horiz-adv-x="905" 
d="M455 1180q172 0 274 -89.5t102 -232.5q0 -152 -120 -243t-316 -91q-168 0 -303 72v203q62 -41 139 -66.5t148 -25.5q94 0 151.5 40.5t57.5 112.5q0 70 -53.5 111t-147.5 41q-121 0 -264 -41v565h655v-178h-426v-189q45 11 103 11z" />
    <glyph glyph-name="sixsuperior" unicode="&#x2076;" horiz-adv-x="948" 
d="M471 524q-183 0 -301.5 92t-118.5 242q0 115 92 244l328 434h268l-272 -354q16 2 51 2q165 -3 272 -93t107 -229q0 -151 -121 -244.5t-305 -93.5zM471 709q78 0 129 44.5t51 112.5q0 66 -51 109t-129 43q-75 0 -123 -39q-55 -42 -55 -115q0 -68 50 -111.5t128 -43.5z" />
    <glyph glyph-name="sevensuperior" unicode="&#x2077;" horiz-adv-x="841" 
d="M309 561h-254l443 795h-475v180h827z" />
    <glyph glyph-name="eightsuperior" unicode="&#x2078;" horiz-adv-x="970" 
d="M485 526q-181 0 -298 84t-117 224q0 83 52.5 147.5t143.5 95.5q-68 34 -105.5 87.5t-37.5 119.5q0 122 102 196t260 74q157 0 260 -74t103 -196q0 -63 -37.5 -117.5t-105.5 -89.5q93 -32 144.5 -96t51.5 -147q0 -140 -117.5 -224t-298.5 -84zM485 1157q60 0 98 31t38 82
q0 48 -37.5 78t-98.5 30q-60 0 -98.5 -30.5t-38.5 -77.5q0 -51 38.5 -82t98.5 -31zM485 713q78 0 125 36.5t47 96.5q0 58 -47.5 94.5t-124.5 36.5q-76 0 -125 -36.5t-49 -94.5q0 -60 48.5 -96.5t125.5 -36.5z" />
    <glyph glyph-name="ninesuperior" unicode="&#x2079;" horiz-adv-x="937" 
d="M475 559h-264l264 342q-36 -4 -53 -4q-161 0 -266 91t-105 231q0 150 118.5 241.5t301.5 91.5t299.5 -90t116.5 -239q0 -123 -90 -242zM471 1065q89 0 139 53q39 39 39 99q0 66 -50 107.5t-128 41.5q-77 0 -127.5 -42.5t-50.5 -109.5q0 -66 50.5 -107.5t127.5 -41.5z" />
    <glyph glyph-name="won" unicode="&#x20a9;" horiz-adv-x="2326" 
d="M0 489v201h395l-78 172h-317v201h227l-213 473h342l201 -473h377l237 516l236 -516h373l200 473h332l-215 -473h191v-201h-281l-78 -172h359v-201h-451l-242 -532l-239 532h-385l-246 -532l-240 532h-485zM715 690h47l80 172h-201zM1063 690h203l-78 172h-47zM1577 690
h43l74 172h-195z" />
    <glyph glyph-name="dong" unicode="&#x20ab;" 
d="M885 365v116q-121 -137 -305 -137q-225 0 -369.5 151t-144.5 382q0 234 144.5 387t369.5 153q185 0 305 -139v221h-238v189h238v114h286v-114h138v-189h-138v-1134h-286zM618 1153q-113 0 -186.5 -77.5t-73.5 -198.5q0 -117 73.5 -193t186.5 -76q116 0 191.5 76t75.5 193
q0 121 -75.5 198.5t-191.5 77.5zM154 0v229h1017v-229h-1017z" />
    <glyph glyph-name="Euro" unicode="&#x20ac;" horiz-adv-x="1415" 
d="M1325 51q-177 -71 -364 -71q-255 0 -442 136.5t-263 368.5h-203v199h164q-4 58 -4 84t4 76h-164v200h201q76 235 267 373.5t450 138.5q218 0 401 -104l-88 -248q-144 84 -309 84q-132 0 -233 -65.5t-158 -178.5h639l-68 -200h-633q-4 -50 -4 -74q0 -46 6 -86h576
l-72 -199h-438q61 -111 165.5 -174t237.5 -63q184 0 332 80v-277z" />
    <glyph glyph-name="uni20B9" unicode="&#x20b9;" horiz-adv-x="1251" 
d="M1122 0h-352l-344 535h-338v241h358q105 0 174.5 41.5t94.5 118.5h-627v192h623q-25 73 -93.5 113.5t-171.5 40.5h-358v254h1112v-193h-280q72 -98 92 -215h188v-192h-186q-23 -123 -97.5 -212t-185.5 -136z" />
    <glyph glyph-name="uni2113" unicode="&#x2113;" horiz-adv-x="1036" 
d="M98 358h-61v232h55q65 0 111 10v563q0 173 106.5 283t282.5 110q170 0 275.5 -105t105.5 -275v-97q0 -219 -136.5 -392.5t-342.5 -254.5q4 -94 59.5 -142t153.5 -48q101 0 227 65v-246q-116 -81 -309 -81q-182 0 -296.5 109t-125.5 278q-52 -9 -105 -9zM494 1171v-479
q95 61 148.5 156t53.5 219v104q0 56 -25.5 92.5t-74.5 36.5q-50 0 -76 -36.5t-26 -92.5z" />
    <glyph glyph-name="trademark" unicode="&#x2122;" horiz-adv-x="1744" 
d="M1235 1001l-209 173v-312h-172v692l381 -329l381 329v-692h-174v316zM68 1376v160h659v-160h-244v-514h-172v514h-243z" />
    <glyph glyph-name="estimated" unicode="&#x212e;" horiz-adv-x="1597" 
d="M1536 625h-1194q-10 0 -10 -9v-360q0 -25 16 -41q88 -93 205 -145t248 -52q139 0 262 58.5t213 161.5h106q-101 -119 -254 -187.5t-329 -68.5q-150 0 -287 52t-235.5 140.5t-157 211t-58.5 257.5t58.5 258t157 212t235.5 141.5t287 52.5q201 0 370.5 -89t268 -241.5
t98.5 -333.5v-18zM1266 672v364q0 24 -19 43q-89 89 -204 139t-242 50q-129 0 -246 -52t-205 -143q-18 -18 -18 -45v-356q0 -10 10 -10h915q9 0 9 10z" />
    <glyph glyph-name="partialdiff" unicode="&#x2202;" horiz-adv-x="1241" 
d="M1145 637q0 -185 -67 -333t-200.5 -236t-312.5 -88q-216 0 -356.5 135t-140.5 360q0 214 144.5 348.5t367.5 134.5q135 0 251 -98q-31 204 -160 328.5t-317 124.5v243q182 0 331.5 -69t250 -191.5t155 -291.5t54.5 -367zM604 244q107 0 174.5 67.5t67.5 173.5
q0 102 -67.5 167t-170.5 65q-104 0 -170.5 -68t-66.5 -174q0 -101 66 -166t167 -65z" />
    <glyph glyph-name="product" unicode="&#x220f;" horiz-adv-x="1564" 
d="M147 -342v1878h1270v-1878h-293v1618h-686v-1618h-291z" />
    <glyph glyph-name="summation" unicode="&#x2211;" horiz-adv-x="1271" 
d="M45 -82l563 688l-563 668v260h1188v-260h-825l555 -668l-562 -688h832v-260h-1188v260z" />
    <glyph glyph-name="minus" unicode="&#x2212;" horiz-adv-x="1273" 
d="M164 659v240h946v-240h-946z" />
    <glyph glyph-name="uni2215" unicode="&#x2215;" horiz-adv-x="940" 
d="M18 0h-251l1155 1536h252z" />
    <glyph glyph-name="radical" unicode="&#x221a;" horiz-adv-x="1507" 
d="M735 -39l-428 817h-291v254h482l239 -508l482 1012h301z" />
    <glyph glyph-name="infinity" unicode="&#x221e;" horiz-adv-x="1847" 
d="M1346 289q-245 0 -420 246q-81 -114 -188.5 -180t-235.5 -66q-193 0 -312.5 129.5t-119.5 331.5q0 134 53 241t153.5 169.5t231.5 62.5q239 0 416 -250q171 250 417 250q197 0 317 -133.5t120 -339.5q0 -202 -119.5 -331.5t-312.5 -129.5zM1315 967q-25 0 -47.5 -5.5
t-43 -19.5t-35 -25.5t-34 -36.5t-29 -38t-30.5 -45t-29 -43q10 -14 34.5 -49.5t36 -51t35 -41.5t42 -37.5t45.5 -21.5t57 -10q86 0 135 60t49 151q0 92 -49 152.5t-137 60.5zM532 967q-89 0 -138.5 -61t-49.5 -154q0 -90 49 -149.5t137 -59.5q25 0 47.5 5.5t43.5 19.5
t35.5 25.5t34.5 36.5t29.5 37.5t31 44t28.5 42.5q-6 8 -25 37.5t-26 39.5t-25 34.5t-28.5 34t-29 26t-34.5 23.5t-37 12.5t-43 5.5z" />
    <glyph glyph-name="integral" unicode="&#x222b;" horiz-adv-x="866" 
d="M160 -532q-113 0 -209 38v254q73 -36 160 -36q64 0 103.5 42.5t39.5 110.5v1270q0 185 106.5 297t288.5 112q109 0 203 -40v-254q-72 38 -162 38q-63 0 -104 -44.5t-41 -116.5v-1280q0 -178 -104.5 -284.5t-280.5 -106.5z" />
    <glyph glyph-name="approxequal" unicode="&#x2248;" horiz-adv-x="1273" 
d="M438 1155q71 0 200.5 -49t203.5 -49q69 0 140.5 29t121.5 77v-243q-47 -45 -119 -72t-145 -27q-72 0 -202 50.5t-202 50.5q-67 0 -138.5 -33t-127.5 -86v244q50 50 122.5 79t145.5 29zM438 709q71 0 200.5 -49.5t203.5 -49.5q70 0 141.5 29.5t120.5 79.5v-246
q-47 -45 -119 -71.5t-145 -26.5q-72 0 -202 49t-202 49q-68 0 -139.5 -32.5t-126.5 -86.5v246q50 50 122.5 79.5t145.5 29.5z" />
    <glyph glyph-name="notequal" unicode="&#x2260;" horiz-adv-x="1273" 
d="M1110 420h-524l-123 -264h-213l123 264h-209v237h319l103 215h-422v238h532l113 238h213l-111 -238h199v-238h-311l-101 -215h412v-237z" />
    <glyph glyph-name="lessequal" unicode="&#x2264;" horiz-adv-x="1273" 
d="M1055 766v-258l-840 334v266l840 334v-256l-582 -209zM215 696l840 -334v-245l-840 334v245z" />
    <glyph glyph-name="greaterequal" unicode="&#x2265;" horiz-adv-x="1273" 
d="M1059 842l-840 -334v258l582 211l-582 209v256l840 -334v-266zM1059 696v-245l-840 -334v245z" />
    <glyph glyph-name="lozenge" unicode="&#x25ca;" horiz-adv-x="1202" 
d="M1186 754l-584 -793l-586 793l586 807zM868 760l-268 381l-268 -381l268 -381z" />
    <glyph glyph-name="commaaccent" unicode="&#xf6c3;" horiz-adv-x="1009" 
d="M399 -119h273l-211 -342h-178z" />
    <glyph glyph-name="apple" unicode="&#xf8ff;" horiz-adv-x="1019" 
d="M610 1257h-446q-41 0 -73 15.5t-48.5 40t-24.5 54t-0.5 59.5t24 54.5t49 40t73.5 15.5h577zM416 0h-312l725 1526q113 -25 159.5 -122t-5.5 -210z" />
    <glyph glyph-name="a.alt" horiz-adv-x="1218" 
d="M1081 1032v-1032h-481q-252 0 -393 135t-141 381q0 239 146.5 377.5t387.5 138.5h481zM795 776h-185q-126 0 -189 -69.5t-63 -190.5t62.5 -190.5t189.5 -69.5h185v520z" />
    <glyph glyph-name="a.alt2" horiz-adv-x="1128" 
d="M150 805v227h839v-1032h-565q-166 0 -261 86.5t-95 239.5q0 155 98 242t272 87h267v150h-555zM705 440h-226q-57 0 -89 -30.5t-32 -83.5q0 -52 31.5 -81.5t89.5 -29.5h226v225z" />
    <glyph glyph-name="b.alt" horiz-adv-x="1222" 
d="M139 0v1536h283v-504h205q248 0 389 -137t141 -381q0 -158 -71 -276t-190 -178t-269 -60h-488zM422 776v-520h196q116 0 181 68.5t65 189.5q0 122 -65 192t-181 70h-196z" />
    <glyph glyph-name="d.alt" horiz-adv-x="1222" 
d="M797 1536h284v-1536h-487q-247 0 -387.5 136.5t-140.5 381.5q0 158 70.5 276t189 178t268.5 60h203v504zM797 776h-195q-115 0 -179.5 -69.5t-64.5 -188.5q0 -122 64.5 -192t179.5 -70h195v520z" />
    <glyph glyph-name="e.alt" horiz-adv-x="1136" 
d="M1022 0h-901v633q0 188 138 304t357 116q126 0 226 -37t161.5 -115t61.5 -186q0 -156 -121 -244t-301 -88h-240v-145h619v-238zM403 657v-71h215q166 0 166 114q0 60 -51 90.5t-127 30.5q-86 0 -144.5 -45t-58.5 -119z" />
    <glyph glyph-name="e.alt2" horiz-adv-x="1153" 
d="M1038 0h-899v1032h912v-282q0 -166 -115 -264.5t-311 -98.5h-203v-160h616v-227zM422 811v-211h201q64 0 104.5 37t40.5 96v78h-346z" />
    <glyph glyph-name="h.alt2" horiz-adv-x="1241" 
d="M422 1536v-504h680v-1032h-285v778h-395v-778h-283v1536h283z" />
    <glyph glyph-name="m.alt2" horiz-adv-x="1847" 
d="M139 0v1032h1569v-1032h-285v778h-356v-778h-285v778h-360v-778h-283z" />
    <glyph glyph-name="n.alt2" horiz-adv-x="1241" 
d="M139 0v1032h963v-1032h-285v778h-395v-778h-283z" />
    <glyph glyph-name="p.alt" horiz-adv-x="1222" 
d="M627 0h-205v-512h-283v1544h488q248 0 389 -137t141 -381q0 -158 -71 -276t-190 -178t-269 -60zM422 776v-520h196q116 0 181 68.5t65 189.5q0 122 -65 192t-181 70h-196z" />
    <glyph glyph-name="q.alt" horiz-adv-x="1222" 
d="M1081 -512h-284v512h-203q-247 0 -387.5 136.5t-140.5 381.5q0 158 70.5 276t189 178t268.5 60h487v-1544zM602 256h195v520h-195q-115 0 -179.5 -69.5t-64.5 -188.5q0 -122 64.5 -192t179.5 -70z" />
    <glyph glyph-name="r.alt" horiz-adv-x="858" 
d="M858 868l-436 -395v-473h-283v1032h283v-209l256 240z" />
    <glyph glyph-name="r.alt2" horiz-adv-x="817" 
d="M139 0v1032h637v-254h-354v-778h-283z" />
    <glyph glyph-name="aacute.alt" horiz-adv-x="1218" 
d="M698 1460h353l-299 -284h-248zM1081 1032v-1032h-481q-252 0 -393 135t-141 381q0 239 146.5 377.5t387.5 138.5h481zM795 776h-185q-126 0 -189 -69.5t-63 -190.5t62.5 -190.5t189.5 -69.5h185v520z" />
    <glyph glyph-name="acircumflex.alt" horiz-adv-x="1218" 
d="M827 1176l-141 129l-143 -129h-256l245 284h306l245 -284h-256zM1081 1032v-1032h-481q-252 0 -393 135t-141 381q0 239 146.5 377.5t387.5 138.5h481zM795 776h-185q-126 0 -189 -69.5t-63 -190.5t62.5 -190.5t189.5 -69.5h185v520z" />
    <glyph glyph-name="adieresis.alt" horiz-adv-x="1218" 
d="M481 1182q-66 0 -106.5 39t-40.5 102q0 64 40.5 103.5t106.5 39.5q65 0 105.5 -39.5t40.5 -103.5q0 -63 -40.5 -102t-105.5 -39zM895 1182q-66 0 -106.5 39t-40.5 102q0 64 40.5 103.5t106.5 39.5q65 0 105 -39.5t40 -103.5q0 -63 -40 -102t-105 -39zM1081 1032v-1032
h-481q-252 0 -393 135t-141 381q0 239 146.5 377.5t387.5 138.5h481zM795 776h-185q-126 0 -189 -69.5t-63 -190.5t62.5 -190.5t189.5 -69.5h185v520z" />
    <glyph glyph-name="agrave.alt" horiz-adv-x="1218" 
d="M348 1460h350l195 -284h-248zM1081 1032v-1032h-481q-252 0 -393 135t-141 381q0 239 146.5 377.5t387.5 138.5h481zM795 776h-185q-126 0 -189 -69.5t-63 -190.5t62.5 -190.5t189.5 -69.5h185v520z" />
    <glyph glyph-name="aring.alt" horiz-adv-x="1218" 
d="M692 1577q100 0 165 -58t65 -155q0 -96 -65 -156.5t-165 -60.5t-163.5 59t-63.5 156q0 96 64 155.5t163 59.5zM608 1362q0 -37 23.5 -59.5t60.5 -22.5q38 0 61 23t23 61q0 35 -23.5 57.5t-60.5 22.5q-38 0 -61 -22.5t-23 -59.5zM1081 1032v-1032h-481q-252 0 -393 135
t-141 381q0 239 146.5 377.5t387.5 138.5h481zM795 776h-185q-126 0 -189 -69.5t-63 -190.5t62.5 -190.5t189.5 -69.5h185v520z" />
    <glyph glyph-name="atilde.alt" horiz-adv-x="1218" 
d="M784 1184q-49 0 -134.5 29.5t-108.5 29.5q-34 0 -55 -18.5t-21 -50.5h-158q-4 129 56.5 206.5t166.5 77.5q49 0 142 -31.5t110 -31.5q34 0 56 19.5t22 51.5h156q6 -126 -58 -204t-174 -78zM1081 1032v-1032h-481q-252 0 -393 135t-141 381q0 239 146.5 377.5t387.5 138.5
h481zM795 776h-185q-126 0 -189 -69.5t-63 -190.5t62.5 -190.5t189.5 -69.5h185v520z" />
    <glyph glyph-name="abreve.alt" horiz-adv-x="1218" 
d="M678 1352q53 0 87.5 31.5t35.5 80.5h219q-3 -132 -97.5 -218.5t-244.5 -86.5t-243 86.5t-95 218.5h215q3 -50 37 -81t86 -31zM1081 1032v-1032h-481q-252 0 -393 135t-141 381q0 239 146.5 377.5t387.5 138.5h481zM795 776h-185q-126 0 -189 -69.5t-63 -190.5
t62.5 -190.5t189.5 -69.5h185v520z" />
    <glyph glyph-name="amacron.alt" horiz-adv-x="1218" 
d="M336 1425h647v-213h-647v213zM1081 1032v-1032h-481q-252 0 -393 135t-141 381q0 239 146.5 377.5t387.5 138.5h481zM795 776h-185q-126 0 -189 -69.5t-63 -190.5t62.5 -190.5t189.5 -69.5h185v520z" />
    <glyph glyph-name="aogonek.alt" horiz-adv-x="1226" 
d="M1081 -487q-74 -31 -135 -31q-99 0 -171 52t-89 144q-28 192 139 322h-225q-252 0 -393 135t-141 381q0 239 146.5 377.5t387.5 138.5h481v-1032q-90 -44 -138 -109t-32 -147q7 -38 35.5 -61t67.5 -23q37 0 67 12v-159zM795 776h-185q-126 0 -189 -69.5t-63 -190.5
t62.5 -190.5t189.5 -69.5h185v520z" />
    <glyph glyph-name="aacute.alt2" horiz-adv-x="1128" 
d="M590 1460h352l-299 -284h-248zM150 805v227h839v-1032h-565q-166 0 -261 86.5t-95 239.5q0 155 98 242t272 87h267v150h-555zM705 440h-226q-57 0 -89 -30.5t-32 -83.5q0 -52 31.5 -81.5t89.5 -29.5h226v225z" />
    <glyph glyph-name="acircumflex.alt2" horiz-adv-x="1128" 
d="M715 1176l-142 129l-143 -129h-256l246 284h305l246 -284h-256zM150 805v227h839v-1032h-565q-166 0 -261 86.5t-95 239.5q0 155 98 242t272 87h267v150h-555zM705 440h-226q-57 0 -89 -30.5t-32 -83.5q0 -52 31.5 -81.5t89.5 -29.5h226v225z" />
    <glyph glyph-name="adieresis.alt2" horiz-adv-x="1128" 
d="M383 1182q-66 0 -106.5 39t-40.5 102q0 64 40.5 103.5t106.5 39.5q65 0 105 -39.5t40 -103.5q0 -63 -40 -102t-105 -39zM797 1182q-66 0 -107 39t-41 102q0 64 41 103.5t107 39.5q65 0 105 -39.5t40 -103.5q0 -63 -40 -102t-105 -39zM150 805v227h839v-1032h-565
q-166 0 -261 86.5t-95 239.5q0 155 98 242t272 87h267v150h-555zM705 440h-226q-57 0 -89 -30.5t-32 -83.5q0 -52 31.5 -81.5t89.5 -29.5h226v225z" />
    <glyph glyph-name="agrave.alt2" horiz-adv-x="1128" 
d="M250 1460h350l195 -284h-248zM150 805v227h839v-1032h-565q-166 0 -261 86.5t-95 239.5q0 155 98 242t272 87h267v150h-555zM705 440h-226q-57 0 -89 -30.5t-32 -83.5q0 -52 31.5 -81.5t89.5 -29.5h226v225z" />
    <glyph glyph-name="aring.alt2" horiz-adv-x="1128" 
d="M586 1577q100 0 164.5 -58t64.5 -155q0 -96 -64.5 -156.5t-164.5 -60.5t-164 59t-64 156q0 96 64.5 155.5t163.5 59.5zM502 1362q0 -37 23.5 -59.5t60.5 -22.5q38 0 61 23t23 61q0 35 -23.5 57.5t-60.5 22.5q-38 0 -61 -22.5t-23 -59.5zM150 805v227h839v-1032h-565
q-166 0 -261 86.5t-95 239.5q0 155 98 242t272 87h267v150h-555zM705 440h-226q-57 0 -89 -30.5t-32 -83.5q0 -52 31.5 -81.5t89.5 -29.5h226v225z" />
    <glyph glyph-name="atilde.alt2" horiz-adv-x="1128" 
d="M717 1184q-49 0 -135 29.5t-109 29.5q-34 0 -55 -18.5t-21 -50.5h-157q-4 129 56.5 206.5t166.5 77.5q49 0 142 -31.5t110 -31.5q34 0 56 19.5t22 51.5h155q6 -126 -57.5 -204t-173.5 -78zM150 805v227h839v-1032h-565q-166 0 -261 86.5t-95 239.5q0 155 98 242t272 87
h267v150h-555zM705 440h-226q-57 0 -89 -30.5t-32 -83.5q0 -52 31.5 -81.5t89.5 -29.5h226v225z" />
    <glyph glyph-name="abreve.alt2" horiz-adv-x="1128" 
d="M590 1352q53 0 87.5 31.5t35.5 80.5h219q-3 -132 -97.5 -218.5t-244.5 -86.5t-243 86.5t-95 218.5h215q3 -50 37 -81t86 -31zM150 805v227h839v-1032h-565q-166 0 -261 86.5t-95 239.5q0 155 98 242t272 87h267v150h-555zM705 440h-226q-57 0 -89 -30.5t-32 -83.5
q0 -52 31.5 -81.5t89.5 -29.5h226v225z" />
    <glyph glyph-name="amacron.alt2" horiz-adv-x="1128" 
d="M254 1425h647v-213h-647v213zM150 805v227h839v-1032h-565q-166 0 -261 86.5t-95 239.5q0 155 98 242t272 87h267v150h-555zM705 440h-226q-57 0 -89 -30.5t-32 -83.5q0 -52 31.5 -81.5t89.5 -29.5h226v225z" />
    <glyph glyph-name="aogonek.alt2" horiz-adv-x="1128" 
d="M854 -518q-98 0 -170.5 52.5t-89.5 143.5q-28 192 139 322h-309q-166 0 -261 86.5t-95 239.5q0 155 98 242t272 87h267v150h-555v227h839v-1032q-90 -44 -138 -109t-32 -147q7 -38 35.5 -61t67.5 -23q37 0 67 12v-159q-74 -31 -135 -31zM479 215h226v225h-226
q-57 0 -89 -30.5t-32 -83.5q0 -52 31.5 -81.5t89.5 -29.5z" />
    <glyph glyph-name="dcaron.alt" horiz-adv-x="1470" 
d="M797 1536h284v-1536h-487q-247 0 -387.5 136.5t-140.5 381.5q0 158 70.5 276t189 178t268.5 60h203v504zM1368 1139h-176l61 397h269zM797 776h-195q-115 0 -179.5 -69.5t-64.5 -188.5q0 -122 64.5 -192t179.5 -70h195v520z" />
    <glyph glyph-name="dcroat.alt" horiz-adv-x="1222" 
d="M1221 1184h-138v-1184h-489q-247 0 -387.5 136.5t-140.5 381.5q0 158 70.5 276t189 178t268.5 60h205v152h-240v194h240v158h284v-158h138v-194zM799 776h-195q-116 0 -181 -69t-65 -189q0 -122 65 -192t181 -70h195v520z" />
    <glyph glyph-name="eacute.alt" horiz-adv-x="1136" 
d="M618 1460h353l-299 -284h-248zM1022 0h-901v633q0 188 138 304t357 116q126 0 226 -37t161.5 -115t61.5 -186q0 -156 -121 -244t-301 -88h-240v-145h619v-238zM403 657v-71h215q166 0 166 114q0 60 -51 90.5t-127 30.5q-86 0 -144.5 -45t-58.5 -119z" />
    <glyph glyph-name="ecircumflex.alt" horiz-adv-x="1136" 
d="M754 1176l-142 129l-143 -129h-256l246 284h305l246 -284h-256zM1022 0h-901v633q0 188 138 304t357 116q126 0 226 -37t161.5 -115t61.5 -186q0 -156 -121 -244t-301 -88h-240v-145h619v-238zM403 657v-71h215q166 0 166 114q0 60 -51 90.5t-127 30.5q-86 0 -144.5 -45
t-58.5 -119z" />
    <glyph glyph-name="edieresis.alt" horiz-adv-x="1136" 
d="M416 1182q-66 0 -107 39t-41 102q0 64 41 103.5t107 39.5q65 0 105 -39.5t40 -103.5q0 -63 -40 -102t-105 -39zM829 1182q-66 0 -106.5 39t-40.5 102q0 64 40.5 103.5t106.5 39.5q65 0 105.5 -39.5t40.5 -103.5q0 -63 -40.5 -102t-105.5 -39zM1022 0h-901v633
q0 188 138 304t357 116q126 0 226 -37t161.5 -115t61.5 -186q0 -156 -121 -244t-301 -88h-240v-145h619v-238zM403 657v-71h215q166 0 166 114q0 60 -51 90.5t-127 30.5q-86 0 -144.5 -45t-58.5 -119z" />
    <glyph glyph-name="egrave.alt" horiz-adv-x="1136" 
d="M246 1460h350l195 -284h-248zM1022 0h-901v633q0 188 138 304t357 116q126 0 226 -37t161.5 -115t61.5 -186q0 -156 -121 -244t-301 -88h-240v-145h619v-238zM403 657v-71h215q166 0 166 114q0 60 -51 90.5t-127 30.5q-86 0 -144.5 -45t-58.5 -119z" />
    <glyph glyph-name="ebreve.alt" horiz-adv-x="1136" 
d="M602 1352q53 0 87.5 31.5t35.5 80.5h219q-3 -132 -97.5 -218.5t-244.5 -86.5t-243 86.5t-95 218.5h215q3 -50 37 -81t86 -31zM1022 0h-901v633q0 188 138 304t357 116q126 0 226 -37t161.5 -115t61.5 -186q0 -156 -121 -244t-301 -88h-240v-145h619v-238zM403 657v-71
h215q166 0 166 114q0 60 -51 90.5t-127 30.5q-86 0 -144.5 -45t-58.5 -119z" />
    <glyph glyph-name="ecaron.alt" horiz-adv-x="1136" 
d="M1016 1460l-252 -284h-305l-252 284h262l143 -129l142 129h262zM1022 0h-901v633q0 188 138 304t357 116q126 0 226 -37t161.5 -115t61.5 -186q0 -156 -121 -244t-301 -88h-240v-145h619v-238zM403 657v-71h215q166 0 166 114q0 60 -51 90.5t-127 30.5q-86 0 -144.5 -45
t-58.5 -119z" />
    <glyph glyph-name="edotaccent.alt" horiz-adv-x="1136" 
d="M580 1182q-66 0 -112 45t-46 110q0 66 46 114t112 48q58 0 106 -39l156 -119l-154 -120q-51 -39 -108 -39zM1022 0h-901v633q0 188 138 304t357 116q126 0 226 -37t161.5 -115t61.5 -186q0 -156 -121 -244t-301 -88h-240v-145h619v-238zM403 657v-71h215q166 0 166 114
q0 60 -51 90.5t-127 30.5q-86 0 -144.5 -45t-58.5 -119z" />
    <glyph glyph-name="emacron.alt" horiz-adv-x="1136" 
d="M285 1425h647v-213h-647v213zM1022 0h-901v633q0 188 138 304t357 116q126 0 226 -37t161.5 -115t61.5 -186q0 -156 -121 -244t-301 -88h-240v-145h619v-238zM403 657v-71h215q166 0 166 114q0 60 -51 90.5t-127 30.5q-86 0 -144.5 -45t-58.5 -119z" />
    <glyph glyph-name="eogonek.alt" horiz-adv-x="1136" 
d="M887 -518q-98 0 -170.5 52.5t-89.5 143.5q-28 192 139 322h-645v633q0 188 138 304t357 116q126 0 226 -37t161.5 -115t61.5 -186q0 -156 -121 -244t-301 -88h-240v-145h619v-238q-90 -44 -139 -109t-31 -147q7 -38 35.5 -61t66.5 -23t68 12v-159q-74 -31 -135 -31z
M403 657v-71h215q166 0 166 114q0 60 -51 90.5t-127 30.5q-86 0 -144.5 -45t-58.5 -119z" />
    <glyph glyph-name="eacute.alt2" horiz-adv-x="1153" 
d="M602 1460h352l-299 -284h-247zM1038 0h-899v1032h912v-282q0 -166 -115 -264.5t-311 -98.5h-203v-160h616v-227zM422 811v-211h201q64 0 104.5 37t40.5 96v78h-346z" />
    <glyph glyph-name="ecircumflex.alt2" horiz-adv-x="1153" 
d="M741 1176l-141 129l-143 -129h-256l245 284h306l245 -284h-256zM1038 0h-899v1032h912v-282q0 -166 -115 -264.5t-311 -98.5h-203v-160h616v-227zM422 811v-211h201q64 0 104.5 37t40.5 96v78h-346z" />
    <glyph glyph-name="edieresis.alt2" horiz-adv-x="1153" 
d="M397 1182q-66 0 -106.5 39t-40.5 102q0 64 40.5 103.5t106.5 39.5q65 0 105.5 -39.5t40.5 -103.5q0 -63 -40.5 -102t-105.5 -39zM811 1182q-66 0 -106.5 39t-40.5 102q0 64 40.5 103.5t106.5 39.5q65 0 105 -39.5t40 -103.5q0 -63 -40 -102t-105 -39zM1038 0h-899v1032
h912v-282q0 -166 -115 -264.5t-311 -98.5h-203v-160h616v-227zM422 811v-211h201q64 0 104.5 37t40.5 96v78h-346z" />
    <glyph glyph-name="egrave.alt2" horiz-adv-x="1153" 
d="M250 1460h350l195 -284h-248zM1038 0h-899v1032h912v-282q0 -166 -115 -264.5t-311 -98.5h-203v-160h616v-227zM422 811v-211h201q64 0 104.5 37t40.5 96v78h-346z" />
    <glyph glyph-name="ebreve.alt2" horiz-adv-x="1153" 
d="M594 1352q53 0 87.5 31.5t35.5 80.5h219q-3 -132 -97.5 -218.5t-244.5 -86.5t-243 86.5t-95 218.5h215q3 -50 37 -81t86 -31zM1038 0h-899v1032h912v-282q0 -166 -115 -264.5t-311 -98.5h-203v-160h616v-227zM422 811v-211h201q64 0 104.5 37t40.5 96v78h-346z" />
    <glyph glyph-name="ecaron.alt2" horiz-adv-x="1153" 
d="M1004 1460l-252 -284h-306l-251 284h262l143 -129l141 129h263zM1038 0h-899v1032h912v-282q0 -166 -115 -264.5t-311 -98.5h-203v-160h616v-227zM422 811v-211h201q64 0 104.5 37t40.5 96v78h-346z" />
    <glyph glyph-name="edotaccent.alt2" horiz-adv-x="1153" 
d="M569 1182q-66 0 -111.5 45t-45.5 110q0 66 45.5 114t111.5 48q59 0 107 -39l155 -119l-153 -120q-51 -39 -109 -39zM1038 0h-899v1032h912v-282q0 -166 -115 -264.5t-311 -98.5h-203v-160h616v-227zM422 811v-211h201q64 0 104.5 37t40.5 96v78h-346z" />
    <glyph glyph-name="emacron.alt2" horiz-adv-x="1153" 
d="M268 1425h647v-213h-647v213zM1038 0h-899v1032h912v-282q0 -166 -115 -264.5t-311 -98.5h-203v-160h616v-227zM422 811v-211h201q64 0 104.5 37t40.5 96v78h-346z" />
    <glyph glyph-name="eogonek.alt2" horiz-adv-x="1153" 
d="M903 -518q-98 0 -169.5 52t-88.5 144q-32 188 137 322h-643v1032h912v-282q0 -166 -115 -264.5t-311 -98.5h-203v-160h616v-227q-89 -45 -138 -109.5t-30 -146.5q6 -38 34 -61t67 -23q37 0 67 12v-159q-74 -31 -135 -31zM422 811v-211h201q64 0 104.5 37t40.5 96v78h-346
z" />
    <glyph glyph-name="hbar.alt2" horiz-adv-x="1241" 
d="M639 1182h-217v-150h680v-1032h-285v778h-395v-778h-283v1182h-159v194h159v160h283v-160h217v-194z" />
    <glyph glyph-name="hcircumflex.alt2" horiz-adv-x="1241" 
d="M719 1647l-141 129l-144 -129h-256l246 284h305l246 -284h-256zM422 1536v-504h680v-1032h-285v778h-395v-778h-283v1536h283z" />
    <glyph glyph-name="i.dot" horiz-adv-x="563" 
d="M256 1182q-66 0 -112 45t-46 110q0 66 46 114t112 48q58 0 106 -39l156 -119l-153 -120q-51 -39 -109 -39zM137 0v1032h285v-1032h-285z" />
    <glyph glyph-name="ntilde.alt2" horiz-adv-x="1241" 
d="M772 1184q-49 0 -135 29.5t-109 29.5q-34 0 -54.5 -18.5t-20.5 -50.5h-158q-4 129 56.5 206.5t166.5 77.5q49 0 142 -31.5t110 -31.5q34 0 56 19.5t22 51.5h156q6 -126 -58 -204t-174 -78zM139 0v1032h963v-1032h-285v778h-395v-778h-283z" />
    <glyph glyph-name="nacute.alt2" horiz-adv-x="1241" 
d="M616 1460h353l-299 -284h-248zM139 0v1032h963v-1032h-285v778h-395v-778h-283z" />
    <glyph glyph-name="ncaron.alt2" horiz-adv-x="1241" 
d="M1028 1460l-252 -284h-305l-252 284h262l144 -129l141 129h262zM139 0v1032h963v-1032h-285v778h-395v-778h-283z" />
    <glyph glyph-name="ncommaaccent.alt2" horiz-adv-x="1241" 
d="M139 0v1032h963v-1032h-285v778h-395v-778h-283zM502 -119h272l-211 -342h-178z" />
    <glyph glyph-name="racute.alt" horiz-adv-x="858" 
d="M487 1460h353l-299 -284h-248zM858 868l-436 -395v-473h-283v1032h283v-209l256 240z" />
    <glyph glyph-name="rcaron.alt" horiz-adv-x="858" 
d="M879 1460l-252 -284h-305l-252 284h262l143 -129l141 129h263zM858 868l-436 -395v-473h-283v1032h283v-209l256 240z" />
    <glyph glyph-name="rcommaaccent.alt" horiz-adv-x="858" 
d="M858 868l-436 -395v-473h-283v1032h283v-209l256 240zM156 -119h272l-211 -342h-178z" />
    <glyph glyph-name="racute.alt2" horiz-adv-x="817" 
d="M467 1460h352l-299 -284h-248zM139 0v1032h637v-254h-354v-778h-283z" />
    <glyph glyph-name="rcaron.alt2" horiz-adv-x="817" 
d="M879 1460l-252 -284h-305l-252 284h262l143 -129l141 129h263zM139 0v1032h637v-254h-354v-778h-283z" />
    <glyph glyph-name="rcommaaccent.alt2" horiz-adv-x="817" 
d="M139 0v1032h637v-254h-354v-778h-283zM160 -119h272l-211 -342h-178z" />
    <glyph glyph-name="caron.alt" horiz-adv-x="851" 
d="M406 1139h-177l62 397h268z" />
    <glyph glyph-name="revcommaaccent" horiz-adv-x="1112" 
d="M598 1497h180l-119 -342h-272z" />
    <glyph glyph-name="ampersand.alt" horiz-adv-x="1523" 
d="M1042 113q-179 -133 -421 -133q-227 0 -377 131.5t-150 351.5q0 187 110.5 318t289.5 175l-377 580h979v-244h-496l475 -733q81 189 105 463h264q-41 -449 -207 -707l205 -315h-326zM903 328l-268 411q-108 -9 -176 -82.5t-68 -183.5q0 -107 72 -173.5t184 -66.5
q143 0 256 95z" />
    <glyph glyph-name="Ugrave.001" horiz-adv-x="1548" 
d="M412 1954h350l194 -285h-247zM135 623v913h299v-909q0 -172 91.5 -271.5t248.5 -99.5q155 0 248.5 100t93.5 271v909h297v-913q0 -291 -177 -467t-464 -176q-288 0 -462.5 176t-174.5 467z" />
    <glyph glyph-name="uni1EB6.right" horiz-adv-x="1552" 
d="M1202 0l-106 238h-656l-106 -238h-326l737 1532q-143 4 -231 90t-90 215h215q3 -50 37 -81.5t86 -31.5t86.5 31.5t36.5 81.5h219q-3 -126 -89 -211t-224 -94l753 -1532h-342zM547 473h440l-221 488zM791 -459q-58 0 -109 39l-154 121l156 119q48 39 107 39
q66 0 111.5 -48t45.5 -114q0 -65 -45.5 -110.5t-111.5 -45.5z" />
    <glyph glyph-name="uni1EAC.right" horiz-adv-x="1552" 
d="M920 1622l-142 129l-143 -129h-256l246 285h305l246 -285h-256zM1202 0l-106 238h-656l-106 -238h-326l760 1579l776 -1579h-342zM547 473h440l-221 488zM791 -459q-58 0 -109 39l-154 121l156 119q48 39 107 39q66 0 111.5 -48t45.5 -114q0 -65 -45.5 -110.5
t-111.5 -45.5z" />
    <glyph glyph-name="uni1EA0.right" horiz-adv-x="1552" 
d="M1202 0l-106 238h-656l-106 -238h-326l760 1579l776 -1579h-342zM547 473h440l-221 488zM791 -459q-58 0 -109 39l-154 121l156 119q48 39 107 39q66 0 111.5 -48t45.5 -114q0 -65 -45.5 -110.5t-111.5 -45.5z" />
    <glyph glyph-name="Cdotaccent.right" horiz-adv-x="1406" 
d="M887 1657q-58 0 -109 39l-153 121l153 118q48 39 109 39q66 0 111.5 -48t45.5 -114q0 -65 -45.5 -110t-111.5 -45zM846 -20q-227 0 -404.5 101.5t-274.5 280.5t-97 406q0 171 58.5 317.5t161.5 250t249 162t317 58.5q272 0 473 -141v-336q-194 197 -469 197
q-215 0 -348 -143t-133 -363q0 -224 139 -367t361 -143q275 0 458 160v-314q-210 -126 -491 -126z" />
    <glyph glyph-name="uni1EC6.right" horiz-adv-x="1206" 
d="M782 1649l-141 129l-143 -129h-256l245 284h306l245 -284h-256zM147 0v1536h971v-266h-674v-352h590v-265h-590v-387h697v-266h-994zM625 -414q-58 0 -109 39l-154 121l156 119q48 39 107 39q66 0 111.5 -48t45.5 -114q0 -65 -45.5 -110.5t-111.5 -45.5z" />
    <glyph glyph-name="Edotaccent.right" horiz-adv-x="1206" 
d="M653 1655q-57 0 -108 39l-154 121l156 118q48 39 106 39q66 0 112 -48t46 -114q0 -65 -46 -110t-112 -45zM147 0v1536h971v-266h-674v-352h590v-265h-590v-387h697v-266h-994z" />
    <glyph glyph-name="uni1EB8.right" horiz-adv-x="1206" 
d="M147 0v1536h971v-266h-674v-352h590v-265h-590v-387h697v-266h-994zM666 -442q-58 0 -109 39l-154 120l156 119q48 39 107 39q66 0 111.5 -48t45.5 -114q0 -65 -45.5 -110t-111.5 -45z" />
    <glyph glyph-name="Gdotaccent.right" horiz-adv-x="1562" 
d="M862 1655q-57 0 -108 39l-154 121l156 118q48 39 106 39q66 0 112 -48t46 -114q0 -65 -46 -110t-112 -45zM1460 158q-293 -178 -610 -178q-227 0 -405.5 100.5t-276.5 280t-98 407.5q0 229 103 409t286.5 279.5t414.5 99.5q292 0 508 -147v-326q-97 99 -225 150t-272 51
q-222 0 -364 -143.5t-142 -368.5t139.5 -368.5t360.5 -143.5q161 0 290 66v303h-350v231h641v-702z" />
    <glyph glyph-name="Idotaccent.right" horiz-adv-x="591" 
d="M303 1655q-57 0 -108 39l-154 121l156 118q48 39 106 39q66 0 112 -48t46 -114q0 -65 -46 -110t-112 -45zM147 0v1536h297v-1536h-297z" />
    <glyph glyph-name="uni1ECA.right" horiz-adv-x="591" 
d="M147 0v1536h297v-1536h-297zM285 -453q-58 0 -109 39l-153 121l155 119q48 39 107 39q66 0 111.5 -48t45.5 -114q0 -65 -45.5 -110.5t-111.5 -45.5z" />
    <glyph glyph-name="uni1ED8.right" horiz-adv-x="1728" 
d="M1042 1624l-141 129l-143 -129h-256l246 285h305l245 -285h-256zM1659 772q0 -172 -59 -319.5t-163.5 -251t-252.5 -162.5t-320 -59q-230 0 -411 100.5t-282 281t-101 410.5q0 227 101.5 406.5t282.5 278.5t410 99q171 0 319 -58t252.5 -160.5t164 -249t59.5 -316.5z
M864 260q217 0 353.5 144.5t136.5 365.5t-136.5 363.5t-353.5 142.5t-353 -142.5t-136 -363.5t136 -365.5t353 -144.5zM891 -457q-58 0 -109 39l-153 121l155 119q48 39 107 39q66 0 112 -48t46 -114q0 -65 -46 -110.5t-112 -45.5z" />
    <glyph glyph-name="uni1ECC.right" horiz-adv-x="1728" 
d="M1659 772q0 -172 -59 -319.5t-163.5 -251t-252.5 -162.5t-320 -59q-230 0 -411 100.5t-282 281t-101 410.5q0 227 101.5 406.5t282.5 278.5t410 99q171 0 319 -58t252.5 -160.5t164 -249t59.5 -316.5zM864 260q217 0 353.5 144.5t136.5 365.5t-136.5 363.5t-353.5 142.5
t-353 -142.5t-136 -363.5t136 -365.5t353 -144.5zM864 -459q-57 0 -108 39l-154 121l156 119q48 39 106 39q66 0 112 -48t46 -114q0 -65 -46 -110.5t-112 -45.5z" />
    <glyph glyph-name="uni1EE2.right" horiz-adv-x="1728" 
d="M864 -20q-230 0 -411 100.5t-282 281t-101 410.5q0 227 101.5 406.5t282.5 278.5t410 99q205 0 365 -77h20q66 0 103 39t37 108v115h284v-119q0 -258 -198 -328q184 -209 184 -522q0 -172 -59 -319.5t-163.5 -251t-252.5 -162.5t-320 -59zM864 260q217 0 353.5 144.5
t136.5 365.5t-136.5 363.5t-353.5 142.5t-353 -142.5t-136 -363.5t136 -365.5t353 -144.5zM887 -455q-58 0 -109 39l-153 121l155 119q48 39 107 39q66 0 111.5 -48t45.5 -114q0 -65 -45.5 -110.5t-111.5 -45.5z" />
    <glyph glyph-name="uni1EE4.right" horiz-adv-x="1548" 
d="M135 623v913h299v-909q0 -172 91.5 -271.5t248.5 -99.5q155 0 248.5 100t93.5 271v909h297v-913q0 -291 -177 -467t-464 -176q-288 0 -462.5 176t-174.5 467zM782 -471q-57 0 -108 39l-154 121l156 118q48 39 106 39q66 0 112 -47.5t46 -113.5q0 -65 -46 -110.5
t-112 -45.5z" />
    <glyph glyph-name="uni1EF0.right" horiz-adv-x="1548" 
d="M135 623v913h299v-909q0 -172 91.5 -271.5t248.5 -99.5q155 0 248.5 100t93.5 271v909h178q65 0 92 28t27 97v86h285v-90q0 -157 -73.5 -242.5t-211.5 -103.5v-688q0 -291 -177 -467t-464 -176q-288 0 -462.5 176t-174.5 467zM780 -481q-57 0 -108 39l-154 120l156 119
q48 39 106 39q66 0 112 -48t46 -114q0 -65 -46 -110t-112 -45z" />
    <glyph glyph-name="uni1EF4.right" horiz-adv-x="1478" 
d="M1468 1536l-569 -971v-565h-297v539l-594 997h344l393 -688l394 688h329zM745 -465q-57 0 -108 39l-154 121l156 119q48 39 106 39q66 0 112 -48t46 -114q0 -65 -46 -110.5t-112 -45.5z" />
    <glyph glyph-name="Zdotaccent.right" horiz-adv-x="1359" 
d="M692 1655q-57 0 -108 39l-154 121l156 118q48 39 106 39q66 0 112 -48t46 -114q0 -65 -46 -110t-112 -45zM1292 262v-262h-1265l800 1272h-737v264h1237l-790 -1274h755z" />
    <glyph glyph-name="edotaccent.right" horiz-adv-x="1167" 
d="M588 1182q-58 0 -109 39l-153 120l155 119q48 39 107 39q66 0 111.5 -48t45.5 -114q0 -65 -45.5 -110t-111.5 -45zM643 -20q-250 0 -413.5 143.5t-163.5 382.5t146.5 393t381.5 154q223 0 364.5 -143t141.5 -367q0 -60 -6 -119h-721q28 -96 107.5 -150.5t193.5 -54.5
q179 0 342 94v-237q-167 -96 -373 -96zM365 614h444q-11 95 -67 154t-148 59q-93 0 -151 -58t-78 -155z" />
    <glyph glyph-name="uni1EB7.right" 
d="M678 1352q53 0 87.5 31.5t35.5 80.5h219q-3 -132 -97.5 -218.5t-244.5 -86.5t-243 86.5t-95 218.5h215q3 -50 37 -81t86 -31zM885 0v117q-118 -137 -305 -137q-225 0 -369.5 150.5t-144.5 381.5q0 235 144 388t370 153q187 0 305 -140v119h286v-1032h-286zM618 788
q-113 0 -186.5 -78t-73.5 -198q0 -117 73.5 -192.5t186.5 -75.5q116 0 191.5 75t75.5 193q0 120 -75.5 198t-191.5 78zM692 -457q-57 0 -108 39l-154 121l156 119q48 39 106 39q66 0 112 -48t46 -114q0 -65 -46 -110.5t-112 -45.5z" />
    <glyph glyph-name="uni1EAD.right" 
d="M838 1155l-142 129l-143 -129h-256l246 285h305l246 -285h-256zM885 0v117q-118 -137 -305 -137q-225 0 -369.5 150.5t-144.5 381.5q0 235 144 388t370 153q187 0 305 -140v119h286v-1032h-286zM618 788q-113 0 -186.5 -78t-73.5 -198q0 -117 73.5 -192.5t186.5 -75.5
q116 0 191.5 75t75.5 193q0 120 -75.5 198t-191.5 78zM666 -446q-59 0 -109 38l-154 121l156 119q48 39 107 39q66 0 111.5 -48t45.5 -114q0 -65 -45.5 -110t-111.5 -45z" />
    <glyph glyph-name="uni1EA1.right" 
d="M885 0v117q-118 -137 -305 -137q-225 0 -369.5 150.5t-144.5 381.5q0 235 144 388t370 153q187 0 305 -140v119h286v-1032h-286zM618 788q-113 0 -186.5 -78t-73.5 -198q0 -117 73.5 -192.5t186.5 -75.5q116 0 191.5 75t75.5 193q0 120 -75.5 198t-191.5 78zM680 -453
q-58 0 -109 39l-153 121l155 119q48 39 107 39q66 0 112 -48t46 -114q0 -65 -46 -110.5t-112 -45.5z" />
    <glyph glyph-name="edotaccent.alt.right" horiz-adv-x="1136" 
d="M612 1182q-57 0 -108 39l-154 120l156 119q48 39 106 39q66 0 112 -48t46 -114q0 -65 -46 -110t-112 -45zM1022 0h-901v633q0 188 138 304t357 116q126 0 226 -37t161.5 -115t61.5 -186q0 -156 -121 -244t-301 -88h-240v-145h619v-238zM403 657v-71h215q166 0 166 114
q0 60 -51 90.5t-127 30.5q-86 0 -144.5 -45t-58.5 -119z" />
    <glyph glyph-name="edotaccent.alt2.right" horiz-adv-x="1153" 
d="M602 1182q-57 0 -108 39l-154 120l156 119q48 39 106 39q66 0 112 -48t46 -114q0 -65 -46 -110t-112 -45zM1038 0h-899v1032h912v-282q0 -166 -115 -264.5t-311 -98.5h-203v-160h616v-227zM422 811v-211h201q64 0 104.5 37t40.5 96v78h-346z" />
    <glyph glyph-name="cdotaccent.right" horiz-adv-x="1038" 
d="M598 1182q-58 0 -109 39l-153 120l156 119q48 39 106 39q66 0 112 -48t46 -114q0 -65 -46 -110t-112 -45zM358 518q0 -125 84.5 -202.5t214.5 -77.5q169 0 287 86v-267q-140 -77 -323 -77q-244 0 -399.5 149t-155.5 387q0 239 157.5 388t399.5 149q180 0 317 -86v-287
q-118 115 -291 115q-127 0 -209 -77t-82 -200z" />
    <glyph glyph-name="i.dot.right" horiz-adv-x="563" 
d="M305 1182q-57 0 -108 39l-154 120l154 119q48 39 108 39q66 0 112 -48t46 -114q0 -65 -46 -110t-112 -45zM137 0v1032h285v-1032h-285z" />
    <glyph glyph-name="uni1EC7.right" horiz-adv-x="1167" 
d="M774 1108l-141 129l-144 -129h-256l246 285h305l246 -285h-256zM643 -20q-250 0 -413.5 143.5t-163.5 382.5t146.5 393t381.5 154q223 0 364.5 -143t141.5 -367q0 -60 -6 -119h-721q28 -96 107.5 -150.5t193.5 -54.5q179 0 342 94v-237q-167 -96 -373 -96zM365 614h444
q-11 95 -67 154t-148 59q-93 0 -151 -58t-78 -155zM612 -430q-57 0 -108 39l-154 121l156 118q48 39 106 39q66 0 112 -47.5t46 -113.5q0 -65 -46 -110.5t-112 -45.5z" />
    <glyph glyph-name="uni1EB9.right" horiz-adv-x="1167" 
d="M643 -20q-250 0 -413.5 143.5t-163.5 382.5t146.5 393t381.5 154q223 0 364.5 -143t141.5 -367q0 -60 -6 -119h-721q28 -96 107.5 -150.5t193.5 -54.5q179 0 342 94v-237q-167 -96 -373 -96zM365 614h444q-11 95 -67 154t-148 59q-93 0 -151 -58t-78 -155zM606 -455
q-57 0 -108 39l-154 121l156 119q48 39 106 39q66 0 112 -48t46 -114q0 -65 -46 -110.5t-112 -45.5z" />
    <glyph glyph-name="gdotaccent.right" 
d="M709 1182q-58 0 -109 39l-154 120l156 119q48 39 107 39q66 0 111.5 -48t45.5 -114q0 -65 -45.5 -110t-111.5 -45zM1171 10q0 -256 -151.5 -399t-413.5 -143q-225 0 -416 114v281q90 -70 194 -106t204 -36q141 0 219 71.5t78 203.5v119q-122 -135 -305 -135
q-225 0 -369.5 151.5t-144.5 382.5q0 153 65 276t183 193t266 70q183 0 305 -138v117h286v-1022zM885 512q0 120 -75.5 198t-191.5 78q-113 0 -186.5 -78t-73.5 -198q0 -117 73.5 -192.5t186.5 -75.5q116 0 191.5 75t75.5 193z" />
    <glyph glyph-name="i.right" horiz-adv-x="559" 
d="M305 1182q-57 0 -108 39l-154 120l154 119q48 39 108 39q66 0 112 -48t46 -114q0 -65 -46 -110t-112 -45zM137 0v1032h285v-1032h-285z" />
    <glyph glyph-name="i.loclTRK.right" horiz-adv-x="559" 
d="M293 1133q-59 0 -109 38l-153 121l155 119q48 39 107 39q66 0 112 -48t46 -114q0 -65 -46 -110t-112 -45zM139 0v1032h283v-1032h-283z" />
    <glyph glyph-name="uni1ECB.right" horiz-adv-x="559" 
d="M305 1182q-57 0 -108 39l-154 120l154 119q48 39 108 39q66 0 112 -48t46 -114q0 -65 -46 -110t-112 -45zM137 0v1032h285v-1032h-285zM276 -471q-57 0 -108 39l-154 121l156 118q48 39 106 39q66 0 112 -47.5t46 -113.5q0 -65 -46 -110.5t-112 -45.5z" />
    <glyph glyph-name="iogonek.right" horiz-adv-x="563" 
d="M305 1182q-57 0 -108 39l-154 120l154 119q48 39 108 39q66 0 112 -48t46 -114q0 -65 -46 -110t-112 -45zM248 -518q-98 0 -170.5 52.5t-89.5 143.5q-32 198 149 328v1026h285v-1032l-72 -20q-73 -42 -112 -102t-25 -134q7 -38 35.5 -61t66.5 -23t68 12v-159
q-74 -31 -135 -31z" />
    <glyph glyph-name="j.right" horiz-adv-x="559" 
d="M305 1182q-57 0 -108 39l-154 120l154 119q48 39 108 39q66 0 112 -48t46 -114q0 -65 -46 -110t-112 -45zM-147 -489v239q68 -35 135 -35q66 0 108.5 40t42.5 108v1169h283v-1173q0 -180 -100.5 -285.5t-270.5 -105.5q-105 0 -198 43z" />
    <glyph glyph-name="uni1ED9.right" horiz-adv-x="1243" 
d="M788 1126l-141 129l-143 -129h-256l246 285h305l245 -285h-256zM629 -20q-244 0 -403.5 152t-159.5 390q0 233 160 382t403 149q237 0 393 -149.5t156 -381.5q0 -157 -71.5 -281t-196.5 -192.5t-281 -68.5zM887 518q0 118 -74 194t-188 76q-117 0 -192 -76t-75 -194
q0 -120 75 -197t192 -77q114 0 188 77t74 197zM637 -471q-58 0 -109 39l-153 121l155 118q48 39 107 39q66 0 112 -47.5t46 -113.5q0 -65 -46 -110.5t-112 -45.5z" />
    <glyph glyph-name="uni1ECD.right" horiz-adv-x="1243" 
d="M629 -20q-244 0 -403.5 152t-159.5 390q0 233 160 382t403 149q237 0 393 -149.5t156 -381.5q0 -157 -71.5 -281t-196.5 -192.5t-281 -68.5zM887 518q0 118 -74 194t-188 76q-117 0 -192 -76t-75 -194q0 -120 75 -197t192 -77q114 0 188 77t74 197zM621 -457
q-58 0 -109 39l-154 121l156 119q48 39 107 39q66 0 111.5 -48t45.5 -114q0 -65 -45.5 -110.5t-111.5 -45.5z" />
    <glyph glyph-name="uni1EE3.right" horiz-adv-x="1243" 
d="M629 -20q-244 0 -403.5 152t-159.5 390q0 233 160 382t403 149q115 0 213 -37q64 1 99.5 40t35.5 107v86h285v-90q0 -247 -183 -321q99 -140 99 -316q0 -157 -71.5 -281t-196.5 -192.5t-281 -68.5zM887 518q0 118 -74 194t-188 76q-117 0 -192 -76t-75 -194
q0 -120 75 -197t192 -77q114 0 188 77t74 197zM651 -453q-57 0 -108 39l-154 121l156 119q48 39 106 39q66 0 112 -48t46 -114q0 -65 -46 -110.5t-112 -45.5z" />
    <glyph glyph-name="uni1EE5.right" horiz-adv-x="1189" 
d="M793 451v581h284v-579q0 -216 -133 -344.5t-350 -128.5q-216 0 -349.5 128.5t-133.5 344.5v579h284v-581q0 -99 54.5 -153t144.5 -54q91 0 145 54t54 153zM590 -451q-58 0 -109 39l-153 121l155 119q48 39 107 39q66 0 112 -48t46 -114q0 -65 -46 -110.5t-112 -45.5z" />
    <glyph glyph-name="uni1EF1.right" horiz-adv-x="1189" 
d="M793 451v581h147q65 0 102 41t37 111v86h285v-90q0 -157 -74 -244t-213 -105v-378q0 -216 -133 -344.5t-350 -128.5q-216 0 -349.5 128.5t-133.5 344.5v579h284v-581q0 -99 54.5 -153t144.5 -54q91 0 145 54t54 153zM616 -451q-57 0 -108 39l-154 121l156 119
q48 39 106 39q66 0 112 -48t46 -114q0 -65 -46 -110.5t-112 -45.5z" />
    <glyph glyph-name="uni1EF5.right" horiz-adv-x="1134" 
d="M1133 1032l-750 -1544h-297l342 709l-426 835h334l248 -518l250 518h299zM846 -487q-59 0 -109 38l-153 121l155 119q48 39 107 39q66 0 112 -48t46 -114q0 -65 -46 -110t-112 -45z" />
    <glyph glyph-name="zdotaccent.right" horiz-adv-x="1007" 
d="M530 1182q-57 0 -108 39l-154 120l156 119q48 39 106 39q66 0 112 -48t46 -114q0 -65 -46 -110t-112 -45zM946 242v-242h-917l497 791h-444v241h887l-488 -790h465z" />
    <glyph glyph-name="i.loclTRK" horiz-adv-x="559" 
d="M260 1133q-66 0 -112 45t-46 110q0 66 46 114t112 48q59 0 107 -39l155 -119l-153 -121q-50 -38 -109 -38zM139 0v1032h283v-1032h-283z" />
    <glyph glyph-name="fi.right" horiz-adv-x="1275" 
d="M422 0h-283v1130q0 190 113 308t303 118q89 0 152 -18v-252q-48 19 -109 19q-79 0 -127.5 -45t-48.5 -123v-105h280v-241h-280v-791zM1032 1182q-57 0 -108 39l-154 120l154 119q48 39 108 39q66 0 112 -48t46 -114q0 -65 -46 -110t-112 -45zM1137 0h-285v1032h285v-1032
z" />
    <glyph glyph-name="ordfeminine.alt" horiz-adv-x="974" 
d="M653 807v80q-86 -99 -215 -99q-160 0 -263 108.5t-103 272.5q0 167 103 276t263 109q130 0 215 -98v82h203v-731h-203zM465 981q83 0 135.5 52.5t52.5 137.5t-52.5 140t-135.5 55t-134.5 -55t-51.5 -140q0 -83 52 -136.5t134 -53.5zM133 670h725v-142h-725v142z" />
    <glyph glyph-name="ordmasculine.alt" horiz-adv-x="942" 
d="M475 1552q172 0 283.5 -104.5t111.5 -273.5q0 -171 -111.5 -280.5t-283.5 -109.5q-176 0 -289.5 108.5t-113.5 281.5q0 170 113.5 274t289.5 104zM666 1171q0 85 -54 140t-139 55q-86 0 -140 -54.5t-54 -140.5q0 -88 54 -143t140 -55t139.5 55t53.5 143zM115 528v142h723
v-142h-723z" />
    <glyph glyph-name="zero.alt" horiz-adv-x="1318" 
d="M659 -16q-138 0 -249 59.5t-183 165.5t-110.5 249.5t-38.5 313.5q0 224 66 399t199 278t316 103q138 0 249 -59.5t183.5 -164.5t111 -247t38.5 -309q0 -228 -66 -404.5t-199 -280t-317 -103.5zM659 260q139 0 212 138t73 374q0 230 -73.5 366t-211.5 136t-211 -136
t-73 -366q0 -237 72.5 -374.5t211.5 -137.5z" />
    <glyph glyph-name="one.alt" horiz-adv-x="598" 
d="M150 139v1104q0 129 84 214t212 85v-1403q0 -72 -43.5 -111.5t-105.5 -39.5q-60 0 -103.5 39.5t-43.5 111.5z" />
    <glyph glyph-name="two.alt" horiz-adv-x="1114" 
d="M782 643l-628 -616q-63 30 -94.5 91t-20 130t64.5 121l424 415q110 108 141 146q72 89 72 170q0 84 -62.5 131t-160.5 47q-93 0 -203.5 -42.5t-203.5 -121.5v311q195 131 432 131q137 0 247 -50.5t177 -152t67 -237.5q0 -127 -66.5 -240.5t-185.5 -232.5zM934 0h-686
l284 274h402q68 0 105.5 -40t37.5 -97t-37.5 -97t-105.5 -40z" />
    <glyph glyph-name="three.alt" horiz-adv-x="1124" 
d="M528 1262h-329q-71 0 -111.5 40.5t-40.5 98.5q0 55 40.5 95t111.5 40h614zM469 -18q-246 0 -418 110l-2 299q199 -141 395 -141q134 0 225 72.5t91 201.5q0 135 -118 209t-327 74h-127l719 702q60 -30 89.5 -90.5t18.5 -129.5t-65 -120l-223 -215q145 -40 239.5 -158
t94.5 -286q0 -122 -46.5 -223t-127 -167t-188 -102t-230.5 -36z" />
    <glyph glyph-name="four.alt" horiz-adv-x="1257" 
d="M799 1325l-623 -975q-51 16 -86.5 54t-50 85t-7.5 101t36 100l499 785q21 34 51.5 53t61 21t60 -6t51 -29.5t33 -48.5t5.5 -64.5t-30 -75.5zM1030 0h-280v332h-488l172 266h316v311l280 138v-449h74q52 0 87.5 -27.5t44 -66.5t0.5 -78t-44 -66.5t-88 -27.5h-74v-332z" />
    <glyph glyph-name="five.alt" horiz-adv-x="1146" 
d="M881 1264h-371v272h371q66 0 102.5 -40t36.5 -95q0 -57 -36 -97t-103 -40zM96 82v293q161 -131 375 -131q140 0 219.5 63.5t79.5 177.5q0 117 -85.5 170.5t-231.5 53.5l-312 -2l-2 553q0 120 79.5 198t209.5 78v-571h80q270 0 420.5 -122.5t150.5 -357.5
q0 -227 -162.5 -366t-416.5 -139q-222 0 -404 102z" />
    <glyph glyph-name="six.alt" horiz-adv-x="1216" 
d="M948 1536l-553 -864q-49 -76 -49 -168q0 -107 76.5 -180.5t187.5 -73.5q109 0 186.5 73.5t77.5 180.5q0 129 -99 201.5t-228 50.5l164 254q193 -19 324.5 -164t131.5 -342q0 -145 -74.5 -265.5t-202.5 -189.5t-280 -69q-153 0 -281 69t-202 189.5t-74 265.5
q0 87 28 163.5t93 174.5l440 694h334z" />
    <glyph glyph-name="seven.alt" horiz-adv-x="1019" 
d="M610 1257h-446q-41 0 -73 15.5t-48.5 40t-24.5 54t-0.5 59.5t24 54.5t49 40t73.5 15.5h577zM416 0h-312l725 1526q113 -25 159.5 -122t-5.5 -210z" />
    <glyph glyph-name="eight.alt" horiz-adv-x="1253" 
d="M627 -20q-112 0 -212 31.5t-177 89.5t-122.5 148.5t-45.5 201.5q0 116 56 208t157 152q-146 117 -146 301q0 138 69.5 240.5t179 152t241.5 49.5q98 0 185.5 -29t155.5 -83.5t108 -140t40 -189.5q0 -188 -139 -301q98 -59 152.5 -150.5t54.5 -209.5q0 -147 -79 -256
t-203.5 -162t-274.5 -53zM627 913q91 0 152 53.5t61 139.5q0 92 -63 144.5t-150 52.5q-89 0 -152 -52.5t-63 -144.5q0 -85 63 -139t152 -54zM627 246q110 0 187 56t77 157q0 95 -76.5 156t-187.5 61t-188 -61t-77 -156q0 -99 78 -156t187 -57z" />
    <glyph glyph-name="nine.alt" horiz-adv-x="1216" 
d="M268 0l553 864q49 76 49 168q0 107 -76.5 180.5t-187.5 73.5q-109 0 -186.5 -73.5t-77.5 -180.5q0 -129 99.5 -201.5t228.5 -50.5l-164 -254q-193 19 -325 164t-132 342q0 145 74.5 265.5t202.5 189.5t280 69q153 0 281 -69t202 -189.5t74 -265.5q0 -87 -28 -163.5
t-93 -174.5l-440 -694h-334z" />
    <glyph glyph-name="comma.alt" horiz-adv-x="546" 
d="M272 -260h-190l127 242q-119 48 -119 170q0 80 52 128t132 48q85 0 136 -51.5t51 -131.5q0 -81 -51 -165z" />
    <glyph glyph-name="uni03020300" horiz-adv-x="0" 
d="M-674 1597h303l170 -247h-215zM211 1176l-141 129l-144 -129h-256l246 284h305l246 -284h-256z" />
    <glyph glyph-name="uni03020301" horiz-adv-x="0" 
d="M522 1620h301l-256 -246h-213zM223 1176l-141 129l-143 -129h-256l245 284h305l246 -284h-256z" />
    <glyph glyph-name="uni03020303" horiz-adv-x="0" 
d="M106 1501q-42 0 -112.5 25.5t-89.5 25.5q-29 0 -46.5 -15.5t-17.5 -43.5h-131q-5 107 46.5 172.5t140.5 65.5q40 0 117 -27t91 -27q29 0 47.5 17t18.5 43h129q6 -105 -47.5 -170.5t-145.5 -65.5zM139 1176l-141 129l-143 -129h-256l245 284h306l245 -284h-256z" />
    <glyph glyph-name="uni03020309" horiz-adv-x="0" 
d="M481 1395h-205q83 75 117.5 116t34.5 72q0 32 -18.5 49t-49.5 17q-29 0 -49 -19t-20 -49h-158q0 96 64 155.5t163 59.5q100 0 165 -57t65 -152q0 -86 -109 -192zM143 1176l-141 129l-143 -129h-256l245 284h306l245 -284h-256z" />
    <glyph glyph-name="uni03060300" horiz-adv-x="0" 
d="M-418 1827h350l195 -285h-248zM-8 1364q52 0 86.5 31.5t36.5 81.5h219q-3 -133 -97.5 -219.5t-244.5 -86.5t-243 86.5t-95 219.5h215q3 -50 37 -81.5t86 -31.5z" />
    <glyph glyph-name="uni03060301" horiz-adv-x="0" 
d="M57 1823h353l-299 -285h-248zM-4 1358q53 0 87.5 31.5t35.5 80.5h219q-3 -132 -97.5 -218.5t-244.5 -86.5t-243 86.5t-95 218.5h215q3 -50 37 -81t86 -31z" />
    <glyph glyph-name="uni03060303" horiz-adv-x="0" 
d="M121 1552q-45 0 -122 27t-99 27q-31 0 -49.5 -16.5t-18.5 -45.5h-143q-4 117 50.5 186.5t151.5 69.5q45 0 128.5 -28.5t99.5 -28.5q31 0 50 18t19 47h142q6 -114 -51.5 -185t-157.5 -71zM6 1352q53 0 87.5 31.5t35.5 80.5h219q-3 -132 -97.5 -218.5t-244.5 -86.5
t-243 86.5t-95 218.5h215q3 -50 37 -81t86 -31z" />
    <glyph glyph-name="uni03060309" horiz-adv-x="0" 
d="M121 1509h-205q83 73 117.5 115.5t34.5 73.5q0 32 -18.5 48.5t-49.5 16.5q-29 0 -49.5 -18.5t-20.5 -48.5h-157q0 96 64 155.5t163 59.5q100 0 164.5 -57t64.5 -152q0 -88 -108 -193zM8 1352q53 0 87.5 31.5t35.5 80.5h219q-3 -132 -97.5 -218.5t-244.5 -86.5t-243 86.5
t-95 218.5h215q3 -50 37 -81t86 -31z" />
    <glyph glyph-name="uni0307.alt" horiz-adv-x="0" 
d="M10 1182q-57 0 -108 39l-154 120l156 119q48 39 106 39q66 0 112 -48t46 -114q0 -65 -46 -110t-112 -45z" />
    <glyph glyph-name="dotbelowcomb.right" horiz-adv-x="1015" 
d="M545 -471q-58 0 -109 39l-153 121l155 118q48 39 107 39q66 0 111.5 -47.5t45.5 -113.5q0 -65 -45.5 -110.5t-111.5 -45.5z" />
    <glyph glyph-name="dotaccent.right" horiz-adv-x="1015" 
d="M543 1182q-58 0 -109 39l-153 120l155 119q48 39 107 39q66 0 111.5 -48t45.5 -114q0 -65 -45.5 -110t-111.5 -45z" />
    <glyph glyph-name="dotleft" horiz-adv-x="559" 
d="M256 1182q-66 0 -112 45t-46 110q0 66 46 114t112 48q58 0 106 -39l156 -119l-153 -120q-51 -39 -109 -39z" />
    <glyph glyph-name="dotright" horiz-adv-x="559" 
d="M305 1182q-57 0 -108 39l-154 120l154 119q48 39 108 39q66 0 112 -48t46 -114q0 -65 -46 -110t-112 -45z" />
    <glyph glyph-name="hungarumlaut.1" horiz-adv-x="1112" 
d="M459 1176h-205l156 284h282zM807 1176h-207l162 284h293z" />
    </font>
</defs>
</svg>
