<?xml version="1.0" encoding="UTF-8"?>
<svg width="24px" height="24px" viewBox="0 0 24 24" version="1.1" xmlns="http://www.w3.org/2000/svg" xmlns:xlink="http://www.w3.org/1999/xlink">
    <title>foundation / icon / 24px / Arrowhead Down</title>
    <g id="foundation-/-icon-/-24px-/-Arrowhead-Down" stroke="none" stroke-width="1" fill="none" fill-rule="evenodd">
        <polygon id="24pt-Bounding-Box" opacity="0" fill-rule="nonzero" points="0 0 24 0 24 24 0 24"></polygon>
        <path d="M5.23000001,12.36 C5.58346001,11.934741 6.21474101,11.876538 6.64000001,12.23 L6.64000001,12.23 L12,16.71 L17.3700019,12.389997 L17.3700019,12.389997 C17.8008499,12.0383519 18.4307949,12.1021249 18.7799999,12.5299969 L18.7799999,12.5299969 L18.7816677,12.5320562 C19.1292111,12.964686 19.0605631,13.594119 18.6300001,13.94 L18.6300001,13.94 L12.6300001,18.77 C12.2609981,19.0733171 11.7290021,19.0733171 11.3600001,18.7700001 L11.3600001,18.7700001 L5.36000003,13.77 L5.36000003,13.77 L5.2683994,13.6837208 C4.92822259,13.3206389 4.90372739,12.7525468 5.23000001,12.36 Z M5.22999676,5.3599971 C5.58345676,4.9347381 6.21473776,4.8765351 6.63999676,5.2299971 L6.63999676,5.2299971 L11.9999967,9.70999709 L17.3699967,5.37999709 L17.3699967,5.37999709 C17.8046858,5.03078589 18.4341188,5.09943389 18.7799998,5.52999689 L18.7799998,5.52999689 L18.7816677,5.53205621 C19.129211,5.96468597 19.060563,6.59411897 18.63,6.93999997 L18.63,6.93999997 L12.63,11.77 C12.260998,12.073317 11.729002,12.073317 11.36,11.77 L11.36,11.77 L5.35999676,6.7699971 C4.93473776,6.4165371 4.87653476,5.7852561 5.22999676,5.3599971 Z" id="Fill" fill="#0473EA"></path>
    </g>
</svg>