<?xml version="1.0" encoding="UTF-8"?>
<svg width="24px" height="24px" viewBox="0 0 24 24" version="1.1" xmlns="http://www.w3.org/2000/svg" xmlns:xlink="http://www.w3.org/1999/xlink">
    <title>2030D2EE-BBFF-456C-9354-7998F0E118D1</title>
    <g id="Symbols" stroke="none" stroke-width="1" fill="none" fill-rule="evenodd">
        <g id="atoms-copy" transform="translate(-192.000000, -2014.000000)" fill="#FFFFFF">
            <rect x="0" y="0" width="1440" height="6700"></rect>
        </g>
        <g id="foundation-/-icon-/-24px-/-Calendar---line">
            <polygon id="24pt-Bounding-Box" opacity="0" fill-rule="nonzero" points="0 0 24 0 24 24 0 24"></polygon>
            <path d="M15.9999999,2 C16.552285,2 16.9999999,2.447715 16.9999999,3 L16.9999999,3 L16.9999999,4 L17.9999999,4 C19.6568497,4 20.9999999,5.34314955 20.9999999,7 L20.9999999,7 L20.9999999,19 C20.9999999,20.6568495 19.6568497,22 17.9999999,22 L17.9999999,22 L5.99999987,22 C4.34314987,22 2.99999987,20.6568495 2.99999987,19 L2.99999987,19 L2.99999987,7 L2.99999987,7 L3.00509258,6.82372764 C3.09633928,5.24892392 4.40232308,4 5.99999987,4 L5.99999987,4 L6.99999987,4 L6.99999987,3 C6.99999987,2.447715 7.447715,2 7.99999987,2 C8.552285,2 8.99999987,2.447715 8.99999987,3 L8.99999987,3 L8.99999987,4 L14.9999999,4 L14.9999999,3 C14.9999999,2.447715 15.447715,2 15.9999999,2 Z M19,13 L4.99999996,13 L4.99999996,19 L4.99999996,19 L5.00672768,19.1166212 C5.06449276,19.61396 5.48716388,20 5.99999996,20 L5.99999996,20 L18,20 C18.552285,20 19,19.552285 19,19 L19,19 L19,13 Z M16,15 C16.5522849,15 17,15.447715 17,16 C17,16.552285 16.5522849,17 16,17 L16,17 L12,17 C11.447715,17 11,16.552285 11,16 C11,15.447715 11.447715,15 12,15 L12,15 Z M8.70711,15.2929 C9.097634,15.683424 9.097634,16.31659 8.70711,16.70711 C8.316586,17.097634 7.68342,17.097634 7.2929,16.70711 C6.902376,16.316586 6.902376,15.68342 7.2929,15.2929 C7.683424,14.902376 8.31659,14.902376 8.70711,15.2929 Z M6.99999996,6 L5.99999996,6 C5.44771496,6 4.99999996,6.44771545 4.99999996,7 L4.99999996,7 L4.99999996,11 L19,11 L19,7 C19,6.4477153 18.552285,6 18,6 L18,6 L17,6 L17,7 C17,7.5522853 16.552285,8 16,8 C15.447715,8 15,7.5522853 15,7 L15,7 L15,6 L8.99999996,6 L8.99999996,7 C8.99999996,7.55228515 8.552285,8 7.99999996,8 C7.447715,8 6.99999996,7.55228515 6.99999996,7 L6.99999996,7 L6.99999996,6 Z" id="Fill" fill="#0473EA"></path>
        </g>
    </g>
</svg>