<svg id="Layer_1" data-name="Layer 1" xmlns="http://www.w3.org/2000/svg" viewBox="0 0 359.54 359.55"><defs><style>.cls-1{fill:#fff;}</style></defs><title>compass_readiness_v2</title><path class="cls-1" d="M40.78,248.61l-2.63-5.81a5.91,5.91,0,0,1-.52-1.75,4.21,4.21,0,0,1,.08-1.63,3.5,3.5,0,0,1,.7-1.37,3.57,3.57,0,0,1,1.33-1,3.4,3.4,0,0,1,2.09-.3A3.6,3.6,0,0,1,43.74,238l0,0a3,3,0,0,1,.21-1.73A3.36,3.36,0,0,1,45.28,235c.39-.25.76-.46,1.11-.66s.67-.37,1-.53a6.25,6.25,0,0,0,.65-.42.52.52,0,0,0,.24-.37l.13-.06,1.26,2.75a.52.52,0,0,1-.25.34,4.49,4.49,0,0,1-.6.39c-.24.15-.52.3-.83.47l-.94.53a2.41,2.41,0,0,0-1.11,1.22,2.32,2.32,0,0,0,.23,1.71l.93,2.06,4.66-2.11L53,243.07ZM45,243.33l-1.13-2.47a2.27,2.27,0,0,0-1.08-1.23,1.62,1.62,0,0,0-1.39,0,1.78,1.78,0,0,0-1,1,2,2,0,0,0,.18,1.59l1.16,2.55Z"/><path class="cls-1" d="M33.88,232.42l-3.11-9.55,2.43-.79,2.16,6.64,2.54-.83L36,222.14l2.31-.75,1.88,5.75,3-1L41,219.42l2.49-.82,3.15,9.67Z"/><path class="cls-1" d="M28.24,212.53l-.63-3.12L39.75,202l.65,3.18-2.33,1.34,1,4.76,2.67.3.62,3ZM36.75,211l-.69-3.37-2.29,1.29c-.42.24-.82.45-1.22.64l-1.07.49c-.37.16-.71.31-1,.43v0l1.33,0,1.19.06c.43,0,.81.05,1.15.09Z"/><path class="cls-1" d="M25.8,198.53,25.33,193a6.42,6.42,0,0,1,.27-2.58,5.68,5.68,0,0,1,1.2-2.06,5.92,5.92,0,0,1,2-1.42,8.29,8.29,0,0,1,2.74-.66,8.1,8.1,0,0,1,2.73.18,5.73,5.73,0,0,1,2.18,1,5.48,5.48,0,0,1,1.5,1.88,7.18,7.18,0,0,1,.71,2.67l.46,5.38Zm10.36-6.06a3.13,3.13,0,0,0-1.27-2.5,4.6,4.6,0,0,0-3.05-.6,5.1,5.1,0,0,0-3,1.11,2.94,2.94,0,0,0-.93,2.63l.18,2.14,8.25-.7Z"/><path class="cls-1" d="M24.75,180.52l.05-3.08,13.39.22,0,3.07Z"/><path class="cls-1" d="M24.92,170.77l.29-3.12,6.12-3c.37-.17.76-.34,1.18-.51l1.19-.48,1.31-.51v0l-1.39,0L32.35,163l-1.25-.1-5.4-.5.27-2.92,13.34,1.24L39,163.9,33,166.84c-.35.17-.75.35-1.18.52l-1.22.49-1.33.5v0l1.41.06,1.27.06q.69,0,1.26.09l5.36.5L38.26,172Z"/><path class="cls-1" d="M27.07,152.57l2.06-9.83,2.5.52L30.2,150.1l2.6.54,1.25-5.92,2.37.5-1.24,5.92,3,.64,1.46-7,2.57.54-2.08,9.95Z"/><path class="cls-1" d="M45.55,135.51a8.79,8.79,0,0,1-1,2.22,5.59,5.59,0,0,1-1.42,1.48,3.8,3.8,0,0,1-1.73.7,4.69,4.69,0,0,1-2-.17l1-2.94a2.15,2.15,0,0,0,1.79-.3,3.46,3.46,0,0,0,1.1-1.75,4.3,4.3,0,0,0,.18-.85,2.58,2.58,0,0,0,0-.79,1.42,1.42,0,0,0-.3-.63,1.3,1.3,0,0,0-.62-.41,1.21,1.21,0,0,0-.75,0,1.64,1.64,0,0,0-.65.42,5.32,5.32,0,0,0-.64.81c-.21.34-.45.71-.7,1.14s-.68,1.1-1,1.59a5.34,5.34,0,0,1-1.15,1.21,3.09,3.09,0,0,1-1.38.62,3.53,3.53,0,0,1-1.74-.18,3.76,3.76,0,0,1-1.59-.94,3.48,3.48,0,0,1-.85-1.43,4.84,4.84,0,0,1-.18-1.81,8.3,8.3,0,0,1,.41-2,8.1,8.1,0,0,1,.87-1.85,5,5,0,0,1,1.23-1.31,3.86,3.86,0,0,1,1.53-.65,4.11,4.11,0,0,1,1.8.08l-.94,2.86a1.71,1.71,0,0,0-1.36.31,3.28,3.28,0,0,0-1,3,1.12,1.12,0,0,0,.77.85.91.91,0,0,0,.67,0,1.88,1.88,0,0,0,.61-.46,5,5,0,0,0,.63-.87c.22-.35.46-.76.74-1.22a14.48,14.48,0,0,1,1-1.5,5.15,5.15,0,0,1,1.16-1.17,3.42,3.42,0,0,1,1.44-.61,3.59,3.59,0,0,1,1.79.18,3.9,3.9,0,0,1,1.63,1,3.81,3.81,0,0,1,.92,1.5,5.28,5.28,0,0,1,.27,1.89A8.21,8.21,0,0,1,45.55,135.51Z"/><path class="cls-1" d="M51.33,120.8A9.23,9.23,0,0,1,50,122.88a5.67,5.67,0,0,1-1.58,1.32,3.91,3.91,0,0,1-1.8.49,4.65,4.65,0,0,1-1.95-.39L46,121.49a2.16,2.16,0,0,0,1.81-.09,3.44,3.44,0,0,0,1.29-1.62,3.79,3.79,0,0,0,.28-.82,2.39,2.39,0,0,0,0-.79,1.52,1.52,0,0,0-.22-.67,1.42,1.42,0,0,0-.57-.47,1.24,1.24,0,0,0-.74-.11,1.62,1.62,0,0,0-.69.35,4.66,4.66,0,0,0-.73.74c-.25.3-.53.65-.82,1s-.81,1-1.21,1.47a5.53,5.53,0,0,1-1.28,1.08,3.17,3.17,0,0,1-1.44.46,3.6,3.6,0,0,1-1.71-.38,3.79,3.79,0,0,1-1.47-1.11,3.44,3.44,0,0,1-.68-1.52,4.8,4.8,0,0,1,0-1.81,8.06,8.06,0,0,1,.64-2,7.86,7.86,0,0,1,1.07-1.74A5,5,0,0,1,41,112.35a4.07,4.07,0,0,1,1.6-.48,4.22,4.22,0,0,1,1.78.28l-1.25,2.74a1.75,1.75,0,0,0-1.39.15,2.76,2.76,0,0,0-1.05,1.28,2.72,2.72,0,0,0-.3,1.55,1.15,1.15,0,0,0,.67.94.94.94,0,0,0,.67.07,1.78,1.78,0,0,0,.66-.39,5.22,5.22,0,0,0,.72-.79c.26-.32.55-.7.87-1.13a17.6,17.6,0,0,1,1.16-1.38,5.41,5.41,0,0,1,1.29-1,3.72,3.72,0,0,1,1.5-.44,3.65,3.65,0,0,1,1.76.38,4,4,0,0,1,1.51,1.15,3.87,3.87,0,0,1,.75,1.6,5.46,5.46,0,0,1,.05,1.9A7.59,7.59,0,0,1,51.33,120.8Z"/></svg>