<?xml version="1.0" encoding="utf-8"?>
<!-- Generator: Adobe Illustrator 23.0.6, SVG Export Plug-In . SVG Version: 6.00 Build 0)  -->
<svg version="1.1" id="Layer_1" xmlns="http://www.w3.org/2000/svg" xmlns:xlink="http://www.w3.org/1999/xlink" x="0px" y="0px"
	 viewBox="0 0 10 18" style="enable-background:new 0 0 10 18;" xml:space="preserve">
<style type="text/css">
	.st0{fill:url(#SVGID_1_);}
	.st1{fill:#2182D7;}
	.st2{fill:#FFFFFF;}
</style>
<title>compass_trade20</title>
<radialGradient id="SVGID_1_" cx="5.0276" cy="16.5805" r="4.849" gradientTransform="matrix(1 0 0 0.2527 0 12.3912)" gradientUnits="userSpaceOnUse">
	<stop  offset="0" style="stop-color:#020202;stop-opacity:0.5"/>
	<stop  offset="1" style="stop-color:#000000;stop-opacity:0"/>
</radialGradient>
<ellipse class="st0" cx="5" cy="16.6" rx="5" ry="1.3"/>
<g>
	<path class="st1" d="M4.1,8.8l-0.2,0C1.8,8.3,0.2,6.6,0.2,4.6c0-2.4,2.1-4.3,4.8-4.3s4.8,1.9,4.8,4.3c0,2-1.5,3.8-3.7,4.2l-0.2,0
		L5,14.7L4.1,8.8z"/>
	<path class="st2" d="M5,0.5c2.5,0,4.5,1.8,4.5,4.1c0,1.9-1.4,3.5-3.5,4L5.7,8.6L5.6,9L5,13.1L4.4,9L4.3,8.6L4,8.5
		c-2-0.4-3.5-2.1-3.5-4C0.5,2.3,2.5,0.5,5,0.5 M5,0C2.2,0,0,2.1,0,4.6c0,2.2,1.7,4,3.9,4.5L5,16.4L6.1,9C8.3,8.6,10,6.8,10,4.6
		C10,2.1,7.8,0,5,0L5,0z"/>
</g>
</svg>
