<svg id="Layer_1" data-name="Layer 1" xmlns="http://www.w3.org/2000/svg" xmlns:xlink="http://www.w3.org/1999/xlink" viewBox="0 0 359.54 359.55"><defs><style>.cls-1{fill:#fff;}.cls-2{fill:#78909c;}.cls-3{fill:url(#linear-gradient);}.cls-4{fill:url(#radial-gradient);}.cls-5{fill:#37474f;}.cls-6{fill:url(#radial-gradient-2);}</style><linearGradient id="linear-gradient" x1="90.11" y1="269.44" x2="269.43" y2="90.11" gradientUnits="userSpaceOnUse"><stop offset="0" stop-color="#eceff1"/><stop offset="1" stop-color="#b0bec5"/></linearGradient><radialGradient id="radial-gradient" cx="179.77" cy="179.77" fx="247.89834275103465" fy="243.23021679334593" r="119.97" gradientTransform="translate(-0.92) scale(1.01 1)" gradientUnits="userSpaceOnUse"><stop offset="0.92" stop-opacity="0"/><stop offset="0.95" stop-opacity="0.2"/><stop offset="1" stop-opacity="0.6"/></radialGradient><radialGradient id="radial-gradient-2" cx="179.77" cy="179.77" fx="238.26500235164366" fy="234.25724750167095" r="103.01" gradientUnits="userSpaceOnUse"><stop offset="0.8" stop-opacity="0"/><stop offset="1" stop-opacity="0.5"/></radialGradient></defs><title>compass_ring</title><path id="Ring_highlight" data-name="Ring highlight" class="cls-1" d="M180.87,51.87a126.8,126.8,0,1,0,126.81,126.8A126.8,126.8,0,0,0,180.87,51.87Zm0,233.45A106.65,106.65,0,1,1,287.52,178.67,106.64,106.64,0,0,1,180.87,285.32Z"/><path id="Ring_Sshadow" data-name="Ring Sshadow" class="cls-2" d="M178.67,54.07a126.81,126.81,0,1,0,126.8,126.81A126.81,126.81,0,0,0,178.67,54.07Zm0,230.66A103.86,103.86,0,1,1,282.52,180.88,103.86,103.86,0,0,1,178.67,284.73Z"/><path id="Ring_Grad" data-name="Ring Grad" class="cls-3" d="M179.77,53a126.81,126.81,0,1,0,126.8,126.8A126.8,126.8,0,0,0,179.77,53Zm0,229.55A102.75,102.75,0,1,1,282.52,179.77,102.75,102.75,0,0,1,179.77,282.52Z"/><ellipse id="Shadow_outer" data-name="Shadow outer" class="cls-4" cx="179.98" cy="179.77" rx="120.29" ry="120.41"/><path id="Measurements" class="cls-5" d="M180.25,68.86h-1V59.68h1Zm0,221.83h-1v9.18h1Zm119.62-111.4h-9.18v1h9.18Zm-231,0H59.68v1h9.17ZM265,95.19l-.68-.68L257.86,101l.68.68ZM101.68,258.55l-.68-.69-6.49,6.49.68.68Zm0-157.55-6.49-6.49-.68.68,6.49,6.49ZM265,264.35l-6.49-6.49-.68.69,6.49,6.48ZM137.75,77.12l-3.51-8.48-.89.37,3.51,8.48Zm88.44,213.41-3.51-8.47-.89.36,3.51,8.48Zm2.65-220.37-.88-.39-3.72,8.39.89.39ZM135.3,281.39l-.88-.39-3.72,8.39.88.39ZM289.88,131.82l-.39-.88-8.4,3.7.39.88ZM78.45,224.91l-.39-.89-8.4,3.7.39.89Zm212.22,1-8.46-3.56-.37.89,8.46,3.56Zm-213-89.51-8.46-3.55-.37.89,8.46,3.55Zm219.81,67.09-9-1.85-.19.95,9,1.84ZM71.21,157l-9-1.85-.19,1L71,158Zm226.1-1.9-.2-.94-9,1.92.2.94ZM71.41,203.46l-.2-1-9,1.92.2.95Zm207.91-90.87-.54-.79L271.19,117l.54.8Zm-191,130-.54-.8L80.22,247l.55.8Zm160.59-161-.79-.55-5.26,7.53.79.55ZM116.65,271l-.79-.55L110.61,278l.79.55Zm88-208.69-.94-.2-1.87,9,.94.19Zm-47,226.18-.94-.2-1.87,9,.95.19Zm.86-217.56-1.79-9-1,.19,1.8,9Zm45.22,226.54-1.8-9-.94.19,1.8,9ZM89.13,115.85l-7.52-5.26-.56.79,7.52,5.26ZM278.49,248.17,271,242.91l-.56.79,7.53,5.26ZM119,87l-5.07-7.65-.8.53,5.06,7.65ZM246.47,279.65,241.4,272l-.81.53,5.07,7.65Z"/><ellipse id="Shadow_inner" data-name="Shadow inner" class="cls-6" cx="179.77" cy="179.77" rx="102.63" ry="103.38"/></svg>