<?xml version="1.0" encoding="utf-8"?>
<svg version="1.1" id="Layer_1" xmlns="http://www.w3.org/2000/svg" xmlns:xlink="http://www.w3.org/1999/xlink" x="0px" y="0px"
	 viewBox="0 0 359.5 359.5" style="enable-background:new 0 0 359.5 359.5;" xml:space="preserve">
<style type="text/css">
	.st1{fill:#FFFFFF;}
</style>
<title>compass_trade20</title>
<g class="st0">
	<path class="st1" d="M123.2,35.3l10.4-3.7l0.9,2.5l-3.8,1.3l3.6,10.2l-2.9,1l-3.6-10.2l-3.8,1.3L123.2,35.3z"/>
	<path class="st1" d="M139.7,29.8l6.2-1.4c0.6-0.1,1.2-0.2,1.8-0.2s1.1,0.2,1.6,0.4c0.5,0.2,0.9,0.6,1.2,1c0.3,0.4,0.6,0.9,0.7,1.5
		c0.2,0.8,0.1,1.5-0.1,2.1c-0.3,0.6-0.8,1.2-1.6,1.6l0,0.1c0.7,0,1.3,0.2,1.7,0.6c0.4,0.3,0.7,0.8,1,1.5c0.2,0.4,0.3,0.8,0.4,1.2
		c0.1,0.4,0.2,0.7,0.3,1s0.2,0.5,0.3,0.7c0.1,0.2,0.2,0.3,0.3,0.3l0,0.1l-2.9,0.7c-0.1,0-0.2-0.1-0.3-0.3c-0.1-0.2-0.2-0.4-0.3-0.7
		c-0.1-0.3-0.2-0.6-0.3-0.9s-0.2-0.7-0.3-1c-0.2-0.6-0.6-1.1-1-1.3c-0.4-0.2-1-0.3-1.7-0.1l-2.2,0.5l1.1,5l-3,0.7L139.7,29.8z
		 M144.1,35l2.6-0.6c0.7-0.2,1.1-0.4,1.4-0.8c0.3-0.4,0.4-0.8,0.2-1.4c-0.1-0.5-0.4-0.9-0.8-1.2c-0.4-0.2-0.9-0.3-1.6-0.1l-2.7,0.6
		L144.1,35z"/>
	<path class="st1" d="M161.1,25.8l3.2-0.3l6.3,12.8l-3.2,0.4l-1.1-2.4l-4.8,0.5l-0.5,2.6l-3.1,0.3L161.1,25.8z M161.8,34.4l3.4-0.4
		l-1.1-2.4c-0.2-0.4-0.4-0.9-0.5-1.3c-0.2-0.4-0.3-0.8-0.4-1.1c-0.1-0.4-0.2-0.7-0.3-1.1l0,0c0,0.5-0.1,0.9-0.1,1.3
		c-0.1,0.4-0.1,0.8-0.2,1.2s-0.1,0.8-0.2,1.1L161.8,34.4z"/>
	<path class="st1" d="M175.3,24.6l5.6,0.1c0.9,0,1.8,0.2,2.5,0.5c0.8,0.3,1.4,0.8,1.9,1.4s0.9,1.3,1.2,2.2c0.3,0.8,0.4,1.8,0.4,2.8
		c0,1-0.2,1.9-0.5,2.7c-0.3,0.8-0.7,1.5-1.3,2.1c-0.5,0.6-1.2,1-2,1.3s-1.7,0.4-2.7,0.4l-5.4-0.1L175.3,24.6z M180.3,35.6
		c1.2,0,2-0.3,2.6-1c0.6-0.7,0.9-1.7,0.9-3c0-1.3-0.2-2.3-0.8-3.1s-1.4-1.2-2.5-1.2l-2.1,0l-0.1,8.3L180.3,35.6z"/>
	<path class="st1" d="M193.4,25.2l10,1.2l-0.3,2.5l-6.9-0.8l-0.3,2.6l6,0.7l-0.3,2.4l-6-0.7l-0.4,3.1l7.1,0.8l-0.3,2.6l-10.1-1.2
		L193.4,25.2z"/>
	<path class="st1" d="M207.3,38.6c0.4-0.5,0.8-1,1.4-1.3c0.4-0.3,0.8-0.5,1.2-0.7c0.4-0.2,0.9-0.4,1.3-0.6c0.4-0.2,0.9-0.4,1.3-0.5
		c0.4-0.2,0.8-0.3,1.2-0.5c0.5-0.2,0.9-0.4,1.2-0.7c0.3-0.3,0.5-0.6,0.6-1.1c0.1-0.6,0.1-1-0.2-1.4c-0.2-0.4-0.6-0.7-1.2-0.8
		c-0.7-0.2-1.2-0.1-1.7,0.3c-0.3,0.2-0.5,0.4-0.6,0.7c-0.2,0.3-0.3,0.6-0.4,1l-2.8-0.6c0.1-0.7,0.4-1.2,0.6-1.7
		c0.3-0.5,0.6-0.9,1-1.2c0.5-0.5,1.1-0.8,1.9-1c0.8-0.2,1.7-0.1,2.7,0.1c0.8,0.2,1.4,0.4,2,0.8s1,0.8,1.3,1.2s0.5,1,0.6,1.5
		c0.1,0.6,0.1,1.1-0.1,1.7c-0.2,0.7-0.5,1.3-0.9,1.8c-0.4,0.5-0.9,0.8-1.5,1.1c-0.4,0.2-0.8,0.4-1.3,0.6s-0.9,0.4-1.4,0.5
		c-0.5,0.2-0.9,0.3-1.3,0.5c-0.4,0.2-0.8,0.4-1.1,0.7l0,0.1l6,1.4l-0.6,2.5l-10-2.3C206.6,39.7,206.9,39.1,207.3,38.6z"/>
	<path class="st1" d="M226.3,46.3c-0.8-0.3-1.5-0.7-2.1-1.2c-0.6-0.5-1-1.2-1.3-1.9c-0.3-0.7-0.4-1.6-0.4-2.5s0.2-1.9,0.6-2.9
		c0.4-1,0.8-1.9,1.4-2.6c0.5-0.7,1.2-1.3,1.8-1.7c0.7-0.4,1.4-0.6,2.2-0.7c0.8-0.1,1.6,0,2.4,0.3c0.8,0.3,1.5,0.7,2.1,1.3
		c0.6,0.5,1,1.2,1.3,1.9c0.3,0.7,0.4,1.6,0.4,2.5c0,0.9-0.2,1.9-0.6,2.9s-0.8,1.9-1.3,2.6c-0.5,0.7-1.2,1.3-1.8,1.7
		c-0.7,0.4-1.4,0.6-2.2,0.7C227.9,46.7,227.1,46.6,226.3,46.3z M227.1,44c0.5,0.2,0.9,0.2,1.3,0.1c0.4-0.1,0.8-0.3,1.1-0.6
		c0.3-0.3,0.6-0.7,0.9-1.2c0.3-0.5,0.5-1.1,0.8-1.7c0.2-0.6,0.4-1.3,0.5-1.8c0.1-0.6,0.1-1.1,0-1.5c-0.1-0.5-0.2-0.8-0.5-1.2
		c-0.2-0.3-0.6-0.6-1-0.7c-0.4-0.2-0.9-0.2-1.3-0.1c-0.4,0.1-0.8,0.3-1.1,0.6c-0.3,0.3-0.7,0.7-0.9,1.2c-0.3,0.5-0.5,1.1-0.8,1.7
		c-0.2,0.6-0.4,1.3-0.5,1.8c-0.1,0.6-0.1,1.1,0,1.5c0.1,0.4,0.2,0.8,0.5,1.2S226.7,43.8,227.1,44z"/>
</g>
</svg>
