<svg id="compass" xmlns="http://www.w3.org/2000/svg" viewBox="0 0 359.54 359.55"><defs><style>.cls-1{fill:#fff;}</style></defs><title>compass_arrows_mob</title><path class="cls-1" d="M327.32,120.51l-3.19,5.37A93.62,93.62,0,0,0,308,92c-8.36-11.32-16.83-19.84-25.17-25.32l-1.1,1.68c8.15,5.34,16.45,13.7,24.66,24.83a91.86,91.86,0,0,1,15.85,33.15l-5.48-3.13-1,1.73,8.42,4.82,4.91-8.25Z"/><path class="cls-1" d="M33.49,120.34l3.2,5.37A93.63,93.63,0,0,1,52.86,91.86C61.22,80.53,69.69,72,78,66.54l1.1,1.67C71,73.56,62.69,81.91,54.47,93a91.67,91.67,0,0,0-15.84,33.15l5.48-3.13,1,1.74-8.42,4.81-4.91-8.24Z"/></svg>