<svg id="Layer_1" data-name="Layer 1" xmlns="http://www.w3.org/2000/svg" viewBox="0 0 359.54 359.55"><defs><style>.cls-1{fill:#fff;}</style></defs><title>compass_diversity</title><path class="cls-1" d="M320.74,115.11l2.15,5.16a6.53,6.53,0,0,1,.53,2.53,5.55,5.55,0,0,1-.52,2.33,5.81,5.81,0,0,1-1.5,2,9.17,9.17,0,0,1-5.07,2.13,5.58,5.58,0,0,1-2.39-.33,5.44,5.44,0,0,1-2-1.33,7.24,7.24,0,0,1-1.49-2.33l-2.07-5Zm-8,8.93a3.15,3.15,0,0,0,2,2,4.62,4.62,0,0,0,3.1-.36,5,5,0,0,0,2.51-2,3,3,0,0,0,.09-2.8l-.82-2-7.65,3.18Z"/><path class="cls-1" d="M327.18,131.86l.92,2.94-12.78,4-.92-2.93Z"/><path class="cls-1" d="M329.78,140.37l.69,3.11-5.87,3.32c-.34.18-.72.38-1.14.58l-1.18.57c-.45.21-.89.41-1.33.59v0c.47,0,1,0,1.45,0h1.31c.47,0,.89,0,1.28.05l6.72.53.66,3-14-1.44-.69-3.15Z"/><path class="cls-1" d="M333.29,158.12l1.08,10-2.55.27-.74-6.95-2.65.29.65,6-2.42.26-.65-6-3.09.33.76,7.07-2.62.28L320,159.55Z"/><path class="cls-1" d="M334.79,175l-.1,6.37a6.18,6.18,0,0,1-.28,1.81,4.18,4.18,0,0,1-.77,1.43,3.63,3.63,0,0,1-1.22,1,3.76,3.76,0,0,1-1.64.32,3.29,3.29,0,0,1-2-.63,3.5,3.5,0,0,1-1.21-1.91h-.06a2.84,2.84,0,0,1-.93,1.47,3.38,3.38,0,0,1-1.69.6c-.46,0-.89.09-1.29.11l-1.08.07a5.6,5.6,0,0,0-.78.11.47.47,0,0,0-.37.23h-.15l0-3a.51.51,0,0,1,.36-.2c.2,0,.44-.07.72-.1l.94-.06,1.08-.08a2.4,2.4,0,0,0,1.53-.63,2.32,2.32,0,0,0,.53-1.64l0-2.26-5.11-.09,0-3.06Zm-6.06,3,0,2.72a2.28,2.28,0,0,0,.45,1.57,1.63,1.63,0,0,0,1.28.57,1.81,1.81,0,0,0,1.33-.48,2.08,2.08,0,0,0,.52-1.51l0-2.81Z"/><path class="cls-1" d="M320.05,196.1a9.43,9.43,0,0,1,.58-2.38,5.8,5.8,0,0,1,1.09-1.74,4,4,0,0,1,1.56-1,4.7,4.7,0,0,1,2-.23l-.35,3.07a2.13,2.13,0,0,0-1.68.65,3.36,3.36,0,0,0-.73,1.94,3.63,3.63,0,0,0,0,.87,2.57,2.57,0,0,0,.19.76,1.34,1.34,0,0,0,1.11.84,1.19,1.19,0,0,0,.74-.13,1.49,1.49,0,0,0,.55-.54,5,5,0,0,0,.46-.93c.15-.37.3-.79.46-1.25q.33-.94.69-1.77a5.81,5.81,0,0,1,.88-1.42,3.11,3.11,0,0,1,1.22-.88,3.48,3.48,0,0,1,1.75-.18,3.87,3.87,0,0,1,1.75.6,3.57,3.57,0,0,1,1.12,1.23,5.16,5.16,0,0,1,.54,1.73,8.57,8.57,0,0,1,0,2.09,8.06,8.06,0,0,1-.48,2,4.72,4.72,0,0,1-.94,1.52,3.76,3.76,0,0,1-1.37,1,4.07,4.07,0,0,1-1.78.29l.34-3a1.75,1.75,0,0,0,1.28-.58,2.78,2.78,0,0,0,.6-1.54,2.82,2.82,0,0,0-.2-1.56,1.14,1.14,0,0,0-.93-.69,1,1,0,0,0-.66.14,1.83,1.83,0,0,0-.5.58,5.24,5.24,0,0,0-.44,1l-.48,1.35a16.61,16.61,0,0,1-.67,1.67,5.09,5.09,0,0,1-.91,1.38,3.48,3.48,0,0,1-1.28.89,3.63,3.63,0,0,1-1.79.19,3.82,3.82,0,0,1-3-1.91,5.34,5.34,0,0,1-.64-1.8A7.66,7.66,0,0,1,320.05,196.1Z"/><path class="cls-1" d="M331.92,209.16l-.61,3-13.12-2.66.61-3Z"/><path class="cls-1" d="M330,218.17l-3.12,10.6-2.5-.74,1.12-3.83-10.34-3,.86-2.95,10.35,3,1.12-3.82Z"/><path class="cls-1" d="M315.49,235.15l9.51-1-1.3,3.1-3.15.24-1.12,0h-1.12l-1.21,0,0,0,.87.86.79.81.75.83,2,2.43-1.26,3L314.34,238,309.69,236l1.19-2.83Z"/></svg>