<svg id="Layer_1" data-name="Layer 1" xmlns="http://www.w3.org/2000/svg" viewBox="0 0 359.54 359.55"><defs><style>.cls-1{fill:#fff;}</style></defs><title>compass_dynamism</title><path class="cls-1" d="M122.6,309.46l5.18,2.05a6.35,6.35,0,0,1,2.2,1.38,5.74,5.74,0,0,1,1.31,2,6,6,0,0,1,.37,2.45,8.68,8.68,0,0,1-.62,2.76,8.58,8.58,0,0,1-1.38,2.36,5.64,5.64,0,0,1-1.91,1.49,5.36,5.36,0,0,1-2.35.51,7.23,7.23,0,0,1-2.7-.55l-5-2Zm.82,12a3.17,3.17,0,0,0,2.81,0,4.64,4.64,0,0,0,1.89-2.47,5.14,5.14,0,0,0,.34-3.18,3,3,0,0,0-2-2l-2-.78-3,7.7Z"/><path class="cls-1" d="M138.2,323.91,136,314.6l3.25.9.64,3.09c.06.34.12.71.18,1.1s.1.77.14,1.12.07.81.11,1.2h0c.23-.32.48-.64.73-1l.7-.88.73-.85,2.16-2.32,3.12.86-6.65,6.83-1.34,4.86-2.95-.82Z"/><path class="cls-1" d="M152.06,318.75l3.1.49,2.58,6.29c.15.37.3.77.44,1.2s.28.84.4,1.22l.43,1.35h0c0-.45.07-.92.12-1.38s.09-.82.15-1.27.11-.87.17-1.25l.84-5.35,2.9.45-2.07,13.23-3.11-.49L155.48,327c-.15-.36-.29-.77-.44-1.22s-.29-.86-.41-1.24-.29-.91-.42-1.36h0c0,.47-.1.93-.14,1.4s-.09.82-.14,1.27-.11.87-.17,1.25l-.83,5.32L150,332Z"/><path class="cls-1" d="M172.33,321.16l3.18.12,4.3,13.58-3.24-.13-.74-2.59L171,332l-.93,2.52-3.07-.13Zm-.55,8.62,3.44.14-.71-2.53c-.13-.46-.24-.91-.33-1.34s-.16-.81-.22-1.15-.13-.77-.17-1.11h0c-.11.44-.23.87-.34,1.28s-.22.74-.34,1.15-.24.78-.36,1.1Z"/><path class="cls-1" d="M184.58,321.42l4.11-.33,2.12,5.42c.15.41.31.88.47,1.41s.32,1,.46,1.53.32,1.15.46,1.74h.05c.05-.61.11-1.2.17-1.78s.11-1,.18-1.59a14.46,14.46,0,0,1,.26-1.46l1.18-5.7,4.16-.34,1.08,13.35-2.81.23-.49-6c0-.42-.06-.91-.08-1.46s0-1.08-.06-1.58,0-1.18,0-1.79h0c-.06.56-.13,1.12-.21,1.66s-.13,1-.21,1.48-.17,1-.26,1.38l-1.39,6.5-2.51.21-2.43-6.2q-.24-.57-.48-1.32c-.17-.5-.32-1-.45-1.42s-.32-1.06-.47-1.6h0c.08.61.17,1.2.25,1.77s.13,1,.2,1.57.12,1,.15,1.45l.49,6-2.74.22Z"/><path class="cls-1" d="M203.46,319.37l3-.54L208.86,332l-3,.54Z"/><path class="cls-1" d="M220.47,329.66a9.08,9.08,0,0,1-2.42.34,5.77,5.77,0,0,1-2-.37,4,4,0,0,1-1.53-1.07,4.69,4.69,0,0,1-.95-1.75l3-.81a2.12,2.12,0,0,0,1.23,1.33,3.44,3.44,0,0,0,2.06,0,4.5,4.5,0,0,0,.82-.32,2.33,2.33,0,0,0,.63-.46,1.47,1.47,0,0,0,.37-.6,1.33,1.33,0,0,0,0-.74,1.13,1.13,0,0,0-.39-.64,1.6,1.6,0,0,0-.71-.31,5,5,0,0,0-1-.09l-1.34,0c-.66,0-1.29,0-1.9,0a5.56,5.56,0,0,1-1.64-.3,3.18,3.18,0,0,1-1.28-.81,3.59,3.59,0,0,1-.8-1.56,3.89,3.89,0,0,1-.09-1.84,3.53,3.53,0,0,1,.74-1.5,4.85,4.85,0,0,1,1.4-1.14,8.44,8.44,0,0,1,1.94-.77,7.42,7.42,0,0,1,2-.29,4.71,4.71,0,0,1,1.76.31,3.8,3.8,0,0,1,1.39.92,4.23,4.23,0,0,1,.92,1.55l-2.9.78a1.81,1.81,0,0,0-1-1,2.75,2.75,0,0,0-1.66,0,2.85,2.85,0,0,0-1.38.76,1.14,1.14,0,0,0-.29,1.11.93.93,0,0,0,.37.57,1.69,1.69,0,0,0,.72.25,5.78,5.78,0,0,0,1.07.06l1.43-.06a18,18,0,0,1,1.8,0,5.19,5.19,0,0,1,1.62.34,3.52,3.52,0,0,1,1.3.86,3.57,3.57,0,0,1,.83,1.6,4,4,0,0,1,.08,1.89,4,4,0,0,1-.75,1.6,5.13,5.13,0,0,1-1.43,1.25A7.59,7.59,0,0,1,220.47,329.66Z"/><path class="cls-1" d="M226.62,313.57l3.82-1.55,3.65,4.55c.27.34.56.74.87,1.19s.61.9.89,1.33.65,1,1,1.52l.05,0c-.13-.6-.26-1.18-.38-1.75s-.2-1-.29-1.57a13.57,13.57,0,0,1-.2-1.48l-.58-5.78,3.87-1.57,5,12.41-2.62,1.06-2.25-5.55c-.16-.39-.33-.85-.51-1.37s-.37-1-.53-1.49-.38-1.11-.57-1.7l0,0c.11.55.21,1.1.3,1.64s.16,1,.24,1.47.13,1,.17,1.4l.62,6.62-2.33.95-4.18-5.18c-.26-.32-.54-.7-.85-1.12s-.6-.83-.86-1.22-.62-.92-.93-1.39h0c.26.56.52,1.1.77,1.62l.66,1.44c.23.5.42.94.58,1.33L234.2,325l-2.55,1Z"/></svg>