<svg id="compass" xmlns="http://www.w3.org/2000/svg" viewBox="0 0 359.54 359.55"><defs><style>.cls-1{fill:#fff;}</style></defs><title>compass_dynamism_mob</title><path class="cls-1" d="M246.74,320.22l-5.16,2.13a6.56,6.56,0,0,1-2.54.52,5.56,5.56,0,0,1-2.33-.53,5.94,5.94,0,0,1-2-1.51,8.42,8.42,0,0,1-1.46-2.41,8.27,8.27,0,0,1-.65-2.66,5.72,5.72,0,0,1,.34-2.39,5.47,5.47,0,0,1,1.34-2,7.22,7.22,0,0,1,2.33-1.48l5-2.05Zm-8.9-8.05a3.13,3.13,0,0,0-2,2,4.67,4.67,0,0,0,.35,3.1,5.16,5.16,0,0,0,2,2.52,3,3,0,0,0,2.8.1l2-.82-3.15-7.66Z"/><path class="cls-1" d="M225.07,319.33l6.74,6.78-3.23.94-2.16-2.3c-.24-.26-.48-.54-.74-.85L225,323l-.73-1h0c0,.4-.08.8-.12,1.22s-.08.72-.14,1.11-.11.77-.17,1.11l-.62,3.1-3.11.91,2.08-9.3-1.4-4.84,2.93-.86Z"/><path class="cls-1" d="M214.09,330.85l-3.09.52-4.45-5.15c-.25-.31-.52-.64-.79-1s-.53-.7-.77-1l-.83-1.13h0c.11.45.22.9.32,1.35s.18.81.27,1.25.16.87.22,1.25l.9,5.34-2.89.48-2.22-13.2,3.11-.53,4.39,5.09c.26.3.53.64.81,1l.78,1.06c.28.38.56.76.83,1.16h0l-.3-1.37c-.09-.39-.19-.81-.28-1.25s-.17-.86-.23-1.24l-.9-5.31,2.9-.48Z"/><path class="cls-1" d="M192.08,333.66l-3.18.16-5.5-13.14,3.24-.16,1,2.51,4.86-.24.7-2.59,3.07-.15Zm-.23-8.64-3.43.17.93,2.46c.17.45.32.88.45,1.3s.23.8.32,1.13.2.75.27,1.09h0c.07-.44.15-.88.22-1.3s.16-.76.24-1.18.17-.79.26-1.12Z"/><path class="cls-1" d="M177.83,334l-4.11-.31L172.46,328c-.09-.43-.17-.91-.25-1.46s-.15-1.08-.21-1.59-.14-1.18-.19-1.78h-.05c-.14.59-.29,1.17-.44,1.73s-.28,1-.43,1.54-.31,1-.47,1.41l-2,5.44L164.2,333l1-13.35,2.82.21-.45,6c0,.42-.08.91-.14,1.45s-.13,1.08-.19,1.58-.16,1.16-.24,1.77h0c.15-.54.31-1.08.47-1.61s.27-.92.44-1.42.32-.94.46-1.33l2.38-6.21,2.51.19,1.45,6.5q.13.6.27,1.38c.09.52.16,1,.22,1.47s.15,1.1.22,1.66h0c0-.61,0-1.21,0-1.78s0-1,.05-1.59,0-1,.07-1.46l.45-6,2.74.2Z"/><path class="cls-1" d="M157.42,331.89l-3-.53,2.3-13.19,3,.53Z"/><path class="cls-1" d="M146.18,315.45a8.89,8.89,0,0,1,2.27.92A5.76,5.76,0,0,1,150,317.7a4,4,0,0,1,.79,1.69,4.65,4.65,0,0,1-.06,2l-3-.8a2.11,2.11,0,0,0-.4-1.76,3.43,3.43,0,0,0-1.81-1,3.65,3.65,0,0,0-.85-.13,2.24,2.24,0,0,0-.79.08,1.38,1.38,0,0,0-.62.33,1.45,1.45,0,0,0-.37.64,1.26,1.26,0,0,0,0,.75,1.64,1.64,0,0,0,.46.63,4.8,4.8,0,0,0,.85.58c.34.2.73.41,1.17.64.59.31,1.14.62,1.65.94a5.5,5.5,0,0,1,1.28,1.08,3.12,3.12,0,0,1,.69,1.34,3.43,3.43,0,0,1-.08,1.75,3.86,3.86,0,0,1-.84,1.64,3.55,3.55,0,0,1-1.39.93,5.06,5.06,0,0,1-1.79.29,8.62,8.62,0,0,1-2.06-.3,7.94,7.94,0,0,1-1.9-.76,4.9,4.9,0,0,1-1.37-1.15,3.8,3.8,0,0,1-.74-1.49,4.17,4.17,0,0,1,0-1.8l2.91.77a1.76,1.76,0,0,0,.39,1.34,2.72,2.72,0,0,0,1.44.82,2.81,2.81,0,0,0,1.57,0A1.11,1.11,0,0,0,146,326a.9.9,0,0,0,0-.67,1.75,1.75,0,0,0-.5-.58,4.52,4.52,0,0,0-.9-.58l-1.26-.67a14.82,14.82,0,0,1-1.56-.91,5.25,5.25,0,0,1-1.23-1.1,3.43,3.43,0,0,1-.69-1.39,3.64,3.64,0,0,1,.07-1.81,3.88,3.88,0,0,1,.88-1.67,3.69,3.69,0,0,1,1.45-1,5.06,5.06,0,0,1,1.87-.37A7.66,7.66,0,0,1,146.18,315.45Z"/><path class="cls-1" d="M131.15,325.31l-3.83-1.54.53-5.8q.08-.64.21-1.47c.09-.55.18-1.07.28-1.57s.23-1.17.36-1.76l0,0c-.31.52-.63,1-.94,1.52s-.57.88-.88,1.34-.6.85-.88,1.19l-3.6,4.57-3.88-1.56,5-12.43,2.62,1.06-2.24,5.56c-.16.39-.35.84-.58,1.34l-.66,1.44c-.25.52-.5,1.06-.77,1.61l0,0c.3-.47.62-.94.93-1.39s.54-.8.85-1.22.59-.8.85-1.13l4.15-5.19,2.34.94-.6,6.63c0,.41-.09.88-.16,1.4s-.15,1-.24,1.47-.18,1.09-.29,1.64l0,0c.2-.59.39-1.15.57-1.7s.34-1,.52-1.49.36-1,.52-1.37l2.23-5.56,2.56,1Z"/></svg>