<?xml version="1.0" encoding="UTF-8"?>
<svg width="24px" height="24px" viewBox="0 0 24 24" version="1.1" xmlns="http://www.w3.org/2000/svg" xmlns:xlink="http://www.w3.org/1999/xlink">
    <title>foundation / icon / 24px / Checkmark Square 2 - fill</title>
    <g id="foundation-/-icon-/-24px-/-Checkmark-Square-2---fill" stroke="none" stroke-width="1" fill="none" fill-rule="evenodd">
        <polygon id="24pt-Bounding-Box" opacity="0" fill-rule="nonzero" points="0 0 24 0 24 24 0 24"></polygon>
        <path d="M17.9999999,2.99999955 L5.99999987,2.99999955 L5.99999987,2.99999955 C4.34314987,2.99999955 2.99999987,4.34315 2.99999987,5.99999955 C2.99999987,5.99999955 2.99999987,5.99999955 2.99999987,5.99999955 L2.99999987,17.9999995 L2.99999987,17.9999995 C2.99999987,19.6568495 4.34314987,20.9999995 5.99999987,20.9999995 L17.9999999,20.9999995 L17.9999999,20.9999995 C19.6568497,20.9999995 20.9999999,19.6568495 20.9999999,17.9999995 L20.9999999,5.99999955 L20.9999999,5.99999955 C20.9999999,4.34314955 19.6568497,2.99999955 17.9999999,2.99999955 L17.9999999,2.99999955 Z M16.3,9.61 L11.73,15.61 L11.73,15.61 C11.541207,15.855247 11.249497,15.999256 10.94,16.0000145 L10.94,16.0000145 C10.63222,16.001658 10.340822,15.861492 10.15,15.62 L7.71000004,12.51 L7.70999995,12.5099999 C7.37034495,12.0736949 7.44869495,11.4446599 7.88499995,11.1049999 C8.32130495,10.7653449 8.95033995,10.8436949 9.28999995,11.2799999 L10.92,13.3599999 L14.7,8.35999989 L14.6999999,8.35999993 C15.0368939,7.91817193 15.6681719,7.83310593 16.1099999,8.16999993 C16.5518279,8.50689393 16.6368939,9.13817193 16.2999999,9.57999993 C16.2999999,9.57999993 16.2999999,9.57999995 16.2999999,9.57999995 L16.3,9.61 Z" id="Fill" fill="#0473EA"></path>
    </g>
</svg>