<?xml version="1.0" encoding="UTF-8"?>
<svg width="24px" height="24px" viewBox="0 0 24 24" version="1.1" xmlns="http://www.w3.org/2000/svg" xmlns:xlink="http://www.w3.org/1999/xlink">
    <title>foundation / icon / 24px / Checkbox - Hover</title>
    <g id="foundation-/-icon-/-24px-/-Checkbox---Hover" stroke="none" stroke-width="1" fill="none" fill-rule="evenodd">
        <polygon id="24pt-Bounding-Box" opacity="0" fill-rule="nonzero" points="0 0 24 0 24 24 0 24"></polygon>
        <path d="M17.9999999,21.0000005 L5.99999987,21.0000005 L5.99999987,21.0000005 C4.34314987,21.0000005 2.99999987,19.65685 2.99999987,18.0000005 C2.99999987,18.0000005 2.99999987,18.0000005 2.99999987,18.0000005 L2.99999987,6.00000045 L2.99999987,6.00000045 C2.99999987,4.34315045 4.34314987,3.00000045 5.99999987,3.00000045 L17.9999999,3.00000045 L17.9999999,3.00000045 C19.6568497,3.00000045 20.9999999,4.34315045 20.9999999,6.00000045 L20.9999999,18.0000005 L20.9999999,18.0000005 C20.9999999,19.6568505 19.6568497,21.0000005 17.9999999,21.0000005 L17.9999999,21.0000005 Z M5.99999996,5 L5.99999996,5 C5.44771496,5 4.99999996,5.447715 4.99999996,6 C4.99999996,6 4.99999996,6 4.99999996,6 L4.99999996,18 L4.99999996,18 C4.99999996,18.5522852 5.44771496,19 5.99999996,19 L18,19 L18,19 C18.5522849,19 19,18.5522852 19,18 L19,6 L19,6 C19,5.44771515 18.5522849,5 18,5 L5.99999996,5 Z" id="Fill" fill="#0473EA"></path>
    </g>
</svg>