<?xml version="1.0" encoding="UTF-8"?>
<svg width="24px" height="24px" viewBox="0 0 24 24" version="1.1" xmlns="http://www.w3.org/2000/svg" xmlns:xlink="http://www.w3.org/1999/xlink">
    <title>foundation / icon / 24px / Lock - line</title>
    <g id="foundation-/-icon-/-24px-/-Lock---line" stroke="none" stroke-width="1" fill="none" fill-rule="evenodd">
        <polygon id="24pt-Bounding-Box" opacity="0" fill-rule="nonzero" points="0 0 24 0 24 24 0 24"></polygon>
        <path d="M11.9999999,2.11 C14.20914,2.11 15.9999999,3.90086 15.9999999,6.11 L15.9999999,6.11 L15.9999999,8 L16.9999999,8.00000045 C18.6568497,8.00000045 19.9999999,9.34315045 19.9999999,11.0000005 L19.9999999,11.0000005 L19.9999999,19.0000005 C19.9999999,20.6568505 18.6568497,22.0000005 16.9999999,22.0000005 L16.9999999,22.0000005 L6.99999987,22.0000005 C5.34314987,22.0000005 3.99999987,20.6568505 3.99999987,19.0000005 L3.99999987,19.0000005 L3.99999987,11 L3.99999987,11 L4.00509258,10.8237276 C4.09633928,9.24892392 5.40232308,8.00000007 6.99999987,8 L6.99999987,8 L7.99999987,8 L7.99999987,6.11 C7.99999987,3.90086 9.79086,2.11 11.9999999,2.11 Z M17,10.0000002 L6.99999996,10.0000002 C6.44771496,10.0000002 5.99999996,10.4477152 5.99999996,11.0000002 L5.99999996,11.0000002 L5.99999996,19.0000002 L5.99999996,19.0000002 L6.00672768,19.1166213 C6.06449276,19.61396 6.48716388,20.0000002 6.99999996,20.0000002 L6.99999996,20.0000002 L17,20.0000002 C17.552285,20.0000002 18,19.552285 18,19.0000002 L18,19.0000002 L18,11.0000002 C18,10.4477152 17.5522849,10.0000002 17,10.0000002 L17,10.0000002 Z M11.9999999,12 L12.1762722,12.0050927 C13.751076,12.0963394 14.9999999,13.4023232 14.9999999,15 L14.9999999,15 L14.9949072,15.1762724 C14.9036605,16.7510761 13.5976767,18 11.9999999,18 C10.3431499,18 8.99999987,16.65685 8.99999987,15 C8.99999987,13.34315 10.3431499,12 11.9999999,12 L11.9999999,12 Z M12,14 C11.447715,14 11,14.447715 11,15 C11,15.552285 11.447715,16 12,16 L12,16 L12.1166211,15.9932723 C12.61396,15.9355072 13,15.5128361 13,15 L13,15 L12.9932722,14.8833788 C12.9355072,14.38604 12.512836,14 12,14 Z M12.0000001,3.99999863 L11.8469267,4.01003409 C10.7867157,4.11884371 9.97326888,5.0275059 9.99999997,6.10999863 L9.99999997,6.10999863 L10.0000001,7.99999863 L14.0000001,7.99999863 L14.0000001,6.10999863 C14.0280001,4.97596363 13.1339101,4.03269313 12.0000001,3.99999863 L12.0000001,3.99999863 Z" id="Fill" fill="#0473EA"></path>
    </g>
</svg>