<?xml version="1.0" encoding="UTF-8"?>
<svg width="24px" height="24px" viewBox="0 0 24 24" version="1.1" xmlns="http://www.w3.org/2000/svg" xmlns:xlink="http://www.w3.org/1999/xlink">
    <title>foundation / icon / 24px / Lock - fill</title>
    <g id="foundation-/-icon-/-24px-/-Lock---fill" stroke="none" stroke-width="1" fill="none" fill-rule="evenodd">
        <polygon id="24pt-Bounding-Box" opacity="0" fill-rule="nonzero" points="0 0 24 0 24 24 0 24"></polygon>
        <path d="M16.9999999,8 L15.9999999,8 L15.9999999,6.11 L15.9999999,6.11 C15.9999999,3.90086 14.20914,2.11 11.9999999,2.11 C9.79086,2.11 7.99999987,3.90086 7.99999987,6.11 L7.99999987,8 L6.99999987,8 L6.99999987,8 C5.34314987,8.00000007 3.99999987,9.34315 3.99999987,11 C3.99999987,11 3.99999987,11 3.99999987,11 L3.99999987,19 L3.99999987,19.0000005 C3.99999987,20.6568505 5.34314987,22.0000005 6.99999987,22.0000005 L16.9999999,22.0000005 L16.9999999,22.0000005 C18.6568497,22.0000005 19.9999999,20.6568505 19.9999999,19.0000005 L19.9999999,11.0000005 L19.9999999,11.0000005 C19.9999999,9.34315045 18.6568497,8.00000045 16.9999999,8.00000045 L16.9999999,8 Z M10,6.11 L9.99999997,6.10999863 C9.97199597,4.97595863 10.866092,4.03269863 12,3.99999863 L12.0000001,3.99999863 C13.1339101,4.03269313 14.0280001,4.97596363 14.0000001,6.10999863 L14.0000001,7.99999863 L10.0000001,7.99999863 L10,6.11 Z M11.9999999,18 L11.9999999,18 C10.3431499,18 8.99999987,16.65685 8.99999987,15 C8.99999987,13.34315 10.3431499,12 11.9999999,12 C13.6568499,12 14.9999999,13.34315 14.9999999,15 L14.9999999,15 C14.9999999,16.65685 13.6568499,18 11.9999999,18 C11.9999999,18 11.9999999,18 11.9999999,18 L11.9999999,18 Z" id="Fill" fill="#0473EA"></path>
    </g>
</svg>