<?xml version="1.0" encoding="UTF-8"?>
<svg width="83px" height="43px" viewBox="0 0 83 43" version="1.1" xmlns="http://www.w3.org/2000/svg" xmlns:xlink="http://www.w3.org/1999/xlink">
    <!-- Generator: Sketch 61.2 (89653) - https://sketch.com -->
    <title>op2030</title>
    <desc>Created with Sketch.</desc>
    <g id="Opportunity-2030" stroke="none" stroke-width="1" fill="none" fill-rule="evenodd">
        <g id="opportunity-2030-landing-page" transform="translate(-1332.000000, -833.000000)" fill="#002244" fill-rule="nonzero">
            <g id="op2030" transform="translate(1332.428000, 833.802000)">
                <path d="M5.568,10.85 C6.352,10.85 7.06133333,10.7146667 7.696,10.444 C8.33066667,10.1733333 8.872,9.79533333 9.32,9.31 C9.768,8.82466667 10.111,8.25066667 10.349,7.588 C10.587,6.92533333 10.706,6.20666667 10.706,5.432 C10.706,4.648 10.587,3.92466667 10.349,3.262 C10.111,2.59933333 9.768,2.02766667 9.32,1.547 C8.872,1.06633333 8.33066667,0.688333333 7.696,0.413 C7.06133333,0.137666667 6.352,1.13686838e-13 5.568,1.13686838e-13 C4.77466667,1.13686838e-13 4.06066667,0.137666667 3.426,0.413 C2.79133333,0.688333333 2.25,1.06633333 1.802,1.547 C1.354,2.02766667 1.011,2.59933333 0.773,3.262 C0.535,3.92466667 0.416,4.648 0.416,5.432 C0.416,6.20666667 0.535,6.92533333 0.773,7.588 C1.011,8.25066667 1.354,8.82466667 1.802,9.31 C2.25,9.79533333 2.79133333,10.1733333 3.426,10.444 C4.06066667,10.7146667 4.77466667,10.85 5.568,10.85 Z M5.582,8.89 C5.134,8.89 4.73966667,8.80133333 4.399,8.624 C4.05833333,8.44666667 3.77366667,8.204 3.545,7.896 C3.31633333,7.588 3.14366667,7.224 3.027,6.804 C2.91033333,6.384 2.852,5.92666667 2.852,5.432 C2.852,4.93733333 2.91033333,4.47766667 3.027,4.053 C3.14366667,3.62833333 3.31633333,3.25733333 3.545,2.94 C3.77366667,2.62266667 4.05833333,2.37533333 4.399,2.198 C4.73966667,2.02066667 5.134,1.932 5.582,1.932 C6.03,1.932 6.422,2.02066667 6.758,2.198 C7.094,2.37533333 7.374,2.62266667 7.598,2.94 C7.822,3.25733333 7.99,3.62833333 8.102,4.053 C8.214,4.47766667 8.27,4.93733333 8.27,5.432 C8.27,5.92666667 8.214,6.384 8.102,6.804 C7.99,7.224 7.822,7.588 7.598,7.896 C7.374,8.204 7.094,8.44666667 6.758,8.624 C6.422,8.80133333 6.03,8.89 5.582,8.89 Z M14.08,13.076 L14.08,11.298 C14.08,10.8966667 14.073,10.5606667 14.059,10.29 C14.045,10.0193333 14.0286667,9.814 14.01,9.674 L14.01,9.674 L14.038,9.674 C14.2526667,10.038 14.549,10.3226667 14.927,10.528 C15.305,10.7333333 15.7413333,10.836 16.236,10.836 C16.7306667,10.836 17.181,10.7426667 17.587,10.556 C17.993,10.3693333 18.3383333,10.1056667 18.623,9.765 C18.9076667,9.42433333 19.127,9.009 19.281,8.519 C19.435,8.029 19.512,7.48066667 19.512,6.874 C19.512,6.30466667 19.4373333,5.77966667 19.288,5.299 C19.1386667,4.81833333 18.9263333,4.403 18.651,4.053 C18.3756667,3.703 18.0396667,3.43 17.643,3.234 C17.2463333,3.038 16.8006667,2.94 16.306,2.94 C15.298,2.94 14.542,3.36466667 14.038,4.214 L14.038,4.214 L13.996,4.214 L13.996,3.15 L11.882,3.15 L11.882,13.076 L14.08,13.076 Z M15.718,9.128 C15.158,9.128 14.7333333,8.925 14.444,8.519 C14.1546667,8.113 14.01,7.588 14.01,6.944 C14.01,6.62666667 14.045,6.33266667 14.115,6.062 C14.185,5.79133333 14.29,5.55333333 14.43,5.348 C14.57,5.14266667 14.745,4.98166667 14.955,4.865 C15.165,4.74833333 15.41,4.69 15.69,4.69 C16.2313333,4.69 16.6326667,4.89766667 16.894,5.313 C17.1553333,5.72833333 17.286,6.272 17.286,6.944 C17.286,7.616 17.1506667,8.148 16.88,8.54 C16.6093333,8.932 16.222,9.128 15.718,9.128 Z M22.816,13.076 L22.816,11.298 C22.816,10.8966667 22.809,10.5606667 22.795,10.29 C22.781,10.0193333 22.7646667,9.814 22.746,9.674 L22.746,9.674 L22.774,9.674 C22.9886667,10.038 23.285,10.3226667 23.663,10.528 C24.041,10.7333333 24.4773333,10.836 24.972,10.836 C25.4666667,10.836 25.917,10.7426667 26.323,10.556 C26.729,10.3693333 27.0743333,10.1056667 27.359,9.765 C27.6436667,9.42433333 27.863,9.009 28.017,8.519 C28.171,8.029 28.248,7.48066667 28.248,6.874 C28.248,6.30466667 28.1733333,5.77966667 28.024,5.299 C27.8746667,4.81833333 27.6623333,4.403 27.387,4.053 C27.1116667,3.703 26.7756667,3.43 26.379,3.234 C25.9823333,3.038 25.5366667,2.94 25.042,2.94 C24.034,2.94 23.278,3.36466667 22.774,4.214 L22.774,4.214 L22.732,4.214 L22.732,3.15 L20.618,3.15 L20.618,13.076 L22.816,13.076 Z M24.454,9.128 C23.894,9.128 23.4693333,8.925 23.18,8.519 C22.8906667,8.113 22.746,7.588 22.746,6.944 C22.746,6.62666667 22.781,6.33266667 22.851,6.062 C22.921,5.79133333 23.026,5.55333333 23.166,5.348 C23.306,5.14266667 23.481,4.98166667 23.691,4.865 C23.901,4.74833333 24.146,4.69 24.426,4.69 C24.9673333,4.69 25.3686667,4.89766667 25.63,5.313 C25.8913333,5.72833333 26.022,6.272 26.022,6.944 C26.022,7.616 25.8866667,8.148 25.616,8.54 C25.3453333,8.932 24.958,9.128 24.454,9.128 Z M32.952,10.836 C33.54,10.836 34.0766667,10.7356667 34.562,10.535 C35.0473333,10.3343333 35.4603333,10.0566667 35.801,9.702 C36.1416667,9.34733333 36.4053333,8.92966667 36.592,8.449 C36.7786667,7.96833333 36.872,7.448 36.872,6.888 C36.872,6.328 36.7786667,5.80766667 36.592,5.327 C36.4053333,4.84633333 36.1416667,4.42866667 35.801,4.074 C35.4603333,3.71933333 35.0473333,3.44166667 34.562,3.241 C34.0766667,3.04033333 33.54,2.94 32.952,2.94 C32.3546667,2.94 31.8133333,3.04033333 31.328,3.241 C30.8426667,3.44166667 30.4273333,3.71933333 30.082,4.074 C29.7366667,4.42866667 29.4706667,4.84633333 29.284,5.327 C29.0973333,5.80766667 29.004,6.328 29.004,6.888 C29.004,7.448 29.0973333,7.96833333 29.284,8.449 C29.4706667,8.92966667 29.7366667,9.34733333 30.082,9.702 C30.4273333,10.0566667 30.8426667,10.3343333 31.328,10.535 C31.8133333,10.7356667 32.3546667,10.836 32.952,10.836 Z M32.938,9.24 C32.378,9.24 31.9533333,9.023 31.664,8.589 C31.3746667,8.155 31.23,7.588 31.23,6.888 C31.23,6.17866667 31.3746667,5.60466667 31.664,5.166 C31.9533333,4.72733333 32.378,4.508 32.938,4.508 C33.4886667,4.508 33.911,4.72733333 34.205,5.166 C34.499,5.60466667 34.646,6.17866667 34.646,6.888 C34.646,7.588 34.499,8.155 34.205,8.589 C33.911,9.023 33.4886667,9.24 32.938,9.24 Z M40.176,10.598 L40.176,7.14 C40.176,6.412 40.3556667,5.86366667 40.715,5.495 C41.0743333,5.12633333 41.5526667,4.94666667 42.15,4.956 C42.2993333,4.956 42.4533333,4.97 42.612,4.998 L42.612,4.998 L42.668,4.998 L42.668,3.08 C42.584,3.04266667 42.43,3.024 42.206,3.024 C41.7393333,3.024 41.338,3.136 41.002,3.36 C40.666,3.584 40.3766667,3.95733333 40.134,4.48 L40.134,4.48 L40.092,4.48 L40.092,3.15 L37.978,3.15 L37.978,10.598 L40.176,10.598 Z M46.728,10.682 C47.0266667,10.682 47.2833333,10.668 47.498,10.64 C47.7126667,10.612 47.8806667,10.5886667 48.002,10.57 L48.002,10.57 L48.002,8.932 L47.89,8.932 C47.8153333,8.94133333 47.7313333,8.94833333 47.638,8.953 C47.5446667,8.95766667 47.4606667,8.96 47.386,8.96 C47.1246667,8.96 46.9216667,8.911 46.777,8.813 C46.6323333,8.715 46.56,8.526 46.56,8.246 L46.56,8.246 L46.56,4.55 L48.016,4.55 L48.016,3.15 L46.56,3.15 L46.56,0.77 L44.404,0.77 L44.404,3.15 L43.284,3.15 L43.284,4.55 L44.404,4.55 L44.404,8.722 C44.404,9.10466667 44.46,9.41966667 44.572,9.667 C44.684,9.91433333 44.8426667,10.115 45.048,10.269 C45.2533333,10.423 45.4983333,10.5303333 45.783,10.591 C46.0676667,10.6516667 46.3826667,10.682 46.728,10.682 Z M51.726,10.808 C52.2393333,10.808 52.6733333,10.7053333 53.028,10.5 C53.3826667,10.2946667 53.6953333,9.97266667 53.966,9.534 L53.966,9.534 L54.008,9.534 L54.008,10.598 L56.094,10.598 L56.094,3.15 L53.924,3.15 L53.924,7.364 C53.924,7.83066667 53.798,8.21333333 53.546,8.512 C53.294,8.81066667 52.944,8.96 52.496,8.96 C52.104,8.96 51.8076667,8.848 51.607,8.624 C51.4063333,8.4 51.306,8.078 51.306,7.658 L51.306,7.658 L51.306,3.15 L49.108,3.15 L49.108,8.078 C49.108,8.89933333 49.332,9.55966667 49.78,10.059 C50.228,10.5583333 50.8766667,10.808 51.726,10.808 Z M59.748,10.598 L59.748,6.398 C59.748,5.922 59.8786667,5.53 60.14,5.222 C60.4013333,4.914 60.7466667,4.76 61.176,4.76 C61.5866667,4.76 61.897,4.88366667 62.107,5.131 C62.317,5.37833333 62.422,5.70733333 62.422,6.118 L62.422,6.118 L62.422,10.598 L64.606,10.598 L64.606,5.698 C64.606,4.858 64.3796667,4.18833333 63.927,3.689 C63.4743333,3.18966667 62.8373333,2.94 62.016,2.94 C61.4933333,2.94 61.0383333,3.052 60.651,3.276 C60.2636667,3.5 59.9533333,3.836 59.72,4.284 L59.72,4.284 L59.678,4.284 L59.678,3.15 L57.55,3.15 L57.55,10.598 L59.748,10.598 Z M68.218,2.1 L68.218,0.182 L65.992,0.182 L65.992,2.1 L68.218,2.1 Z M68.204,10.598 L68.204,3.15 L66.006,3.15 L66.006,10.598 L68.204,10.598 Z M72.67,10.682 C72.9686667,10.682 73.2253333,10.668 73.44,10.64 C73.6546667,10.612 73.8226667,10.5886667 73.944,10.57 L73.944,10.57 L73.944,8.932 L73.832,8.932 C73.7573333,8.94133333 73.6733333,8.94833333 73.58,8.953 C73.4866667,8.95766667 73.4026667,8.96 73.328,8.96 C73.0666667,8.96 72.8636667,8.911 72.719,8.813 C72.5743333,8.715 72.502,8.526 72.502,8.246 L72.502,8.246 L72.502,4.55 L73.958,4.55 L73.958,3.15 L72.502,3.15 L72.502,0.77 L70.346,0.77 L70.346,3.15 L69.226,3.15 L69.226,4.55 L70.346,4.55 L70.346,8.722 C70.346,9.10466667 70.402,9.41966667 70.514,9.667 C70.626,9.91433333 70.7846667,10.115 70.99,10.269 C71.1953333,10.423 71.4403333,10.5303333 71.725,10.591 C72.0096667,10.6516667 72.3246667,10.682 72.67,10.682 Z M76.73,13.09 C77.0846667,13.09 77.3973333,13.0503333 77.668,12.971 C77.9386667,12.8916667 78.1813333,12.761 78.396,12.579 C78.6106667,12.397 78.802,12.159 78.97,11.865 C79.138,11.571 79.2966667,11.2093333 79.446,10.78 L79.446,10.78 L82.106,3.15 L79.922,3.15 L79.012,6.006 C78.928,6.258 78.8486667,6.53333333 78.774,6.832 C78.6993333,7.13066667 78.6293333,7.41066667 78.564,7.672 C78.4893333,7.98 78.4193333,8.288 78.354,8.596 L78.354,8.596 L78.326,8.596 C78.27,8.29733333 78.2093333,7.994 78.144,7.686 C78.088,7.42466667 78.0226667,7.14233333 77.948,6.839 C77.8733333,6.53566667 77.794,6.258 77.71,6.006 L77.71,6.006 L76.758,3.15 L74.448,3.15 L76.758,9.1 C76.8886667,9.436 76.9866667,9.737 77.052,10.003 C77.1173333,10.269 77.15,10.4673333 77.15,10.598 C77.1033333,11.102 76.7486667,11.354 76.086,11.354 L76.086,11.354 L75.722,11.354 C75.638,11.354 75.561,11.3516667 75.491,11.347 C75.421,11.3423333 75.3813333,11.34 75.372,11.34 L75.372,11.34 L75.26,11.34 L75.26,13.062 C75.2693333,13.062 75.3486667,13.0643333 75.498,13.069 C75.6473333,13.0736667 75.8106667,13.0783333 75.988,13.083 C76.1653333,13.0876667 76.3286667,13.09 76.478,13.09 L76.73,13.09 Z" id="Opportunity"></path>
                <path d="M17.408,41.3980011 L17.408,37.0460011 L6.976,37.0460011 L6.976,36.9500011 C7.424,36.3953345 7.96266667,35.8833345 8.592,35.4140011 C9.22133333,34.9446678 9.88266667,34.4860011 10.576,34.0380011 C11.2693333,33.5900011 11.9626667,33.1313345 12.656,32.6620011 C13.3493333,32.1926678 13.9946667,31.6913345 14.592,31.1580011 C15.424,30.4540011 16.1066667,29.6486678 16.64,28.7420011 C17.1733333,27.8353345 17.44,26.7206678 17.44,25.3980011 C17.44,24.3740011 17.2586667,23.4246678 16.896,22.5500011 C16.5333333,21.6753345 16,20.9073345 15.296,20.2460011 C14.592,19.5846678 13.728,19.0673345 12.704,18.6940011 C11.68,18.3206678 10.5066667,18.1340011 9.184,18.1340011 C7.41333333,18.1340011 5.92,18.4220011 4.704,18.9980011 C3.488,19.5740011 2.54933333,20.3420011 1.888,21.3020011 C1.35466667,22.0486678 0.965333333,22.8540011 0.72,23.7180011 C0.474666667,24.5820011 0.352,25.5900011 0.352,26.7420011 L0.352,26.7420011 L5.312,26.7420011 C5.312,26.0593345 5.39733333,25.4353345 5.568,24.8700011 C5.73866667,24.3046678 6.00533333,23.8193345 6.368,23.4140011 C6.944,22.7100011 7.82933333,22.3580011 9.024,22.3580011 C10.0266667,22.3580011 10.8,22.6513345 11.344,23.2380011 C11.888,23.8246678 12.16,24.5980011 12.16,25.5580011 C12.16,26.3686678 11.9573333,27.0513345 11.552,27.6060011 C11.1466667,28.1606678 10.5706667,28.7046678 9.824,29.2380011 C9.248,29.6646678 8.63466667,30.0966678 7.984,30.5340011 C7.33333333,30.9713345 6.68266667,31.4300011 6.032,31.9100011 C5.38133333,32.3900011 4.74666667,32.8913345 4.128,33.4140011 C3.50933333,33.9366678 2.93333333,34.4860011 2.4,35.0620011 C1.65333333,35.9153345 1.072,36.8326678 0.656,37.8140011 C0.24,38.7953345 0.0213333333,39.9900011 2.27373675e-13,41.3980011 L2.27373675e-13,41.3980011 L17.408,41.3980011 Z M29.568,41.9420011 C31.0613333,41.9420011 32.4213333,41.6646678 33.648,41.1100011 C34.8746667,40.5553345 35.9253333,39.7606678 36.8,38.7260011 C37.6746667,37.6913345 38.3466667,36.4380011 38.816,34.9660011 C39.2853333,33.4940011 39.52,31.8513345 39.52,30.0380011 C39.52,28.2246678 39.2853333,26.5820011 38.816,25.1100011 C38.3466667,23.6380011 37.68,22.3846678 36.816,21.3500011 C35.952,20.3153345 34.9066667,19.5206678 33.68,18.9660011 C32.4533333,18.4113345 31.0933333,18.1340011 29.6,18.1340011 C28.128,18.1340011 26.784,18.4113345 25.568,18.9660011 C24.352,19.5206678 23.3066667,20.3153345 22.432,21.3500011 C21.5573333,22.3846678 20.88,23.6380011 20.4,25.1100011 C19.92,26.5820011 19.68,28.2246678 19.68,30.0380011 C19.68,31.8513345 19.92,33.4940011 20.4,34.9660011 C20.88,36.4380011 21.5573333,37.6913345 22.432,38.7260011 C23.3066667,39.7606678 24.3466667,40.5553345 25.552,41.1100011 C26.7573333,41.6646678 28.096,41.9420011 29.568,41.9420011 Z M29.6,37.8140011 C28.7893333,37.8140011 28.1013333,37.6273345 27.536,37.2540011 C26.9706667,36.8806678 26.5013333,36.3526678 26.128,35.6700011 C25.7546667,34.9873345 25.4826667,34.1660011 25.312,33.2060011 C25.1413333,32.2460011 25.056,31.1900011 25.056,30.0380011 C25.056,28.8646678 25.1413333,27.7980011 25.312,26.8380011 C25.4826667,25.8780011 25.7546667,25.0566678 26.128,24.3740011 C26.5013333,23.6913345 26.9706667,23.1580011 27.536,22.7740011 C28.1013333,22.3900011 28.7893333,22.1980011 29.6,22.1980011 C30.4106667,22.1980011 31.104,22.3900011 31.68,22.7740011 C32.256,23.1580011 32.7253333,23.6913345 33.088,24.3740011 C33.4506667,25.0566678 33.7173333,25.8780011 33.888,26.8380011 C34.0586667,27.7980011 34.144,28.8646678 34.144,30.0380011 C34.144,31.2113345 34.0586667,32.2726678 33.888,33.2220011 C33.7173333,34.1713345 33.4506667,34.9873345 33.088,35.6700011 C32.7253333,36.3526678 32.256,36.8806678 31.68,37.2540011 C31.104,37.6273345 30.4106667,37.8140011 29.6,37.8140011 Z M51.04,41.9420011 C52.2346667,41.9420011 53.3706667,41.7980011 54.448,41.5100011 C55.5253333,41.2220011 56.4746667,40.7900011 57.296,40.2140011 C58.1173333,39.6380011 58.768,38.9073345 59.248,38.0220011 C59.728,37.1366678 59.968,36.0860011 59.968,34.8700011 C59.968,33.3340011 59.568,32.1020011 58.768,31.1740011 C57.968,30.2460011 56.8426667,29.5793345 55.392,29.1740011 L55.392,29.1740011 L55.392,29.1100011 C56.5866667,28.7046678 57.5306667,28.1393345 58.224,27.4140011 C58.9173333,26.6886678 59.264,25.7286678 59.264,24.5340011 C59.264,23.5313345 59.0613333,22.6300011 58.656,21.8300011 C58.2506667,21.0300011 57.68,20.3580011 56.944,19.8140011 C56.208,19.2700011 55.3333333,18.8540011 54.32,18.5660011 C53.3066667,18.2780011 52.192,18.1340011 50.976,18.1340011 C49.568,18.1340011 48.3253333,18.3260011 47.248,18.7100011 C46.1706667,19.0940011 45.2533333,19.6166678 44.496,20.2780011 C43.7386667,20.9393345 43.1626667,21.7180011 42.768,22.6140011 C42.3733333,23.5100011 42.1653333,24.4700011 42.144,25.4940011 L42.144,25.4940011 L47.008,25.4940011 C47.0293333,25.0460011 47.1253333,24.6140011 47.296,24.1980011 C47.4666667,23.7820011 47.7066667,23.4140011 48.016,23.0940011 C48.3253333,22.7740011 48.72,22.5126678 49.2,22.3100011 C49.68,22.1073345 50.24,22.0060011 50.88,22.0060011 C51.8826667,22.0060011 52.6773333,22.2620011 53.264,22.7740011 C53.8506667,23.2860011 54.144,23.9686678 54.144,24.8220011 C54.144,25.7606678 53.808,26.4700011 53.136,26.9500011 C52.464,27.4300011 51.5413333,27.6700011 50.368,27.6700011 L50.368,27.6700011 L49.12,27.6700011 L49.12,31.3180011 L50.496,31.3180011 C51.84,31.3180011 52.8746667,31.5846678 53.6,32.1180011 C54.3253333,32.6513345 54.688,33.4513345 54.688,34.5180011 C54.688,35.5846678 54.352,36.4166678 53.68,37.0140011 C53.008,37.6113345 52.064,37.9100011 50.848,37.9100011 C50.08,37.9100011 49.424,37.8033345 48.88,37.5900011 C48.336,37.3766678 47.888,37.0886678 47.536,36.7260011 C47.184,36.3633345 46.9173333,35.9420011 46.736,35.4620011 C46.5546667,34.9820011 46.4426667,34.4646678 46.4,33.9100011 L46.4,33.9100011 L41.472,33.9100011 C41.4933333,35.1260011 41.728,36.2566678 42.176,37.3020011 C42.624,38.3473345 43.3066667,39.2326678 44.224,39.9580011 C45.056,40.5980011 46.0266667,41.0886678 47.136,41.4300011 C48.2453333,41.7713345 49.5466667,41.9420011 51.04,41.9420011 Z M72.032,41.9420011 C73.5253333,41.9420011 74.8853333,41.6646678 76.112,41.1100011 C77.3386667,40.5553345 78.3893333,39.7606678 79.264,38.7260011 C80.1386667,37.6913345 80.8106667,36.4380011 81.28,34.9660011 C81.7493333,33.4940011 81.984,31.8513345 81.984,30.0380011 C81.984,28.2246678 81.7493333,26.5820011 81.28,25.1100011 C80.8106667,23.6380011 80.144,22.3846678 79.28,21.3500011 C78.416,20.3153345 77.3706667,19.5206678 76.144,18.9660011 C74.9173333,18.4113345 73.5573333,18.1340011 72.064,18.1340011 C70.592,18.1340011 69.248,18.4113345 68.032,18.9660011 C66.816,19.5206678 65.7706667,20.3153345 64.896,21.3500011 C64.0213333,22.3846678 63.344,23.6380011 62.864,25.1100011 C62.384,26.5820011 62.144,28.2246678 62.144,30.0380011 C62.144,31.8513345 62.384,33.4940011 62.864,34.9660011 C63.344,36.4380011 64.0213333,37.6913345 64.896,38.7260011 C65.7706667,39.7606678 66.8106667,40.5553345 68.016,41.1100011 C69.2213333,41.6646678 70.56,41.9420011 72.032,41.9420011 Z M72.064,37.8140011 C71.2533333,37.8140011 70.5653333,37.6273345 70,37.2540011 C69.4346667,36.8806678 68.9653333,36.3526678 68.592,35.6700011 C68.2186667,34.9873345 67.9466667,34.1660011 67.776,33.2060011 C67.6053333,32.2460011 67.52,31.1900011 67.52,30.0380011 C67.52,28.8646678 67.6053333,27.7980011 67.776,26.8380011 C67.9466667,25.8780011 68.2186667,25.0566678 68.592,24.3740011 C68.9653333,23.6913345 69.4346667,23.1580011 70,22.7740011 C70.5653333,22.3900011 71.2533333,22.1980011 72.064,22.1980011 C72.8746667,22.1980011 73.568,22.3900011 74.144,22.7740011 C74.72,23.1580011 75.1893333,23.6913345 75.552,24.3740011 C75.9146667,25.0566678 76.1813333,25.8780011 76.352,26.8380011 C76.5226667,27.7980011 76.608,28.8646678 76.608,30.0380011 C76.608,31.2113345 76.5226667,32.2726678 76.352,33.2220011 C76.1813333,34.1713345 75.9146667,34.9873345 75.552,35.6700011 C75.1893333,36.3526678 74.72,36.8806678 74.144,37.2540011 C73.568,37.6273345 72.8746667,37.8140011 72.064,37.8140011 Z" id="2030"></path>
            </g>
        </g>
    </g>
</svg>