<?xml version="1.0" encoding="UTF-8"?>
<svg viewBox="0 0 105 24" version="1.1" xmlns="http://www.w3.org/2000/svg" xmlns:xlink="http://www.w3.org/1999/xlink">
    <!-- Generator: Sketch 57.1 (83088) - https://sketch.com -->
    <title>logo-trade20</title>
    <desc>Created with Sketch.</desc>
    <defs>
        <polygon id="path-1" points="0 0.0046 8.42256 0.0046 8.42256 22.1061 0 22.1061"></polygon>
        <polygon id="path-3" points="0.08329 0.07511 15.68819 0.07511 15.68819 17.9 0.08329 17.9"></polygon>
        <polygon id="path-5" points="0.03351 0.00093 15.57301 0.00093 15.57301 23.8 0.03351 23.8"></polygon>
        <polygon id="path-7" points="0.05252 0.07511 15.078108 0.07511 15.078108 17.9 0.05252 17.9"></polygon>
        <polygon id="path-9" points="0.08213 0.0009 16.86233 0.0009 16.86233 23.31025 0.08213 23.31025"></polygon>
        <polygon id="path-11" points="0.04429 0.0009 16.82449 0.0009 16.82449 23.76726 0.04429 23.76726"></polygon>
    </defs>
    <g id="v9" stroke="none" stroke-width="1" fill="none" fill-rule="evenodd">
        <g id="logo-trade20">
            <g id="Group-3" transform="translate(0.000000, 1.499100)">
                <mask id="mask-2" fill="white">
                    <use xlink:href="#path-1"></use>
                </mask>
                <g id="Clip-2"></g>
                <path d="M4.99476,5.0647 L8.42256,5.0647 L8.42256,6.795 L4.99476,6.795 L4.99476,18.156 C4.99476,19.4944 5.19066,20.2779 6.65966,20.3758 C7.24716,20.3758 7.83496,20.3433 8.42256,20.2779 L8.42256,22.0409 C7.80236,22.0409 7.21476,22.1061 6.59436,22.1061 C3.85206,22.1061 2.90536,21.192 2.93806,18.319 L2.93806,6.795 L-4e-05,6.795 L-4e-05,5.0647 L2.93806,5.0647 L2.93806,0.0046 L4.99476,0.0046 L4.99476,5.0647 Z" id="Fill-1" fill="#FFFFFF" mask="url(#mask-2)"></path>
            </g>
            <path d="M10.9037,6.5638 L12.7973,6.5638 L12.7973,10.5141 L12.8626,10.5141 C13.9073,7.8045 16.1924,6.2047 19.2287,6.3354 L19.2287,8.3921 C15.5068,8.1963 12.9606,10.9385 12.9606,14.4316 L12.9606,23.4094 L10.9037,23.4094 L10.9037,6.5638 Z" id="Fill-4" fill="#FFFFFF"></path>
            <g id="Group-8" transform="translate(19.700000, 5.999100)">
                <mask id="mask-4" fill="white">
                    <use xlink:href="#path-3"></use>
                </mask>
                <g id="Clip-7"></g>
                <path d="M11.77059,8.20391 L11.70529,8.20391 C11.44439,8.69361 10.53009,8.85701 9.97499,8.95481 C6.48209,9.57521 2.13999,9.54261 2.13999,12.83971 C2.13999,14.89641 3.96829,16.16971 5.89449,16.16971 C9.02839,16.16971 11.80349,14.17821 11.77059,10.88101 L11.77059,8.20391 Z M0.80159,5.72301 C0.99759,1.77271 3.77229,0.07511 7.62479,0.07511 C10.59549,0.07511 13.82749,0.98921 13.82749,5.49431 L13.82749,14.43951 C13.82749,15.22281 14.21909,15.68001 15.03529,15.68001 C15.26399,15.68001 15.52489,15.61461 15.68819,15.54931 L15.68819,17.27961 C15.23109,17.37751 14.90479,17.41021 14.34979,17.41021 C12.26039,17.41021 11.93389,16.23491 11.93389,14.47201 L11.86859,14.47201 C10.43239,16.65941 8.96299,17.90001 5.73119,17.90001 C2.62959,17.90001 0.08329,16.36551 0.08329,12.97041 C0.08329,8.23661 4.68649,8.07341 9.12639,7.55101 C10.82389,7.35521 11.77059,7.12681 11.77059,5.26591 C11.77059,2.49101 9.77919,1.80541 7.36339,1.80541 C4.81719,1.80541 2.92359,2.98051 2.85829,5.72301 L0.80159,5.72301 Z" id="Fill-6" fill="#FFFFFF" mask="url(#mask-4)"></path>
            </g>
            <g id="Group-11" transform="translate(36.400000, 0.099100)">
                <mask id="mask-6" fill="white">
                    <use xlink:href="#path-5"></use>
                </mask>
                <g id="Clip-10"></g>
                <path d="M7.60731,22.06973 C11.98181,22.06973 13.51631,18.38063 13.51631,14.88753 C13.51631,11.39433 11.98181,7.70533 7.60731,7.70533 C3.68971,7.70533 2.09021,11.39433 2.09021,14.88753 C2.09021,18.38063 3.68971,22.06973 7.60731,22.06973 L7.60731,22.06973 Z M15.57301,23.31023 L13.67961,23.31023 L13.67961,20.11083 L13.61431,20.11083 C12.73291,22.29823 10.05581,23.80003 7.60731,23.80003 C2.48191,23.80003 0.03351,19.65393 0.03351,14.88753 C0.03351,10.12123 2.48191,5.97513 7.60731,5.97513 C10.12111,5.97513 12.56961,7.24833 13.45111,9.66403 L13.51631,9.66403 L13.51631,0.00093 L15.57301,0.00093 L15.57301,23.31023 Z" id="Fill-9" fill="#FFFFFF" mask="url(#mask-6)"></path>
            </g>
            <g id="Group-14" transform="translate(54.500000, 5.999100)">
                <mask id="mask-8" fill="white">
                    <use xlink:href="#path-7"></use>
                </mask>
                <g id="Clip-13"></g>
                <path d="M13.01302,7.81231 C12.91512,4.71071 10.98902,1.80541 7.65902,1.80541 C4.29652,1.80541 2.43562,4.74341 2.10922,7.81231 L13.01302,7.81231 Z M2.10922,9.54261 C2.14182,12.54601 3.70892,16.16971 7.65902,16.16971 C10.66242,16.16971 12.29482,14.40681 12.94772,11.86031 L15.00442,11.86031 C14.12292,15.68001 11.90302,17.90001 7.65902,17.90001 C2.30502,17.90001 0.05252,13.78641 0.05252,8.98751 C0.05252,4.54771 2.30502,0.07511 7.65902,0.07511 C13.07832,0.07511 15.23282,4.80871 15.06952,9.54261 L2.10922,9.54261 Z" id="Fill-12" fill="#FFFFFF" mask="url(#mask-8)"></path>
            </g>
            <g id="Group-17" transform="translate(70.500000, 0.099100)">
                <mask id="mask-10" fill="white">
                    <use xlink:href="#path-9"></use>
                </mask>
                <g id="Clip-16"></g>
                <path d="M0.60463,9.23965 C0.44123,4.01625 3.41213,0.00085 8.89673,0.00085 C13.07543,0.00085 16.73173,2.67775 16.73173,7.15025 C16.73173,10.57835 14.90343,12.47165 12.65093,14.07145 C10.39843,15.67095 7.72133,16.97685 6.05653,19.32735 L16.86233,19.32735 L16.86233,23.31025 L0.08213,23.31025 C0.11483,18.02145 3.34683,15.76905 7.29713,13.09185 C9.32113,11.72075 12.06343,10.31695 12.09583,7.50935 C12.09583,5.35495 10.65943,3.98355 8.66823,3.98355 C5.92583,3.98355 5.04443,6.82385 5.04443,9.23965 L0.60463,9.23965 Z" id="Fill-15" fill="#3F9C34" mask="url(#mask-10)"></path>
            </g>
            <g id="Group-20" transform="translate(88.200000, 0.099100)">
                <mask id="mask-12" fill="white">
                    <use xlink:href="#path-11"></use>
                </mask>
                <g id="Clip-19"></g>
                <path d="M8.40189,19.94776 C12.18879,19.94776 12.18879,14.36526 12.18879,11.78606 C12.18879,9.40296 12.18879,3.82046 8.40189,3.82046 C4.68009,3.82046 4.68009,9.40296 4.68009,11.78606 C4.68009,14.36526 4.68009,19.94776 8.40189,19.94776 M8.40189,0.00086 C12.97219,0.00086 16.82449,2.87376 16.82449,11.78606 C16.82449,20.89446 12.97219,23.76726 8.40189,23.76726 C3.89649,23.76726 0.04429,20.89446 0.04429,11.78606 C0.04429,2.87376 3.89649,0.00086 8.40189,0.00086" id="Fill-18" fill="#3F9C34" mask="url(#mask-12)"></path>
            </g>
        </g>
    </g>
</svg>