<?xml version="1.0" encoding="utf-8"?>
<!-- Generator: Adobe Illustrator 24.0.1, SVG Export Plug-In . SVG Version: 6.00 Build 0)  -->
<svg version="1.1" id="Layer_1" xmlns="http://www.w3.org/2000/svg" xmlns:xlink="http://www.w3.org/1999/xlink" x="0px" y="0px"
	 viewBox="0 0 28.021 24.462" style="enable-background:new 0 0 28.021 24.462;" xml:space="preserve">
<style type="text/css">
	.st0{fill:none;stroke:#FFFFFF;stroke-width:1.3343;stroke-linecap:round;stroke-linejoin:round;}
</style>
<title>icon-report</title>
<desc>Created with Sketch.</desc>
<g id="Opportunity-2030">
	<g id="homepage-scrolled" transform="translate(-267.000000, -506.000000)">
		<g id="Group-8" transform="translate(255.000000, 493.000000)">
			<g id="icon-report" transform="translate(12.800000, 14.250000)">
				<path id="Shape" class="st0" d="M9.652,18.987c1.965,0,3.558,1.593,3.558,3.558V2.975c0-1.965-1.593-3.558-3.558-3.558h-9.785
					v19.57H9.652z M13.21,2.975c0-1.965,1.593-3.558,3.558-3.558h9.785v19.57h-9.785c-1.965,0-3.558,1.593-3.558,3.558"/>
				<path id="Shape_1_" class="st0" d="M3.425,3.865h6.227 M3.425,7.423h6.227 M3.425,10.981h6.227 M3.425,14.539h6.227
					 M16.768,3.865h6.227 M16.768,7.423h6.227 M16.768,10.981h6.227 M16.768,14.539h6.227"/>
			</g>
		</g>
	</g>
</g>
</svg>
