<svg height="25" viewBox="0 0 17 25" width="17" xmlns="http://www.w3.org/2000/svg"><g fill="none" fill-rule="evenodd"><path d="m8.5 24.4642857c-.187 0-.374-.1785714-.374-.3571428l-1.309-9.2857143c-3.553-.7142857-6.171-3.75-6.171-7.14285717 0-3.92857143 3.553-7.32142857 7.854-7.32142857s8.041 3.21428571 8.041 7.32142857c0 3.39285717-2.618 6.42857147-6.171 7.14285717l-1.309 9.2857143c-.187.3571428-.374.3571428-.561.3571428z" fill="#fff"/><path d="m8.5.89285714c4.114 0 7.48 3.03571429 7.48 6.78571429 0 3.39285717-2.618 6.07142857-6.171 6.78571427l-1.309 9.6428572-1.309-9.6428572c-3.553-.5357143-6.171-3.3928571-6.171-6.78571427 0-3.75 3.366-6.78571429 7.48-6.78571429m0-.89285714c-4.675 0-8.415 3.39285714-8.415 7.67857143 0 3.57142857 2.618 6.60714287 6.171 7.49999997l1.309 9.1071429c0 .3571428.374.7142857.935.7142857s.935-.3571429.935-.7142857l1.309-9.1071429c3.74-.8928571 6.171-3.9285714 6.171-7.49999997 0-4.28571429-3.74-7.67857143-8.415-7.67857143z" fill="#2c3844" fill-rule="nonzero"/></g></svg>