<?xml version="1.0" encoding="UTF-8"?>
<svg width="24px" height="24px" viewBox="0 0 24 24" version="1.1" xmlns="http://www.w3.org/2000/svg" xmlns:xlink="http://www.w3.org/1999/xlink">
    <title>foundation / icon / 24px / Settings - line</title>
    <g id="foundation-/-icon-/-24px-/-Settings---line" stroke="none" stroke-width="1" fill="none" fill-rule="evenodd">
        <polygon id="24pt-Bounding-Box" opacity="0" fill-rule="nonzero" points="0 0 24 0 24 24 0 24"></polygon>
        <path d="M13.2100001,2.00000209 C13.8112211,2.00162227 14.3870201,2.24273709 14.8100001,2.67000209 L14.81,2.67000203 C15.250295,3.11779303 15.494866,3.72202203 15.49,4.35000203 L15.4899999,4.63000706 C15.4797108,5.18923406 15.7358449,5.72005706 16.1800039,6.06000706 L16.2900039,6.14000702 C16.7455399,6.48160402 17.3393839,6.57871202 17.8800039,6.40000702 L18.2200039,6.290007 C19.4047739,5.897276 20.6835839,6.539348 21.0763139,7.724117 C21.0846526,7.7492725 21.0925481,7.7745728 21.0999969,7.8000061 L21.889997,10.3200064 C22.26989,11.5303364 21.625036,12.8244564 20.429997,13.2500064 L20.2299971,13.3200064 C19.6824419,13.4993045 19.2494299,13.9173718 19.0488495,14.4515383 L18.999997,14.6000066 C18.838923,15.1601596 18.9302184,15.7627066 19.249997,16.2500066 L19.5099971,16.6300067 C20.2258491,17.6689967 20.0064861,19.0860867 19.0099971,19.8600067 L16.9999971,21.4100066 C16.0173091,22.1615276 14.6114571,21.9741296 13.8599371,20.9914416 C13.8321607,20.9551213 13.805503,20.9179589 13.7800013,20.8800066 L13.6600013,20.7100066 C13.3573549,20.2551884 12.8618003,19.9704595 12.3228415,19.9335629 L12.1600014,19.9300066 C11.5880494,19.9448182 11.0572014,20.2306586 10.7300014,20.7000066 L10.5000014,21.0300066 C10.1897435,21.4948233 9.7190165,21.8256458 9.18151366,21.9618806 L9.00000138,22.0000021 C8.91354205,22.0084752 8.82666849,22.0112997 8.73993301,22.0084753 L8.61000008,22.0000021 C8.12202408,21.9971192 7.64821108,21.835672 7.26000008,21.54 L5.19000032,20.0000021 C4.24326019,19.2618445 4.00425762,17.9404954 4.60800337,16.9231686 L4.70000033,16.7800002 C5.07059133,16.2327902 5.15613533,15.5410002 4.93000033,14.9200002 L4.87000038,14.7600004 C4.71257038,14.1980034 4.29651838,13.7448004 3.75000038,13.5400004 L3.59000044,13.5400004 C2.37431044,13.1312104 1.71424044,11.8199904 2.11000044,10.6000004 L2.93000041,8.00000209 C3.06743941,7.45151096 3.41183989,6.98038908 3.88690908,6.68268176 L4.05000015,6.59000063 C4.51227215,6.35181752 5.04330702,6.29109061 5.54389895,6.41490572 L5.73000014,6.47000063 C6.33479014,6.67354163 7.00109014,6.56498683 7.51000014,6.18000063 L7.64000012,6.08000064 C8.09957712,5.71329164 8.36805512,5.15794864 8.37000012,4.57000064 L8.37000013,4.33000209 C8.36440347,3.05643209 9.38652013,2.01646209 10.6600001,2.00000209 L13.2100001,2.00000209 Z M13.200003,3.99999161 L10.660003,3.99999161 C10.489127,4.01066625 10.359253,4.15783605 10.36992,4.32871105 L10.3700031,4.58040324 C10.3700031,5.79043324 9.8083481,6.93191324 8.8496831,7.67024324 L8.71968319,7.77024317 C7.74441731,8.51278623 6.48143046,8.75242304 5.30846671,8.4277478 L5.08968319,8.36024317 C5.05940206,8.3500801 5.02746097,8.34669241 4.9960732,8.3500801 L4.94968318,8.36024317 C4.89324678,8.39452867 4.85074398,8.44765717 4.82968318,8.51024317 L4.00000417,11.1199932 C3.93985797,11.3047862 4.03723217,11.5039602 4.22000417,11.5699932 L4.39999973,11.6199999 C5.54515973,12.0283459 6.42842973,12.9561499 6.77999973,14.1199999 L6.77999969,14.2399998 C7.19068844,15.3747404 7.06589037,16.6297681 6.44976312,17.6575717 L6.31999967,17.8599998 C6.18898067,18.0047558 6.18898067,18.2252438 6.31999971,18.3699998 L8.4699997,19.9999916 C8.5785797,20.0852873 8.7357407,20.0664046 8.8210287,19.9578242 C8.82797064,19.9489863 8.8343087,19.9396904 8.8399999,19.9299998 L9.06999987,19.5999999 C10.2548899,17.8879199 12.6033499,17.4605399 14.3154399,18.6454369 C14.6884679,18.9036009 15.0118389,19.2269719 15.2700029,19.5999999 L15.3900028,19.7799998 C15.4186614,19.8206626 15.456737,19.8532319 15.5005175,19.8752332 L15.5700028,19.8999998 C15.6375057,19.9099604 15.7061468,19.891897 15.7600028,19.8499998 L17.8200028,18.2899998 C17.9697298,18.1711568 18.0004648,17.9560128 17.8900028,17.7999998 L17.630003,17.42 C16.9895366,16.486088 16.7770122,15.3279694 17.0370347,14.2334526 L17.100003,13.9999916 C17.456632,12.7770998 18.385233,11.8037498 19.590003,11.3899998 L19.790003,11.3199998 C19.963515,11.2504935 20.048382,11.0539588 19.980003,10.8799998 L19.200003,8.38999982 C19.1716202,8.32396749 19.1238618,8.26882978 19.0638439,8.2313471 L19.000003,8.19999983 C18.9402911,8.16971073 18.869715,8.16971073 18.810003,8.19999981 L18.4700028,8.30999989 C17.3024828,8.69532889 16.0201428,8.48222989 15.0400028,7.73999989 L15.000003,7.64999959 C14.060735,6.93868259 13.509203,5.82821959 13.510003,4.64999959 L13.510003,4.33999905 C13.5113606,4.2677106 13.4915181,4.19716545 13.4536972,4.13674044 L13.410003,4.07999905 C13.3524724,4.02800615 13.277545,3.99946235 13.200003,3.99999161 Z M11.9999998,8.5 C13.8685665,8.5 15.3951265,9.96427444 15.494821,11.8079645 L15.4999998,12 C15.4999998,13.8685667 14.0357254,15.3951267 12.1920354,15.4948211 L11.9999998,15.5 C10.0669998,15.5 8.49999985,13.933 8.49999985,12 C8.49999985,10.067 10.0669998,8.5 11.9999998,8.5 Z M11.9999999,10.5 C11.1715729,10.5 10.4999999,11.171573 10.4999999,12 C10.4999999,12.828427 11.1715729,13.5 11.9999999,13.5 C12.7796959,13.5 13.4204486,12.9051118 13.4931334,12.14446 L13.4999999,12 C13.4999999,11.220304 12.9051117,10.5795513 12.1444599,10.5068666 L11.9999999,10.5 Z" id="Fill" fill="#0473EA"></path>
    </g>
</svg>