<?xml version="1.0" encoding="UTF-8"?>
<svg viewBox="0 0 15 18" version="1.1" xmlns="http://www.w3.org/2000/svg" xmlns:xlink="http://www.w3.org/1999/xlink">
    <!-- Generator: Sketch 57.1 (83088) - https://sketch.com -->
    <title>zoom-reset</title>
    <desc>Created with Sketch.</desc>
    <g id="v9" stroke="none" stroke-width="1" fill="none" fill-rule="evenodd">
        <g id="zoom-reset" fill="#364655" fill-rule="nonzero">
            <path d="M7.5,2.15272959 L7.5,0 L3.64595477,3.42887755 L7.5,6.8559949 L7.5,4.54132653 C10.3310795,4.54132653 12.6270692,6.85247449 12.6270692,9.7022449 C12.6270692,12.5520153 10.3310795,14.8631633 7.5,14.8631633 C4.66892049,14.8631633 2.37293075,12.5520153 2.37293075,9.7022449 C2.37293075,9.01752551 2.50582886,8.3644898 2.74714386,7.76602041 L0.514105852,6.95104592 C0.181860574,7.80298469 0,8.73237245 0,9.7022449 C0,13.8704082 3.35742597,17.25 7.5,17.25 C11.642574,17.25 15,13.8704082 15,9.70048469 C15,5.53232143 11.642574,2.15272959 7.5,2.15272959 Z" id="Path"></path>
        </g>
    </g>
</svg>