<?xml version="1.0" encoding="UTF-8"?>
<svg width="24px" height="24px" viewBox="0 0 24 24" version="1.1" xmlns="http://www.w3.org/2000/svg" xmlns:xlink="http://www.w3.org/1999/xlink">
    <title>foundation / icon / 24px / Calendar - fill</title>
    <g id="foundation-/-icon-/-24px-/-Calendar---fill" stroke="none" stroke-width="1" fill="none" fill-rule="evenodd">
        <polygon id="24pt-Bounding-Box" opacity="0" fill-rule="nonzero" points="0 0 24 0 24 24 0 24"></polygon>
        <path d="M17.9999999,4 L16.9999999,4 L16.9999999,3 L16.9999999,3 C16.9999999,2.447715 16.552285,2 15.9999999,2 C15.447715,2 14.9999999,2.447715 14.9999999,3 L14.9999999,4 L8.99999987,4 L8.99999987,3 L8.99999987,3 C8.99999987,2.447715 8.552285,2 7.99999987,2 C7.447715,2 6.99999987,2.447715 6.99999987,3 L6.99999987,4 L5.99999987,4 L5.99999987,4 C4.34314987,4 2.99999987,5.34315 2.99999987,7 C2.99999987,7 2.99999987,7 2.99999987,7 L2.99999987,19 L2.99999987,19 C2.99999987,20.6568495 4.34314987,22 5.99999987,22 L17.9999999,22 L17.9999999,22 C19.6568497,22 20.9999999,20.6568495 20.9999999,19 L20.9999999,7 L20.9999999,7 C20.9999999,5.34314955 19.6568497,4 17.9999999,4 L17.9999999,4 Z M7.99999996,17 L7.99999996,17 C7.44771496,17 6.99999996,16.552285 6.99999996,16 C6.99999996,15.447715 7.44771496,15 7.99999996,15 C8.55228496,15 8.99999996,15.447715 8.99999996,16 L8.99999996,16 C8.99999996,16.552285 8.55228496,17 7.99999996,17 L7.99999996,17 Z M16,17 L12,17 L12,17 C11.447715,17 11,16.552285 11,16 C11,15.447715 11.447715,15 12,15 L16,15 L16,15 C16.552285,15 17,15.447715 17,16 C17,16.552285 16.552285,17 16,17 L16,17 Z M19,11.0000002 L5,11.0000002 L5,7.00000015 L5,7.00000015 C5,6.44771515 5.447715,6.00000015 6,6.00000015 L7,6.00000015 L7,7.00000015 L7,7.00000015 C7,7.5522853 7.447715,8.00000015 8,8.00000015 C8.552285,8.00000015 9,7.5522853 9,7.00000015 L9,6.00000015 L15,6.00000015 L15,7.00000015 L15,7.00000015 C15,7.55228545 15.447715,8.00000015 16,8.00000015 C16.552285,8.00000015 17,7.55228545 17,7.00000015 L17,6.00000015 L18,6.00000015 L18,6.00000015 C18.552285,6.00000015 19,6.44771545 19,7.00000015 L19,11.0000002 Z" id="Fill" fill="#0473EA"></path>
    </g>
</svg>